<?xml version="1.0" encoding="UTF-8"?>
<svg id="Layer_2" data-name="Layer 2" xmlns="http://www.w3.org/2000/svg" viewBox="0 0 177.4 153.54">
  <defs>
    <style>
      .cls-1 {
        fill: #fff;
      }
    </style>
  </defs>
  <g id="_图层_1" data-name="图层 1">
    <path class="cls-1" d="M50.76,145.85c-.19-.27-.7-.27-.89-.54s-3.52,1.69-3.71,1.42-.5-.45-.7-.72,3.61-3.38,3.41-3.65-4.38,2.31-4.58,2.04.99-1.52.8-1.79-1.29.11-1.49-.16,2.8-2.81,2.61-3.08-2.21.76-2.4.49-.32-.59-.51-.86.18-.94-.01-1.21-2.7,1.11-2.89.84,2.3-2.45,2.11-2.72-1.43.2-1.62-.07,2.5-2.6,2.31-2.87-.77-.26-.96-.53-3.21,1.47-3.4,1.2,1.83-2.12,1.63-2.39-.7-.32-.89-.59-1.97.59-2.16.32-2.12.7-2.32.43-.54-.43-.73-.7,2.38-2.51,2.19-2.78-.4-.53-.59-.8.27-1,.07-1.27-2.08.67-2.27.4,2.06-2.28,1.87-2.55-.13-.72-.32-.99-.99-.11-1.18-.38-3.03,1.34-3.23,1.07.96-1.5.77-1.77.97-1.5.78-1.77-4.06,2.07-4.25,1.8.53-1.19.33-1.46,1.58-1.93,1.39-2.2-.98-.12-1.17-.39-1.35.14-1.54-.13.69-1.3.5-1.57,2.11-2.31,1.92-2.58-4.79,2.58-4.98,2.31-.17-.69-.36-.96,2.1-2.29,1.91-2.56-1.51.26-1.71-.01.32-1.04.13-1.31,1.59-1.93,1.4-2.2-4.95,2.67-5.14,2.4,1.09-1.58.9-1.85c-.19-.27,2.4-2.48,2.21-2.74s-4.18,2.12-4.36,1.85,1.29-1.69,1.1-1.96-2.53.95-2.71.68.69-1.27.5-1.54,1.21-1.62,1.03-1.89-2.38.84-2.56.57,2.91-2.77,2.72-3.04-.89-.18-1.07-.45.84-1.36.65-1.63-4.08,1.98-4.27,1.71,1.39-1.73,1.21-2,.65-1.23.46-1.5-.38-.53-.56-.8-2.97,1.22-3.15.95,2.07-2.19,1.88-2.46-1.96.54-2.15.27-1.01-.1-1.19-.37-.62-.37-.8-.64,2.42-2.43,2.23-2.7-1.95.54-2.13.27-.04-.76-.23-1.03,1.23-1.64,1.04-1.91-4.02,1.97-4.2,1.7,1.92-2.12,1.73-2.39-3.17,1.41-3.36,1.14,2.39-2.46,2.2-2.73-3.19,1.44-3.38,1.17-.14-.69-.32-.96.78-1.35.59-1.61.74-1.33.55-1.59.86-1.42.66-1.68c-.19-.27-4.33,2.12-4.5,1.85-.18-.28,3.84-3.1,3.69-3.37-.16-.29-.08-.52-.21-.8-.14-.3-3.35.67-3.45.37s.34-.89.27-1.19-1.42-.61-1.45-.93,2.72-.78,2.73-1.1-2.13-.93-2.07-1.25-1.27-1.23-1.17-1.54,5.46,1.3,5.59,1c.12-.28-.77-.86-.62-1.15.14-.27-.29-.79-.11-1.07.16-.26-2.44-2.43-2.25-2.7.19-.27,3.51,1.67,3.7,1.41s.9-.17,1.09-.43,1.12-.01,1.31-.28-.8-1.37-.61-1.63-3.27-3.1-3.08-3.37,5.02,2.73,5.21,2.47-3.07-2.96-2.88-3.23,2.06.65,2.25.38-2.19-2.34-2-2.61,3.73,1.82,3.91,1.55,1.51.26,1.7-.01-3.95-3.57-3.76-3.84,3.58,1.71,3.76,1.44-2.71-2.7-2.52-2.97,2.59,1.02,2.78.75-1.35-1.75-1.16-2.02,1.57.3,1.76.03-.97-1.48-.79-1.75,1.98.59,2.17.32,2.63,1.04,2.82.77-.19-.93,0-1.2-.6-1.22-.42-1.49,1.92.54,2.11.27.52-.44.71-.71.21-.65.4-.92-1.68-1.97-1.49-2.24,2.34.83,2.52.56-.82-1.37-.63-1.64,1.15,0,1.34-.26-1.68-1.97-1.49-2.24,1.8.46,1.99.19-.6-1.22-.41-1.49,1.48.23,1.67-.04.23-.64.42-.91.3-.59.48-.86-2.36-2.45-2.17-2.71,4.11,2.07,4.3,1.8-2.93-2.84-2.74-3.11,1.84.48,2.03.21.45-.49.64-.76,1.8.46,1.99.19-2.45-2.51-2.27-2.78-.35-1.04-.16-1.31.57-.4.76-.67-.18-.92.01-1.19,2.58,1,2.77.73-1.46-1.82-1.28-2.09,3,1.29,3.19,1.02,1.48.23,1.67-.04-2.67-2.66-2.48-2.93.38-.53.57-.8,3.79,1.83,3.97,1.56-4.24-3.75-4.05-4.02.63-.36.82-.63,2.5.94,2.69.67-.63-1.23-.44-1.5,1.88.51,2.07.24,2.3.8,2.48.53-3.56-3.27-3.38-3.54,1.59.31,1.78.04-1.28-1.69-1.09-1.96.41-.52.59-.79,1.46.22,1.65-.05,2,.59,2.19.32.03-.78.22-1.05-.07-.85.12-1.12,1.95.55,2.14.29-.23-.96-.05-1.23.4-.52.59-.79-.86-1.39-.67-1.66-1.97-2.17-1.79-2.44.97-.12,1.16-.39,1.26.08,1.45-.19.6-.38.79-.65,2.64,1.04,2.83.77.14-.7.33-.97,1.67.36,1.86.09-4.29-3.78-4.1-4.04,3.67,1.75,3.86,1.48,1.53.26,1.72,0c.19-.27-1.67-1.9-1.47-2.14.21-.25.85.01,1.08-.2s-1.76-3.15-1.51-3.34,2.57,2.54,2.85,2.38-.62-2.77-.33-2.89,1.21,1.26,1.53,1.17.37-1.61.69-1.66.92,2.1,1.25,2.08.58-.92.91-.92c.33,0,.66.96.99.96s.66,1.59.99,1.59.67-2.48,1-2.48.67-1.45,1-1.45.65,3.7.98,3.7.66.41.99.41.67-5.15,1-5.15.65,3.23.99,3.23.66-.89.99-.89.66.31.99.31.66,1.44.99,1.44.66-2.63,1-2.63.66,4.28.99,4.28.66-.73.99-.73S71.58,0,71.91,0s.66,3.69.99,3.69.66-.68.99-.68.66-1.21.99-1.21.66-.54.99-.54.66,1.9.99,1.9.66.05.99.05.66-2.53.99-2.53.66,3.6.99,3.6.66-3.33,1-3.33.66,5.11.99,5.11.67-3.88,1-3.88.66-.36.99-.36.66.17.99.17.66.41.99.41.66-.38.99-.38.67-1.8,1-1.8.66,2.4.99,2.4.65,2.93.98,2.93.66.57.99.57.68-3.55,1.01-3.55.65,2.14.98,2.14.66.08.99.09.67-1.08,1-1.08.67-1.66,1-1.65.65,2.07.98,2.07.67-.86,1-.86c.3,0,.57-1.36.89-1.37s.61-.92.92-.93.63,3.31.94,3.32.66-1.11.96-1.07,1.2-1.72,1.49-1.62-1.11,3.77-.85,3.94,2.15-1.88,2.36-1.64c.19.22-2.79,2.28-2.64,2.58.15.3,3.46-.86,3.53-.58.07.31-.14.78-.15,1.08s-1.78.18-1.87.48.48.67.34.95-1.93-.61-2.11-.35,2.53,2.44,2.35,2.69-2.81-1.33-3-1.09,1.34,1.8,1.17,2.05c-.19.27-1.44-.22-1.63.04s1.21,1.66,1.02,1.92.22.96.03,1.22-1.58-.32-1.76-.06-1.11.01-1.3.28-.69.3-.88.57-1.41-.21-1.6.05-.18.67-.37.94-.56.4-.75.67,2.6,2.67,2.41,2.94-.06.76-.25,1.03-.73.28-.92.54-.95.12-1.14.38-2.6-1.07-2.79-.81,2.8,2.83,2.61,3.09-.92.14-1.11.4,1.13,1.62.94,1.89-1.56-.33-1.75-.06-3.17-1.49-3.36-1.22-.33.56-.52.83-.38.53-.57.8,2.72,2.77,2.53,3.04-4.05-2.12-4.25-1.86.5,1.17.31,1.43,2.55,2.64,2.36,2.9-3.34-1.6-3.53-1.33-.58.39-.77.65,1.66,2,1.47,2.26-1.55-.3-1.74-.04.3,1.02.11,1.28-.21.65-.4.92.25.98.07,1.25.02.81-.17,1.08.43,1.1.24,1.37-1.12,0-1.31.27-3.7-1.8-3.88-1.54,3.69,3.39,3.5,3.66-3.96-1.97-4.14-1.71,3.3,3.09,3.11,3.36-2.5-.95-2.69-.68-.37.54-.55.81-2.24-.75-2.43-.48,1.04,1.51.85,1.78,1.33,1.7,1.15,1.97-1.2-.03-1.38.24c-.19.28.37,1.04.2,1.29-.19.28-1.8-.39-1.96-.13-.18.29.21.92.05,1.18-.18.3,1.76,1.69,1.63,1.95-.17.32.09.48-.02.75-.14.35.18-.04.15.23-.04.37-1.28-.9-1.1-.65.16.22-1.49,2.28-1.13,2.42.26.1.44,1.79.8,1.85.29.05,1.12-3.83,1.47-3.8.3.02.43,2.94.77,2.95.3.01.7-3.13,1.04-3.13.31,0,.6-.53.94-.53.31,0,.62.38.95.37.33,0,.66.67.99.67s.67,2.39,1,2.38.66-.19.98-.19.65-.98.98-.98.65-1,.98-1,.66.97.99.97.64-2.78.97-2.78.67,2.83,1,2.83.67,1.96,1,1.95.65-2.54.97-2.54.66.24.99.24.66,1.42.99,1.42.65-1.75.98-1.75.67,3.25,1,3.25.63-4.96.96-4.96.67,3.18,1,3.17.65-.87.98-.87.65-1.04.98-1.04.65-1.83.98-1.83.67,1.7.99,1.7.68,4.13,1,4.13.66-.11.99-.11.65-1.67.98-1.67.65-1.73.98-1.73.67,2.22,1,2.22.64-4.43.96-4.43.66,1.34.99,1.33.67,2.54,1,2.53.64-3.46.97-3.46.66.02.99.01.67,3.41,1,3.41.64-3.45.97-3.45.67,3.26,1,3.26.64-3.45.97-3.45.66.16.99.16.68,4.27,1.01,4.27.66.27.99.27.66,1.01.99,1.01.63-5.53.96-5.53.66.4.99.4.67,2.28,1,2.28.67,2.43,1,2.43.64-2.27.97-2.27.67,1.49.99,1.48.65-.56.98-.56.65-1.56.98-1.56.66.16.99.16.65-1.94.97-1.94.69,5.04,1.02,5.04.64-2.35.97-2.35.65-1.15.98-1.15.67,1.51,1,1.51.66-.3.98-.3.65-.92.98-.92.68,2.67,1,2.66.63-3.71.96-3.72.65-1.17.98-1.18.68,2.83,1.01,2.83.67,2.34,1,2.33.63-4.08.96-4.08.65-.77.98-.77.65-.54.98-.55.66.58.99.57.65-.37.98-.37.66.4.99.39.7,4.65,1.03,4.65.63-3.62.95-3.62.64-2.14.97-2.14.66.63.99.63.7,5.15,1.03,5.15.65-.43.98-.43.65-.82.98-.83.66.38.99.37.61-4.46.94-4.46.67,1.04,1,1.04.67.99,1,.99.67.82.99.81.62-3.21.95-3.22.66-.03.98-.03.68,2.06,1.01,2.05.64-1.34.97-1.35.7,4.06,1.03,4.06.67.84,1,.84.63-2.01.96-2.01.62-3.4.94-3.4.65-.46.98-.46.66-.04.98-.05.67,1.35,1,1.34c.35,0,.8-.98,1.12-.96.35.01.58,2.76.9,2.79.35.04.71-.1,1.03-.04.35.07,0,2.33.3,2.42.33.11.44-.13.73.01.31.16.94-.7,1.19-.5s-1.18,1.52-.98,1.79.69-.24.84.07c.14.29-.42.45-.32.78.09.3,5.18-.52,5.24-.18.05.31-4.16,1.19-4.13,1.54.02.32,2.6.51,2.61.86,0,.32,1.51.75,1.5,1.1-.01.33-4.04.54-4.05.87s2.92.75,2.92,1.09-2.42.61-2.42.94,1.32.7,1.32,1.03,2.25.7,2.25,1.04-2.67.63-2.67.96-2.88.64-2.88.98,2.16.69,2.16,1.02-.88.67-.88,1,3.54.68,3.54,1.01-.54.66-.54,1-1.43.67-1.43,1,2.27.66,2.27,1-4.67.69-4.67,1.02,1.81.66,1.81,1,.09.67.1,1,3,.65,3,.98-3.36.69-3.36,1.02.2.67.2,1,.68.66.68,1-2.43.68-2.43,1.02,3.99.65,3.99.98-1.38.68-1.38,1.01-.17.67-.16,1,.17.67.17,1-.5.67-.5,1-1.75.66-1.75,1-.51.66-.51,1c0,.35,4.3.72,4.3,1.05,0,.35-2.79.61-2.8.93-.01.35.54.69.52,1.01-.02.35.67.74.63,1.05-.04.35,1.47.99,1.41,1.3-.07.35-3.61-.25-3.71.05-.11.34,1.34,1.1,1.19,1.37-.17.3-.54.28-.77.52s-1.62-1.76-1.91-1.59c-.27.16,1.4,4.01,1.07,4.13-.29.1-1.05-1.14-1.4-1.06-.31.07-.52.84-.87.89-.31.04-.54,1.71-.89,1.74-.32.02-.93-4.85-1.28-4.84-.32.01-.5,4.7-.85,4.7-.32,0-.7-4.17-1.05-4.17-.33,0-.66.23-.99.23s-.66.97-.99.97-.66-.51-.99-.51-.65,3.4-.98,3.4-.67-3.64-1-3.64-.65,4.59-.98,4.59-.66-.75-.99-.75-.67-3.33-1-3.33-.66-.52-.99-.52-.66-.27-.99-.27-.65,4.24-.98,4.24-.67-3.43-1-3.43-.66-1.22-.99-1.22-.65,3.8-.98,3.8-.66,1.81-.99,1.81-.66-3.98-.99-3.98-.66-2.04-.99-2.04-.66,3.33-.99,3.33-.66,2.06-.99,2.06-.66-2.95-.99-2.95-.66.66-.99.66-.66,1.04-.99,1.04-.66,1.87-.99,1.87-.66-3.06-.99-3.06-.66-.8-.99-.8-.66.42-.99.42-.66-1.09-.99-1.09-.66,4.14-.99,4.14-.66.32-.99.32-.66-3.75-.99-3.75-.66,1.51-.99,1.51-.66,1.47-.99,1.47-.66-3.84-.99-3.84-.66,1.44-.99,1.44-.66-1.01-.99-1.01-.66.4-.99.4-.66,2.1-.99,2.1-.66-3.39-.99-3.39-.66,1.61-.99,1.61-.66,3.43-.99,3.43-.66-5.74-.99-5.74-.66,2.41-.99,2.41-.66,1.85-.99,1.85-.66-.64-.99-.64-.66.21-.99.21-.66-2.41-.99-2.41-.66,3.63-.99,3.63-.66-3-.99-3-.66-.08-.99-.08-.66,2.16-.99,2.16-.66-3.56-.99-3.56-.66,2.3-.99,2.3-.66-2.93-.99-2.93-.66,4.84-.99,4.84-.66-4.15-.99-4.15-.66.93-.99.93-.66-.37-.99-.37-.66,3.72-.99,3.72-.67-4.07-1-4.07-.66,2.04-.99,2.04-.66-.35-.99-.35-.66,2.69-.99,2.69-.66-.87-.99-.87-.66-2-.99-2-.66-1.24-.99-1.24-.66.17-.99.17-.66.33-.99.33-.65,2.52-.98,2.52-.66.16-.99.17-.66,1.15-.99,1.15-.67-3.39-1-3.39-.65,3.24-.98,3.24-.66.61-.99.61-.68-5.13-1.01-5.13-.66-.1-.99-.1-.64,3.72-.97,3.72-.67-2.42-1-2.42-.67-1.87-1-1.87-.64,4.62-.97,4.63-.67-2.93-1-2.93-.65,1.22-.98,1.23c-.33,0-.67-.13-1.02-.16-.33-.02-.74.56-1.09.52s-.97,2.29-1.31,2.24-.33-2.99-.67-3.03-.79,1.25-1.13,1.22-.52-3.98-.86-3.99c-.35,0-.96-.2-1.3-.18-.35.03-1.15.04-1.47.12-.34.08,1.42,5.74,1.12,5.89s-2.55-2.92-2.79-2.67c-.23.23,1.35,1.64,1.19,1.97-.16.33.05.25,0,.58s-3.25.8-3.19,1.14,2.79-.06,2.93.26c.13.3-1.05,1.26-.86,1.56.17.28.6.45.8.73s.26.68.48.95.14.8.36,1.06,1.63-.52,1.85-.26-1.07,1.84-.85,2.1,1.9-.7,2.11-.44c.22.27,1.31,0,1.49.26.19.27-2.55,2.56-2.37,2.83s1.95-.56,2.13-.29,2.91-1.23,3.1-.97-2.38,2.45-2.19,2.72-1.18,1.61-.99,1.88,4.6-2.41,4.79-2.15-2.27,2.38-2.09,2.65,1.81-.47,1.99-.2-2.6,2.61-2.41,2.88,1.64-.35,1.83-.09,1.92-.55,2.11-.28-2.77,2.74-2.59,3.01,1.42-.2,1.6.07,2.82-1.19,3.01-.92-3.06,2.94-2.87,3.21,4.29-2.22,4.48-1.95.19.66.38.93-1.99,2.19-1.8,2.46-1.08,1.56-.9,1.83,2.12-.7,2.31-.43-.65,1.25-.46,1.52-.81,1.37-.62,1.63,3.57-1.72,3.75-1.45,1.25-.08,1.44.18-2.52,2.57-2.33,2.84,1.6-.33,1.79-.06,2.16-.73,2.35-.46-3.51,3.28-3.33,3.54,1.27-.1,1.46.16-.41,1.08-.22,1.35.9.16,1.09.43,2.54-1,2.73-.73,1.54-.29,1.72-.02-2.5,2.56-2.31,2.82,2.06-.65,2.25-.39-.46,1.12-.27,1.39,1.71-.4,1.89-.14-3.19,3.04-3,3.31,2.78-1.16,2.97-.9.89.17,1.08.44.83.21,1.02.48c.19.27-2.35,2.48-2.15,2.75s.49.31.66.59,4.5-1.5,4.63-1.2-3.68,1.85-3.63,2.18.72.28.66.63c-.05.31-.93-.03-1.09.3-.16.33,1.07,1.21.85,1.44-.24.26-.42.42-.71.56s.09,3.49-.24,3.56-1.29-3.98-1.63-3.96-.61,0-.94-.02-.71-1.99-1.04-1.99c-.33,0-.66.04-.99.04s-.65,4.96-.98,4.96-.67-2.22-1-2.22-.66,3.37-.99,3.37-.66-.59-1-.59-.67-4.14-1-4.14-.66.63-.99.63-.66,3.93-.99,3.93-.67-3.34-1-3.34-.66-1.66-.99-1.66-.66,4.12-.99,4.12-.66-1.89-.99-1.89-.66-2.47-.99-2.47-.66,3.63-.99,3.63-.66-2.7-.99-2.7-.66,1.15-.99,1.15-.66.6-.99.6-.66.15-.99.15-.66-3.33-.99-3.33-.66,1.9-.99,1.9-.66,3.47-.99,3.47-.66-1.29-.99-1.29-.66-.12-.99-.12-.66,1.14-.99,1.14-.66-2.86-.99-2.86-.66,2.24-.99,2.24-.66-.44-.99-.44-.66-1.08-.99-1.08-.66,1.52-.99,1.52-.66.99-.99.99-.67-3.04-1-3.04-.66-.96-1-.96-.66-.31-.99-.31-.67-1.29-1-1.29-.65,5.15-.98,5.15-.67-1.41-1-1.41-.66-.45-.99-.45-.66-.07-.99-.07-.66.08-.99.08-.66-.52-1-.52-.67-.95-1-.95c-.34,0-.69,1.46-1.02,1.45s-.46-2.13-.78-2.17-1.16,3.19-1.48,3.13.44-4.5.12-4.59-.38-.06-.69-.18-1.81,2.7-2.11,2.55-1.52,1.02-1.8.83.94-2.47.68-2.68-2.25,1.35-2.49,1.1,2.04-2.65,1.83-2.92Z"/>
  </g>
</svg>