<?xml version="1.0" encoding="UTF-8"?>
<svg xmlns="http://www.w3.org/2000/svg" viewBox="0 0 159.2 121.1">
  <path fill="#fff" d="M125.39,26.17c-.32,0-.65.13-.96.14s-.71-.84-1.02-.82-.76-.7-1.07-.66-.16,3.85-.47,3.89-.68-.57-.99-.51-1.17-2.62-1.47-2.55-.83-.49-1.14-.41.27,3.54-.03,3.63-.9-.85-1.19-.75-1.54-2.45-1.84-2.34,1.12,1.25.83,1.37c-.11-.31-2.36,1.48-2.48,1.17s1.33-1.22,1.2-1.53,1.64-1.43,1.51-1.74-2.86.52-3,.22-1.96.22-2.1-.07,1.95-1.68,1.8-1.97.76-1.16.6-1.45-1.1-.17-1.26-.46.96-1.35.79-1.64-1.78.28-1.95,0,1.16-1.56.98-1.84-.53-.5-.72-.77-.89-.23-1.08-.49-3.46,1.77-3.66,1.51,2.27-2.59,2.07-2.84,0-.89-.21-1.14-.32-.64-.54-.89-1.48.42-1.7.17-.87-.08-1.1-.32-.23-.7-.46-.93-1.63.79-1.88.56-.74-.1-.98-.32,2.48-3.89,2.23-4.1-1.47.69-1.73.48.25-1.47,0-1.67-1.71,1.16-1.98.97-1.89,1.61-2.16,1.43,1.35-3.25,1.07-3.42-1.42,1.01-1.7.84.89-2.94.61-3.1-1.47,1.22-1.76,1.07-1.98,2.5-2.28,2.36,1.04-3.76.74-3.89-2.22,3.5-2.53,3.37,1.22-4.85.91-4.96-1.92,3.29-2.23,3.18-.97,1.01-1.28.91.53-4.03.21-4.12-.57-.62-.89-.7-1.67,4.29-1.99,4.22.37-5.17.05-5.23-1.11,2.38-1.44,2.33-.68.16-1.01.12-.76,1.12-1.08,1.09S83.18.03,82.85,0s-.72.02-1.05.01-.72,1.71-1.05,1.71-.58,2.77-.91,2.78-.63-.84-.96-.82-.8-2.07-1.13-2.04-.42,2.1-.75,2.14-.53.54-.86.59-.66-.29-.98-.23-.56.27-.88.34-1.12-2.01-1.44-1.93-1.05-1.25-1.36-1.16-.31,1.4-.62,1.5-.62.27-.93.38-.7.06-1.01.17-.77-.08-1.07.04-.14,1.37-.44,1.51-.58.3-.88.44-.69.08-.99.23-.29.83-.58.99-1.28-.9-1.57-.73-.14,1.05-.42,1.23.71,2.23.44,2.42-2.04-1.84-2.31-1.65-1.95-1.48-2.21-1.28,2.02,3.71,1.76,3.91.11,1.09-.15,1.3-1.25-.51-1.5-.29-2.75-2.03-2.99-1.81-.78.22-1.02.45.62,1.61.39,1.84,2.31,3.07,2.09,3.31-1.79-.79-2.01-.54-2.47-1.25-2.69-1-.99.1-1.2.36,1.15,1.78.95,2.04-1.88-.55-2.08-.28,3.09,3.01,2.91,3.28-4.06-1.95-4.24-1.67,3.25,2.88,3.07,3.16-4.24-1.82-4.41-1.53-.4.6-.56.89.96,1.34.8,1.63-.32.61-.47.9.1.81-.04,1.11.24.85.1,1.15.84,1.09.71,1.39-1.73-.02-1.85.29,1,1.1.88,1.41-2.87-.35-2.98-.04,1.31.41,1.21.73c-.29-.14-.34,1.03-.63.9s-1.07,1.01-1.37.89.13-2.04-.17-2.15-.01-2.04-.31-2.14-1.43,2.42-1.74,2.34-.71.31-1.02.23-.54-.32-.85-.38-.46-.85-.77-.91-.8,1.17-1.12,1.12-.23-3.41-.54-3.44-.66-.59-.98-.61-.85,3.66-1.17,3.65-.59.19-.91.19-.7-2.9-1.03-2.89-.61,1.4-.93,1.42-.62.35-.95.39-.35,2.07-.68,2.12-1.05-2.59-1.37-2.53-.32,1.67-.64,1.74-.58.22-.89.3-.87-.79-1.18-.7.18,2.58-.13,2.68-.6,0-.9.11-1.17-1.35-1.47-1.23-1.45-1.69-1.74-1.55-1.26-.98-1.55-.84,1.26,3.91.97,4.07-1.56-1.48-1.84-1.32-1.21-.67-1.49-.5,1.16,3.02.89,3.2-.77-.03-1.04.16,0,1.02-.27,1.22-2.99-2.72-3.25-2.52,1.45,2.78,1.2,3-1.16-.34-1.4-.11,1.28,2.26,1.05,2.49-1.1-.25-1.33-.02-1.33-.39-1.55-.14-.87.11-1.08.36-1.45-.33-1.66-.07.22,1.05.02,1.31.43,1.15.24,1.42,1.53,1.84,1.35,2.11-1.14-.04-1.31.24-1.28-.07-1.45.21-1.72-.25-1.88.03-.01.77-.17,1.06.51,1.02.36,1.31.87,1.14.73,1.44-1.21.14-1.34.44-1.83-.07-1.96.23,2.49,1.71,2.37,2.02-.29.55-.4.86-3.22-.43-3.32-.12-1.26.34-1.36.65,4.32,1.97,4.23,2.29.18.67.09.99-.1.59-.18.91-1.01.4-1.08.72.24.68.19,1,.39.68.34,1.01-1.38.42-1.42.74.43.68.39,1.01-3.79.28-3.82.61,2.17.85,2.14,1.18-1.21.6-1.23.93.45.69.44,1.02-1.67.67-1.67,1,4.01.62,4.01.94.54.59.56.92-3.69.86-3.67,1.18-.17.71-.14,1.03,2.5.42,2.54.74,1.28.47,1.33.79-3.48,1.18-3.42,1.5-.87.87-.81,1.19,2.02.31,2.09.63-1.86,1.12-1.78,1.44,4.35-.38,4.43-.06-.34.74-.25,1.06-2.1,1.31-2.01,1.63,2.28-.04,2.38.27-3.01,1.77-2.9,2.08,4.74-1.08,4.86-.78-.59.9-.46,1.2-3.5,2.26-3.37,2.56,1.63.02,1.77.32.11.72.25,1.01,3.49-1.11,3.65-.82.39.47.56.75-3,2.54-2.82,2.82,3.78-1.62,3.96-1.35-2.32,2.31-2.13,2.58-.46,1.17-.27,1.44,3.68-1.95,3.88-1.69-1.16,1.71-.96,1.97-1.25,1.94-1.04,2.19,2.48-1.3,2.7-1.06-.49,1.36-.27,1.6-.57,1.54-.33,1.77,1.12-.16,1.36.06-.14,1.22.1,1.43.42.63.67.83.33.76.59.96,3.4-3.48,3.66-3.29-1.57,3.41-1.3,3.59,2.19-2.19,2.47-2.01.62.14.9.3.27.76.56.92.27.85.56,1,.55.33.85.46,1.35-1.6,1.65-1.47.3.82.61.93-.47,3.3-.16,3.4,1.65-3.13,1.97-3.04-.13,2.86.19,2.94.49.94.81,1.01,1.13-2.28,1.45-2.22.57.41.89.46.47,1.53.8,1.57.91-3.09,1.23-3.07.43,3.86.76,3.87.71.79,1.04.79.7-1.07,1.02-1.09.49-2.83.82-2.86.58-.2.9-.24,1.05,3.17,1.37,3.12.35-2.02.67-2.08.8.69,1.12.62-.05-2.87.27-2.95,2.02,4.86,2.34,4.77.32-1.41.63-1.51.51-.65.82-.76.34-.99.64-1.11-.15-1.94.15-2.07,1.71,2.11,2,1.96.48-.55.77-.7,1.18.68,1.46.52-1.2-3.29-.92-3.46,2.86,3.19,3.13,3.01-1.41-3.25-1.15-3.44.3,2.25.56,2.06c.1.31.22-1.19.33-.88s0,.72.12,1.03,2.92-.47,3.04-.17-2.44,1.75-2.3,2.05,2.89-.61,3.03-.32-3.03,2.22-2.88,2.51,2.2-.39,2.36-.1-.67,1.13-.51,1.42,2.02-.43,2.19-.15,1.38-.14,1.55.13-.12.8.07,1.07-.49,1.1-.3,1.37.79.19.99.45-2.1,2.49-1.89,2.75-.17,1.08.04,1.33.97.11,1.19.35,3-1.89,3.23-1.66.65.21.89.44.13.74.38.97.78.04,1.03.25.66.13.92.34-2.21,3.83-1.95,4.03,1.41-.72,1.68-.53,2.46-2.43,2.73-2.25.06.98.34,1.15.49.34.77.5-.75,2.63-.46,2.79,1-.48,1.29-.33.86-.31,1.16-.17-.26,2.27.04,2.4,1.6-2.26,1.9-2.14.28,1.08.59,1.19.57.34.89.43-.03,2.72.29,2.8,1.56-3.63,1.88-3.56.09,2.85.42,2.91.75-.31,1.08-.27,1.05-3.36,1.38-3.33.4,2.19.73,2.21.55,2.33.88,2.34.72.93,1.05.93.59-4.6.91-4.62.74,2.11,1.06,2.09.78,1.1,1.11,1.07.32-2.74.64-2.79.8,1.04,1.12.98.71.23,1.03.16.42-1.03.73-1.11,1.14,1.64,1.45,1.55,1.02.88,1.33.77-.26-2.82.04-2.93.84.38,1.15.26,1.36,1.42,1.66,1.28.23-1.17.52-1.32-.27-1.97.02-2.12.17-.95.46-1.11.91.33,1.19.16.77.03,1.05-.15,1.56,1.09,1.83.9-.84-2.25-.58-2.45,2.39,1.95,2.64,1.75-1.84-3.23-1.59-3.44,2.89,2.27,3.14,2.04-2.21-3.29-1.97-3.52,2.83,1.92,3.06,1.68-.71-1.59-.48-1.83,2.42,1.24,2.64,1-3.1-3.47-2.9-3.73,3.95,2.31,4.15,2.05.7-.38.89-.64-2.71-2.75-2.52-3.02,3.03,1.24,3.21.96-2.76-2.53-2.59-2.81,3.63,1.4,3.8,1.12-2.29-2.06-2.13-2.35.75-.32.9-.61-1.56-1.47-1.42-1.77.32-.51.46-.81-.04-.66.09-.97,2.22.24,2.34-.06.9.4,1.01.09c.27.18-.36.49-.09.66s.86-.13,1.14.03.28.9.56,1.05-.04,1.65.25,1.79,2.68-4.18,2.97-4.05.21.99.51,1.11.61.07.91.18-.28,2.74.03,2.84,1.11-1.37,1.42-1.28.3,1.36.62,1.44.53.72.85.79.63.42.94.48.9-1.37,1.22-1.32.65.03.97.06.73-1.11,1.05-1.09.54,1.73.87,1.74.66,1.23.99,1.23.71-.11,1.04-.12.67-.62,1-.64.31-3.57.64-3.6,1.11,3.74,1.44,3.7.18-2.95.5-3,1.43,3.73,1.75,3.66-.56-5.16-.24-5.25.7.41,1.02.32,1.71,3.31,2.02,3.2.28-1.28.59-1.39.66-.16.96-.28.39-.76.69-.89-.39-2.27-.1-2.41,2.32,3.11,2.61,2.96.59-.39.87-.55-.24-1.71.04-1.89,0-1.16.28-1.34,2.25,2.08,2.52,1.89.77-.16,1.03-.36-1.26-2.69-1.01-2.9-.32-1.33-.07-1.55.59-.24.83-.47.89.05,1.12-.18,2.62,1.67,2.85,1.43.65-.37.87-.61-.98-1.79-.77-2.04,1.61.46,1.81.21-2.85-3.08-2.65-3.34.1-.65.3-.92.81-.15,1-.42.9-.12,1.08-.4.43-.46.6-.74.29-.54.46-.83,3.13,1,3.29.71.33-.62.48-.91-.25-.9-.11-1.19.43-.56.56-.86-2.66-1.86-2.53-2.17,2.27.23,2.39-.07-.24-.79-.13-1.1,2.11.02,2.22-.29-.17-.78-.07-1.1-2.16-1.33-2.07-1.64,2.41-.03,2.49-.35.06-.69.13-1.01-2.45-1.21-2.38-1.53,3.71.05,3.77-.27.54-.63.59-.95.07-.71.11-1.04-2.11-.96-2.07-1.28.86-.59.89-.91-3.59-.92-3.57-1.25,1.69-.52,1.7-.85.08-.63.09-.96.67-.64.67-.97-.9-.63-.91-.96-1.35-.57-1.36-.9.87-.66.85-.99.83-.7.8-1.02,1.55-.82,1.52-1.15-.05-.68-.09-1-3.74-.09-3.8-.41.77-.75.71-1.07,4.33-1.53,4.26-1.85-1.41-.41-1.48-.73-1.43-.35-1.51-.66.79-.91.7-1.23-.56-.54-.66-.86.98-1.04.88-1.35-.02-.74-.13-1.05-3.44.58-3.56.28.71-.98.58-1.28.4-.9.27-1.19-1.86.15-2-.15,1.27-1.35,1.12-1.64-1.81.22-1.97-.06.35-.93.19-1.21,1.34-1.58,1.17-1.86-3.35,1.35-3.53,1.07,2.51-2.46,2.33-2.73.64-1.32.45-1.59-3.92,2.1-4.12,1.84-.08-.72-.29-.97-1.29.3-1.51.05,1.8-2.44,1.58-2.68-2.61,1.6-2.84,1.36,2.28-3.18,2.05-3.41-2.37,1.55-2.61,1.33,1.4-2.56,1.16-2.77-.04-1.06-.29-1.27-1.27.48-1.53.28-1.26.58-1.53.39-1.16.57-1.43.39.23-1.53-.04-1.71-1.59,1.43-1.87,1.27-.85.33-1.14.18,1.25-3.82.96-3.96-1.4,1.4-1.7,1.26.54-2.98.24-3.11-1.29,1.37-1.6,1.25-1.55,2.53-1.86,2.43.09-2.34-.22-2.43-.14-2.11-.45-2.19-1.15,1.87-1.47,1.8-.99,1.84-1.32,1.78-.63.33-.95.28-.32-2.27-.65-2.31-.42-3.14-.75-3.16-.9,4.15-1.23,4.14-.6-2.07-.93-2.07Z"/>
</svg>
