<?xml version="1.0" encoding="UTF-8"?>
<svg id="Layer_2" data-name="Layer 2" xmlns="http://www.w3.org/2000/svg" viewBox="0 0 57.3 43.16">
  <defs>
    <style>
      .cls-1 {
        fill: #0242ff;
      }
    </style>
  </defs>
  <g id="_图层_1" data-name="图层 1">
    <path class="cls-1" d="M45.57,9.21c-1.31,0-2.57.26-3.75.73-2.09-5.84-7.02-9.94-12.78-9.94s-10.84,4.24-12.87,10.23c-1.37-.66-2.87-1.02-4.44-1.02C5.25,9.21,0,15.34,0,22.91s5.25,13.7,11.73,13.7c2.36,0,4.54-.82,6.38-2.22,1.7,5.12,5.95,8.76,10.93,8.76s8.99-3.42,10.78-8.31c1.7,1.12,3.66,1.76,5.74,1.76,6.48,0,11.73-6.13,11.73-13.7s-5.25-13.7-11.73-13.7Z"/>
  </g>
</svg>