<?xml version="1.0" encoding="UTF-8"?>
<svg id="Layer_2" data-name="Layer 2" xmlns="http://www.w3.org/2000/svg" viewBox="0 0 258.45 231.54">
  <defs>
    <style>
      .cls-1 {
        fill: #fff;
      }

      .cls-2 {
        fill: #0242ff;
      }

      .cls-3 {
        fill: #0042ff;
      }
    </style>
  </defs>
  <g id="_图层_1" data-name="图层 1">
    <g>
      <circle cx="115.77" cy="115.77" r="115.77"/>
      <circle class="cls-3" cx="115.77" cy="115.77" r="104.3"/>
      <g>
        <g>
          <g>
            <path class="cls-1" d="M208.01,104.3c-.25.02-.29,2.57-.54,2.59s-.51-.54-.76-.52-.47.03-.71.06-.73-1.91-.97-1.88-.4.73-.64.76-.4.56-.65.6-.78-1.52-1.02-1.47-.1,2.06-.34,2.11-.62-.57-.85-.52-.5,0-.74.06-.97-1.78-1.21-1.72.28,2.94.04,3-1.04-1.85-1.28-1.78-.39.46-.62.53.34,2.61.11,2.69-.97-1.36-1.2-1.28-1.05-1.44-1.28-1.35-.73-.45-.96-.36-.23,3.39-.46,3.48c-.11-.22.42-1.86.31-2.07s.54-.84.43-1.05-1.99.53-2.11.32.52-.83.4-1.04,0-.55-.13-.76-.83-.06-.95-.27.94-1.15.82-1.35.45-.88.32-1.08-1.99.72-2.12.52.14-.67,0-.87.84-1.19.71-1.38-.88.02-1.02-.18-1.41.45-1.56.26-.73-.03-.88-.22.15-.71,0-.9-.04-.58-.19-.76.71-1.22.56-1.4-1.63.76-1.78.57,1.37-1.85,1.21-2.03-2.35,1.48-2.51,1.3,1.65-2.19,1.48-2.37-2.44,1.67-2.61,1.5,1.45-2.1,1.28-2.27-1.19.51-1.36.34,1.01-1.76.83-1.92-2.7,2.19-2.88,2.03,1.91-2.83,1.73-2.99-.22-.52-.4-.68-2.22,1.84-2.4,1.68,1.16-2.15.97-2.3-2.11,1.84-2.3,1.69,1.39-2.55,1.2-2.7-1.75,1.49-1.94,1.34-.15-.59-.35-.73-1.28.97-1.47.83-.34-.31-.54-.44-.5-.07-.7-.2.49-1.59.29-1.72.12-1.08-.09-1.21-.31-.42-.52-.55-.63.11-.84-.02-.18-.67-.39-.79.11-1.21-.11-1.33-2.18,3-2.39,2.89-.12-.76-.34-.87-.47-.11-.68-.21.45-2.01.23-2.11-.96.91-1.18.8-.06-1.03-.28-1.13-.28-.59-.5-.68-.37-.39-.6-.48-.87.86-1.1.77-.46-.14-.69-.22-.75.66-.98.58-.03-1.35-.25-1.43-.18-1.02-.4-1.09-.5-.08-.73-.16-.6.27-.83.2-1.19,2.4-1.42,2.33.31-2.9.08-2.96-1.01,1.96-1.24,1.9.23-2.97,0-3.03-1.33,3.64-1.57,3.59-.35-.52-.59-.57.07-2.77-.16-2.82-.63.73-.87.69-.47-.15-.7-.18-.54.33-.78.29-.7,1.58-.93,1.54-.11-2.89-.35-2.92-.5-.01-.74-.04-.6,1.14-.84,1.12-.53.68-.77.67-.33-2.26-.57-2.28-.49-.27-.73-.28-.58,2.14-.82,2.13-.49.9-.73.9-.46-.16-.7-.16-.47-.48-.71-.48-.52-2.26-.76-2.25-.51-.15-.75-.14-.43,1.46-.67,1.47-.56-1.11-.8-1.09-.26,3.12-.5,3.14-.43.27-.67.29-.5-.38-.74-.36-.52-.45-.76-.42-.47-.03-.71,0-.46.09-.7.12-.85-2.3-1.09-2.26-.5.08-.73.12-.41.55-.64.59-.51-.01-.75.04.03,2.42-.21,2.48-.83-1.49-1.06-1.43-.38.48-.61.54-.85-1.32-1.09-1.26-.4.42-.64.49.05,1.89-.19,1.96-.97-1.51-1.2-1.44-.45.23-.68.31.18,2.03-.05,2.11-1.37-2.4-1.59-2.32-.59-.12-.81-.04-.46.21-.69.3.16,1.72-.07,1.81-.68-.36-.9-.26.66,2.69.44,2.79-.93-.93-1.15-.83-.45.16-.66.27-.65-.24-.86-.13-.12.81-.33.92.05,1.09-.16,1.21-.73-.37-.94-.26-.73-.34-.94-.22-1.03-.81-1.24-.68-.44.23-.64.36,1.05,2.59.85,2.72-.74-.31-.94-.18-2.28-2.56-2.48-2.42.12,1.08-.07,1.22.16,1.08-.04,1.22-.84-.32-1.03-.18-.22.53-.41.67-.97-.44-1.16-.29-.5.18-.69.33,1.24,2.29,1.05,2.44-.86-.28-1.04-.12-.72-.09-.9.07.51,1.29.33,1.46-1.23-.63-1.4-.47.52,1.26.35,1.42-.73-.08-.9.09-1.38-.69-1.55-.52,1.56,2.2,1.4,2.37-2.2-1.43-2.36-1.25-1.05-.28-1.21-.1,2.12,2.55,1.96,2.73-.52.16-.68.35.37.92.22,1.11-2.01-1.04-2.16-.86,1.45,1.77,1.3,1.95-2.57-1.39-2.71-1.2,1.35,1.63,1.21,1.82-2-.87-2.14-.67-.77.07-.91.27.43.9.3,1.1.49.91.36,1.11.45.86.32,1.06-1.15-.16-1.27.05,1.06,1.2.94,1.41.22.66.1.87-2.8-1.06-2.92-.85.98,1.1.87,1.31-2.17-.61-2.29-.39.93,1.04.82,1.26,1.73,1.39,1.62,1.61-1.72-.31-1.83-.09-1.56-.18-1.66.04,1.23,1.09,1.13,1.31,1.19,1.02,1.1,1.24.12.54.03.77-1.71-.18-1.8.05-2.33-.36-2.41-.13,2.77,1.53,2.69,1.76-.87.2-.95.43-1.16-1.02-1.23-.79c-.23-.08-.02,1.99-.25,1.91s.14-2.1-.09-2.17-.64.41-.88.35-1,1.82-1.23,1.76.05-2.13-.19-2.19-1,2.14-1.24,2.09.08-2.61-.15-2.66-.38-.66-.62-.71-.45-.37-.69-.41-.84,2.01-1.08,1.97-.62.99-.86.95-.25-1.71-.49-1.74-.33-1.49-.57-1.52-.48-.37-.72-.39-.77,3.41-1.01,3.39-.48.34-.72.32-.43-.66-.67-.67-.44-1.31-.68-1.31-.49-.36-.73-.37-.48.92-.72.92-.44,1.4-.68,1.41-.52-1.42-.76-1.41-.49-.11-.73-.09-.36,1.47-.6,1.49-.69-2.4-.93-2.38-.35,1.31-.59,1.33-.52-.35-.76-.32-.53-.33-.77-.3-.73-1.48-.97-1.44-.25,1.5-.48,1.55-.23,1.35-.46,1.39-.71-1.1-.95-1.05-.77-1.15-1-1.09-.34.74-.57.8-.11,1.51-.34,1.57-.8-1.09-1.03-1.02-.2,1.03-.43,1.1-.66-.48-.89-.41-.82-.89-1.05-.81-.36.49-.59.57.04,1.52-.18,1.6-.59-.2-.82-.11-.06,1.12-.28,1.21-.93-.96-1.15-.87-.79-.54-1.01-.44.07,1.3-.15,1.4-.63-.18-.84-.07.61,2.23.4,2.34-.78-.49-.99-.38-.88-.6-1.08-.48-1.38-1.39-1.58-1.27-.04.91-.25,1.04-.42.27-.62.4.84,2.18.64,2.32-.54.02-.74.16.08.92-.12,1.06-.37.26-.57.4-.91-.46-1.11-.31-1.15-.71-1.34-.56.11.91-.08,1.06-.94-.38-1.13-.23.24,1.02.05,1.18-.88-.27-1.06-.11,1.23,2.04,1.05,2.2-1.97-1.4-2.15-1.24,1.09,1.79.92,1.96-1.4-.73-1.57-.55-1.38-.64-1.55-.47.93,1.53.77,1.71.09.72-.06.9.09.69-.06.88-2.25-1.26-2.4-1.07-.49.25-.64.44.38.93.24,1.12,1.11,1.43.97,1.63-.15.46-.29.65-.9-.07-1.04.13.75,1.06.61,1.26-2.51-1.08-2.64-.88.13.66,0,.87-.86.05-.98.26-1.07-.04-1.19.17.4.81.28,1.02,1.13,1.17,1.02,1.38-1.84-.41-1.95-.19,1.27,1.18,1.16,1.4-1.25-.06-1.35.16,1.91,1.4,1.82,1.62-2-.36-2.1-.14-1.14.06-1.23.28,2.74,1.61,2.65,1.84-.45.32-.54.54-3.03-.58-3.11-.35,3.09,1.57,3.01,1.8-2.44-.29-2.51-.06,1.57.98,1.5,1.21-.98.21-1.04.44.62.66.56.89-1.46.13-1.51.36,1.11.75,1.06.98-2.13.04-2.18.27.18.55.14.78,1.89.83,1.85,1.07.41.53.38.77-2.76.08-2.79.32,3.3.9,3.27,1.14-1.08.34-1.1.58.04.47.02.71.85.52.83.76-.85.4-.86.64-.08.46-.08.7.32.47.32.71.49.46.49.7-.82.46-.81.7.47.45.48.69-1.38.52-1.37.76-1.45.57-1.44.81,1.3.4,1.32.64-.12.49-.1.73-1.32.64-1.29.87,3.42.07,3.45.3.24.42.28.66-1.14.64-1.1.88-2.09.85-2.05,1.09,3.41-.16,3.46.07-2.21.93-2.16,1.17-1.53.86-1.47,1.09,2.28-.04,2.34.19.71.3.77.53-.72.69-.65.92,1.87-.07,1.94.16-2.09,1.15-2.02,1.38,1.42.03,1.5.26.89.17.97.4.53.28.61.51-2.11,1.33-2.02,1.55,2.28-.43,2.37-.21.03.48.12.7-1.34,1.12-1.24,1.34-.01.54.09.76-.18.63-.07.85,2.4-.7,2.51-.49-.09.57.02.78-1.27,1.24-1.15,1.45,1.09-.08,1.21.13-.31.74-.19.94.39.32.52.52-.33.79-.2.99,1.1-.16,1.23.04,1.07-.18,1.21.02-.99,1.29-.85,1.49-.83,1.24-.69,1.43.28.42.43.61,1.46-.54,1.61-.35-.92,1.4-.76,1.59.52.22.68.4,1.78-.93,1.94-.75,1.18-.45,1.34-.28-2.21,2.76-2.05,2.93.22.5.39.67,1.13-.43,1.31-.26-.42,1.17-.25,1.33,1.22-.58,1.4-.42-.23,1.01-.05,1.17.46.24.64.4.09.68.28.83,2.1-1.82,2.29-1.67-1.29,2.45-1.1,2.6,2.57-2.6,2.76-2.46-.09.9.11,1.04-.4,1.39-.2,1.53.32.4.52.53.74-.24.94-.11.96-.63,1.16-.51-.32,1.43-.11,1.55-.27,1.44-.06,1.56.72-.24.93-.13,1.93-2.57,2.15-2.46-1.46,3.83-1.24,3.94,1.37-1.63,1.59-1.52-.09,1.32.13,1.42.51.09.73.19.6-.14.82-.04,1.29-1.85,1.51-1.76-.14,1.62.08,1.71.82-.84,1.05-.75.27.61.5.69.16,1.02.38,1.1.1,1.29.33,1.36.96-1.45,1.19-1.38.83-1.21,1.06-1.14.08,1.49.31,1.55.74-1.01.97-.95-.2,2.99.03,3.05.52,0,.75.05.41.55.65.59.64-.71.88-.67.79-1.84,1.03-1.8.58-.75.81-.72.37.69.61.72.48-.14.72-.12.24,2.63.48,2.65.53-.28.76-.27.53-.51.77-.49.58-2.54.82-2.53.39,2.96.63,2.96.5-.58.74-.58.47-.9.71-.91.45-.59.7-.6.61,3.04.85,3.03.37-2.24.61-2.26.43-.69.67-.71.55.79.79.76.29-1.78.53-1.81.41-.37.65-.4,1,3.63,1.24,3.6.07-2.73.31-2.77.3-.94.54-.98,1.04,2.84,1.27,2.79-.06-2.63.18-2.68,1.03,2.35,1.27,2.29-.26-3.07-.03-3.13.8,1.21,1.03,1.14,1.07,1.96,1.3,1.89-.38-2.94-.15-3.01.89,1.22,1.12,1.14.82.86,1.04.78.17-1,.4-1.08.84.82,1.07.73.39-.39.61-.49.21-.8.43-.89.94.9,1.17.8.11-.98.33-1.08-.57-2.3-.35-2.4,1.79,2.5,2.01,2.39-.22-1.51-.01-1.62-.22-1.4,0-1.52.17-.63.38-.75,1.27,1.23,1.48,1.11.43-.22.64-.35.53-.07.74-.2.42-.26.62-.39-.42-1.46-.22-1.6,2.32,2.43,2.52,2.29-.63-2.59-.44-2.73c.1.22.55.84.65,1.06s-.89.98-.79,1.19.87.1.98.31,1.36-.2,1.48.01-1.48,1.36-1.36,1.57.23.43.36.64,1.72-.48,1.84-.27-.71,1-.58,1.2.53.22.67.42.79.03.93.23.71.07.85.26-1.74,1.84-1.59,2.03-.15.73,0,.92.15.52.3.71.51.24.66.43.31.4.47.58,2.54-1.54,2.7-1.36-1.79,2.23-1.63,2.4,2.26-1.41,2.42-1.24-.28.91-.12,1.08.59.08.76.25.69-.04.86.13-1.4,2.16-1.23,2.32,2.26-1.74,2.44-1.58.14.53.32.69-.53,1.33-.35,1.49-.56,1.43-.37,1.59,2.04-1.76,2.23-1.61-1.13,2.23-.94,2.37,2.07-1.94,2.26-1.8.13.6.32.74-.29,1.23-.09,1.36.81-.35,1.01-.22-.82,2.14-.62,2.27,1.14-.87,1.34-.75,1.07-.85,1.28-.73-.78,2.27-.57,2.39,1.53-1.73,1.74-1.61.19.63.4.74.99-.9,1.2-.79-1.19,3.44-.97,3.54.63-.14.85-.04.78-.5,1-.41-.09,1.44.13,1.54,1.81-3.07,2.04-2.98-.3,2-.07,2.09-.09,1.63.14,1.71,1.36-2.31,1.58-2.23.84-1.04,1.07-.96.29.57.52.64.59-.4.82-.33.1,1.31.33,1.37.06,1.62.29,1.68.31.8.55.86.45.29.68.34.87-1.71,1.1-1.66.37.59.61.63.77-1.61,1-1.57.27,1.24.51,1.27.26,1.57.5,1.6.44.52.68.55.53-.21.77-.18.64-1.51.87-1.49.45.4.69.42.56-1.53.8-1.51.34,3.31.58,3.31.52-.19.76-.18.52-2.83.76-2.83.46,0,.7,0,.48.75.72.74.54,1.41.78,1.39.48-.29.72-.31.33-2.05.57-2.07.37-.92.61-.95.86,3.66,1.1,3.63.43-.62.67-.65.26-1.63.5-1.66.65,1.04.88,1,.48-.08.72-.12.74,1.19.97,1.14-.06-2.72.17-2.77,1.04,2.38,1.27,2.33-.19-2.85.04-2.91.29-.7.52-.76.79,1.11,1.02,1.04.44-.17.67-.24,1.02,1.63,1.25,1.55-.59-3.28-.36-3.36.48,0,.7-.09,1.65,3.07,1.87,2.98-.45-2.49-.23-2.58.76.61.98.51,1.03,1.15,1.25,1.05-.37-2.02-.16-2.12,1.11,1.23,1.33,1.13-.42-1.94-.2-2.05.87.65,1.08.54.03-.96.24-1.08.99.79,1.19.68.78.37.99.25.06-.86.27-.98.12-.72.33-.84-.05-.94.15-1.08,1.89,1.94,2.08,1.81-.86-2.1-.67-2.24,1.43,1.15,1.62,1.01-.22-1.12-.03-1.27.92.39,1.11.25.02-.77.21-.92-.12-.91.06-1.06.08-.64.26-.79,1.41.87,1.59.71-.69-1.47-.51-1.63,1.05.42,1.22.25-1.25-1.95-1.08-2.12,1.17.51,1.33.34,1.33.61,1.49.44-1.58-2.11-1.42-2.29,1.52.74,1.68.57-.41-.97-.25-1.16.13-.49.28-.68,1.07.27,1.22.09,1.83.82,1.98.63-.71-1.16-.57-1.35.94.08,1.08-.11-.46-.93-.33-1.12-1.6-1.66-1.47-1.85.31-.33.44-.53,2.15.82,2.27.61.18-.46.3-.66,1.77.47,1.89.26-1.83-1.6-1.71-1.81,1.09.05,1.2-.16-.24-.67-.13-.88.81-.14.91-.35.51-.3.61-.52-2.07-1.48-1.97-1.7,1.5.16,1.6-.06.99-.1,1.09-.33.05-.51.13-.73,1.43.01,1.51-.21-2.37-2.77-2.29-3c.21.1,1.44,1.12,1.65,1.22s.81-.7,1.03-.6.44.09.66.19-.72,2.96-.5,3.05.34.5.56.58,1.06-1.43,1.28-1.35.2.86.42.94.47.12.7.19.97-1.5,1.2-1.43.04,1.48.27,1.55.34.55.57.62.78-1.07,1.01-1.01.16,1.32.39,1.37.22,1.24.45,1.29.78-1.31,1.01-1.26.45.17.69.22.38.62.62.66.78-1.89,1.02-1.85.13,2.45.36,2.48.83-2.74,1.06-2.71.34,1.12.57,1.14.48-.16.72-.14.32,2.11.56,2.13.68-3.51.92-3.49.41.73.65.73.44.78.67.79.46.55.7.55.46-1.17.69-1.17.47.67.71.66.54,1.55.78,1.54.38-1.8.62-1.82.39-.98.63-1,.58,1.3.82,1.28.61,1.21.85,1.18.49-.08.73-.11.09-2.76.33-2.8.54.5.77.46.78,1.71,1.01,1.67.24-1.29.48-1.33.54.3.78.25.35-.57.59-.63,1.09,2.41,1.32,2.35.37-.61.6-.67.14-1.34.37-1.41.31-.62.54-.69.43-.21.66-.28.29-.6.52-.68.68.52.91.44.06-1.18.28-1.26,1.51,2.54,1.73,2.45-.34-2.13-.12-2.22,1.26,1.69,1.48,1.59.11-.98.33-1.08.78.48.99.37.54-.05.75-.16-.89-2.8-.68-2.91,1.89,2.51,2.1,2.4-.62-2.14-.42-2.26,1.66,1.88,1.87,1.76-.97-2.57-.76-2.69-.38-1.48-.18-1.6,1.07.82,1.27.68,1.2.93,1.4.79.53-.1.73-.24-.63-1.7-.44-1.84,1.43,1.11,1.62.97-1.15-2.27-.96-2.42.62.04.8-.11,2.25,1.96,2.43,1.81.59-.1.77-.26.14-.61.32-.77-.77-1.57-.59-1.73,1.04.39,1.21.22.28-.42.45-.59-.31-.99-.14-1.16,1.34.61,1.51.43-1.77-2.29-1.61-2.46,1.89,1.05,2.04.87.78.02.94-.16-.34-.93-.19-1.11-.36-.91-.21-1.1-.46-.95-.31-1.14,2.31,1.15,2.45.95-.67-1.09-.53-1.29.9.04,1.04-.15.99.07,1.13-.13-1.74-1.72-1.61-1.92,2.22.83,2.34.63-.12-.66,0-.86.76-.13.88-.34-.36-.77-.24-.98-1-1.09-.89-1.3-.33-.7-.22-.91,1.09.02,1.2-.19,1.88.36,1.99.14-.48-.77-.39-.99-1.41-1.14-1.31-1.36.89-.14.98-.36.38-.37.47-.59-1.66-1.13-1.58-1.36.02-.47.1-.7,1.77.12,1.85-.11-.27-.58-.19-.81.28-.41.35-.64-.95-.75-.89-.98,1.66-.04,1.72-.27,1.88-.04,1.93-.27-2.64-1.11-2.59-1.35-.53-.58-.48-.81.62-.34.67-.58-.65-.58-.61-.81.4-.39.43-.63-.31-.5-.28-.74,2.77-.12,2.8-.36,1.24-.37,1.27-.61-.34-.54-.32-.78-1.38-.6-1.36-.84-1.1-.54-1.08-.78,1.37-.41,1.38-.65-1.17-.51-1.17-.75-.91-.47-.91-.71-.26-.45-.26-.69.28-.46.28-.7,2.89-.59,2.87-.83.17-.51.15-.75-3.01-.26-3.03-.5,3.43-.79,3.41-1.03-1.85-.3-1.88-.54-.07-.48-.1-.71,1.15-.65,1.11-.89-.48-.43-.52-.67-.67-.38-.72-.62.97-.69.93-.92-.27-.46-.32-.69-.53-.39-.59-.62-1.95-.02-2.01-.25,2.25-1.08,2.19-1.31-2.45.18-2.52-.05,2.19-1.15,2.12-1.38.04-.54-.04-.77-.9-.22-.98-.45-.97-.17-1.05-.4,1.56-1.11,1.48-1.33-.85-.21-.94-.43-.86-.18-.95-.4-.87-.15-.97-.36.11-.57,0-.79-1.83.35-1.94.14,2.15-1.58,2.05-1.79.13-.62.01-.83-2.02.53-2.13.32.79-.98.67-1.19-1.41.27-1.53.06.81-1.04.69-1.24-1.67.49-1.8.29.11-.61-.02-.81,2-1.92,1.86-2.12-3.02,1.52-3.16,1.32,1.72-1.82,1.58-2.01-2.21,1.06-2.35.87,1.82-2,1.67-2.19-.11-.55-.26-.74-.14-.53-.29-.72-.67-.09-.82-.27-.27-.43-.43-.6-.73,0-.9-.17.49-1.15.32-1.32-.57-.14-.74-.31,0-.73-.16-.89-2.26,1.66-2.43,1.49-.06-.63-.23-.79.96-1.8.78-1.96-1.22.66-1.41.5-.23-.47-.42-.63-1.33.89-1.52.74.87-1.89.68-2.03-1.86,1.68-2.06,1.54.68-1.72.48-1.86-1.25.95-1.44.82-.75.3-.95.16.95-2.29.74-2.42.14-1.15-.06-1.28-.55-.05-.76-.18-1.86,2.23-2.07,2.11-.43-.15-.64-.27.07-1.09-.14-1.21-.67.29-.89.18-.06-.92-.27-1.03-.06-.98-.28-1.08.15-1.52-.07-1.62-.61.13-.83.03-.24-.74-.46-.83-1.36,2.08-1.59,2,.19-1.88-.03-1.96-.85.91-1.08.83-.34-.52-.56-.6-.69.55-.92.48-.56.2-.79.13.12-2.19-.11-2.25-.95,1.64-1.18,1.58-.64.62-.87.57-.47-.02-.7-.07-.45-.1-.69-.14-.29-.94-.53-.99-.41-.44-.64-.48-.43-.38-.67-.41-.38-.82-.62-.85-.45-.46-.69-.49-.65,1.35-.89,1.33-.41-.93-.64-.95-.57.96-.81.95-.59,2.13-.83,2.12-.42-.68-.66-.69-.39-3.3-.63-3.3-.52,1.49-.76,1.49-.46,1.84-.7,1.85-.48-.9-.72-.89-.56-1.79-.8-1.78-.45.8-.69.82Z"/>
            <path d="M148.36,219.47c-.07,0-.13,0-.2,0-.85-.06-1.42-.42-1.81-.89-.2-.04-.38-.1-.55-.17-.41.19-.9.28-1.5.19-.82-.13-1.35-.51-1.71-1-.54.42-1.26.66-2.19.43-.19-.05-.36-.1-.52-.17-.03,0-.06,0-.1,0-.43.14-1.08.26-1.81.04-.37-.11-.67-.28-.92-.46-.18-.02-.37-.06-.57-.13-1.19-.39-1.64-1.34-1.82-2.1-.45.08-.95.04-1.5-.2-.15-.06-.29-.14-.41-.22-.54.14-1.24.18-1.98-.19-.22-.11-.41-.23-.57-.37-.51.1-1.09.03-1.73-.33-.89-.49-1.24-1.28-1.39-1.77-.16-.25-.26-.49-.33-.71-.62-.51-.87-1.18-.98-1.61-.11-.2-.19-.42-.25-.66-.88.54-2.12.97-3.36-.01-.07-.05-.13-.11-.19-.16-.41-.08-.84-.26-1.25-.61-.61-.52-.87-1.1-.93-1.68-.4-.1-.8-.32-1.19-.69-.34-.33-.54-.68-.66-.9-.08-.1-.15-.19-.21-.29-.52-.07-1.05-.32-1.53-.86-.51-.57-.69-1.16-.7-1.71-.15-.12-.3-.27-.44-.44-.36-.44-.54-.89-.59-1.32-.24-.16-.47-.38-.68-.67-.29-.39-.45-.77-.51-1.13-.61-.12-1.2-.45-1.66-1.18-.29-.45-.42-.88-.44-1.29-.2.25-.48.48-.84.69-.33.19-.65.3-.95.35-.22.36-.57.68-1.09.95-1.12.57-2.09.25-2.78-.19-.19.15-.4.28-.66.38-.49.21-.95.25-1.36.21-.12.83-.52,2-1.89,2.45-1.23.41-2.1-.03-2.75-.7-.22.88-.77,1.58-1.97,1.84-.62.14-1.14.06-1.58-.13-.36.39-.86.71-1.57.82-1.02.15-1.73-.16-2.23-.71-.16,0-.31-.03-.45-.06-.19.05-.39.09-.62.11-1.23.1-1.97-.47-2.44-1.23-.1-.02-.2-.05-.29-.09-.36,1.12-1.09,2.33-2.78,2.25-.64-.02-1.14-.24-1.53-.53-.43.26-.96.41-1.64.34-.45-.05-.82-.18-1.03-.27-.71-.14-1.19-.5-1.52-.94-.53.43-1.22.68-2.16.49-.12-.02-.23-.06-.34-.09-.37.09-.8.1-1.28-.01-1-.24-1.53-.85-1.81-1.53-.52.25-1.15.33-1.9.08-.3-.1-.55-.23-.76-.39-.47.12-1,.11-1.6-.12-.54-.21-.92-.52-1.18-.87-.29-.02-.6-.11-.94-.25-1.13-.51-1.5-1.48-1.62-2.21-.67.31-1.57.48-2.55-.08-.74-.43-1.09-1.04-1.27-1.52-.63.21-1.33.18-2.09-.3-.25-.11-.54-.24-.84-.46-.39-.28-.64-.59-.79-.78-.38-.34-.6-.71-.72-1.09-.51-.02-1.04-.2-1.57-.66-.42-.36-.69-.74-.83-1.13-.06-.04-.11-.09-.17-.14-.6-.54-.83-1.14-.87-1.72-.73.1-1.46-.09-2.17-.85-.61-.66-.75-1.42-.78-1.91-.11-.34-.13-.68-.09-1-.09-.08-.18-.18-.26-.28-.18-.22-.31-.44-.4-.65-.2-.15-.39-.33-.57-.57-.03-.04-.06-.08-.08-.12-.29-.12-.57-.3-.83-.57-.64-.1-1.35-.41-1.87-1.2-.87-1.33-.34-2.52.27-3.34-.61-.15-1.18-.52-1.6-1.29-.42-.21-.8-.56-1.09-1.11-.15-.21-.33-.46-.48-.79-.27-.58-.31-1.11-.22-1.58-.16-.2-.29-.43-.41-.72-.15-.37-.21-.72-.21-1.04-.21-.19-.4-.43-.55-.73-.58-.28-1.14-.77-1.4-1.64-.15-.48-.17-.91-.11-1.28-.04-.1-.07-.2-.1-.31-.27-.99-.03-1.73.45-2.3,0-.1,0-.2,0-.29-.1-.2-.18-.43-.23-.68-.07-.36-.08-.69-.03-.99-.11-.14-.21-.3-.3-.49-.84-.31-1.58-.93-1.72-2.19-.15-1.31.47-2.08,1.3-2.57,0-.15,0-.3.01-.43-.4-.42-.7-.99-.71-1.79-.01-.9.36-1.54.82-1.98-.03-.07-.05-.15-.07-.22-.9-.47-1.57-1.22-1.45-2.57.14-1.65,1.5-2.27,2.16-2.52.12-.09.23-.18.35-.25,0-.02,0-.05.01-.08-.52-.5-.95-1.22-.83-2.22-.02-.27-.02-.65.07-1.07.13-.58.37-1,.68-1.31-.22-.49-.28-1.07-.07-1.78.2-.68.6-1.13.88-1.39.29-.44.69-.72,1.11-.9.04-.08.09-.15.13-.22-.01-.07-.03-.14-.04-.22-.24-.54-.49-1.42-.07-2.4.09-.22.2-.41.32-.58-.14-.52-.1-1.11.23-1.78.23-.46.52-.79.85-1.02.03-.33.14-.68.34-1.04.19-.34.41-.6.65-.8.02-.41.15-.84.44-1.31.52-.84,1.17-1.18,1.87-1.25.07-.32.21-.66.45-.99.29-.41.63-.68.98-.85.05-.08.1-.16.16-.23.08-.11.17-.2.25-.29-.08-.63.04-1.34.62-2.03.87-1.02,1.89-1.08,2.82-.8.1-.17.23-.33.39-.49.17-.18.36-.33.56-.45-.17-.74-.13-1.59.54-2.35.15-.26.37-.6.74-.92.17-.15.36-.28.55-.42l.11-.08c1.16-.98,2.39-.62,3.25-.16.11-.49.36-1.05.89-1.52.01-.07.03-.13.05-.2.02-.64.17-1.84,1.36-2.56.3-.18.59-.29.88-.35.21-.39.56-.74,1.1-1.03.82-.45,1.57-.4,2.2-.17.23-.26.53-.48.93-.67.56-.26,1.07-.31,1.53-.23.26-.45.68-.82,1.34-1.08.49-.19.95-.22,1.35-.16.29-.52.76-.98,1.54-1.22,1.68-.51,2.75.62,3.31,1.42.05.01.1.03.15.04.33-.41.82-.73,1.52-.86.18-.04.36-.06.52-.06.25-1.01.83-1.95,2.26-2.14.47-.06.86,0,1.09.03.31,0,.57.03.74.05,1.46-.04,2.17.89,2.6,1.91.34-1.3,1-2.41,2.66-2.41.03,0,.05,0,.08,0,.63.01,1.12.19,1.5.46.26-.06.56-.08.89-.06.36.03.67.11.94.23.2-.02.41-.02.64,0,1.28.14,1.9.91,2.22,1.73.23.11.42.24.58.39.14-.01.29-.02.44,0,.6-1.06,1.53-2.04,3.17-1.64.22.05.41.13.59.21.26-.17.54-.29.83-.36.02-.05.04-.1.06-.15.18-.4.42-.71.67-.94-.2-.59-.24-1.29.15-2.06.09-.18.19-.35.3-.49-.12-.54-.07-1.16.31-1.83.59-1.04,1.52-1.33,2.3-1.38.05-.16.12-.32.21-.48-.23-.53-.47-1.38-.14-2.27.06-.37.18-.9.56-1.42.31-.43.67-.71,1.04-.88.09-.31.24-.62.49-.93.53-.67,1.11-.96,1.72-1.01-.12-.68.04-1.39.69-2.11.54-.59,1.12-.83,1.7-.87.11-.4.33-.8.71-1.17.81-.79,1.67-.88,2.46-.68.1-.49.37-.98.89-1.42.47-.4.95-.59,1.41-.64.05-.08.11-.16.18-.23.16-.28.42-.67.87-1,.34-.25.67-.41,1-.48.07-.66.39-1.31,1.16-1.84.54-.37,1.08-.48,1.56-.47.16-.18.36-.35.6-.49.35-.21.67-.32.86-.39,0,0-.04.02-.09.05.78-.44,1.55-.4,2.02-.31.08,0,.16,0,.23,0,.03-.02.07-.04.11-.06.14-.07.28-.14.42-.21.03-.8.26-2.05,1.61-2.68,1.16-.54,2.07-.23,2.78.35.16-.79.62-1.52,1.68-1.9.68-.25,1.27-.21,1.77-.03.29-.31.7-.61,1.26-.78.57-.17,1.09-.14,1.52-.02.23-.14.5-.26.82-.34.4-.1.75-.12,1.07-.07.15-.06.3-.11.47-.14.38-.08.72-.08,1.02-.05.16-.06.33-.11.52-.15.8-.15,1.42.01,1.91.34.07-.02.14-.04.21-.06.27-.99.88-1.99,2.35-2.15.76-.08,1.34.09,1.78.41.12,0,.24-.01.36-.02h.26c.47-.05.87.04,1.22.18.42-.46,1.03-.8,1.9-.8.96,0,1.62.35,2.05.92.45-.37,1.05-.63,1.86-.59.64.04,1.14.28,1.51.56.42-.24.95-.36,1.62-.28.85.1,1.41.5,1.78.99.68.18,1.14.58,1.45.98.11.03.22.06.33.1,0,0,0,0,.01,0,.49-.55,1.15-.92,2.05-.84.32-.04.77-.08,1.29.06,1.09.28,1.62.99,1.88,1.72.22-.08.46-.13.72-.13.44-.12,1.09-.22,1.82.04.59.2.99.51,1.27.87.02,0,.04.02.06.02.48.18.84.43,1.1.73.54-.18,1.19-.21,1.91.11.47.21.79.49.98.67.23.14.41.31.57.49.61-.23,1.34-.27,2.15.16.8.42,1.19.98,1.33,1.61.12.05.23.11.35.18.59.35.94.78,1.13,1.25.21.07.42.17.63.31.63.4.95.94,1.12,1.44.39.06.83.21,1.25.52.83.6,1.08,1.37,1.09,2.09.04.03.07.06.11.08.11.09.21.18.3.27.76-.32,2.01-.61,3.13.39.21.19.38.38.51.58.49.07.99.28,1.46.73.05.04.09.09.13.13.36.1.73.29,1.08.62.22.15.49.34.75.62.35.37.56.73.67,1.09.3.15.59.37.86.69.35.41.55.81.64,1.2.05.06.11.12.16.18.77.94.67,1.97.52,2.59.43.16.83.47,1.19.98.24.34.39.68.45,1.01.32.19.62.47.88.88.06.1.12.2.17.29.31.2.6.49.85.9.19.31.3.62.36.91.29-.38.72-.69,1.35-.88,1.31-.39,2.23.2,2.85.89.19-.09.4-.16.63-.22.51-.11.95-.09,1.33.02.28-.17.61-.3,1.01-.37.72-.12,1.31.05,1.68.2.06.01.13.02.19.04.33-.23.75-.4,1.29-.45.03,0,.06,0,.08,0,.13-.25.3-.48.5-.68.33-.54,1.06-1.49,2.43-1.53.51-.02.91.09,1.15.16.33.03.61.11.86.22.33-.14.72-.22,1.18-.2.88.03,1.48.38,1.88.86.14,0,.28,0,.43,0,.1,0,.2.02.3.04.36-.14.79-.21,1.29-.15.55.07.98.27,1.29.48.48-.31,1.09-.47,1.88-.32,1.08.21,1.65.83,1.94,1.55.56-.5,1.5-1.09,2.77-.71.59.18,1.01.47,1.3.83.27,0,.56.06.88.17.66.23,1.09.64,1.37,1.06.69.29,1.11.73,1.34,1.23.26-.02.55,0,.84.08.64-.31,1.41-.4,2.31.06.38.19.66.42.88.67.14.05.29.12.44.2.24.13.45.28.62.44.5-.06,1.06.04,1.65.41.34.21.6.45.79.7.16.07.32.16.49.27,1.29.86,1.27,2.23,1.18,2.96.01.05.03.1.04.15.1.2.17.4.22.6.19-.02.39-.02.61,0,.65-.13,1.69-.19,2.6.61.56.49.82,1.02.89,1.56.74-.12,1.58,0,2.34.79.5.52.7,1.08.74,1.6.02.03.05.06.07.09.4.14.79.39,1.14.81.51.61.67,1.23.64,1.81.69.05,1.46.32,2.04,1.13.77,1.09.51,2.17.16,2.91.14.14.27.31.38.5.47.77.48,1.49.3,2.1.26.21.5.5.69.87.09.17.16.34.21.5.81.06,1.93.38,2.49,1.64.53,1.2.09,2.19-.41,2.86.55.26,1.26.74,1.58,1.7.41.3.76.74.95,1.4.28.99-.04,1.81-.31,2.29.15.25.29.55.37.92.07.33.08.63.05.9.73.32,1.32.91,1.48,2,.06.4.04.74-.03,1.05.2.32.39.75.44,1.3.03.34,0,.65-.06.93.26.36.43.83.45,1.43.01.22,0,.45-.01.68v.14c.02.88-.36,1.52-.76,1.96.47.45.78,1.09.74,2-.07,1.36-1,2.06-1.65,2.4-.02.14-.05.27-.09.4.23.35.38.77.4,1.28.08.32.16.79.06,1.35-.08.48-.26.86-.49,1.17,0,.1-.02.21-.05.32-.01.06-.03.12-.04.18.13.4.15.87.02,1.42-.04.17-.09.34-.14.51l-.03.11c-.01.26-.04.57-.14.93-.26.95-.89,1.46-1.48,1.75.19.52.27,1.17,0,1.9-.32.86-.87,1.31-1.49,1.54,0,.15-.01.29-.04.45.37.66.58,1.54.09,2.53-.25.51-.59.85-.82,1.05-.24.32-.52.55-.82.7-.06.25-.16.51-.32.78-.04.06-.08.13-.12.19-.01.41-.13.86-.42,1.32-.24.39-.53.66-.83.86-.05.36-.2.74-.46,1.12-.26.38-.56.64-.87.82-.06.11-.13.22-.22.33l-.05.08c-.12.2-.25.4-.38.58-.6.78-1.36,1.03-2.05,1.05,0,.51-.16,1.07-.58,1.6-.1.18-.23.39-.41.61-.03.57-.23,1.2-.79,1.76-.27.27-.55.46-.83.58-.11.15-.24.3-.4.44-.5.47-1.04.66-1.54.71-.14.17-.3.35-.51.52-.07.06-.15.12-.22.17.01.72-.26,1.42-1.06,2.03-.77.59-1.59.61-2.18.53-.14.07-.28.12-.42.16-.14.14-.3.28-.5.41-.56.37-1.1.49-1.59.46-.12.07-.23.13-.35.18-.15.62-.52,1.2-1.3,1.62-.43.23-.82.34-1.2.35-.23.51-.64,1.12-1.42,1.48-.25.12-.5.19-.73.23-.2.17-.44.32-.73.44-.99.41-1.85.17-2.44-.15-.22.18-.5.33-.82.44,0,0,0,0,0,0-.29.39-.72.71-1.35.91-.86.26-1.56.09-2.11-.22-.32.56-.84,1.03-1.72,1.22-.59.13-1.08.09-1.49-.07-.24.12-.53.23-.86.29-.49.08-.9.05-1.26-.06-.1.02-.21.04-.32.06-.56.07-1.03-.01-1.42-.19-.39.39-.92.66-1.67.71-.5.03-.92-.04-1.27-.2-.3.13-.66.21-1.07.22-.34,0-.65-.04-.92-.13-.38.21-.84.34-1.42.32-1.45-.05-2.16-1.09-2.48-1.67-.19-.19-.34-.41-.47-.62-.51.53-1.24.94-2.29.79-.55.57-1.37,1.08-2.54.83-.82-.17-1.34-.58-1.66-1.1-.15-.02-.3-.04-.46-.08-1-.25-1.52-.84-1.78-1.53-.65.65-1.53,1.09-2.72.7-.02.34-.12.7-.31,1.09-.44.89-1.04,1.29-1.74,1.42-.06.08-.12.15-.18.22.05.5-.04,1.04-.38,1.61-.2.34-.44.59-.7.78-.03.4-.18.83-.48,1.27-.26.38-.54.65-.84.84-.07.36-.23.74-.51,1.12-.66.88-1.45,1.13-2.23,1.07-.03.52-.21,1.09-.68,1.63-.81.92-1.72,1.03-2.57.82.13.77.01,1.66-.81,2.42-.24.22-.49.38-.74.5.08.78-.1,1.63-.97,2.33-.46.37-.93.54-1.38.59-.16.23-.37.46-.65.67-.68.5-1.37.58-1.96.51-.08.69-.42,1.34-1.25,1.84-.54.33-1.06.43-1.53.4-.02,0-.03.02-.05.03-.79.44-1.53.42-2.14.22-.1.06-.2.12-.31.18-.33.16-.61.25-.8.3-.03,0,.02-.02.07-.04-.56.27-1.09.3-1.5.28-.13.82-.55,1.71-1.7,2.15-.85.32-1.56.2-2.13-.09-.23.21-.51.38-.86.51-.23.13-.52.28-.89.38-.73.21-1.32.14-1.81-.1-.16.03-.31.05-.46.05-.33.34-.83.72-1.55.86-.45.09-.85.07-1.21-.03-.12.03-.24.06-.37.08-.09.01-.18.02-.27.03-.37.57-.97,1.09-1.94,1.2-1.08.13-1.79-.27-2.28-.87-.2-.03-.39-.07-.56-.14-.43.46-1.04.82-1.91.83-.52,0-.97-.12-1.33-.32-.08,0-.15,0-.23,0-.14,0-.27-.01-.4-.03-.4.31-.99.63-1.78.63ZM152.97,217.83s-.08,0-.11,0c.04,0,.08,0,.11,0ZM138.86,217.75s.03,0,.05.01c-.02,0-.03,0-.05-.01ZM167.07,215.27s-.07.02-.1.03c.03-.01.07-.02.1-.03ZM155.59,211.09c1.01,0,1.66.5,2.1,1.17.28-.18.61-.33,1.01-.4.12-.02.23-.04.34-.04.21-.27.48-.52.84-.71.28-.63.79-1.19,1.73-1.44.56-.15,1.04-.13,1.46,0,.26-.26.6-.49,1.04-.64.7-.24,1.29-.19,1.8,0,.21-.2.48-.37.81-.51.77-.32,1.44-.25,1.99-.05.22-.41.57-.79,1.11-1.07.53-.28,1.04-.35,1.49-.31.11-.61.45-1.19,1.18-1.65.62-.39,1.24-.46,1.64-.46.63-.15,1.21-.04,1.59.08.17,0,.34.03.5.06-.47-.94-1.13-2.63.35-3.93.58-.51,1.19-.7,1.74-.67.08-.46.29-.93.73-1.38.3-.31.64-.53,1.02-.66.02-.03.05-.06.07-.08.24-.27.5-.46.75-.6.1-.29.26-.59.5-.88.51-.61,1.09-.88,1.66-.95,0-.55.17-1.04.49-1.5.12-.18.25-.33.38-.46.07-.21.18-.42.32-.63.15-.24.32-.43.5-.59-.17-.57-.13-1.23.27-1.96.26-.47.57-.79.91-1,.21-.39.44-.68.71-.9-.07-.43,0-.91.23-1.46.59-1.35,1.72-1.63,2.73-1.61.36-.32.77-.5,1.17-.6.59-.51,1.42-.72,2.19-.6.49-.52,1.7-1.67,3.38-.99.63.26,1.04.67,1.3,1.07.3,0,.63.03.99.15l.42.13c.52-.17,1.03-.17,1.56-.03,1.03.28,1.55.92,1.78,1.66.39.11.71.28.96.49.03,0,.06,0,.1,0,.49-.42,1.16-.71,2.06-.59.1.01.19.03.28.05.52-.33,1.09-.46,1.7-.42.72.06,1.31.36,1.78.89.23-.05.48-.08.75-.07.25,0,.5.04.73.11.41-.44.99-.79,1.83-.83.6-.03,1.08.09,1.47.31.15-.04.32-.07.5-.09.25-.03.5-.02.74.02.3-.21.69-.36,1.16-.44.23-.03.44-.04.64-.03.31-.26.7-.45,1.22-.55,1.1-.22,1.85.13,2.4.73.29.03.56.1.79.19.28-.48.73-.89,1.46-1.13,1.01-.33,1.8-.06,2.4.4.45-.03.83.05,1.1.13.03,0,.06,0,.09,0,.09-.08.18-.15.28-.22-.14-1.09.06-2.26,1.42-2.94.46-.23.89-.3,1.18-.33.07-.02.14-.04.21-.06.13-.11.28-.21.45-.31.19-.1.37-.18.55-.24.19-.38.5-.74.97-1.04.89-.56,1.69-.53,2.38-.24,0-.03,0-.06,0-.1-.13-1.16.2-2.08.99-2.72.98-.79,1.9-.75,2.74-.36.13-.27.32-.54.59-.8.52-.5,1.05-.71,1.57-.75-.25-.76-.35-1.78.47-2.73.76-.89,1.67-1.02,2.46-.91.07-.33.22-.66.46-1,.23-.32.48-.55.74-.72.05-.09.1-.18.16-.27.16-.24.34-.43.52-.59,0-.13.03-.27.06-.41-.37-.69-.48-1.51.05-2.47.54-.98,1.39-1.31,2.13-1.39-.13-.37-.19-.79-.1-1.26-.01-.33.01-.81.23-1.34l.24-.6c.03-.07.05-.13.08-.19-.24-.52-.31-1.14-.06-1.88.32-.96.98-1.44,1.64-1.68-.33-.5-.49-1.14-.3-1.97.21-.92.7-1.45,1.3-1.75-.14-.35-.2-.76-.15-1.24-.55-.48-.92-1.16-.84-2.17.08-.95.51-1.55,1.08-1.93-.18-.35-.3-.77-.3-1.27,0-.53.12-.96.32-1.32-.21-.34-.35-.76-.39-1.3-.06-.88.25-1.51.69-1.97-.07-.16-.12-.34-.16-.53-.34-.34-.59-.8-.69-1.43-.11-.71.03-1.28.29-1.74-.43-.31-.79-.78-.96-1.48-.25-.99.04-1.73.49-2.29-.04-.13-.06-.27-.08-.39-.53-.19-1.21-.55-1.64-1.32-.17-.2-.39-.51-.55-.92-.22-.54-.24-1.03-.16-1.47-.3-.23-.58-.55-.79-.98,0-.01-.01-.03-.02-.04-.61-.15-1.21-.53-1.63-1.3-.22-.41-.31-.79-.36-1.04-.31-.83-.15-1.58.02-2.05.02-.17.05-.32.1-.48-.09-.25-.14-.5-.17-.73-.71,0-1.45-.26-2.05-1.05-.54-.71-.6-1.45-.58-1.93-.06-.29-.07-.56-.06-.79-.03-.04-.07-.07-.1-.11-.2-.23-.35-.47-.46-.71-.82.32-1.91.49-2.91-.36-.19-.12-.43-.27-.69-.51-.36-.33-.56-.68-.69-.92-.47-.57-.6-1.17-.54-1.76-.03-.02-.07-.04-.1-.05-.57.06-1.22-.05-1.86-.53-.62-.46-.91-1.01-1.02-1.56-.27-.07-.55-.19-.84-.38-.31-.2-.55-.42-.73-.65-.28-.04-.57-.13-.86-.28-.45.04-.93-.05-1.47-.33-.55-.3-.91-.66-1.12-1.07-.36,0-.74-.07-1.16-.25-.18-.08-.33-.17-.47-.27-.24-.03-.49-.09-.75-.2-.72-.29-1.14-.74-1.38-1.24-.29,0-.59-.05-.92-.16-.06-.02-.13-.04-.2-.06l-.13-.04c-.6.64-1.41,1.04-2.57.73-.58-.15-.99-.41-1.29-.74-.67-.18-1.21-.59-1.6-1.21,0,0,0,0,0,0-.92-.16-1.49-.69-1.84-1.19-.09.01-.18.02-.27.03-.45.36-1.04.61-1.83.55-.61-.04-1.08-.26-1.39-.45-.34.17-.76.27-1.27.29-.23,0-.44-.02-.64-.07-.39.57-1,1-1.97,1.06h0c-.13,0-.25.02-.38.03l-.28.02c-.15.01-.3.01-.44,0-.25.12-.55.21-.88.25l-.13.03c-.17.04-.34.07-.52.09-.29.04-.55.04-.79,0-.3.23-.67.4-1.14.49-.6.12-1.12.02-1.51-.12-.28.24-.64.45-1.1.56-.96.25-1.7-.01-2.25-.42-.17.1-.37.2-.6.28-.31.1-.6.15-.88.15-.24.26-.57.48-.99.64-.69.27-1.32.22-1.78.18h-.07c-.42.05-.85,0-1.24-.15-.06,0-.12,0-.18-.01-.77-.05-1.99-.14-2.77-1.14-.22-.2-.52-.5-.76-.95-.38-.73-.42-1.51-.12-2.33-.02-.1-.04-.19-.05-.28-.18-.14-.36-.32-.52-.54-.46-.16-.9-.48-1.26-1.03-.08-.12-.15-.25-.21-.37-.46-.14-.9-.45-1.3-.99-.52-.71-.61-1.38-.48-2-.42-.13-.82-.4-1.2-.85-.11-.13-.2-.25-.28-.38-.46-.1-.93-.34-1.36-.81-.8-.87-.87-1.71-.58-2.54-.24-.28-.4-.56-.49-.84-.19-.09-.38-.2-.56-.35-.74.21-1.6.18-2.44-.52-.53-.45-.79-.99-.91-1.35-.08-.13-.14-.26-.2-.39-.23-.12-.41-.23-.59-.37-.73-.55-1-1.23-1.05-1.89-.02-.01-.04-.02-.05-.04-.19-.13-.35-.27-.48-.41-.65.24-1.45.28-2.3-.24-.2-.12-.37-.25-.52-.39-.4,0-.86-.09-1.34-.35-1.09-.6-1.4-1.46-1.36-2.38-.12-.04-.24-.09-.36-.14-.25-.12-.46-.26-.64-.42-.59.57-1.69,1.39-3.17.8-.63-.25-1.04-.61-1.3-1.04-.28-.13-.51-.28-.7-.45-.45.14-1.01.2-1.65.01-.79-.24-1.27-.72-1.57-1.23-.43.17-.93.22-1.54.08l-.65-.13c-1.4-.29-1.92-1.35-2.13-2.25,0,0-.01,0-.02,0-.22.29-.48.54-.8.72-.44.42-1.21.94-2.29.85-.75-.07-1.27-.35-1.65-.74-.13.04-.26.08-.4.1-.43.47-1.05.77-1.92.78-.76,0-1.31-.23-1.72-.6-.09.01-.18.02-.27.02-.42.02-.78-.05-1.09-.17-.37.34-.86.58-1.55.64-.16.02-.32.02-.46.01-.35.33-.82.58-1.46.67-.54.07-.99,0-1.38-.16-.18.08-.39.14-.61.18-.88.15-1.54-.06-2.04-.45-.21.12-.45.21-.73.28-.38.09-.73.11-1.04.06-.1.04-.2.07-.31.1-.81.22-1.46.06-1.99-.24-.22.17-.48.31-.79.41-.04.01-.09.03-.13.04-.06.81-.36,2.05-1.76,2.6-.2.08-.39.13-.58.17-.18.13-.38.26-.62.36-1.22.52-2.22.06-2.85-.42-.07.04-.15.08-.22.12-.56.28-1.1.33-1.56.27-.13.11-.28.21-.44.3-.67.37-1.33.39-1.85.3-.15.41-.4.85-.84,1.22-.02.08-.04.16-.07.23-.07.6-.3,1.48-1.19,2.11-.65.46-1.3.55-1.85.5-.1.41-.31.83-.68,1.21-.09.51-.35,1.01-.88,1.48-.4.35-.82.54-1.22.62-.46.43-.96.62-1.31.71-.38.21-.78.27-1.13.29.32.83.29,1.71-.51,2.61-.12.14-.25.25-.37.35-.1.25-.24.48-.42.7-.39.46-.83.71-1.15.86-.79.61-1.68.56-2.52.27-.05.05-.11.1-.16.15.21.66.24,1.47-.32,2.31-.15.23-.32.42-.5.57-.03.38-.14.81-.4,1.25-.09.15-.18.28-.28.4.41.86.4,1.7-.02,2.5-.42.8-1,1.18-1.63,1.33,0,.02-.02.04-.03.06-.24.51-.57.86-.93,1.1.03.37,0,.84-.2,1.34-.42,1.03-1.14,1.46-1.91,1.61.51.84.8,1.63.48,2.64-.22.67-.69,1.23-1.32,1.54-.63.32-1.36.37-2.03.14-.22-.08-1.48-.49-1.7-.56-.56-.18-.96-.46-1.24-.8-.31-.09-.56-.22-.78-.37-.33.06-.69.05-1.1-.05-.12-.03-.23-.06-.34-.1-.06.03-.11.06-.17.08-.46.36-1.24.81-2.3.64-.9-.14-1.46-.6-1.8-1.16-.45.53-1.1.86-2.08.81-.43-.02-.79-.13-1.09-.29-.25.07-.53.11-.85.11-.24,0-.47-.03-.7-.06-.03,0,0,0,.02,0-.4.01-.81-.09-1.13-.23-.24.09-.51.15-.81.17-.69.04-1.24-.17-1.59-.35-.27-.07-.51-.17-.72-.31-.12.07-.25.13-.39.18-.04.02-.08.05-.12.08-.33.37-.87.83-1.68.97-.3.27-.7.48-1.21.59-.55.12-1.03.07-1.44-.07-.62.13-1.14.06-1.57-.12-.27.46-.71.86-1.41,1.1-.2.07-.39.11-.57.14-.26.32-.63.6-1.14.81-.9.36-1.63.24-2.23-.11-.15.12-.33.22-.52.32-.33.16-.64.24-.93.27-.18.5-.55.95-1.19,1.31-.73.41-1.39.45-1.97.28-.16.19-.36.37-.61.54-.04.03-.08.05-.12.07-.1.58-.39,1.19-1.06,1.67-.44.32-.93.5-1.46.52-.68.47-1.38.54-1.94.46-.12.41-.35.81-.75,1.19-.02.02-.04.03-.05.05-.12.37-.33.75-.68,1.1-.26.26-.54.44-.81.57-.02.05-.04.09-.06.14-.08.38-.26.93-.7,1.43-.15.17-.3.31-.45.42-.06.41-.23.84-.57,1.27-.54.68-1.16.96-1.79,1,.23.85.11,1.59-.32,2.27-.12.18-.24.34-.37.48-.07.2-.16.41-.29.62-.64,1.06-1.59,1.29-2.41,1.3-.01.01-.02.03-.03.04.48.88.54,1.74.17,2.58-.47,1.04-1.23,1.43-2.05,1.53.23.52.32,1.16.07,1.91-.02.06-.04.12-.07.18.28.51.37,1.13.16,1.9-.11.39-.27.69-.38.87-.19.52-.5.88-.74,1.12-.02.04-.05.08-.08.12.22.44.34.99.23,1.65-.16.95-.7,1.52-1.29,1.86.41.4.67.94.69,1.68.3.41.48.94.46,1.63-.05,1.3-.8,1.98-1.64,2.36,0,.01,0,.02,0,.03.73.37,1.35,1,1.44,2.15.05.62-.1,1.13-.31,1.53.46.34.81.87.94,1.65.12.71-.05,1.3-.21,1.67-.02.12-.05.22-.08.33.29.3.53.7.66,1.23.1.4.12.76.08,1.08.03.07.05.15.07.22.26.91.09,1.61-.3,2.17.32.26.61.63.8,1.13.02.07.05.13.07.19.25.23.47.54.64.94.11.25.17.5.2.74.59.17,1.12.57,1.5,1.34.06.12.11.25.16.36.2.19.39.43.55.73.36.67.38,1.31.34,1.73.06.07.11.15.16.24.58.95.45,1.84.16,2.52.31.17.6.42.86.78.02.02.03.04.05.06.36.16.7.41,1.01.8.04.05.08.1.11.16.58.06,1.17.31,1.7.91.06.07.12.15.17.22.53.05,1.05.3,1.56.83.48.5.69,1.01.74,1.52.52.02,1.05.22,1.59.69.46.41.73.83.85,1.27.13.07.27.16.4.27.69.55.94,1.25,1.04,1.77.43.01.88.15,1.36.47.95.64,1.2,1.49,1.18,2.28.74-.57,1.75-1,2.98-.37.52.26.91.65,1.18,1.16.32,0,.66.08,1.03.24,1,.43,1.41,1.19,1.57,1.93.59-.63,1.55-1.28,2.88-.89,1.42.42,1.83,1.5,1.91,2.53.12-.05.24-.1.37-.13.52-.85,1.35-1.58,2.74-1.37.86.13,1.4.55,1.76,1.07.38-.2.85-.32,1.41-.28.43.03.79.13,1.09.29.45-.3.94-.48,1.52-.45.2,0,.4.02.59.04.28.01.5.03.73.08.33-.21.75-.35,1.26-.38.23-.02.45,0,.65.02.19-.06.41-.1.64-.13.44-.04.81,0,1.13.1.07-.01.13-.02.2-.03.88-.12,1.52.1,2,.52.27-.7.81-1.24,1.81-1.47.35-.08.67-.1.96-.06.25-.19.54-.34.91-.45,1.48-.43,2.49.42,3.03,1.03.2-.15.43-.29.7-.39.28-.11.55-.16.8-.18.24-.3.56-.57,1.01-.77.15-.07.3-.12.45-.16.02-.85.37-1.62,1.39-2.16.18-.09.35-.17.52-.22.2-.38.53-.72,1.02-1.02,1.27-.76,2.32-.37,3.16.32.29-.04.58-.01.84.04.08-.08.17-.16.27-.23.3-.23.65-.38,1.01-.46.46-.21,1.15-.39,1.95-.16.32.09.63.25.9.46,1.15-.19,2.25,0,2.95,1.35.42.79.42,1.47.19,2.07.05.15.08.3.1.44.05.07.11.15.16.23.15.24.25.47.31.69.61.08,1.21.39,1.71,1.09.66.94.61,1.8.28,2.56.02.06.05.12.06.17.2.34.3.69.33,1.02.08,0,.17,0,.25,0,1.16-.2,2.06.06,2.74.77.77.81.88,1.64.67,2.42.33.1.67.28,1,.57.44.39.69.8.82,1.23.24.04.49.12.74.26.04.01.08.02.12.04.71-.32,1.73-.52,2.77.2,1.1.76,1.23,1.86,1.15,2.68.7-.42,1.52-.54,2.5-.01.95.5,1.3,1.26,1.39,2.01.46-.19,1-.25,1.62-.07.25.02.6.07.99.22,1.02.4,1.46,1.17,1.65,1.88.62-.87,1.49-1.44,2.85-1.08.97.25,1.49.79,1.75,1.46.2.01.37.03.55.07.58.11,1,.36,1.26.55.11.05.22.1.32.17.29-.07.62-.1.98-.06.58.07,1.02.28,1.36.56.12.01.24.03.35.06.41-.28.92-.47,1.59-.44.5.02.91.15,1.25.34.41-.55,1.04-1.02,2.02-1.06.51-.03.94.09,1.29.25.2-.07.43-.12.68-.14.11-.01.22-.02.33-.02ZM154.05,211.48s-.05,0-.08,0c.03,0,.05,0,.08,0ZM144.76,211.25s.04,0,.06.01c-.02,0-.04,0-.06-.01ZM137.9,210.94s.07.03.11.04c-.04-.01-.07-.03-.11-.04ZM126.66,210.79s.02.01.03.02c0,0-.02-.01-.03-.02ZM178.31,210.27s-.05.04-.08.05c.03-.02.05-.03.08-.05ZM137.52,210s.02,0,.03.01c-.01,0-.02,0-.03-.01ZM163.68,209.96h0s.03,0,.04-.01c-.01,0-.03,0-.04.01ZM167.88,209.16c-.05.02-.1.04-.15.06.05-.02.1-.04.15-.06ZM133.02,208.48c.05.03.1.05.15.08-.05-.03-.1-.06-.15-.08ZM136.69,208.47s0,0,0,0c0,0,0,0,0,0ZM124.76,208.27s0,0,.01,0c0,0,0,0-.01,0ZM170.83,207.84s-.01,0-.02.01c0,0,.01,0,.02-.01ZM129.84,207.18s.05.03.07.04c-.02-.01-.04-.03-.07-.04ZM118.17,205.34s0,0,0,0c0,0,0,0,0,0ZM129.52,205.18s.07.05.1.07c-.03-.02-.07-.05-.1-.07ZM177.4,203.18s-.05.05-.08.07c.03-.02.05-.05.08-.07ZM94.38,201.65s0,0,0,0c0,0,0,0,0,0ZM85.81,200.48c.05,0,.11,0,.16,0-.05,0-.11,0-.16,0ZM102.16,199.45c-.06.03-.13.05-.2.08.07-.02.13-.05.2-.08ZM106.94,197.21s-.1.05-.15.07c.05-.02.1-.04.15-.07ZM64.36,196.12s0,0,0,0c0,0,0,0,0,0ZM62.65,195.9s.02.01.03.02c0,0-.02-.01-.03-.02ZM81.15,195.85s.1.01.14.02c-.05,0-.09-.02-.14-.02ZM83.08,195.83s.08,0,.12,0c-.04,0-.08,0-.12,0ZM62.08,195.28s.04.02.06.04c-.02-.01-.04-.02-.06-.04ZM59.61,194.86s0,0,.01,0c0,0,0,0-.01,0ZM74.6,193.87s.06.02.1.03c-.03-.01-.06-.02-.1-.03ZM58.31,193.87s.02.02.03.03c-.01,0-.02-.02-.03-.03ZM98.46,193.56s0,0-.01,0c0,0,0,0,.01,0ZM71.3,193.4s.01,0,.02,0c0,0-.01,0-.02,0ZM67.56,191.66s.02.01.03.02c0,0-.02,0-.03-.02ZM66.91,191.51s0,0,0,0c0,0,0,0,0,0ZM228.16,191.2s-.07.03-.1.04c.03-.01.07-.02.1-.04ZM231.18,190.19s-.02.01-.04.02c.01,0,.02-.01.04-.02ZM196.18,189.97c.07.03.15.05.22.07-.07-.02-.15-.04-.22-.07ZM196.97,189.89s.03.01.05.02l-.05-.02ZM211.96,187.57s-.07,0-.1,0c.03,0,.07,0,.1,0ZM208.03,187.34s.08,0,.12.01c-.04,0-.08,0-.12-.01ZM51.58,187.19s.01.01.02.02c0,0-.01-.01-.02-.02ZM206.69,186.86h.07s-.05,0-.07,0ZM221.32,186.78s0,0-.01,0c0,0,0,0,.01,0ZM48.12,180s.04.06.06.09c-.02-.03-.04-.06-.06-.09ZM245.31,179.19s-.02.02-.03.03c0,0,.02-.02.03-.03ZM244.9,177.81s-.01.01-.02.02c0,0,.01-.01.02-.02ZM44.44,175.97h0s0,0,0,0ZM52.83,174.82s.01.02.02.04c0-.01-.01-.02-.02-.04ZM48.47,162.64s0,.04,0,.05c0-.02,0-.04,0-.05ZM255.15,160.93s0,.01,0,.02c0,0,0-.01,0-.02ZM40.27,150.82s0,0,0,0c0,0,0,0,0,0ZM40.27,150.81s0,0,0,0c0,0,0,0,0,0ZM47.43,148.19s0,.01,0,.02c0,0,0-.01,0-.02ZM47.43,148.19s0,0,0,0t0,0ZM48.61,146.44s0,0,0,0c0,0,0,0,0,0ZM40.83,146.17s0,0,0,0c0,0,0,0,0,0ZM251.37,144.53h0s0,0,0,0ZM257.64,142.43v.02s0-.02,0-.02ZM42.01,141.62h0s0,0,0,0ZM42.01,141.61h0s0,0,0,0ZM250.53,140.48s0,.04.01.06c0-.02,0-.04-.01-.06ZM250.55,138.46s0,.03.01.04c0-.01,0-.03-.01-.04ZM43.73,138.12s0,0,0,0c0,0,0,0,0,0ZM43.74,138.11s0,0,0,0c0,0,0,0,0,0ZM255.7,135.66s0,.01,0,.02c0,0,0-.01,0-.02ZM248.36,134.18s0,.03.02.04c0-.01-.01-.03-.02-.04ZM254.27,132.84s0,.01,0,.02c0,0,0-.01,0-.02ZM254.27,132.83s0,0,0,0c0,0,0,0,0,0ZM252.98,130.06s.01.03.02.05c0-.02-.01-.03-.02-.05ZM57.54,129.1h0s0,0,0,0ZM252.47,128.56s.01.03.02.04c0-.01-.01-.03-.02-.04ZM244.03,123.46s.02.03.04.05c-.01-.02-.02-.03-.04-.05ZM241.98,123.31s0,0,0,0c0,0,0,0,0,0ZM249.06,121.69h0s0,0,0,0ZM55.23,120.64s-.02.02-.03.03c0,0,.02-.02.03-.03ZM58.15,120.42l-.03.03.03-.03ZM237.77,120.06s0,0,0,0c0,0,0,0,0,0ZM239.45,119.3s.01.02.02.02c0,0-.02-.01-.02-.02ZM236.86,119.09s.02.01.02.02c0,0-.02-.01-.02-.02ZM80.32,116.98s0,0,0,0c0,0,0,0,0,0ZM80.33,116.98h0,0ZM74.1,116.79s-.01,0-.02,0c0,0,.01,0,.02,0ZM76.18,116.71s-.01,0-.02,0c0,0,.01,0,.02,0ZM83.58,116.68s-.04,0-.06,0c.02,0,.04,0,.06,0ZM102.23,114.68s0,0,0,0c0,0,0,0,0,0ZM239.74,112.5s.02.02.03.03c-.01,0-.02-.02-.03-.03ZM80.1,111.44h.06s-.04,0-.06,0ZM195.24,110.95s0,0,0,0c0,0,0,0,0,0ZM191.92,109.75h0s0,0,0,0ZM191.91,109.74s0,0,0,0c0,0,0,0,0,0ZM191.91,109.74s0,0,0,0c0,0,0,0,0,0ZM191.89,109.7s.01.03.02.04c0-.01-.01-.03-.02-.04ZM191.89,109.69s0,0,0,0c0,0,0,0,0,0ZM190.09,109.38s0,.02.01.02c0,0,0-.02-.01-.02ZM200.08,108.97s-.07.02-.11.03c.04,0,.07-.02.11-.03ZM189.98,107.89l.02.04-.02-.04ZM107.29,107.88s-.01.02-.02.03c0-.01.01-.02.02-.03ZM216.82,107.76c.05.01.11.02.16.03-.05,0-.11-.02-.16-.03ZM211.59,107.5h0,0ZM189.78,107.28h0s0,0,0,0ZM208.13,106.31h0,0ZM108.19,105.23s-.02.04-.04.06c.01-.02.03-.04.04-.06ZM108.43,102.94s-.02.03-.03.04l.03-.04h0ZM108.46,102.91h0s.05-.08.07-.12c-.02.04-.05.08-.07.12ZM223.19,102.81s.04,0,.05.01c-.02,0-.04,0-.05-.01ZM178.41,94.35s.03.02.04.04c-.01-.01-.03-.02-.04-.04ZM120.61,91.95s-.05.04-.08.06c.03-.02.05-.04.08-.06ZM121.86,91.33s-.01,0-.02.01c0,0,.01,0,.02-.01ZM174.58,89.38s.02.01.03.02c0,0-.02-.01-.03-.02ZM124.66,88.11s-.07.04-.1.06c.03-.02.07-.04.1-.06ZM115.61,87.75s0,0,0,0c0,0,0,0,0,0ZM167.89,85.92s.03.01.05.02c-.02,0-.03-.01-.05-.02ZM161.82,84.71s0,0,0,0c0,0,0,0,0,0ZM158.08,82.84h0s0,0,0,0ZM171.81,80.7h0s0,0,0,0ZM165.95,78.6s.01,0,.02,0c0,0-.01,0-.02,0ZM134.02,78.22s-.02,0-.03,0c0,0,.02,0,.03,0ZM151.45,76.46s.06,0,.08,0c-.03,0-.06,0-.08,0h0Z"/>
          </g>
          <g>
            <ellipse class="cls-2" cx="110.87" cy="139.28" rx="6.83" ry="14.6"/>
            <ellipse class="cls-2" cx="128.96" cy="139.28" rx="6.83" ry="14.6"/>
          </g>
        </g>
        <path d="M146.73,82.51c-2.34,0-4.23-1.89-4.23-4.23v-23.98c0-2.34,1.89-4.23,4.23-4.23s4.23,1.89,4.23,4.23v23.98c0,2.34-1.89,4.23-4.23,4.23Z"/>
        <path d="M186,59.8h-78.55c-3.04,0-5.5-2.46-5.5-5.5s2.46-5.5,5.5-5.5h78.55c3.04,0,5.5,2.46,5.5,5.5s-2.46,5.5-5.5,5.5Z"/>
      </g>
      <path class="cls-1" d="M102.02,77.97c.84,0,1.74.44,2.22,1.04s.32,1.47.1,2.29c-.19.72-.2,1.45-.51,2.06-.32.65-.56,1.37-1.02,1.91-.5.59-1.07,1.16-1.68,1.55s-1.4.6-2.14.79c-.68.17-1.45.38-2.24.38-.74,0-1.55-.41-2.43-.66-.72-.21-1.57-.33-2.38-.7-.7-.32-1.3-.95-2.06-1.39-.76-.45-1.44-.81-2.04-1.08-.93-.42-1.7-.68-2.23-.68-.84,0-1.67.15-2.21.56s-1.02,1.13-1.25,1.93c-.33,1.12-1.11,2.04-2.27,2.04v.06c-.84,0-1.62-.51-2.1-1.11s-.83-1.48-.62-2.3c.19-.75.65-1.36.97-1.99.34-.67.75-1.26,1.23-1.79.51-.56,1.02-1.09,1.64-1.47s1.37-.42,2.1-.6c.68-.17,1.36-.24,2.14-.24.73,0,1.53-.34,2.29-.16.7.17,1.26.84,1.99,1.16.66.29,1.45.37,2.13.78.88.54,1.7.88,2.38,1.21,1.11.55,1.88,1.14,2.46,1.14.96,0,1.7-.6,2.3-1.41.29-.38.33-.86.49-1.35.35-1.1,1.55-1.93,2.7-1.93.09-.01.03-.05.05-.05Z"/>
      <path class="cls-1" d="M43.04,110.16c-1.19.06-2.18-.68-3.12-.81-1.1-.16-1.9-.33-2.8-.93-.73-.49-1.15-.98-1.6-1.6-.48-.67-1.03-1.16-1.2-1.96-.15-.75-.39-1.54-.28-2.4.12-.96.04-2.02.4-2.86s1.61-1.22,2.17-1.98,1.12-1.39,1.8-2.06c.7-.69,1.2-1.51,1.96-2.05s1.5-1.23,2.36-1.63,1.84-.47,2.78-.72,1.83-.31,2.8-.4c.59-.05,1.25.09,1.57-.54.21-.42.22-1.12.1-1.69-.18-.89-.61-1.72-.79-2.61s.03-1.85-.15-2.74-.31-1.78-.48-2.67-.41-1.76-.58-2.65-.56-1.73-.74-2.62-.45-1.75-.62-2.64-.31-1.78-.49-2.67-.31-1.78-.49-2.67c-.18-.89-.86-1.67-1.04-2.56s-.12-1.82-.29-2.71c-.18-.89.29-1.9.12-2.79-.3-1.5-.09-2.21,1.2-2.65,1.23-.42,2.12-.12,2.78,1.22.47.96,1.52,1.41,2.26,2.11s1.4,1.47,2.24,2.07c.7.5,1.37,1.03,2.1,1.47s1.4,1.01,2.14,1.44,1.4.99,2.14,1.43,1.49.83,2.19,1.33c.7.49,1.42.9,2.02,1.44.63.57,1.49.92,2.01,1.54s1.09,1.34,1.51,2.04.03,1.83.34,2.6,1,1.37,1.19,2.19.7,1.57.77,2.42.21,1.68.19,2.53c-.03.84-.31,1.7-.39,2.53s.02,1.73-.12,2.56c-.26,1.49-1.7,2.12-2.9,1.92-1.28-.22-2.27-1.25-2.03-2.75.13-.82.74-1.58.77-2.4s.01-1.67-.06-2.5c-.08-.94-.23-1.89-.57-2.66-.36-.82-.79-1.76-1.43-2.38-.6-.59-1.43-1.2-2.26-1.62-.8-.4-1.89-.13-2.73-.37s-1.71-.31-2.59-.45-1.71-.45-2.59-.55c-.65-.07-.47.06-.35.69.17.85-.08,1.79.09,2.64s.32,1.71.49,2.56.5,1.67.67,2.53c.17.85-.14,1.8.03,2.65.17.85.33,1.71.5,2.56s1.17,1.54,1.34,2.39-.54,1.88-.37,2.73.92,1.59,1.09,2.44c.15.76.42,1.54.38,2.27s-.81,1.37-1.03,2.09-.09,1.54-.44,2.22c-.41.78-.58,1.71-1.05,2.38-.5.71-1.22,1.29-1.8,1.88s-1.39,1.05-2.06,1.54-1.65.49-2.41.86-1.31,1.25-2.13,1.48-1.67.44-2.53.53Z"/>
    </g>
  </g>
</svg>