<?xml version="1.0" encoding="UTF-8"?>
<svg xmlns="http://www.w3.org/2000/svg" xmlns:xlink="http://www.w3.org/1999/xlink" viewBox="0 0 1920 1080">
  <defs>
    <style>
      .cls-1 {
        fill: #40b957;
      }

      .cls-2 {
        fill: #4766f4;
      }

      .cls-3 {
        fill: none;
      }

      .cls-4 {
        fill: #183dd6;
      }

      .cls-5 {
        mix-blend-mode: saturation;
        opacity: .72;
      }

      .cls-6 {
        isolation: isolate;
      }

      .cls-7 {
        fill: #ff512b;
      }

      .cls-8 {
        fill: #18e597;
      }

      .cls-9 {
        fill: #ec2221;
      }

      .cls-10 {
        clip-path: url(#clippath);
      }
    </style>
    <clipPath id="clippath">
      <rect class="cls-3" width="1920" height="1080"/>
    </clipPath>
  </defs>
  <g class="cls-6">
    <g id="Layer_2" data-name="Layer 2">
      <g id="_图层_1" data-name="图层 1">
        <g class="cls-5">
          <g class="cls-10">
            <g>
              <g>
                <path class="cls-4" d="M633.31,56.95c111.75-14.28,174.14,34.44,283.28,30.94,109.14-3.51,168.27,72.02,150.56,112.22-15.63,35.48-59.28,62.18-129.58,80.06-70.3,17.88-34.26,49.25-97.04,81.68-62.94,32.52-126.75-16.08-185.94-98.89-72.18-100.99-106.3-195.15-21.27-206.01Z"/>
                <path class="cls-2" d="M970.61,162.27c-9.93-34.17-59.11-15.09-116.12-21.11-57.01-6.02-172.08-79.57-183.03,8.27-10.4,83.43,88.28,162.29,134.79,155.32,46.51-6.97,25.47-79.1,75.39-75.35,49.91,3.75,99.07-32.39,88.97-67.12Z"/>
              </g>
              <g>
                <path class="cls-4" d="M890.17,870.99c66.06-91.26,144.28-103.41,216.41-185.39,72.13-81.98,167.67-73.41,184.86-32.99,15.18,35.68,4.77,85.78-30.3,149.27-35.07,63.49,12.47,58.68-6.84,126.66-19.36,68.15-98.46,81.42-199.36,67.91-123.04-16.47-215.04-56.03-164.78-125.47Z"/>
                <path class="cls-2" d="M1197.78,697.11c-31.71-16.15-51.45,32.78-94.86,70.22-43.4,37.45-175.78,71.03-119.22,139.12,53.72,64.68,178.75,46.69,205.5,8,26.75-38.68-40.25-72.71-3.36-106.54,36.89-33.83,44.18-94.4,11.94-110.81Z"/>
              </g>
              <g>
                <path class="cls-1" d="M1615.65,442.25c-53.74,97.57,81.4,106.01,52.31,195.93-29.09,89.92-102.26,85.51-174.55,78.46-72.29-7.05-241.54,74.93-85.51,171.9,156.03,96.97,290.03,104.9,369.37,37.91,79.34-67,336.16-213.63,251.53-384.06-84.63-170.43-333.3-245.13-413.15-100.13Z"/>
                <path class="cls-8" d="M1755.99,504.63c79.52-34.48,199.45,54.81,173.03,148.59-26.42,93.78-141.33,195.49-272.09,204.73-130.76,9.25-100.38-56.8-62.08-66.04,38.3-9.25,162.46-81.89,140.01-151.9-22.45-70,1.32-126.79,21.13-135.38Z"/>
              </g>
              <g>
                <path class="cls-1" d="M-46.51,984.51c105.49,35.77,90.08-98.75,183.7-85.89,93.63,12.85,102.13,85.66,107.88,158.06,5.75,72.4,116.17,224.64,184.24,54.01,68.07-170.63,52.36-303.94-27.52-370.29-79.88-66.35-269.32-293.44-422.25-180.21-152.93,113.23-182.81,371.15-26.05,424.32Z"/>
                <path class="cls-8" d="M-9.73,835.4c-47.91-72.24,18.95-205.97,115.91-196.43,96.96,9.54,217.26,104.82,249.32,231.93,32.06,127.11-38.29,108.8-54.12,72.71-15.83-36.09-109.14-145.57-174.12-111.17-64.98,34.39-125.05,20.96-136.99,2.96Z"/>
              </g>
              <g>
                <path class="cls-9" d="M943.77,506.27c-106.12-173.93,194.07-214.81,375.5-189.84,181.44,24.96,318.79,230.82,200.96,319.56-117.83,88.74-119.22-32.9-234.4-70.58-115.19-37.68-209.8,157.64-342.07-59.14Z"/>
                <path class="cls-7" d="M1293.31,372.93c-115.54-29.5-306.63,33.63-241.05,130.53,71.24,105.27,154.67-50.21,224.62-10.14,69.95,40.08,120.83,131.74,186.11,90.29,65.28-41.45-26.07-174.02-169.68-210.69Z"/>
              </g>
              <g>
                <path class="cls-9" d="M374.47,595.79c-131.3-71.43-245.86-148.39-186.79-266,33.3-66.31,213.86-15.18,390.15,65.7s377.35,239.31,339.06,309.45c-43.33,79.35-206.4,157.31-347.66,19.34-74.06-72.34-71.62-61.5-194.75-128.49Z"/>
                <path class="cls-7" d="M357.98,357.7c111.89,38.09,425.98,179.92,437.19,286.52,11.22,106.6-154.49,59.66-197.91-6.07-43.42-65.73-183.68-101.67-277.61-157.54-93.93-55.87-105.34-171.83,38.33-122.91Z"/>
              </g>
              <g>
                <path class="cls-1" d="M1111.4-13.77c-85.79,83.63,104.99,292.02,298.27,287.25,193.28-4.77,86.45,136.61,365.09,25.86,155.1-61.65-107.38-167.63-226.69-152.82-119.31,14.81-299.97-293.54-436.67-160.29Z"/>
                <path class="cls-8" d="M1179.2,20.01c-85.79,38.26,18.1,200.97,191.5,200.97s160.67,78.76,248.16,78.35c87.49-.4,176.58-67.18,68.4-93.45-108.17-26.27-203.62-3.39-260.89-59.37-57.27-55.98-188.92-152.49-247.18-126.5Z"/>
              </g>
              <g>
                <path class="cls-4" d="M71.02,460.21c89.31-126.52,5.77-330,339.41-190.9,154.53,64.43,183.45-137.09,44.76-221.54C292.93-51.04-91.24,16.89-57.84,365.5c14.3,149.22,100.22,135.28,128.85,94.72Z"/>
                <path class="cls-2" d="M465.86,192.35c-45.28,69.26-158.77-48.39-239.9-13.06-81.13,35.33-124.08,116.61-130.45,166.65-6.36,50.04-94.68,110.53-82.72-46.6C24.75,142.21,161.1,8.34,377.09,82.59c101.81,35,104.38,85.9,88.78,109.77Z"/>
              </g>
              <g>
                <path class="cls-9" d="M539.57,851.36c26.05-51.71,132.07,49.87,205.92,17.09,73.85-32.77,142.9,113.89,41.26,205.69-101.65,91.81-363.16,7.5-247.18-222.79Z"/>
                <path class="cls-7" d="M575.3,916.16c25.52-48.72,110.3,53.03,182.41,9.54s18.03,181.35-91.21,125.14c-109.23-56.21-114.54-90.15-91.21-134.69Z"/>
              </g>
            </g>
          </g>
        </g>
      </g>
    </g>
  </g>
</svg>