<svg width="322" height="143" viewBox="0 0 322 143" fill="none" xmlns="http://www.w3.org/2000/svg">
<path d="M52.1966 12.0811C9.57561 35.3721 -7.11339 87.9121 2.75361 134.144C2.75361 134.144 24.2136 130.759 61.0906 137.364C61.0906 137.364 48.1406 129.066 47.9176 109.878C26.5566 107.459 21.4206 101.242 21.4206 101.242C21.4206 101.242 23.3596 18.1981 89.5766 44.2521C89.5766 44.2521 67.8676 34.7761 52.1966 12.0811Z" fill="#0242FF"/>
<path d="M66.3814 60C76.0384 53.194 85.4404 64.661 83.0254 78.424C80.1644 94.721 67.2024 81.414 65.4754 79.866C59.4944 74.487 61.8554 63.192 66.3814 60ZM89.8304 111.667C76.8444 110.059 75.7334 106.433 75.7334 106.433C75.7334 106.433 76.7204 106.541 77.6084 106.372C84.2804 105.103 92.2364 101.041 93.8144 93.69C98.4764 72.002 94.5774 44.923 69.2934 44.959C58.7984 44.971 47.6634 55.56 50.1294 74.806L40.2014 63.418C40.2014 63.418 25.7834 75.967 30.0754 98.236C34.5904 101.863 40.5344 103.725 51.9434 105.381C53.2994 111.861 54.8414 118.401 57.9614 123.999C65.0044 136.657 83.6154 143.886 99.6234 139.957C91.0274 129.101 90.3244 118.595 89.8304 111.667Z" fill="#0242FF"/>
<path d="M136.028 91.0305C131.28 108.016 123.732 120.795 119.181 119.573C114.617 118.34 114.778 103.579 119.526 86.5935C124.274 69.6075 131.822 56.8295 136.373 58.0625C140.937 59.2835 140.776 74.0445 136.028 91.0305ZM154.565 60.7465C145.537 42.2975 116.134 40.1335 104.911 67.4435C92.6756 97.2685 94.3036 124.832 107.045 138.856C107.045 138.856 117.861 132.957 136.978 125.8C154.22 119.344 165.751 83.5715 154.565 60.7465Z" fill="#0242FF"/>
<path d="M198.524 118.246C204.025 106.604 212.115 82.5449 201.459 56.5649C201.314 67.5629 198.747 72.8159 198.747 72.8159C198.747 72.8159 195.206 64.4109 188.953 63.3229C188.953 63.3229 200.189 83.8389 185.204 118.101C174.955 118.343 164.188 119.382 153.717 121.607C153.717 121.607 174.609 88.2639 161.055 60.1679C151.46 40.2799 133.453 36.0969 107.553 44.1609C107.553 44.1609 129.556 30.8379 134.057 11.7849C169.392 13.5139 186.61 32.0719 190.705 36.0369C196.279 24.5159 196.896 10.8059 196.896 10.8059C196.896 10.8059 220.975 18.1029 228.523 52.0859C219.778 72.3729 221.163 99.0299 231.549 122.522C223.656 120.298 213.497 118.863 198.524 118.246Z" fill="#0242FF"/>
<path d="M224.436 25.0672C224.436 25.0672 230.061 30.5582 234.373 47.7362C234.373 47.7362 241.027 34.7362 251.957 34.4112C259.403 34.1892 265.559 38.4212 270.018 45.8442L285.175 39.6252C285.175 39.6252 272.502 16.8192 252.988 7.62622C229.298 10.9012 224.436 25.0672 224.436 25.0672Z" fill="#0242FF"/>
<path d="M251.271 102.552C246.301 102.552 243.302 92.6989 243.302 80.5489C243.302 68.3989 246.301 58.5459 251.271 58.5459C256.254 58.5459 259.252 68.3989 259.252 80.5489C259.252 92.6989 256.254 102.552 251.271 102.552ZM251.863 46.3959C238.987 46.5049 223.632 62.0399 230.181 96.6159C234.917 121.617 246.523 124.229 252.887 121.146L263.28 125.829C263.28 125.829 269.872 119.462 275.204 103.307L269.989 100.677C269.989 100.677 284.275 46.1419 251.863 46.3959Z" fill="#0242FF"/>
<path d="M273.33 50.4074C272.661 50.4394 278.604 48.7834 287.336 45.0244C287.336 45.0244 297.505 56.4884 295.696 70.5124C295.696 70.5124 303.26 49.9634 294.545 29.4504C304.74 33.9214 318.62 28.4634 321.794 25.0674C321.794 25.0674 325.422 92.9804 273.718 139.607L266.035 128.411C266.035 128.411 280.245 110.338 281.603 86.8984C283.152 60.1324 273.33 50.4074 273.33 50.4074Z" fill="#0242FF"/>
<path d="M112.054 7.768C110.925 7.768 109.843 7.99 108.829 8.381C107.031 3.459 102.787 0 97.8346 0C92.8016 0 88.5066 3.579 86.7616 8.632C85.5816 8.078 84.2926 7.768 82.9396 7.768C77.3666 7.768 72.8486 12.941 72.8486 19.322C72.8486 25.702 77.3666 30.875 82.9396 30.875C84.9656 30.875 86.8496 30.184 88.4306 29.006C89.8916 33.327 93.5456 36.396 97.8346 36.396C101.998 36.396 105.57 33.509 107.112 29.389C108.574 30.331 110.257 30.875 112.054 30.875C117.627 30.875 122.145 25.702 122.145 19.322C122.145 12.941 117.627 7.768 112.054 7.768Z" fill="#0242FF"/>
<path d="M134.464 142.426C133.444 142.407 132.527 142.263 131.71 141.992C130.892 141.721 130.192 141.335 129.609 140.835C129.026 140.336 128.574 139.721 128.255 138.989C127.935 138.256 127.776 137.419 127.776 136.477C127.776 135.631 127.942 134.856 128.273 134.153C128.605 133.449 129.066 132.833 129.655 132.305C130.245 131.777 130.948 131.371 131.765 131.086C132.581 130.8 133.506 130.658 134.538 130.658C134.845 130.658 135.189 130.684 135.569 130.736C135.95 130.789 136.325 130.857 136.694 130.943C137.062 131.028 137.344 131.1 137.541 131.157C137.737 131.214 137.946 131.314 138.167 131.456V134.709C138.118 134.48 137.762 134.22 137.099 133.924C136.386 133.62 135.502 133.492 134.446 133.539C134.016 133.549 133.62 133.629 133.257 133.782C132.895 133.934 132.579 134.131 132.308 134.374C132.038 134.616 131.832 134.906 131.691 135.244C131.55 135.582 131.479 135.931 131.479 136.293C131.467 136.721 131.534 137.098 131.682 137.427C131.829 137.754 132.038 138.04 132.308 138.282C132.579 138.525 132.898 138.708 133.266 138.832C133.635 138.955 134.034 139.017 134.464 139.017C135.066 139.045 135.692 138.989 136.343 138.846C136.994 138.703 137.608 138.465 138.186 138.133L138.204 138.147V141.756C137.615 141.965 136.948 142.129 136.205 142.248C135.462 142.367 134.882 142.426 134.464 142.426Z" fill="#0242FF"/>
<path d="M143.805 139.217H148.743V142.112H140.01V130.486H143.805V139.217Z" fill="#0242FF"/>
<path d="M154.086 142.112H150.383V130.543H154.086V142.112Z" fill="#0242FF"/>
<path d="M159.3 130.486L162.929 134.908L166.467 130.486H170.078V142.112H166.375V135.85L163.114 139.53H162.543L159.447 135.85V142.112H155.928V130.486H159.3Z" fill="#0242FF"/>
<path d="M175.31 136.949V138.161C175.31 138.589 175.316 139.003 175.328 139.403H176.01C176.293 139.403 176.572 139.386 176.848 139.353C177.125 139.319 177.364 139.263 177.567 139.181C177.77 139.1 177.936 138.98 178.065 138.817C178.194 138.656 178.258 138.427 178.258 138.133C178.258 137.867 178.187 137.655 178.046 137.497C177.905 137.341 177.727 137.22 177.512 137.134C177.297 137.048 177.057 136.996 176.794 136.977C176.529 136.958 176.268 136.949 176.01 136.949H175.31ZM175.328 132.812V133.853C175.328 134.024 175.326 134.198 175.319 134.374C175.313 134.55 175.31 134.733 175.31 134.923H175.992C176.151 134.923 176.323 134.911 176.508 134.887C176.692 134.864 176.858 134.809 177.005 134.724C177.153 134.637 177.278 134.529 177.383 134.395C177.487 134.262 177.54 134.086 177.54 133.867C177.527 133.459 177.371 133.18 177.069 133.033C176.768 132.885 176.385 132.812 175.918 132.812H175.328ZM176.416 130.558C176.968 130.558 177.518 130.613 178.065 130.722C178.611 130.832 179.103 131.019 179.539 131.285C179.975 131.552 180.319 131.897 180.57 132.319C180.822 132.743 180.935 133.259 180.911 133.867C180.874 134.276 180.766 134.628 180.589 134.923C180.41 135.218 180.174 135.485 179.879 135.722C180.444 135.998 180.97 136.378 181.455 136.863C181.94 137.348 182.182 137.938 182.182 138.632C182.182 139.327 181.952 139.945 181.492 140.487C181.031 141.029 180.534 141.428 179.999 141.685C179.465 141.942 178.884 142.112 178.258 142.198C177.632 142.284 177.042 142.327 176.489 142.327H171.662V130.558H176.416Z" fill="#0242FF"/>
<path d="M187.415 142.112H183.712V130.543H187.415V142.112Z" fill="#0242FF"/>
<path d="M201.62 142.127H198.137L192.85 135.836V142.127H189.165V130.501H192.85L197.935 136.72V130.501H201.62V142.127Z" fill="#0242FF"/>
<path d="M209.396 135.008H210.52C210.962 135.008 211.42 135.011 211.893 135.015C212.365 135.02 212.829 135.022 213.283 135.022H214.371V141.456C213.903 141.579 213.474 141.681 213.081 141.763C212.687 141.844 212.304 141.91 211.929 141.963C211.555 142.015 211.189 142.048 210.833 142.062C210.477 142.077 210.108 142.084 209.727 142.084C208.733 142.084 207.827 141.943 207.01 141.663C206.193 141.383 205.49 140.985 204.9 140.471C204.311 139.958 203.85 139.328 203.519 138.582C203.187 137.835 203.021 136.982 203.021 136.02C203.021 135.174 203.187 134.393 203.519 133.674C203.85 132.956 204.323 132.331 204.937 131.798C205.551 131.266 206.282 130.854 207.13 130.565C207.977 130.274 208.929 130.129 209.985 130.129C210.329 130.129 210.688 130.149 211.063 130.186C211.438 130.224 211.803 130.289 212.159 130.379C212.515 130.469 212.906 130.562 213.33 130.657C213.753 130.752 214.1 130.866 214.371 131V134.095C213.805 133.62 213.068 133.308 212.159 133.16C211.251 133.014 210.495 132.954 209.893 132.982C209.439 132.992 209.018 133.08 208.632 133.247C208.244 133.413 207.913 133.629 207.636 133.895C207.36 134.162 207.142 134.471 206.982 134.822C206.823 135.174 206.743 135.541 206.743 135.921C206.73 136.368 206.804 136.78 206.964 137.155C207.123 137.53 207.348 137.851 207.636 138.118C207.925 138.384 208.269 138.591 208.668 138.739C209.067 138.886 209.482 138.959 209.912 138.959C210.17 138.969 210.375 138.964 210.529 138.946C210.683 138.926 210.863 138.908 211.073 138.888V137.476H209.396V135.008Z" fill="#0242FF"/>
<path d="M227.635 135.008H228.759C229.201 135.008 229.659 135.011 230.132 135.015C230.604 135.02 231.068 135.022 231.522 135.022H232.61V141.456C232.142 141.579 231.713 141.681 231.32 141.763C230.926 141.844 230.543 141.91 230.168 141.963C229.794 142.015 229.428 142.048 229.072 142.062C228.716 142.077 228.347 142.084 227.966 142.084C226.972 142.084 226.066 141.943 225.249 141.663C224.432 141.383 223.729 140.985 223.139 140.471C222.55 139.958 222.089 139.328 221.758 138.582C221.426 137.835 221.26 136.982 221.26 136.02C221.26 135.174 221.426 134.393 221.758 133.674C222.089 132.956 222.562 132.331 223.176 131.798C223.79 131.266 224.521 130.854 225.369 130.565C226.216 130.274 227.168 130.129 228.224 130.129C228.568 130.129 228.927 130.149 229.302 130.186C229.677 130.224 230.042 130.289 230.398 130.379C230.754 130.469 231.145 130.562 231.569 130.657C231.992 130.752 232.339 130.866 232.61 131V134.095C232.044 133.62 231.307 133.308 230.398 133.16C229.49 133.014 228.734 132.954 228.132 132.982C227.678 132.992 227.257 133.08 226.871 133.247C226.483 133.413 226.152 133.629 225.876 133.895C225.599 134.162 225.381 134.471 225.221 134.822C225.062 135.174 224.982 135.541 224.982 135.921C224.969 136.368 225.043 136.78 225.203 137.155C225.362 137.53 225.587 137.851 225.876 138.118C226.164 138.384 226.508 138.591 226.907 138.739C227.306 138.886 227.721 138.959 228.151 138.959C228.409 138.969 228.614 138.964 228.768 138.946C228.922 138.926 229.102 138.908 229.312 138.888V137.476H227.635V135.008Z" fill="#0242FF"/>
<path d="M241.876 142.127H238.172V136.649L233.825 130.501H237.841L240.107 133.882L242.465 130.501H246.39L241.876 136.649V142.127Z" fill="#0242FF"/>
<path d="M251.069 130.486L254.698 134.908L258.236 130.486H261.847V142.112H258.144V135.85L254.883 139.53H254.312L251.216 135.85V142.112H247.697V130.486H251.069Z" fill="#0242FF"/>
</svg>
