<?xml version="1.0" encoding="UTF-8"?>
<svg id="Layer_2" data-name="Layer 2" xmlns="http://www.w3.org/2000/svg" viewBox="0 0 224.06 101.15">
  <defs>
    <style>
      .cls-1 {
        fill: #fff;
      }
    </style>
  </defs>
  <g id="_图层_1" data-name="图层 1">
    <g>
      <path class="cls-1" d="M36.34,8.58C6.67,25.12-4.95,62.44,1.92,95.27c0,0,14.94-2.4,40.61,2.29,0,0-9.02-5.89-9.17-19.52-14.87-1.72-18.45-6.13-18.45-6.13,0,0,1.35-58.98,47.45-40.48,0,0-15.11-6.73-26.02-22.85Z"/>
      <path class="cls-1" d="M62.54,79.31c-9.04-1.14-9.81-3.72-9.81-3.72,0,0,.69.08,1.31-.04,4.65-.9,10.18-3.79,11.28-9.01,3.25-15.4.53-34.64-17.07-34.61-7.31,0-15.06,7.53-13.34,21.2l-6.91-8.09s-10.04,8.91-7.05,24.73c3.14,2.58,7.28,3.9,15.22,5.07.94,4.6,2.02,9.25,4.19,13.22,4.9,8.99,17.86,14.12,29,11.33-5.98-7.71-6.47-15.17-6.82-20.09ZM46.21,42.61c6.72-4.83,13.27,3.31,11.59,13.08-1.99,11.57-11.02,2.12-12.22,1.02-4.16-3.82-2.52-11.84.63-14.11Z"/>
      <path class="cls-1" d="M107.6,43.14c-6.29-13.1-26.75-14.64-34.57,4.76-8.52,21.18-7.38,40.76,1.49,50.72,0,0,7.53-4.19,20.84-9.27,12-4.59,20.03-29.99,12.24-46.2ZM94.7,64.65c-3.31,12.06-8.56,21.14-11.73,20.27-3.18-.88-3.07-11.36.24-23.42,3.31-12.06,8.56-21.14,11.73-20.26,3.18.87,3.07,11.35-.24,23.41Z"/>
      <path class="cls-1" d="M138.21,83.98c3.83-8.27,9.46-25.36,2.04-43.81-.1,7.81-1.89,11.54-1.89,11.54,0,0-2.47-5.97-6.82-6.74,0,0,7.82,14.57-2.61,38.9-7.14.17-14.63.91-21.92,2.49,0,0,14.54-23.68,5.11-43.64-6.68-14.12-19.22-17.1-37.25-11.37,0,0,15.32-9.46,18.45-22.99,24.6,1.23,36.59,14.41,39.44,17.22,3.88-8.18,4.31-17.92,4.31-17.92,0,0,16.76,5.18,22.02,29.32-6.09,14.41-5.12,33.34,2.11,50.02-5.5-1.58-12.57-2.6-22.99-3.04Z"/>
      <path class="cls-1" d="M156.25,17.8s3.92,3.9,6.92,16.1c0,0,4.63-9.23,12.24-9.46,5.18-.16,9.47,2.85,12.57,8.12l10.55-4.42s-8.82-16.2-22.41-22.73c-16.49,2.33-19.88,12.39-19.88,12.39Z"/>
      <path class="cls-1" d="M175.34,32.95c-8.96.08-19.65,11.11-15.09,35.67,3.3,17.76,11.38,19.61,15.81,17.42l7.24,3.33s4.59-4.52,8.3-16l-3.63-1.87s9.95-38.73-12.62-38.55ZM174.93,72.83c-3.46,0-5.55-7-5.55-15.63s2.09-15.63,5.55-15.63,5.56,7,5.56,15.63-2.09,15.63-5.56,15.63Z"/>
      <path class="cls-1" d="M190.29,35.8c-.47.02,3.67-1.15,9.75-3.82,0,0,7.08,8.14,5.82,18.1,0,0,5.27-14.59-.8-29.16,7.1,3.18,16.76-.7,18.97-3.11,0,0,2.53,48.23-33.47,81.35l-5.35-7.95s9.89-12.84,10.84-29.48c1.08-19.01-5.76-25.92-5.76-25.92Z"/>
      <path class="cls-1" d="M78.01,5.52c-.79,0-1.54.16-2.25.44-1.25-3.5-4.21-5.95-7.65-5.95s-6.49,2.54-7.71,6.13c-.82-.39-1.72-.61-2.66-.61-3.88,0-7.02,3.67-7.02,8.21s3.15,8.21,7.02,8.21c1.41,0,2.72-.49,3.82-1.33,1.02,3.07,3.56,5.25,6.55,5.25s5.38-2.05,6.46-4.98c1.02.67,2.19,1.06,3.44,1.06,3.88,0,7.02-3.67,7.02-8.21s-3.15-8.21-7.02-8.21Z"/>
      <g>
        <path class="cls-1" d="M93.61,101.15c-.71-.01-1.35-.12-1.92-.31s-1.06-.47-1.46-.82c-.41-.35-.72-.79-.94-1.31s-.33-1.11-.33-1.78c0-.6.12-1.15.35-1.65.23-.5.55-.94.96-1.31.41-.38.9-.66,1.47-.87.57-.2,1.21-.3,1.93-.3.21,0,.45.02.72.06.26.04.53.09.78.15.26.06.45.11.59.15.14.04.28.11.44.21v2.31c-.03-.16-.28-.35-.74-.56-.5-.22-1.11-.31-1.85-.27-.3,0-.58.06-.83.17-.25.11-.47.25-.66.42s-.33.38-.43.62-.15.49-.15.74c0,.3.04.57.14.81.1.23.25.44.44.61s.41.3.67.39c.26.09.53.13.83.13.42.02.85-.02,1.31-.12.45-.1.88-.27,1.28-.51h.01v2.57c-.41.15-.87.26-1.39.35s-.92.13-1.21.13Z"/>
        <path class="cls-1" d="M100.11,98.87h3.44v2.06h-6.08v-8.26h2.64v6.2Z"/>
        <path class="cls-1" d="M107.27,100.93h-2.58v-8.22h2.58v8.22Z"/>
        <path class="cls-1" d="M110.9,92.67l2.53,3.14,2.46-3.14h2.51v8.26h-2.58v-4.45l-2.27,2.61h-.4l-2.15-2.61v4.45h-2.45v-8.26h2.35Z"/>
        <path class="cls-1" d="M122.82,92.72c.38,0,.77.04,1.15.12s.72.21,1.03.4.54.43.72.73c.17.3.25.67.24,1.1-.03.29-.1.54-.22.75-.12.21-.29.4-.49.57.39.2.76.47,1.1.81.34.34.51.76.51,1.26s-.16.93-.48,1.32-.67.67-1.04.85-.78.3-1.21.36c-.44.06-.85.09-1.23.09h-3.36v-8.36h3.31ZM122.06,94.33v.74c0,.12,0,.25,0,.37,0,.13,0,.26,0,.39h.47c.11,0,.23,0,.36-.03.13-.02.24-.06.35-.12.1-.06.19-.14.26-.23.07-.09.11-.22.11-.38,0-.29-.12-.49-.33-.59s-.48-.16-.8-.16h-.41ZM122.05,97.26v.86c0,.3,0,.6.01.88h.47c.2,0,.39-.01.58-.04.19-.02.36-.06.5-.12.14-.06.26-.14.35-.26.09-.11.13-.28.13-.49,0-.19-.05-.34-.15-.45-.1-.11-.22-.2-.37-.26-.15-.06-.32-.1-.5-.11-.18-.01-.37-.02-.55-.02h-.49Z"/>
        <path class="cls-1" d="M130.47,100.93h-2.58v-8.22h2.58v8.22Z"/>
        <path class="cls-1" d="M140.36,100.94h-2.42l-3.68-4.47v4.47h-2.57v-8.26h2.57l3.54,4.42v-4.42h2.57v8.26Z"/>
        <path class="cls-1" d="M145.78,95.89h.78c.31,0,.63,0,.96,0,.33,0,.65,0,.97,0h.76v4.57c-.33.09-.62.16-.9.22-.27.06-.54.1-.8.14-.26.04-.52.06-.76.07-.25.01-.5.02-.77.02-.69,0-1.32-.1-1.89-.3-.57-.2-1.06-.48-1.47-.85-.41-.36-.73-.81-.96-1.34-.23-.53-.35-1.14-.35-1.82,0-.6.12-1.16.35-1.67.23-.51.56-.95.99-1.33.43-.38.94-.67,1.53-.88.59-.21,1.25-.31,1.99-.31.24,0,.49.01.75.04.26.03.52.07.76.14.25.06.52.13.81.2.29.07.54.15.72.24v2.2c-.39-.34-.91-.56-1.54-.66-.63-.1-1.16-.15-1.58-.13-.32,0-.61.07-.88.19-.27.12-.5.27-.69.46s-.34.41-.46.66-.17.51-.17.78c0,.32.04.61.15.88.11.27.27.49.47.68.2.19.44.34.72.44s.57.16.87.16c.18,0,.32,0,.43,0,.11-.01.23-.03.38-.04v-1h-1.17v-1.75Z"/>
        <path class="cls-1" d="M158.47,95.89h.78c.31,0,.63,0,.96,0,.33,0,.65,0,.97,0h.76v4.57c-.33.09-.62.16-.9.22-.27.06-.54.1-.8.14-.26.04-.52.06-.76.07-.25.01-.5.02-.77.02-.69,0-1.32-.1-1.89-.3-.57-.2-1.06-.48-1.47-.85-.41-.36-.73-.81-.96-1.34-.23-.53-.35-1.14-.35-1.82,0-.6.12-1.16.35-1.67.23-.51.56-.95.99-1.33.43-.38.94-.67,1.53-.88.59-.21,1.25-.31,1.99-.31.24,0,.49.01.75.04.26.03.52.07.76.14.25.06.52.13.81.2.29.07.54.15.72.24v2.2c-.39-.34-.91-.56-1.54-.66-.63-.1-1.16-.15-1.58-.13-.32,0-.61.07-.88.19-.27.12-.5.27-.69.46s-.34.41-.46.66-.17.51-.17.78c0,.32.04.61.15.88.11.27.27.49.47.68.2.19.44.34.72.44s.57.16.87.16c.18,0,.32,0,.43,0,.11-.01.23-.03.38-.04v-1h-1.17v-1.75Z"/>
        <path class="cls-1" d="M168.39,100.94h-2.58v-3.89l-3.03-4.37h2.8l1.58,2.4,1.64-2.4h2.73l-3.14,4.37v3.89Z"/>
        <path class="cls-1" d="M174.79,92.67l2.53,3.14,2.46-3.14h2.51v8.26h-2.58v-4.45l-2.27,2.61h-.4l-2.15-2.61v4.45h-2.45v-8.26h2.35Z"/>
      </g>
    </g>
  </g>
</svg>