<?xml version="1.0" encoding="UTF-8"?>
<svg id="Layer_2" data-name="Layer 2" xmlns="http://www.w3.org/2000/svg" viewBox="0 0 124.48 94.51">
  <defs>
    <style>
      .cls-1 {
        fill: #fff;
      }
    </style>
  </defs>
  <g id="_图层_1" data-name="图层 1">
    <path class="cls-1" d="M88.38,28.68c-2.55,0-4.98.51-7.27,1.41-4.05-11.32-13.62-19.27-24.78-19.27s-21.03,8.23-24.96,19.85c-2.66-1.27-5.56-1.99-8.62-1.99C10.18,28.68,0,40.57,0,55.25s10.18,26.57,22.75,26.57c4.57,0,8.81-1.59,12.38-4.3,3.29,9.94,11.53,17,21.2,17s17.44-6.64,20.91-16.12c3.29,2.17,7.09,3.42,11.14,3.42,12.56,0,22.75-11.9,22.75-26.57s-10.18-26.57-22.75-26.57Z"/>
    <path class="cls-1" d="M103.68,25.68c-2.08-1.17-3.71-2.79-4.88-4.88-1.17-2.08-1.75-4.45-1.75-7.09s.58-5,1.75-7.09c1.17-2.08,2.79-3.71,4.88-4.88,2.08-1.17,4.45-1.75,7.09-1.75s5,.58,7.09,1.75c2.08,1.17,3.71,2.79,4.88,4.88,1.17,2.08,1.75,4.45,1.75,7.09s-.58,5-1.75,7.09c-1.17,2.08-2.79,3.71-4.88,4.88-2.08,1.17-4.45,1.75-7.09,1.75s-5-.58-7.09-1.75ZM116.67,23.8c1.73-.98,3.09-2.35,4.06-4.11.97-1.76,1.46-3.75,1.46-5.97s-.49-4.22-1.46-5.97-2.32-3.13-4.06-4.11c-1.74-.98-3.71-1.47-5.91-1.47s-4.17.49-5.91,1.47c-1.73.98-3.09,2.35-4.06,4.11-.97,1.76-1.46,3.75-1.46,5.97s.49,4.22,1.46,5.97c.97,1.76,2.32,3.13,4.06,4.11,1.74.98,3.7,1.47,5.91,1.47s4.17-.49,5.91-1.47ZM107.18,20.9c-1.15-.67-2.03-1.62-2.65-2.85-.62-1.23-.93-2.68-.93-4.34s.31-3.1.93-4.34c.62-1.23,1.51-2.18,2.65-2.85,1.15-.67,2.48-1,4.01-1,1.42,0,2.68.35,3.8,1.05,1.11.7,1.93,1.65,2.46,2.85l-3.5,2.42c-.33-.74-.72-1.29-1.18-1.64-.46-.35-1-.52-1.64-.52-.98,0-1.74.36-2.27,1.08-.54.72-.8,1.7-.8,2.95s.27,2.22.8,2.93c.53.71,1.29,1.06,2.27,1.06.66,0,1.21-.17,1.65-.51.45-.34.83-.88,1.16-1.62l3.5,2.39c-.52,1.2-1.34,2.16-2.46,2.86-1.11.71-2.38,1.06-3.8,1.06-1.53,0-2.86-.33-4.01-1Z"/>
  </g>
</svg>