<?xml version="1.0" encoding="UTF-8"?>
<svg id="Layer_2" data-name="Layer 2" xmlns="http://www.w3.org/2000/svg" xmlns:xlink="http://www.w3.org/1999/xlink" viewBox="0 0 314.82 314.82">
  <defs>
    <style>
      .cls-1 {
        clip-path: url(#clippath-4);
      }

      .cls-2 {
        fill: #fffef8;
      }

      .cls-3 {
        fill: #32a0ef;
      }

      .cls-4 {
        fill: #602006;
      }

      .cls-5 {
        fill: #fff;
      }

      .cls-6 {
        fill: #d03400;
      }

      .cls-7 {
        fill: #0242ff;
      }

      .cls-8 {
        fill: none;
      }

      .cls-9 {
        fill: #cf6e2f;
      }

      .cls-10 {
        fill: #0042ff;
      }

      .cls-11 {
        clip-path: url(#clippath-3);
      }

      .cls-12 {
        fill: #ff5a62;
      }

      .cls-13 {
        clip-path: url(#clippath);
      }
    </style>
    <clipPath id="clippath">
      <circle class="cls-8" cx="157.41" cy="157.41" r="145.59"/>
    </clipPath>
    <clipPath id="clippath-3">
      <ellipse class="cls-8" cx="132.13" cy="173.42" rx="17.52" ry="29.23" transform="translate(-9.28 7.48) rotate(-3.13)"/>
    </clipPath>
    <clipPath id="clippath-4">
      <ellipse class="cls-8" cx="195.21" cy="169.97" rx="17.52" ry="29.23" transform="translate(-9 10.92) rotate(-3.13)"/>
    </clipPath>
  </defs>
  <g id="_图层_1" data-name="图层 1">
    <g>
      <circle class="cls-10" cx="157.41" cy="157.41" r="145.59"/>
      <path d="M157.41,309.49c-83.86,0-152.08-68.23-152.08-152.09S73.55,5.32,157.41,5.32s152.09,68.23,152.09,152.09-68.23,152.09-152.09,152.09ZM157.41,18.31c-76.7,0-139.09,62.4-139.09,139.1s62.4,139.1,139.09,139.1,139.1-62.4,139.1-139.1S234.1,18.31,157.41,18.31Z"/>
    </g>
    <g class="cls-13">
      <g>
        <g>
          <path class="cls-9" d="M40.56,313.87c.18.17-.31,1.76-.12,1.93s-.02.78.17.95-.15.96.04,1.13,2.45-2.11,2.64-1.95-.28,1.1-.08,1.26-.09.93.11,1.08.68-.07.88.08.62-.01.82.13,1.29-1.02,1.49-.88.7-.23.9-.09.24.47.45.6.37.26.59.39-1.14,2.92-.92,3.04.06.92.27,1.03,1.92-2.55,2.13-2.44.52-.02.73.08-.95,3.01-.73,3.12,1.12-1.22,1.33-1.13-.3,1.88-.08,1.98,1.45-2.18,1.67-2.09-.5,2.55-.28,2.64,1.5-2.59,1.72-2.5.47.03.7.11-.51,3-.28,3.08,1.47-3.07,1.7-3,.23.82.46.89-.38,3.24-.15,3.31,1.21-2.76,1.44-2.71-.07,2.42.17,2.47.54-.09.77-.04,1.07-3.04,1.31-2.99-.04,3,.2,3.03.6-.64.84-.61.67-1.47.91-1.44.34,1.12.58,1.15.56-.92.79-.9.49-.55.73-.53.31,3.21.55,3.22.59-3.57.83-3.56.43,2.47.67,2.47.48-.2.72-.2.47-.26.71-.27.52.74.76.73.43-.81.67-.83.7,2.08.93,2.05.41-.96.64-.99.52.05.75.02.33-1.11.56-1.15.21-1.46.45-1.5.46-.03.69-.08.33-.57.56-.63.34-.45.57-.51,1,1.88,1.23,1.82-.1-1.91.13-1.98.72.75.95.68.83.93,1.05.84.39-.33.62-.42.25-.66.47-.75.85.73,1.06.63-.65-2.49-.43-2.59,1,.99,1.21.89.89-.55,1.1-.66c.11.21,1.32.46,1.44.67s.43.27.55.48-.81,1.01-.68,1.21,1.7-.52,1.83-.31-2.56,2.19-2.42,2.39-.15.71-.02.9,1.44-.4,1.58-.2,1.6-.58,1.74-.38-1.23,1.5-1.08,1.69,1.28-.39,1.43-.2-.3.84-.15,1.03.52.19.67.37,1-.25,1.16-.07-.87,1.41-.71,1.58-1.12,1.71-.95,1.89,2.03-1.25,2.19-1.07,1.25-.57,1.42-.41-.1.76.07.93-.44,1.16-.26,1.32-.13.87.05,1.03,2.2-1.77,2.38-1.61-2.02,3.1-1.84,3.26,3.04-2.92,3.22-2.77-.88,1.84-.7,1.99-.09.9.1,1.05,1.1-.67,1.29-.53-.68,1.77-.48,1.91.66-.08.86.06.99-.6,1.19-.47.86-.47,1.06-.34-.6,1.85-.39,1.98-.15,1.21.06,1.33,1.61-1.78,1.82-1.66-.46,1.81-.25,1.93,1.11-1.02,1.32-.91-.03,1.11.18,1.22.37.37.58.47.53.04.74.14,1.41-1.92,1.62-1.83.03,1.08.25,1.17.4.26.62.35-.07,1.45.16,1.54.5.07.72.15.53-.02.75.06.05,1.37.28,1.44,1.48-2.98,1.71-2.91-.12,1.97.11,2.04.85-1.24,1.08-1.17-.17,2.44.07,2.5,1.32-3.25,1.55-3.19-.06,2.26.17,2.31.38.53.61.58.49.06.72.11.51-.07.74-.03.83-2.15,1.06-2.11.04,2.98.27,3.01.4.87.63.9.94-4.12,1.18-4.09.31,1.57.54,1.59.43.56.67.58.42,1.03.66,1.04.56-1.98.79-1.97.41,3.62.64,3.63.5-4.5.74-4.5.54,4.41.78,4.4.42-2.44.66-2.45.34-2.3.58-2.31.5.85.74.84.38-.73.62-.75.82,3.27,1.05,3.24.66,1.17.9,1.14.46-.47.69-.51.52-.03.75-.07-.04-2.93.19-2.97.71,1.14.95,1.09.17-1.41.4-1.46.31-.62.54-.68.83,1.31,1.06,1.24.99,1.63,1.22,1.57-.37-2.82-.14-2.89,1.14,1.91,1.37,1.83.8.71,1.02.63.03-1.36.25-1.45-.55-2.59-.33-2.68,1.89,3.17,2.11,3.08-1.18-3.74-.97-3.84,1.75,2.56,1.97,2.45-.32-1.69-.11-1.8-.43-1.74-.22-1.85,2.75,3.88,2.95,3.76-.35-1.59-.15-1.72.49-.16.69-.29-1.18-2.63-.98-2.76,1.95,1.99,2.15,1.86-1.39-2.69-1.2-2.84,1.33,1,1.52.86-.44-1.27-.26-1.42,2.17,1.85,2.35,1.69.86.21,1.04.05.43-.3.6-.46-.05-.78.12-.95,1.19.44,1.36.27.34-.41.5-.59-3.01-3.31-2.85-3.49,1.6.77,1.76.59.34-.32.49-.51.14-.48.29-.67,2.59,1.27,2.73,1.07-2.93-2.62-2.8-2.81,1.81.64,1.94.43-1.97-1.76-1.85-1.96,1.67.47,1.79.26-.37-.73-.26-.94,1.99.51,2.09.29-1.61-1.32-1.5-1.54,2.51.63,2.6.42.17-.48.27-.7-1.11-.98-1.02-1.2-1.84-1.17-1.76-1.4,3.17.62,3.25.39.77-.29.84-.51-2.26-1.17-2.2-1.4,2.46.16,2.52-.07-.71-.69-.65-.92-2.4-.99-2.35-1.23.94-.27.98-.5,2.32-.1,2.36-.33-2.36-.82-2.33-1.06-.76-.53-.73-.77,2.37-.23,2.39-.47.62-.45.64-.69-1.08-.54-1.07-.78-.29-.48-.28-.71.91-.47.91-.71-.36-.47-.37-.71-2-.37-2.01-.61.74-.49.72-.73,3.03-.75,3.01-.98-4.01-.04-4.04-.28,2.43-.78,2.4-1.01-1.01-.33-1.05-.56,1.31-.71,1.27-.95-.7-.36-.74-.6-1.15-.23-1.2-.47.47-.59.41-.82.45-.61.39-.84-1.98.08-2.05-.15.57-.65.5-.87.4-.62.32-.85,1.66-1.09,1.58-1.32-2.09.25-2.17.03,1.22-.99,1.13-1.22-3.27.85-3.37.63,2.07-1.4,1.98-1.62-.58-.26-.68-.48,1.05-1.05.95-1.26-2.08.52-2.19.3,1.79-1.49,1.68-1.7-3.24,1.25-3.36,1.05,2.62-2.05,2.49-2.26.34-.79.21-1-1.48.34-1.61.14.24-.74.1-.94.59,0,.45-.21c.11-.22.1.4.2.18s-.97-.98-.87-1.2,1.89.23,1.98,0,.03-.56.12-.78-1.39-1.04-1.31-1.27-2.5-1.31-2.42-1.54.67-.24.73-.47.67-.27.73-.5,2.31.1,2.37-.14-2.82-1.12-2.77-1.36-.09-.46-.05-.69,3.18.09,3.22-.14-1.11-.66-1.07-.9.72-.39.75-.63-2.16-.69-2.14-.93,4.15-.15,4.17-.38-1.62-.61-1.61-.85-1.13-.52-1.12-.76.35-.47.35-.71-.29-.47-.29-.71-.15-.46-.16-.7,2.44-.63,2.43-.87-3.88-.18-3.9-.42,3.96-.87,3.94-1.11.02-.53-.02-.77-4.36.14-4.4-.1,1.2-.65,1.16-.89,2.87-1.03,2.82-1.27-1.27-.26-1.32-.49-3.08.23-3.14,0-.27-.38-.33-.61,2.01-1.02,1.94-1.25.73-.72.66-.95-1.5-.03-1.58-.26-1.11-.11-1.19-.33,1.43-1.01,1.35-1.23.79-.83.7-1.05.54-.77.45-.99.3-.69.2-.91-1.94.32-2.04.1.05-.56-.06-.78-1.79.35-1.89.14.68-.88.57-1.09-2.33.75-2.45.54,1.44-1.33,1.32-1.54-.69-.13-.82-.34.86-1.08.73-1.29-1.27.25-1.4.05.85-1.14.72-1.34-.47-.27-.61-.46-2.06.91-2.2.71,1.73-1.87,1.59-2.06-.14-.51-.29-.7-1.88.91-2.04.72,2.57-2.77,2.42-2.96-2.22,1.25-2.38,1.07.59-1.18.43-1.36-2.52,1.68-2.68,1.51-.54-.1-.71-.27,2.03-2.67,1.86-2.84-.81.12-.98-.04.39-1.14.22-1.3-1.75,1.19-1.93,1.03-1.5,1.01-1.68.85,1.81-2.84,1.63-3-1.75,1.37-1.94,1.22-1.15.72-1.34.57,1.15-2.24.96-2.39.5-1.5.31-1.64-2.52,2.68-2.72,2.54,1.36-2.78,1.16-2.91-.83.36-1.03.23-1.5,1.45-1.7,1.32,1.31-2.99,1.11-3.12-2.38,3.02-2.59,2.9.88-2.43.67-2.55-.87.58-1.08.46.59-2.12.38-2.23-.94.74-1.15.63-1.26,1.48-1.48,1.37,1.14-3.49.92-3.59-1.02,1.01-1.24.91-1.14,1.41-1.36,1.31.71-2.95.49-3.04-1.24,1.77-1.47,1.68.29-2.16.07-2.24-1.88,3.77-2.11,3.69.99-4.36.76-4.43-.72.56-.95.49-1.56,3.48-1.79,3.41.83-4.6.6-4.66-.67.51-.9.45-.71.78-.95.73-.86,1.57-1.09,1.52-.44-.15-.68-.2-.21-1.36-.45-1.41-.59.58-.83.54-.21-1.74-.45-1.78-.55.33-.79.3-.58.66-.82.63-.69,2.09-.93,2.07-.16-3.48-.4-3.5-.74,3.57-.98,3.56-.38-1.43-.62-1.44-.44-.8-.68-.8-.5,1.46-.73,1.46-.48-3.43-.72-3.42-.45,2.38-.69,2.39-.45.54-.69.55-.61-2.28-.85-2.26-.58-.85-.82-.83-.43.98-.66,1.01-.49.12-.73.15-.14,2.63-.38,2.66-.53-.45-.77-.41-.85-2.07-1.08-2.03-.23,1.43-.47,1.48-.91-1.89-1.14-1.84-.45.35-.68.41.23,2.91,0,2.97-1.08-2.1-1.31-2.03-.71-.6-.94-.53.83,4.17.6,4.24-1.65-3.36-1.88-3.28-.54.02-.76.1.21,1.89-.02,1.98-1.3-1.83-1.52-1.73.46,2.28.24,2.38-.79-.55-1-.45.02,1.12-.2,1.23-.75-.41-.96-.29-1.34-1.39-1.55-1.28.31,1.56.11,1.68-.95-.59-1.15-.46.37,1.5.17,1.63-.54.06-.74.2-.54.09-.73.23.82,1.88.63,2.03-1.98-1.76-2.17-1.61-.05.73-.24.88.72,1.57.54,1.72-1.33-.77-1.51-.6.55,1.27.38,1.44-1.52-.84-1.69-.67.26,0,.1.17c-.16-.18,1-.72.83-.9s-.93.18-1.1,0-.87.17-1.05,0-1.02.38-1.2.21,1.24-2.12,1.05-2.28-.44-.29-.63-.45-.8.16-.99,0-.51-.17-.7-.32-2.22,2.14-2.42,1.99.67-1.7.47-1.85-1.4,1.19-1.6,1.05-.03-.76-.24-.9,1.62-3.45,1.41-3.58-2.45,3.05-2.66,2.92.21-1.28,0-1.4.09-1.15-.12-1.27.04-1.14-.17-1.25-1.81,2.49-2.02,2.38,1.17-3.54.96-3.65-1.33,1.68-1.54,1.58-.43-.23-.65-.32-.81.71-1.03.62-.69.51-.91.43.58-2.99.36-3.07-.76.66-.99.59-.92,1.31-1.15,1.24-.82,1.19-1.05,1.13-.11-1.29-.34-1.35-.61.58-.84.52.4-3.85.16-3.9-.65.59-.88.55-.49-.14-.73-.18-.84,2.11-1.08,2.07-.56.74-.8.7-.29-1.37-.53-1.4-.37-1.15-.61-1.17-.41-1.26-.65-1.28-.72,4.12-.96,4.11-.33-4.09-.57-4.09-.53,3.67-.77,3.67-.5-3.15-.74-3.15-.45,1.46-.69,1.47-.58-1.59-.82-1.58-.42,1.07-.66,1.09-.68-1.71-.92-1.68-.33,1.55-.57,1.58-.39.73-.63.76-.23,1.43-.46,1.48-.99-2.55-1.22-2.5-.14,1.66-.37,1.71-.77-1.07-1-1.01-.73-.74-.96-.67-.54.04-.77.11.24,2.37.02,2.44-.5,0-.72.09-1.12-1.52-1.34-1.44.47,2.43.25,2.53-.93-.93-1.15-.83.28,1.68.06,1.79-.25.48-.46.59-2.03-2.72-2.24-2.6-.09.88-.3,1,.64,1.95.43,2.08-1.01-.68-1.21-.55.24,1.16.04,1.3-1.05-.63-1.24-.48.22,1.05.03,1.2-2.11-1.75-2.29-1.6-.11.68-.28.85,1.48,2.29,1.31,2.46-1.98-1.31-2.15-1.14,1.02,2.91.85,3.09c-.23-.07-.83-2.08-1.06-2.15s-.07-1.57-.3-1.64-1.29,2.91-1.52,2.85-.62.63-.86.57-.17-1.29-.4-1.34.01-2.38-.22-2.43-1,2.57-1.24,2.53-.03-2.55-.27-2.59-.94,2.81-1.17,2.77-.3-1.2-.53-1.23-.61,1.15-.85,1.12-.14-3.15-.38-3.17-.59,1.02-.83,1-.5.23-.74.21-.57,2.03-.81,2.02-.45.26-.69.26-.43-1.74-.67-1.75-.5-2.27-.74-2.27-.52-.14-.76-.13-.54-.48-.78-.47-.52.03-.76.05-.33,2.27-.57,2.3-.7-2.03-.94-2.01.02,4.4-.22,4.43-.98-3.69-1.21-3.65.05,3.47-.19,3.51-.57-.63-.81-.59-.89-2.06-1.13-2.01.25,3.4.02,3.45-.48-.12-.71-.06-1.15-2.58-1.38-2.52.11,2.16-.12,2.23-1.46-3.14-1.69-3.07.32,2.6.09,2.67-.12,1.05-.35,1.13-.86-.98-1.08-.9-.32.47-.54.56-.91-.92-1.13-.82.21,1.64,0,1.74-1.65-2.35-1.87-2.24-.34.48-.55.59.97,2.85.76,2.97-2.26-3.05-2.47-2.93,1.61,3.69,1.4,3.81-1.5-1.54-1.7-1.41-1.19-.9-1.39-.76-.64,0-.84.13-.63.03-.83.18.31,1.28.12,1.42.57,1.51.39,1.66.43,1.22.24,1.38-1.21-.69-1.39-.53,1.02,1.77.84,1.94-2.31-1.73-2.49-1.56.06.74-.11.92-.83-.11-.99.07-.59.15-.75.33,1.93,2.26,1.78,2.44-2.72-1.59-2.87-1.4.8,1.24.65,1.43.09.65-.05.85-1.14-.21-1.27,0,1.63,1.63,1.5,1.83-.67.1-.8.31-1.06-.09-1.18.12,1.45,1.32,1.34,1.54-2.05-.56-2.16-.35-.61.24-.71.46,1.84,1.36,1.75,1.58-3.74-1.1-3.83-.87.35.7.26.93-.24.46-.32.69-.22.47-.3.7,1.83,1.1,1.76,1.33-2.36-.18-2.42.05-.84.32-.9.56,1.03.79.98,1.02.44.61.39.85,1.07.69,1.02.93,1.66.73,1.63.97-3.25.01-3.28.25,2.96.82,2.94,1.06-1.83.28-1.85.52-.43.45-.44.69.5.5.49.74.62.48.62.72-.38.46-.38.7-.06.47-.05.71,1.08.41,1.09.65-.23.46-.21.7-1.12.56-1.1.8-1.24.63-1.21.87,1.02.36,1.05.6-1.63.76-1.59,1,2.96-.03,3,.21-2.03.89-1.98,1.13-.74.69-.69.92,3.63-.39,3.69-.15-2.64,1.19-2.58,1.42,2.17-.12,2.24.11,1.03.15,1.1.38-.14.51-.06.74.14.42.23.65.04.47.13.69-.09.52,0,.75-1.43,1.12-1.34,1.34,1.87-.31,1.97-.09-.02.51.09.73-.47.75-.36.96-.64.87-.52,1.08,2.49-.81,2.61-.6-2.49,1.94-2.37,2.15,1.52-.32,1.64-.12-.35.78-.22.98-.02.6.11.8-.94,1.23-.8,1.43.41.34.55.54,2.74-1.35,2.88-1.16,1.17-.3,1.31-.11-1.65,1.85-1.5,2.04,1.52-.6,1.67-.42.67.04.83.22-1.64,2.03-1.48,2.21-.25.9-.09,1.08,1.37-.59,1.53-.41.37.32.54.49.93-.25,1.1-.08-.16.84,0,1.01,1.76-1.18,1.94-1.02.07.59.25.75-.54,1.31-.36,1.47.36.31.54.47.02.73.2.88.1.66.29.81,1.55-1.22,1.74-1.08.46.15.66.29-.06.87.14,1.01-.85,2.08-.65,2.21,1.48-1.32,1.68-1.18-.85,2.22-.65,2.35,1.31-1.14,1.51-1.02.88-.52,1.08-.4,1.17-1.09,1.38-.97-.1,1.12.11,1.23.22.59.43.7,1.03-.98,1.24-.87-.98,3.03-.76,3.14.82-.58,1.04-.48,1.42-1.98,1.64-1.88-.03,1.21.19,1.31-.19,1.69.04,1.78,1.32-2.02,1.54-1.93.17.84.4.92-.67,3.31-.44,3.39.93-1.14,1.16-1.07,1.11-1.86,1.34-1.79.48,0,.71.07-.55,3.71-.32,3.78,1.59-4.07,1.83-4.01-.58,4.35-.35,4.41.59-.25.83-.2.63-.5.87-.45.4.6.64.64.62-.6.86-.56.89-2.53,1.12-2.49.4.43.64.47.52-.5.76-.47.31,1.52.55,1.54.48.04.72.06.57-1.6.82-1.58.36,2.21.6,2.22.47.89.71.9.51-.39.75-.39.46-2.69.7-2.69.53,2.42.77,2.42.39-1.98.63-1.99.69,3.29.93,3.28.5-.23.74-.25.27-2.29.51-2.32.26-1.72.5-1.75,1.01,3.84,1.25,3.8.25-1.65.48-1.69.28-1.12.52-1.16.53.28.77.23.89-.5,1.13-.56Z"/>
          <path class="cls-4" d="M34.89,311.64c-.99,0-1.98-.42-2.67-1.24-.55-.66-.83-1.38-.84-2.16-.2-.36-.33-.73-.39-1.13-.87-.29-1.53-.83-1.98-1.61,0,0,0,0,0,0-.42-.29-.8-.71-1.1-1.3-.37-.71-.49-1.42-.36-2.13,0-.02-.02-.03-.02-.05-.18-.24-.4-.58-.58-1.02-.4-1-.33-1.85-.03-2.56-.35-.38-.6-.82-.76-1.32-.48-.51-.72-1.09-.84-1.61-.14-.61-.17-1.37.18-2.17-.36-.42-.57-.85-.69-1.27-.49-.49-.85-1.18-.93-2.16-.08-.99.19-1.74.61-2.31,0-.05,0-.11,0-.17-.02-.97.29-1.7.73-2.24-.64-.72-.91-1.6-.81-2.62.03-.33.11-.62.18-.87,0-.22,0-.46.04-.73.1-.68.33-1.22.64-1.64.03-.16.07-.31.12-.45-.17-.53-.21-1.15-.04-1.88.15-.61.39-1.09.71-1.46.02-.26.07-.53.15-.8.05-.18.12-.36.19-.52-.16-.73-.05-1.38.13-1.9.25-.69.63-1.24,1.16-1.64.05-.15.1-.29.16-.43.16-.4.38-.73.6-1,.04-.45.17-.85.33-1.19.15-.33.35-.63.58-.89-.1-.73.04-1.44.41-2.13.34-.62.79-1.09,1.36-1.42-.04-.63.12-1.31.58-2.04.82-1.3,1.97-1.66,3.01-1.61.22-.21.47-.42.78-.58t0,0c-.35-1.39.04-2.41.53-3.09.13-.69.44-1.23.77-1.63.11-.13.22-.25.34-.36.14-.31.34-.61.59-.89,1.95-2.24,4.52-.77,5.48-.22.1.05.19.11.28.16.51.13,1,.39,1.43.77,1.44,1.28,1.57,3.49.29,4.93-.54.61-1.13.94-1.71,1.09-.3.26-.62.46-.97.59-.05.29-.14.63-.31.98,0,.78-.22,1.47-.64,2.09-.15.26-.26.45-.39.64-.17.25-.4.5-.69.73-.09.29-.23.6-.43.91-.07.11-.15.22-.23.32-.05.56-.21,1.08-.5,1.56-.53.89-1.29,1.44-2.26,1.63-.06.25-.16.49-.28.73-.17.34-.39.65-.65.92-.06.32-.15.6-.27.86-.25.57-.62,1.03-1.09,1.39-.03.28-.09.56-.18.84.29.85.2,1.61.02,2.2-.03.09-.06.18-.1.27.1.48.13,1.06-.03,1.7-.02.09-.05.18-.08.27.01.31-.01.64-.09.99-.07.31-.17.6-.3.87.03.31.03.64-.03,1-.11.7-.37,1.25-.7,1.66.14.41.24.9.2,1.45-.02.36-.09.69-.19.97.07.29.11.59.11.91,0,.33-.04.63-.11.91.01.12.02.24.03.36,0,.04,0,.08,0,.12.31.43.53.99.6,1.7.08.78-.05,1.41-.32,1.93.08.21.13.42.17.61.11.57.11,1.33-.25,2.13,0,.02.01.05.01.07.22.21.41.44.57.7.08.1.17.21.27.34.32.3.72.78.97,1.46.38,1,.29,1.85,0,2.55.25.19.48.44.69.74.71.19,1.4.63,1.96,1.49.55.86.71,1.76.47,2.69,1.07,1.37.99,3.01-.26,4.88-.2.57-.55,1.1-1.05,1.53-.65.55-1.45.82-2.25.82ZM38.02,306.6c.07.13.12.27.17.4-.05-.13-.1-.27-.17-.41,0,0,0,0,0,0ZM37.67,306.05c.09.12.18.25.25.39h0c-.07-.13-.16-.26-.25-.39h0ZM37.1,303.02v.02s0-.01,0-.02ZM27.38,301.71s0,.02.01.03c0-.01,0-.02-.01-.03ZM34.86,296.46s0,0,0,0c0,0,0,0,0,0ZM34.46,295.94s0,0,0,0c0,0,0,0,0,0ZM33.7,295.38s.03.08.04.13c-.01-.04-.03-.08-.04-.13ZM26.21,294.24c.01.08.02.16.04.24-.02-.08-.03-.16-.04-.24ZM33.09,284s0,.06,0,.08c0-.03,0-.06,0-.08ZM34.88,272.4s-.04.09-.06.13c.02-.04.04-.09.06-.13ZM41.51,263.86v.02s0-.01,0-.02ZM36.4,257.36s-.05.07-.08.11c.03-.04.05-.07.08-.11ZM39.97,254.42s0,0,0,0h0ZM39.97,254.42s0,0,0,0c0,0,0,0,0,0ZM39.98,254.41s0,0,0,0c0,0,0,0,0,0ZM40.27,254.12c-.1.09-.2.19-.29.29.09-.1.19-.2.29-.29h0Z"/>
          <path class="cls-4" d="M59.96,311.63c-.14,0-.28,0-.42-.03-1.43.11-2.53-.31-3.31-1.23-.61-.25-1.11-.68-1.52-1.27-.49-.72-.7-1.47-.61-2.26-.06-.09-.12-.18-.17-.28-.73-1.31-.52-2.45-.04-3.34-.49-.41-.85-.92-1.08-1.52-.02-.07-.05-.13-.07-.2-1.03-.28-1.99-.94-2.39-2.43-.17-.63-.18-1.24-.03-1.8-.02-.08-.03-.16-.04-.24-.24-.41-.38-.83-.45-1.2-.04-.21-.06-.41-.07-.58-.11-.27-.22-.61-.28-1-.15-1.02.09-1.92.71-2.67-.04-.18-.07-.39-.09-.61-.03-.38,0-.8.12-1.24-.08-.29-.17-.67-.17-1.12,0-.49.08-.91.19-1.26-.28-.5-.44-1.12-.4-1.9,0-.17.03-.32.05-.47-.18-.36-.29-.74-.33-1.16-.1-.37-.2-.93-.12-1.58.06-.52.22-.99.46-1.39-.12-.45-.22-1.06-.08-1.78.3-1.62,1.32-2.35,2.39-2.68.02-.08.04-.16.07-.24-.1-.31-.16-.63-.17-.94-.6-.93-.72-1.93-.36-3,.25-.73.67-1.25,1.05-1.6-.12-.5-.14-1.06.04-1.67.04-.32.11-.77.33-1.27.5-1.16,1.29-1.72,2.15-1.95-.07-.6.03-1.2.31-1.8-.01-.55.12-1.16.49-1.79.56-.99,1.45-1.6,2.65-1.79.12-.14.23-.26.32-.35-.25-1.13-.05-2.13.56-3,.34-.48.72-.82,1.12-1.05.1-.47.32-.96.71-1.45.11-.15.24-.29.37-.44l.12-.14c.36-.45.87-.89,1.59-1.14.08-.11.16-.22.25-.33.19-.22.4-.42.63-.59.12-.19.25-.38.41-.55,1.28-1.44,3.49-1.57,4.93-.28.82.73,1.21,1.76,1.16,2.77.08.57.06,1.09-.06,1.58.37,1,.44,2.26-.58,3.48-.33.39-.79.79-1.4,1.03-.12.29-.28.58-.51.87-.21.28-.49.57-.84.81-.03.05-.07.1-.1.15-.21.28-.43.51-.65.7-.05.7-.3,1.26-.57,1.68-.08.12-.17.24-.27.36-.05.5-.22,1-.51,1.49-.52.86-1.19,1.31-1.89,1.53-.1.15-.2.29-.31.42-.06.16-.13.33-.22.49-.01.03-.03.05-.04.07-.01.11-.03.22-.06.34.19.67.18,1.46-.22,2.35-.23.51-.52.91-.84,1.2-.02.44-.11.83-.24,1.15-.4,1.03-1.11,1.71-2.11,2.05,0,0,0,0,0,0,0,.02-.02.05-.02.07.02.26,0,.53-.03.79,0,.27-.02.65-.14,1.09.04.29.05.61.02.96.19.58.21,1.18.09,1.8-.22,1.07-.75,1.74-1.39,2.17,0,.08-.01.15-.03.23,0,.04-.01.08-.02.12.24.47.37,1.04.33,1.73.38.54.62,1.22.58,2.12-.02.65-.21,1.42-.81,2.12.13.36.19.72.21,1.04.02.5-.04.96-.19,1.38.05.19.08.38.1.56.08.74-.07,1.35-.22,1.75-.06.36-.18.7-.36,1.02.03.07.05.15.07.23.02.03.05.06.07.08.95.3,1.81.95,2.21,2.31.04.13.07.28.1.43.14.24.25.48.33.71.21.6.26,1.18.16,1.74.27.26.56.62.79,1.09.24.5.34.96.38,1.28,0,.02.01.05.02.07.07.1.14.2.2.31.53.88.65,1.85.37,2.88.09.08.17.18.25.27,1.25,1.47,1.06,3.67-.41,4.92-.66.56-1.46.83-2.25.83ZM61.5,301.66l.03.06-.03-.06ZM50.34,287.81h0s0,0,0,0ZM59.39,276.81s0,.03-.01.05c0-.02,0-.03.01-.05ZM53.02,268.47l-.02.04.02-.04ZM65.96,262.97s-.04.06-.06.1c.02-.03.04-.06.06-.1ZM57.29,261.82s-.02.04-.04.06c.01-.02.02-.04.04-.06ZM58.98,260.17s-.02.04-.04.06c.01-.02.02-.04.04-.06ZM59.8,258.04s-.03.05-.05.08c.02-.03.03-.05.05-.08Z"/>
        </g>
        <g>
          <path class="cls-9" d="M60.41,189.29c.04-.24-2.68-.91-2.64-1.17s3.38.02,3.42-.24-3.39-1.03-3.35-1.28,2.58-.1,2.62-.36,1.14-.32,1.18-.58-1.32-.71-1.28-.97-2.51-.92-2.47-1.17.09-.5.13-.75,1.76-.22,1.8-.47.19-.48.23-.73,1.78-.19,1.83-.44.19-.47.24-.72-.72-.64-.68-.89-1.76-.84-1.71-1.09,2.02-.12,2.07-.37,1.18-.27,1.23-.52-.57-.62-.51-.87-1.43-.81-1.38-1.06,1.56-.18,1.61-.43-1.94-.94-1.89-1.19-.82-.71-.77-.96,3.96.4,4.02.15-1.9-.96-1.84-1.21-.13-.55-.07-.8,1.44-.16,1.5-.4-1.03-.78-.97-1.03,1.85-.03,1.92-.28-3.46-1.45-3.4-1.7,1.97.01,2.03-.23,1.2-.18,1.27-.43-1.62-.99-1.55-1.24.97-.24,1.04-.48,1.96.07,2.03-.17-2.21-1.21-2.13-1.45-.16-.59-.08-.83,1.27-.12,1.35-.36-1.86-1.16-1.78-1.4,2.19.21,2.27-.03,1.46-.02,1.54-.26-3.12-1.66-3.04-1.89,3.1.6,3.19.36-1.57-1.13-1.48-1.36-1.2-1.01-1.11-1.25,2.38.38,2.47.15.82-.21.92-.44.83-.19.93-.43.17-.46.27-.7-.05-.56.05-.79.8-.19.9-.42-.19-.62-.08-.85.42-.35.52-.58.23-.43.34-.66-3.11-2.05-3-2.27,2.78.79,2.89.56-.96-1.04-.85-1.27,1.01-.05,1.12-.28.66-.22.78-.44-.45-.81-.33-1.03-.17-.67-.05-.89.17-.49.29-.71-.92-1.11-.8-1.33,1.69.38,1.82.16,1.36.22,1.49,0-2.13-1.86-2-2.08.31-.42.44-.64,2.05.68,2.18.46,1.41.31,1.55.1-1.58-1.62-1.44-1.83-1.25-1.45-1.11-1.66.41-.36.55-.57.14-.54.28-.75,3.48,1.82,3.62,1.62-2.36-2.31-2.22-2.52,2.58,1.26,2.73,1.05-1.05-1.41-.9-1.61.2-.49.35-.69.92.07,1.08-.13-.93-1.38-.77-1.58-.31-.92-.15-1.11,3.21,1.98,3.37,1.78-.85-1.36-.69-1.55-.36-.97-.19-1.16.89.1,1.05-.09-.56-1.18-.39-1.37,1.61.77,1.78.58.22-.48.39-.66-1.16-1.79-.99-1.97.48-.26.66-.44,2.35,1.58,2.52,1.4-.48-1.18-.3-1.35,1.41.71,1.59.53-.81-1.55-.63-1.73-.18-.93,0-1.1,2,1.4,2.19,1.23.54-.14.72-.31-1.96-2.92-1.77-3.09,2.43,1.98,2.62,1.81.37-.32.57-.49-1.14-2.11-.94-2.27,1.65,1.18,1.84,1.02-1.08-2.11-.88-2.27.76.12.96-.04.99.43,1.19.27-.57-1.56-.37-1.72,1.3.86,1.5.71-.91-2.07-.71-2.22,1.34.95,1.54.8.24-.55.44-.69.74.16.95.02,1.57,1.38,1.78,1.24-1.02-2.38-.81-2.52,1.29,1.02,1.5.88-.58-1.8-.37-1.94,1.67,1.66,1.89,1.53.07-.82.28-.95-.22-1.31,0-1.44.82.37,1.04.24.46-.21.68-.34.43-.26.65-.38-.4-1.72-.18-1.85.5-.16.73-.28.16-.78.39-.9.43-.3.66-.42,1.39,1.51,1.62,1.39-.18-1.45.04-1.56,1.72,2.24,1.95,2.12-.71-2.52-.48-2.64,1.89,2.69,2.12,2.58-.53-2.23-.3-2.34,1.35,1.67,1.58,1.56-.48-2.2-.25-2.31.71.34.94.23.92.82,1.15.72-.64-2.72-.41-2.82.85.67,1.08.57.85.72,1.09.62.06-1.17.3-1.27,0-1.35.24-1.45.77.54,1.01.44.08-1.21.32-1.3,1.09,1.4,1.32,1.31.38-.45.62-.53,1.02,1.33,1.26,1.24-.57-3.08-.33-3.16.97,1.21,1.21,1.13.58.13.82.05.91,1.13,1.15,1.05.08-1.36.32-1.44.61.25.85.17.07-1.47.31-1.54.87,1.1,1.12,1.02.08-1.5.32-1.57.96,1.46,1.21,1.39.79.93,1.03.86.56.17.81.1.15-1.32.4-1.38.73.79.98.73-.41-3.51-.16-3.58.47-.27.71-.33,1.36,3.28,1.6,3.22-.33-3.46-.08-3.52.68.63.93.57,1.21,2.94,1.46,2.88.51,0,.76-.05-.2-3.19.05-3.25.34-.85.59-.91.65.58.9.53.81,1.38,1.06,1.33.64.6.89.55.26-1.31.51-1.36.81,1.56,1.06,1.51-.02-2.85.23-2.9.88,2.01,1.13,1.96.33-1.01.58-1.05.85,2,1.1,1.95-.14-3.92.11-3.96.85,2.07,1.1,2.03.42-.58.67-.62.5-.09.75-.13.51,0,.77-.04.49-.16.74-.19.73,1.61.99,1.58.34-1.25.59-1.28.32-1.52.57-1.55.56.31.81.27.81,2.49,1.07,2.46.51.09.77.06.06-4.05.31-4.08.76,2.23,1.01,2.2.6.83.85.81.34-1.72.59-1.75.38-1.41.64-1.43.51-.17.76-.19.83,3.67,1.09,3.65.4-1.3.65-1.32.59,1.09.85,1.07.43-1.06.68-1.08.61,1.35.86,1.34.33-2.61.59-2.63.57.89.83.88.39-2.17.65-2.18.62,1.94.87,1.93.41-2.17.67-2.18.56,1.05.81,1.04.52.36.78.36.55,1.91.8,1.9.48-1.56.73-1.56.51-.3.76-.3.52-1.14.77-1.14.51.41.77.42.48,1.56.73,1.57.55-1.59.8-1.58.4,3.1.65,3.11.63-2.93.88-2.92.37,2.6.62,2.62.6-1.66.85-1.65.34,2.29.59,2.31.76-3.35,1.02-3.33.36,1.74.61,1.76.56-.59.81-.56.58-.64.83-.61.25,2.31.5,2.34.9-3.19,1.15-3.16.39,1.05.64,1.08.48.29.73.32.47.32.72.36.57-.32.82-.28.06,2.7.31,2.74,1.03-2.93,1.28-2.89.28,1.28.53,1.33.22,1.52.46,1.56.77-1.28,1.02-1.23.75-1.08,1-1.03-.05,2.56.19,2.62.43.35.67.4.79-1.16,1.04-1.1.58-.21.82-.15.46.23.71.3.76-.84,1-.78-.18,2.51.06,2.58.75-.8.99-.73,1.1-1.9,1.35-1.82.4.47.64.55.37.52.61.6-.06,1.81.18,1.89.37.44.61.53,1.13-1.7,1.37-1.62.25.81.49.89.02,1.39.25,1.48.58-.12.81-.03.7-.4.93-.3.3.61.53.71,1.4-2.05,1.63-1.95-.38,2.22-.15,2.32.65-.24.88-.13.32.53.55.63.86-.66,1.09-.55.87-.64,1.1-.53.36.45.59.55-.49,2.17-.26,2.28,1.57-2.01,1.79-1.89-.91,2.9-.68,3.02,1.17-1.15,1.39-1.04.11.86.34.98.53.08.75.2-.22,1.43,0,1.55.78-.38,1-.25,1.64-1.83,1.86-1.7-1.44,3.45-1.22,3.58,2.22-2.73,2.43-2.6.43.29.64.42-.51,1.78-.29,1.92,1.47-1.37,1.68-1.24-.6,1.88-.39,2.01.69-.13.9,0,1.26-.97,1.47-.83-.02.95.19,1.09.27.51.47.66.15.67.35.82,1.32-.98,1.53-.83.19.61.4.76-.48,1.51-.28,1.66-.01.85.19,1.01,1.83-1.57,2.03-1.42-1.57,2.86-1.37,3.01,2.58-2.47,2.78-2.32-1.64,2.86-1.44,3.02,1.95-1.61,2.14-1.45-1.22,2.27-1.02,2.43,1.1-.54,1.29-.38.43.27.62.44.55.13.74.29.66,0,.85.17-.36,1.17-.17,1.34.51.18.69.35.86-.19,1.04-.02-1,1.82-.81,1.99,1.8-1.19,1.98-1.02,1.35-.68,1.53-.51.64.08.83.25.38.35.56.53-.23.97-.05,1.15-1.46,2.18-1.29,2.36,2.01-1.28,2.19-1.1.13.58.31.76.38.34.55.52,1.37-.59,1.54-.41.05.66.22.85-.77,1.41-.6,1.59-.42,1.06-.25,1.25-.09.75.08.94.61.12.77.31,1.29-.47,1.45-.28,1.44-.58,1.6-.38-.49,1.1-.33,1.29.08.6.24.79-1.1,1.58-.94,1.77.1.56.26.76,2.94-1.76,3.1-1.57.21.49.36.69-.12.75.04.95-.54,1.08-.39,1.28,1.55-.57,1.71-.37-1.5,1.81-1.35,2.01,1.62-.61,1.78-.41-.43.96-.28,1.16-.21.78-.06.99,2.43-1.17,2.58-.97-1.91,2.03-1.76,2.24,1.61-.54,1.75-.34-1.51,1.7-1.37,1.91,3.13-1.6,3.27-1.39-1.11,1.4-.97,1.61.1.55.24.75.46.3.6.51-.71,1.09-.57,1.3,1.92-.68,2.06-.47,1.18-.17,1.32.04-1.25,1.43-1.12,1.65.54.25.68.47-.97,1.22-.83,1.43-.44.87-.31,1.08,2.05-.7,2.18-.48,1.89-.57,2.02-.36.03.58.17.8-1.92,1.77-1.79,1.98-.37.81-.24,1.02.65.2.78.41-.3.76-.17.97,2.07-.62,2.19-.41-1.83,1.64-1.71,1.85,2.44-.81,2.56-.59-.07.62.05.84-.88,1.07-.76,1.29.03.55.15.77,1.68-.34,1.8-.12-1.66,1.47-1.54,1.69,2.16-.59,2.28-.37-.46.81-.34,1.04-.29.72-.17.94.3.41.42.63,1.09,0,1.2.23,1.98-.43,2.09-.21-3.18,2.16-3.07,2.38,2.56-.71,2.67-.48-.86.98-.75,1.21,2.08-.44,2.19-.22-.51.81-.4,1.04-.52.81-.41,1.03.3.41.41.64-1.04,1.03-.93,1.26,3.26-.93,3.36-.71-2.5,1.68-2.4,1.91-.36.71-.26.93,3.17-.84,3.27-.62-2.48,1.63-2.38,1.86,3.06-.76,3.16-.53-2.3,1.53-2.2,1.76-.1.59,0,.82,2.65-.54,2.75-.31-2.66,1.62-2.57,1.85,2.82-.58,2.91-.35-1.64,1.19-1.55,1.41c.09.24,1.86-.17,1.95.05.09.24-1.04.94-.95,1.17.09.24-1.58,1.13-1.5,1.35.09.25,2.26-.29,2.34-.07.09.25.07.52.14.74.09.26,1.23.13,1.3.34.1.28-2.12,1.29-2.05,1.49.15.46-.48.46-.38.82s3.68-.64,3.79-.16c.04.21-.26.56-.21.85.04.22-2.8,1-2.75,1.27.04.23.48.4.52.66.04.24,2.55.12,2.59.38.03.24-1.19.67-1.16.93.03.24-.28.53-.25.79.03.24.44.45.47.71.03.24-.17.52-.14.77s-1.92.65-1.9.91,1.82.36,1.84.61,1.72.41,1.74.66-2.66.63-2.65.89-.4.5-.39.75.31.48.32.73,2.22.47,2.23.72-.6.51-.6.76-1.97.47-1.98.73.82.5.81.76-1.08.45-1.09.7,1.57.56,1.56.81-.57.46-.59.72-.22.48-.24.73,1.82.65,1.8.9-1.07.41-1.09.66.91.6.89.86.45.57.41.82-.87.41-.9.66-1.38.31-1.42.56,2,.82,1.96,1.07-2.81.05-2.86.3,3.05,1.05,3,1.3-3.76-.2-3.81.05,1.03.7.98.95.91.71.85.95-.08.5-.14.75,1.53.9,1.47,1.15-2.96-.23-3.02.02,2.91,1.31,2.84,1.55-3.74-.53-3.81-.28,2.42,1.24,2.35,1.48.3.64.23.88-.36.43-.44.67-2.67-.37-2.76-.13,1.56,1.08,1.47,1.32-1.47,0-1.56.23-.21.45-.3.68,1.75,1.24,1.65,1.47-1.36,0-1.46.22-.22.45-.32.69.74.88.64,1.12-.68.25-.79.48-1.69-.25-1.8-.03,1.94,1.52,1.83,1.74.61.9.49,1.12-2.65-.81-2.77-.59.75.98.63,1.2-2.3-.72-2.42-.5,1.82,1.62,1.69,1.84.94,1.17.81,1.38-2.5-.93-2.63-.72-.88.02-1.02.23,1.46,1.55,1.32,1.76.37.87.23,1.08-2.66-1.22-2.81-1.01.5.96.36,1.17-.03.6-.18.8-1.23-.3-1.38-.1-.41.3-.57.5,2.33,2.49,2.18,2.68-1.08-.2-1.24,0-1.37-.48-1.54-.29-1.16-.34-1.33-.15-.65.07-.82.26,1.11,1.65.94,1.84-.15.55-.32.74-.18.53-.35.72-1.31-.57-1.49-.39,1.2,1.9,1.02,2.08-2.5-1.82-2.68-1.64,1.96,2.76,1.78,2.93-1.26-.59-1.45-.42.22,1,.04,1.17-1.01-.36-1.2-.19-.49.21-.68.37.09.88-.11,1.04-1.1-.53-1.3-.37.48,1.38.29,1.54-.35.39-.54.55-.16.64-.36.79-1.82-1.54-2.02-1.39.95,2.11.75,2.26-2.19-2.13-2.39-1.98,1.45,2.88,1.24,3.03-1.69-1.52-1.9-1.38-1.16-.82-1.37-.68,1.09,2.51.88,2.65-.94-.5-1.15-.36.02.96-.2,1.09-1.23-1.02-1.45-.88-.19.64-.4.77.48,1.78.27,1.91-.6-.01-.82.12-.87-.49-1.09-.36-1.47-1.59-1.69-1.46-.24.57-.46.7-.05.93-.28,1.05-.73-.32-.95-.2.81,2.64.59,2.76-.68-.2-.91-.09-.56.03-.78.14.17,1.51-.06,1.62-1.4-1.73-1.63-1.62-.35.44-.58.55-.16.86-.39.96-.85-.64-1.08-.53.28,1.9.05,2-1.57-2.35-1.81-2.25-.27.63-.51.72.04,1.41-.19,1.51-1.34-1.96-1.58-1.87.87,3.53.63,3.63-.97-1.07-1.21-.97-.89-.92-1.13-.83-.46.2-.7.29-.92-1.06-1.16-.97-.1,1.18-.34,1.27.44,2.77.2,2.86-1.01-1.35-1.25-1.26-.76-.66-1-.58,0,1.6-.24,1.68-.45.28-.69.36-.46.24-.7.32-1.39-2.77-1.64-2.7.17,2.26-.08,2.33-.06,1.57-.31,1.64-1.03-1.71-1.27-1.64-.72-.68-.96-.61-.76-.88-1-.81-.5.03-.75.09-.48.11-.73.17-.36.56-.61.62-.56-.18-.8-.12-.43.3-.68.36,0,2.08-.25,2.14-.09,1.79-.34,1.85-.9-1.6-1.15-1.55-.4.5-.65.56-1.01-2.21-1.26-2.15.07,2.65-.18,2.7-1.06-2.53-1.31-2.48-.37.64-.62.69-.19,1.56-.44,1.61-.29,1.13-.54,1.18-.85-1.68-1.1-1.64-.45.35-.69.4-.1,2.25-.35,2.3-.6-.41-.85-.36-1.09-3.28-1.34-3.23-.21,1.73-.46,1.77-.39.72-.64.76-.49.18-.74.22-.68-1.07-.93-1.03-.47.25-.72.29-.32,1.27-.57,1.3-.3,1.47-.55,1.51-.94-2.99-1.19-2.95-.44.5-.69.54-.58-.52-.83-.49-.51-.01-.76.02-.43.62-.68.65-.22,2.35-.47,2.39-.87-2.99-1.12-2.96-.47.27-.73.3-.27,2.11-.52,2.13-.68-1.57-.94-1.55-.56-.49-.81-.46-.53-.26-.79-.23-.39,1.19-.64,1.22-.58-.75-.83-.73-.23,3-.49,3.03-.72-2.33-.97-2.31-.55-.56-.81-.54-.34,2.03-.6,2.05-.53-.28-.79-.26-.61-1.28-.86-1.27-.57-.86-.82-.84-.33,2.63-.58,2.64-.46.83-.71.85-.65-2.18-.91-2.17-.51-.01-.77,0-.49.31-.75.32-.4,2.19-.65,2.21-.5.42-.76.43-.55-.82-.81-.81-.57-1.24-.82-1.23-.54-.61-.79-.6-.42,2.01-.68,2.02-.48.89-.73.9-.56-1.32-.82-1.31-.54-.73-.79-.72-.44,2.05-.69,2.06-.55-1.24-.8-1.23-.56-1.81-.82-1.8-.5.07-.76.08-.48,1.26-.73,1.26-.5.23-.76.24-.5.6-.75.61-.5.51-.76.52-.53-1.36-.79-1.36-.49,1.92-.74,1.92-.52-.49-.77-.49-.53-2.56-.78-2.56-.5.33-.76.33-.5,1.49-.76,1.49-.51-.37-.76-.37-.51-1.19-.76-1.2-.52,1.84-.77,1.84-.49-2.59-.74-2.59-.52,1.31-.77,1.31-.49-1.11-.75-1.11-.54,2.02-.79,2.01-.49-1.02-.74-1.03-.48-1.26-.73-1.26-.54,1.51-.79,1.5-.45-2.11-.7-2.12-.56,2.01-.82,2-.49-.45-.75-.46-.51.12-.76.11-.58,1.74-.83,1.73-.47-.89-.73-.9-.43-1.74-.68-1.76-.54.71-.79.7-.51.08-.76.07-.55.76-.8.75-.48-.48-.73-.49-.54.56-.8.55-.59,1.19-.84,1.17-.34-2.57-.59-2.58-.69,2.53-.94,2.51-.21-3.95-.47-3.97-.7,2.42-.95,2.4-.4-1.28-.66-1.3-.56.58-.81.56-.5-.05-.76-.08-.4-1.2-.65-1.23-.49-.13-.74-.15-.45-.52-.7-.55-.79,2.71-1.04,2.69-.35-1.46-.6-1.48-.4-.94-.65-.97-.48-.25-.73-.28-.64,1.07-.89,1.04-.39-.92-.64-.95-.48-.2-.73-.24-.62.85-.87.82-.33-1.26-.58-1.29-.87,2.52-1.12,2.48-.53.09-.78.05-.12-2.53-.37-2.57-.85,2.14-1.1,2.1-.35-1-.6-1.05-.38-.76-.63-.8-.65.8-.9.75-.53.07-.78.03-.65.73-.9.68-.27-1.31-.52-1.35-.72,1.01-.96.97-.46-.32-.71-.37.04-2.71-.2-2.76-1.09,2.7-1.33,2.64-.39-.63-.63-.68-.43-.41-.67-.47-.95,1.85-1.2,1.79-.49-.19-.73-.25.18-2.91-.07-2.97-.91,1.57-1.16,1.51.12-2.5-.13-2.56-.74.85-.98.79-.18-1.26-.42-1.33-.56.15-.8.08-.94,1.47-1.18,1.4-.25-.96-.49-1.04-.75.74-.99.67-.82.92-1.06.84.55-3.44.31-3.52-1.07,1.69-1.31,1.61-1.03,1.46-1.27,1.38-.46-.26-.7-.34-.08-1.34-.32-1.42-.65.29-.89.21-.31-.64-.55-.73-1.12,1.51-1.36,1.42.99-3.97.75-4.06-1.29,1.89-1.52,1.8-.17-.94-.4-1.04-.32-.54-.55-.64-1.24,1.61-1.47,1.51-.04-1.18-.27-1.28-1.01.99-1.24.88-.64.15-.87.04.03-1.28-.2-1.39.58-2.34.35-2.45-1.67,2.22-1.89,2.11-1.02.84-1.24.72,1.43-3.83,1.21-3.95-1.67,2.04-1.89,1.92-.4-.34-.62-.46-.24-.62-.45-.74-.61.03-.82-.1-.46-.22-.68-.35.43-1.66.22-1.8-1.82,1.94-2.03,1.8.62-1.9.41-2.04-1.79,1.76-2,1.62.37-1.46.16-1.61.6-1.73.4-1.88-1.08.65-1.28.5-1.57,1.25-1.77,1.1-.23-.57-.43-.73-.22-.57-.42-.72-.08-.73-.27-.89.33-1.19.13-1.35.06-.83-.13-1-.83.19-1.02.03-1.93,1.37-2.11,1.2,1.22-2.07,1.04-2.24-1.84,1.18-2.02,1,.65-1.39.47-1.57-.89.16-1.07-.02-.88.11-1.05-.07,1.16-1.77.99-1.96.83-1.39.66-1.58-1.7.83-1.86.64,1.03-1.51.87-1.7-2.08,1.06-2.24.86-.69-.11-.84-.31.3-.87.15-1.08-1.36.36-1.51.16,1.13-1.44.99-1.64-.6-.2-.74-.41,1.47-1.56,1.33-1.78-2.19.83-2.33.61,1.1-1.27.97-1.48-1.6.38-1.73.16.21-.7.09-.92.87-1.04.75-1.26-2.88.97-2.99.74,1.85-1.52,1.74-1.75-2.47.65-2.58.42,1.43-1.25,1.32-1.47-1.4.08-1.51-.15.9-.95.81-1.18-.7-.26-.79-.49-1.29-.04-1.38-.28,1.08-.97.99-1.2,1.55-1.09,1.47-1.33-2.36.3-2.44.06,1.81-1.13,1.74-1.37-1.4-.07-1.47-.31-2.26.14-2.33-.1,1.69-1.02,1.62-1.26-.99-.26-1.05-.51-1.09-.26-1.15-.51,0-.54-.07-.79,2.11-1.01,2.06-1.25-1.72-.15-1.77-.4-.22-.49-.26-.74.98-.71.93-.95-1.17-.32-1.21-.57-.71-.42-.75-.67,2.12-.84,2.09-1.08-.05-.5-.09-.75-1.58-.32-1.6-.57,2.16-.75,2.13-1-2.95-.21-2.98-.46.96-.61.94-.86-.26-.5-.28-.75-.33-.5-.34-.75,1.35-.59,1.34-.84-1.94-.42-1.95-.67,1.96-.59,1.96-.84,1.05-.53,1.05-.78.07-.49.07-.75.58-.5.58-.75-1.43-.5-1.43-.75-2.21-.53-2.2-.79,1.39-.49,1.4-.74.75-.48.76-.74-.63-.53-.62-.78-.15-.52-.14-.77-.44-.53-.42-.79-.52-.55-.51-.8,1.43-.41,1.44-.67,2.21-.33,2.23-.58-2.99-.76-2.97-1.01.44-.47.47-.72,1.65-.34,1.68-.59-2.16-.74-2.13-.99,2.33-.24,2.36-.49.53-.44.56-.69-2.77-.86-2.74-1.11,1.77-.28,1.81-.53.68-.41.71-.66.47-.43.51-.67Z"/>
          <path class="cls-9" d="M127.46,106.63c-.21-.16-.26-.5-.46-.65s1.09-2.33.89-2.48-.43-.3-.64-.45-2.93,3.19-3.14,3.04,1.61-3.13,1.4-3.27.93-2.24.72-2.39-.75.14-.96,0,.15-1.17-.07-1.31-1.02.56-1.24.42-2.86,3.39-3.08,3.25,2.4-4.64,2.18-4.78-2.79,3.38-3.01,3.25-.95.56-1.16.42,1.85-3.96,1.63-4.09-2.7,3.44-2.92,3.31.16-1.25-.06-1.38.42-1.72.2-1.85.94-2.68.72-2.81-2.73,3.73-2.96,3.61-.23-.63-.45-.75-.11-.86-.34-.98-.44-.27-.67-.39.2-1.48-.03-1.6-2.59,3.86-2.81,3.75.62-2.3.39-2.41-.99.85-1.22.74,1.75-4.72,1.52-4.83-.74.31-.98.2-1.7,2.39-1.94,2.28-.15-.9-.38-1.01-.07-1.11-.3-1.22-.15-.95-.39-1.05-1.78,2.81-2.02,2.71.48-2.45.25-2.55.32-2.17.09-2.27-1.62,2.6-1.86,2.5-.83.72-1.07.63,1.01-4.1.77-4.19-.44-.39-.68-.48-2.53,5.4-2.77,5.31-.75.64-.99.56.96-4.31.71-4.4-1.16,1.82-1.4,1.74-.05-1.51-.29-1.59-.2-1.1-.45-1.17-.08-1.58-.32-1.66-1.64,3.7-1.89,3.63-.32-.74-.56-.81-.83,1.09-1.07,1.03.6-4.29.35-4.35-1.34,3.15-1.59,3.09.14-2.75-.11-2.81-1.4,3.72-1.65,3.66-.01-2.27-.26-2.32-.71.86-.96.81.27-4,.02-4.05-1.08,2.82-1.33,2.77-.14-2.23-.39-2.27-.71.97-.96.93-1.03,3.29-1.29,3.26-.33-1.15-.59-1.19-.62.92-.88.88-.1-3.41-.35-3.43-.57.38-.82.35-.54.14-.79.11-.51-.21-.76-.23-.42-1.56-.68-1.58-.65,2.05-.91,2.04-.49-.75-.74-.76-.54.37-.8.36-.5-2.12-.76-2.12-.54,4.17-.79,4.17-.45,1.88-.71,1.88-.5-.97-.75-.96-.49-.35-.75-.34-.55-.97-.8-.96-.58-.93-.84-.91-.36,1.4-.61,1.43-.39.77-.64.8-1.16-4.47-1.41-4.43.24,4.62-.01,4.67-.98-2.53-1.23-2.48.07,2.65-.18,2.71-.46.04-.7.1-.85-1.29-1.09-1.22-1.23-2.16-1.47-2.08.39,2.75.16,2.84-.29.54-.53.64-1.54-2.22-1.76-2.11.92,2.97.7,3.09-2.28-2.96-2.49-2.83,0,1.13-.2,1.27c-.21.15-.21.67-.41.83s-1.06-.28-1.24-.1c-.19.18-1.76-.6-1.92-.41s.46,1.25.31,1.46,4.02,3.17,3.89,3.39-5.83-2.65-5.95-2.42,2.6,1.91,2.49,2.15,2.91,1.65,2.82,1.89-4.98-1.24-5.05-.99.32.7.25.95-1.81.15-1.87.41,4.84,1.58,4.79,1.83-5.35-.42-5.39-.16,1.82.85,1.79,1.11-1.8.36-1.83.62,3.6.87,3.58,1.12-1.93.39-1.94.65,1.99.6,1.98.86-3.22.46-3.22.72,5.23.51,5.23.77-3.99.57-3.98.83,1.58.46,1.59.72,1.44.42,1.45.67,1.8.34,1.82.6-4.97.92-4.95,1.17-1.28.67-1.26.93,5.1-.06,5.13.19.51.42.54.67,1.05.33,1.09.58-6.66,1.54-6.62,1.79,3.51-.05,3.55.21-1.97.88-1.92,1.13-1.11.76-1.06,1.01,1.59.23,1.64.48,4.18-.37,4.24-.12-1.93.94-1.88,1.19.12.49.18.74,2.67-.14,2.74.1-4.95,1.78-4.89,2.03.72.36.78.6,1.18.22,1.25.46-1.18.88-1.11,1.12.16.5.23.75,4.96-.98,5.03-.74-5.89,2.38-5.82,2.63,4.8-1.01,4.88-.77-2.38,1.33-2.3,1.57,2.71-.39,2.8-.15-3.61,1.81-3.52,2.05,4.33-1.02,4.42-.78-2.42,1.44-2.33,1.68,3.73-.88,3.82-.64-5.32,2.62-5.23,2.86.08.54.17.78,1.66-.11,1.76.13,3.26-.82,3.36-.58.86.17.96.4-.27.66-.17.89-1.85,1.38-1.74,1.61-.5.8-.39,1.03,1.48-.13,1.59.11.27.43.39.66-1.13,1.13-1.01,1.35-1.47,1.33-1.36,1.56,2.1-.48,2.22-.26,1.26-.08,1.38.15,2.76-.91,2.88-.69-5.4,3.54-5.27,3.76,4.48-1.91,4.61-1.69.47.3.59.53,1.18-.13,1.31.09-4.92,3.54-4.79,3.76,4.89-2.38,5.02-2.17-2.9,2.41-2.77,2.63-1.68,1.72-1.55,1.93,5.85-3.21,5.99-3-4.08,3.34-3.93,3.56.69.18.83.39-.63,1.1-.48,1.31-.13.77.03.98,2.05-.85,2.21-.64,3.98-2.39,4.13-2.18-3.22,3.13-3.06,3.33.76.06.92.26-.47,1.07-.31,1.27,3.43-2.24,3.6-2.04.67.04.84.23-1.83,2.29-1.66,2.47"/>
          <path class="cls-9" d="M180.65,103.71c.18-.16.59-.03.77-.19s-.54-1.35-.36-1.5-.59-1.42-.4-1.58,1.66,1.23,1.85,1.07-2.37-3.58-2.18-3.73,2.94,2.79,3.12,2.64-1.18-2.2-.99-2.35,2.03,1.74,2.21,1.59.59-.02.78-.17-2.44-3.86-2.25-4,1.11.62,1.3.47,2.01,1.82,2.2,1.67.52-.1.71-.24.64.06.83-.08.14-.6.33-.74,1,.57,1.2.43-.09-.92.1-1.06-.44-1.43-.25-1.57-.69-1.79-.49-1.93,1.3,1.01,1.5.88-.09-.97.11-1.11.23-.52.43-.66,1.24.97,1.44.84-.12-1.04.08-1.17.8.35,1,.21.7.19.9.06-.05-.96.15-1.09-.17-1.17.03-1.29.21-.59.41-.71,1.54,1.57,1.75,1.44.6.07.81-.05-1.14-2.81-.93-2.94,2.74,3.66,2.95,3.53-.7-2.12-.49-2.24-.61-2.01-.4-2.13.41-.28.61-.4,1.2,1.14,1.41,1.02.62.13.83.01.52-.04.73-.16,1.23,1.28,1.44,1.16-.52-1.98-.31-2.09,1.43,1.71,1.64,1.6-.14-1.3.07-1.41-1.37-3.76-1.15-3.86,1.58,2.07,1.8,1.96-.5-2.12-.28-2.22.54-.02.76-.13,1.88,2.82,2.09,2.71-1.14-3.58-.93-3.68,2.14,3.48,2.35,3.38.7.41.92.31.14-.83.36-.93.19-.75.41-.84-1.1-3.81-.88-3.91,1.63,2.63,1.85,2.54.53.03.75-.06.54.08.77-.01.76.65.98.56-1.08-4.16-.86-4.25.86.86,1.08.78,1.94,3.88,2.16,3.8-.87-3.83-.65-3.91,1.54,2.95,1.76,2.87-.15-1.89.08-1.97-.41-2.77-.18-2.85.47-.16.7-.23,1.72,3.88,1.95,3.81-.87-4.52-.64-4.58.91,1.34,1.14,1.27,1.3,2.83,1.53,2.77-.7-4.39-.47-4.45.83,1.19,1.06,1.13,1.31,3.24,1.54,3.19-.45-3.87-.22-3.92.35-.71.59-.77.37-.69.61-.74,1.06,2.67,1.3,2.62.35-.77.58-.82.95,2.56,1.18,2.52.54.45.77.42,0-3.07.23-3.11.83,2.53,1.07,2.5.33-1.02.57-1.05.22-2.39.46-2.41.37-1.56.6-1.58.86,5.05,1.1,5.04.38-1.12.62-1.13.39-2.31.63-2.31.5-.15.73-.15.49.56.73.57.41,1.69.65,1.7.7-3.25.94-3.23.38,1.6.61,1.62.31,1.28.55,1.31.41.27.63.32c.24.05.44.03.67.08.24.06.52-.2.74-.13.23.07,1.06-1.47,1.27-1.39.23.09.97-.64,1.18-.54.22.11-1.13,3.13-.93,3.25.21.13.98-.66,1.16-.52s-.36,1.01-.18,1.18c.16.17,1.03-.34,1.18-.15.15.18,1.19-.25,1.33-.04.13.19-2.7,2.25-2.57,2.46s2.4-.88,2.52-.67-2.07,1.51-1.97,1.73.54.18.63.41,4.5-1.3,4.59-1.07-.68.83-.6,1.06-3.15,1.55-3.08,1.79,1.48.02,1.55.25,1.24.15,1.31.39-1.71.93-1.65,1.16.77.29.83.53-.47.57-.42.81,1.42.2,1.47.44-1.91.82-1.87,1.05-.43.52-.39.76-.41.51-.37.75,3.53,0,3.56.23-.23.52-.21.76-1.32.62-1.3.86-1.13.57-1.1.81,4.16.13,4.18.37.06.5.07.74-.6.54-.59.78-2.97.63-2.95.87,2.99.35,3,.59-3.4.58-3.4.83,4.12.39,4.12.63.39.5.4.74-.49.5-.49.74-.79.49-.79.73-1.13.47-1.14.71,1.98.54,1.97.78.27.51.26.75-4.46.3-4.47.54-.02.46-.04.7,4.57.75,4.55.99-.57.46-.59.7.31.52.29.76-2.61.27-2.64.51,1.43.62,1.41.86-3.03.17-3.05.41,1.09.59,1.06.83.11.49.08.73-1.46.29-1.49.53-.07.46-.11.7,3.27.96,3.23,1.2-.32.45-.36.69-1.32.28-1.36.52-2.12.12-2.16.36,4,1.21,3.95,1.45.23.55.18.79-2.39.03-2.44.26-1.05.27-1.1.51,1.76.88,1.71,1.11-.78.32-.83.56-3.09-.25-3.14-.01,4.74,1.67,4.69,1.9-4.32-.61-4.38-.38-.62.31-.68.54,4.68,1.8,4.62,2.03.13.57.06.8-4.1-.72-4.17-.49,3.61,1.63,3.53,1.86-3.06-.47-3.14-.24,2.42,1.33,2.35,1.56-4.57-1.08-4.65-.85,1.36.98,1.28,1.21,2.03,1.28,1.95,1.5-2.78-.56-2.87-.33.97.9.88,1.12,1.8,1.28,1.71,1.51-2.09-.36-2.19-.14-2.68-.69-2.78-.47,2.65,1.74,2.54,1.96-2.38-.62-2.48-.4-.07.47-.18.69-.71.14-.83.35.29.67.18.88.03.54-.09.75.53.84.41,1.05,1.44,1.42,1.31,1.63-.83.07-.95.28.34.81.21,1.01"/>
          <ellipse class="cls-2" cx="132.13" cy="173.42" rx="17.52" ry="29.23" transform="translate(-9.28 7.48) rotate(-3.13)"/>
          <ellipse class="cls-2" cx="195.21" cy="169.97" rx="17.52" ry="29.23" transform="translate(-9 10.92) rotate(-3.13)"/>
          <g class="cls-11">
            <g>
              <ellipse class="cls-7" cx="138.82" cy="158.18" rx="15.6" ry="20.44" transform="translate(-42.5 51.33) rotate(-18.22)"/>
              <ellipse class="cls-5" cx="124.26" cy="165.52" rx="8.99" ry="4.39" transform="translate(-45.52 47.15) rotate(-18.22)"/>
            </g>
          </g>
          <g class="cls-1">
            <g>
              <ellipse class="cls-4" cx="200.3" cy="152.81" rx="13.87" ry="20.44" transform="translate(-35.18 63.26) rotate(-16.52)"/>
              <ellipse class="cls-5" cx="187.31" cy="158.24" rx="7.99" ry="4.39" transform="translate(-37.26 59.79) rotate(-16.52)"/>
            </g>
          </g>
          <path class="cls-2" d="M242.71,209.55c.01.24-.22.49-.22.73s-.01.47-.02.71,1.56.57,1.55.81-3.67.17-3.69.4,2.9.8,2.86,1.04-.19.48-.24.71-1.41.21-1.47.44.67.64.61.87,1.24.86,1.18,1.09-2.19-.16-2.26.06-.16.43-.24.65,1.59,1.13,1.5,1.36-1.33-.02-1.42.2.13.59.03.81.41.76.3.97.29.74.18.95-2.6-.92-2.72-.71-.74.06-.87.27-.41.25-.54.45-.02.51-.15.71-.26.35-.4.55,2.3,2.31,2.15,2.5-2.73-1.53-2.88-1.34,1.93,2.19,1.78,2.38-1.01-.21-1.17-.03-.02.64-.18.82.08.75-.08.93-2.33-1.57-2.5-1.4,1.86,2.52,1.69,2.69-.59.12-.76.29-1.37-.74-1.55-.58-1.42-.87-1.6-.71,1.58,2.5,1.4,2.65-2.11-1.73-2.3-1.57,1.6,2.67,1.42,2.82-.66-.03-.85.12-1.17-.71-1.36-.56.12.95-.07,1.09-1.85-1.69-2.04-1.55.5,1.47.3,1.61.43,1.43.23,1.57-1.86-1.85-2.05-1.72.99,2.32.8,2.45-.68-.15-.88-.02.34,1.43.13,1.55-2.51-3.09-2.71-2.97-.16.62-.36.74.05.98-.16,1.1-1.15-1.05-1.36-.93,1.52,3.6,1.31,3.72-1.48-1.65-1.69-1.53-1.22-1.27-1.44-1.15.95,2.77.74,2.88.21,1.45,0,1.56-.66-.21-.88-.11-.16.77-.38.88-1.04-.99-1.25-.89-1.17-1.32-1.39-1.22-.75-.49-.97-.39-.5.02-.72.12.41,2.05.2,2.15-.66-.31-.88-.21.31,1.93.09,2.02-.95-.99-1.17-.9-1.08-1.35-1.3-1.25-.62-.29-.84-.19-.32.45-.55.53.19,1.77-.03,1.86-.59-.2-.81-.11.16,1.77-.06,1.86-1.7-3.21-1.92-3.13-.36.37-.58.45.6,3.09.38,3.17-.45.17-.68.24-.73-.63-.95-.55-.95-1.33-1.17-1.25-.35.43-.58.5.23,2.26,0,2.33-.17,1.08-.4,1.15-1.67-3.77-1.9-3.7-.27.73-.5.8.04,1.79-.19,1.86-.8-1.05-1.03-.98-.46.12-.69.19-.84-1.25-1.07-1.19.32,2.96.08,3.03-1.18-2.58-1.41-2.52.32,3.12.09,3.18-.31.77-.54.83-.81-1.24-1.04-1.19-.46.15-.69.21-.93-1.87-1.17-1.82.35,3.64.12,3.69-.51-.05-.75,0-1.28-3.59-1.52-3.54.11,2.77-.12,2.82-.66-.81-.9-.76-.79-1.48-1.02-1.43-.03,2.25-.27,2.29-.8-1.61-1.04-1.57-.07,2.17-.31,2.22-.67-.96-.9-.92-.31.99-.55,1.03-.69-1.18-.93-1.14-.6-.69-.83-.65-.34.84-.58.88-.38.67-.62.7-.34.97-.58,1-.9-2.82-1.14-2.78-.12,2.48-.36,2.52-.74-1.85-.98-1.82-.32,1.19-.56,1.22-.59-.89-.83-.86-.39.7-.63.73-.37.91-.61.93-.42.53-.66.56-.67-1.68-.91-1.65-.3,1.74-.53,1.77-.59-1.07-.83-1.04-.24,2.53-.48,2.55-.61-1.25-.85-1.23-.61-1.47-.85-1.45-.24,2.89-.48,2.91-.63-1.74-.87-1.72-.41,1.08-.65,1.09-.47.28-.71.29-.56-1.07-.8-1.05-.61-2.1-.85-2.09-.4,1.42-.64,1.43-.52-.86-.76-.85-.43,1.03-.67,1.04-.38,2.5-.61,2.51-.49-.07-.73-.06-.57-2.45-.81-2.44-.48.11-.71.12-.52-1.92-.76-1.91-.42,2.62-.66,2.63-.5-1.06-.74-1.06-.47.59-.71.59-.48-.72-.72-.72-.48-.36-.72-.36-.49,2.75-.72,2.75-.47-1.58-.71-1.58-.47-.96-.71-.97-.48.16-.72.15-.44-1.47-.68-1.48-.58,4.1-.82,4.09-.45-1.09-.69-1.1-.52,1.05-.76,1.05-.49.08-.73.07-.34-3.32-.58-3.33-.45-.39-.69-.4-.58,1.86-.81,1.84-.43-.84-.67-.86-.48.02-.72,0-.61,1.86-.85,1.85-.37-1.57-.61-1.59-.44-.51-.68-.53-.59,1.32-.83,1.3-.36-1.39-.6-1.42-.36-1.31-.59-1.33-.63,1.53-.87,1.5-.47-.14-.71-.16-.41-.64-.65-.67-.73,2.12-.96,2.09-.17-2.68-.4-2.71-.86,3.02-1.1,2.99-.33-1.23-.57-1.26-.51.16-.75.13-.16-2.33-.39-2.36-1.04,3.78-1.28,3.74-.37-.84-.61-.88-.35-.91-.59-.95-.38-.66-.62-.7-.69,1.18-.93,1.14-.35-.81-.59-.86-.16-1.78-.4-1.83-.83,1.83-1.07,1.79-.68.94-.91.89-.19-1.54-.42-1.59-.19-1.45-.43-1.5-.47-.08-.7-.13-1.11,2.82-1.35,2.77-.34-.72-.57-.77-.02-2.05-.25-2.11-.78,1.19-1.01,1.14-.37-.54-.6-.6-.6.4-.83.34.25-2.88.02-2.94-.59.41-.82.35-.82,1.21-1.05,1.15-.61.41-.84.34-.49-.06-.72-.13-.62.37-.85.3-.24-.89-.46-.96-.82.99-1.05.92.52-3.19.29-3.27-1.17,2.04-1.4,1.97.27-2.28.04-2.36-.75.73-.97.65-.16-.94-.39-1.02-.37-.35-.59-.43-1.56,2.81-1.79,2.73.78-3.35.56-3.44-1.32,2.05-1.54,1.96.58-2.68.36-2.77-1.57,2.56-1.79,2.46-1.08,1.28-1.3,1.18.1-1.47-.11-1.57.21-1.63,0-1.73-.33-.41-.54-.51-1.26,1.53-1.47,1.43.41-1.93.19-2.04-1.66,2.24-1.87,2.13-.23-.63-.44-.74,1.09-3.08.88-3.19-.24-.51-.45-.62-.59.13-.8.01-1.32,1.37-1.53,1.25.15-1.18-.05-1.3-.46-.14-.66-.26-.94.6-1.14.48.43-1.53.24-1.66-2.14,2.34-2.33,2.21.91-2.18.72-2.32,0-.81-.19-.95-.94.49-1.13.35-.95.46-1.14.32-1.03.51-1.22.37,1.38-2.46,1.19-2.61-1.2.7-1.38.54.19-.94.01-1.1.3-1,.12-1.17-2.16,1.59-2.33,1.43,1.45-2.14,1.28-2.31-.67.02-.83-.15.17-.76,0-.94-.87.17-1.02,0-1.49.63-1.64.45-.85.04-.99-.15.56-1.05.42-1.24,1.38-1.55,1.25-1.75-.94.11-1.07-.09-1.88.63-2,.43.46-.85.35-1.05-.03-.53-.14-.74-2.15.53-2.25.32-.38-.43-.48-.64,1.51-1.22,1.42-1.44-.63-.29-.71-.51-.02-.52-.09-.75-1.34-.13-1.41-.36,1.54-.95,1.49-1.18,1.83-.88,1.78-1.11-3.14.13-3.18-.1-.78-.42-.81-.66.53-.6.51-.84-.86-.48-.87-.72.33-.57.33-.81-.42-.56-.41-.8,3.01-.38,3.02-.62,1.34-.32,1.36-.55-.38-.46-.35-.69-1.48-.68-1.43-.92-1.13-.73-1.08-.96,1.55-.14,1.6-.37-1.13-.82-1.07-1.05-.81-.8-.73-1.03-.09-.61,0-.84.49-.4.58-.62,3.12.79,3.22.57.37-.31.47-.53-2.73-1.89-2.62-2.1,3.6,1.38,3.71,1.17-1.51-1.37-1.39-1.58.23-.41.36-.62,1.38.34,1.51.13-.12-.63.01-.82-.27-.76-.13-.96,1.22.34,1.37.15.12-.47.27-.66-.09-.66.07-.84-1.27-1.71-1.11-1.9,2.32,1.42,2.49,1.25-1.63-2.15-1.46-2.32,2.25,1.5,2.42,1.32.47-.17.64-.34-.28-.94-.11-1.11-.31-1.01-.13-1.18,1.71,1.18,1.89,1.02-.19-.9,0-1.05-.17-.92.01-1.07-.16-.94.03-1.09.6-.02.79-.17-.85-1.87-.66-2.01,2.14,1.99,2.33,1.85.63.07.82-.08-.93-2.08-.73-2.22,1.13.76,1.33.62-.45-1.5-.25-1.63,1.16.85,1.35.72-.61-1.81-.41-1.94.67.12.87,0,2,2.28,2.2,2.16-1.51-3.38-1.31-3.51,1.8,2.07,2.01,1.94-.92-2.52-.71-2.64,1.87,2.29,2.08,2.17.54.02.75-.1.53,0,.74-.12.17-.66.39-.77.46-.14.67-.25.14-.75.36-.86.98.91,1.19.8.26-.51.48-.62.67.31.88.21-.87-2.94-.65-3.04.63.21.85.11,1.33,1.78,1.55,1.68-.15-1.5.07-1.59.53.02.75-.07-.22-1.73,0-1.83,1.3,1.86,1.52,1.77-.59-2.69-.36-2.78,1.18,1.64,1.4,1.55-.16-1.71.07-1.79.19-.86.42-.95,1.4,2.33,1.62,2.24.84.91,1.06.83.35-.41.57-.49-.61-3.12-.38-3.2.43-.25.66-.32.81.87,1.04.8.26-.75.49-.82.73.68.96.61.74.74.97.67.93,1.37,1.15,1.3.33-.52.56-.59.63.48.86.41-.31-2.71-.08-2.77,1.01,1.79,1.24,1.73.11-1.34.34-1.4.57.28.8.21.25-.91.48-.97.36-.5.59-.57,1.05,2.15,1.28,2.09-.04-2.06.2-2.12.27-.93.5-.98.45-.21.68-.27.47-.12.7-.17.68.81.92.76.55.28.79.23.54.22.77.17.64.71.87.66.55.33.78.29.15-1.62.38-1.67.66.86.89.81.25-1.17.49-1.22.03-2.42.27-2.47.61.63.85.58,1.11,3.46,1.34,3.42.18-1.71.42-1.75.14-2.08.37-2.12.64.9.88.86.78,1.89,1.02,1.85.07-2.68.31-2.72.4-.63.64-.66.73,1.63.96,1.6.28-1.45.52-1.49.57.59.81.56.52.29.76.26.71,1.83.95,1.8.46-.16.7-.19.09-3.42.33-3.45.75,2.37.99,2.34.65,1.63.89,1.61.23-2.41.47-2.43.57.95.81.92.27-2.36.51-2.38.59,1.13.83,1.11.41-.94.65-.96.63,1.8.87,1.78.3-2.42.55-2.44.72,3.31.96,3.29.37-1.6.62-1.61.47-.22.71-.23.57,1.61.82,1.6.4-1.43.64-1.44.39-2.05.63-2.06.55,1.53.79,1.52.46-.53.7-.53.5.54.74.53.47-.49.71-.49.46-.97.7-.98.52,1.58.76,1.57.48.13.72.13.49.75.73.74.48-.1.72-.1.48-1.35.72-1.35.48-.25.72-.25.49-.56.73-.56.44,3.36.68,3.37.53-3.5.77-3.5.41,3.68.64,3.68.49-.52.72-.52.45.65.69.66.49-.43.73-.42.57-2.43.81-2.42.35,2.82.59,2.83.67-3.98.91-3.97.39,1.74.63,1.75.44.69.68.7.5-.34.74-.32.62-2.02.86-2,.43.76.67.78.31,2.17.55,2.19.38,1.16.62,1.18.47.01.71.03.66-1.92.9-1.89.59-1.09.83-1.07.25,2.24.49,2.27.78-2.68,1.02-2.65.45.37.69.4.29,1.66.53,1.69.23,2.04.46,2.07.65-1.36.89-1.33.71-1.62.94-1.58.35.99.59,1.02.24,1.64.48,1.67.94-2.98,1.18-2.95-.14,3.95.1,3.99.58-.65.82-.61.37.65.6.69,1.07-3.34,1.31-3.3.28,1.2.51,1.24.59-.5.82-.46.5-.04.74,0,.53-.17.77-.12-.03,2.55.2,2.6.39.45.62.5.54-.26.77-.21.34.62.58.67,1.02-2.27,1.25-2.22.12,1.55.36,1.61.41.34.64.39.65-.61.88-.55.8-1.16,1.03-1.09.14,1.35.37,1.41.62-.44.85-.38-.07,2.01.16,2.08.86-1.28,1.09-1.22.19,1.03.42,1.1,1.01-1.66,1.23-1.59.29.68.52.76.95-1.36,1.18-1.29-.78,3.9-.55,3.98.68-.54.9-.47.82-.92,1.04-.84.42.24.65.32,1.04-1.45,1.27-1.37-.37,2.37-.15,2.45,1.41-2.32,1.63-2.23.29.6.52.68.29.59.51.68-.1,1.49.12,1.58,1.53-2.34,1.74-2.24-.19,1.65.03,1.75.31.49.53.58,1.06-1.14,1.28-1.04-.34,1.85-.12,1.95-.38,1.85-.17,1.96,1.94-2.82,2.16-2.72-1.05,3.08-.83,3.19,2.26-3.24,2.47-3.13-1.11,3.05-.9,3.17.97-.77,1.18-.66,1.48-1.59,1.69-1.47-1.35,3.23-1.14,3.35,2.2-2.68,2.4-2.55-.23,1.3-.02,1.43-.16,1.14.04,1.27,1.65-1.59,1.85-1.45-.21,1.19-.02,1.32-1.06,2.3-.86,2.44-.08.87.11,1.01,1-.57,1.19-.43.6-.01.78.14,1.04-.52,1.22-.37-.26,1.05-.08,1.2,1.77-1.28,1.95-1.13-1.87,2.76-1.7,2.92,2.46-1.91,2.64-1.75.95-.23,1.12-.06-.69,1.37-.52,1.54.79-.05.95.13.77,0,.92.18.67.12.82.31.23.5.37.69-1.19,1.54-1.04,1.73.48.25.62.44-.03.6.1.8-1.07,1.22-.95,1.43.07.46.18.66,3.37-1.32,3.48-1.11-3.2,2.18-3.1,2.39,2.92-.87,3.01-.65-2.25,1.48-2.16,1.7,2.24-.39,2.32-.16-1.44,1-1.37,1.23.49.31.55.54,2.28-.11,2.34.12-2.85,1.15-2.8,1.38,1.89.1,1.93.33,1.62.28,1.65.51-1.91.73-1.89.96.27.46.28.69Z"/>
          <path class="cls-4" d="M149.98,204.04c8.44,9.46,22.21,7.05,30.11-1.65,2.23-2.46-1.41-6.12-3.65-3.65-6.08,6.7-16.21,9.04-22.8,1.65-2.22-2.49-5.86,1.18-3.65,3.65h0Z"/>
          <ellipse class="cls-12" cx="218.29" cy="185.66" rx="17.75" ry="6.57" transform="translate(-9.82 12.21) rotate(-3.13)"/>
          <ellipse class="cls-12" cx="108.96" cy="191.64" rx="17.75" ry="6.57" transform="translate(-10.31 6.24) rotate(-3.13)"/>
          <path class="cls-6" d="M145.26,175.79c.06-.22.21-.53.33-.75.11-.2.22-.52.38-.71.15-.17.26-.51.45-.67.17-.15.57-.12.77-.26.19-.13.34-.41.55-.54.2-.12.65.16.87.04.21-.11.63.23.85.12s.26-.57.48-.67.46-.13.69-.21.59.26.82.19.11-1.21.34-1.28.45-.2.69-.27.57.26.81.19.64.58.87.53.22-1.19.45-1.25.63.65.87.61.56.45.8.41.34-.8.57-.84.44-.28.68-.31.52.21.75.18.4-.65.64-.68.57.71.8.68.43-.49.67-.51.46-.3.7-.32.48-.17.72-.18.53.77.77.76.45-.77.69-.78.49.04.73.04.49.55.73.55.48.08.72.08.48.15.72.16.52-.79.76-.78.48.14.72.16.44.59.68.62.51-.28.75-.25.46.27.69.3.49.01.72.05.44.31.67.35.54-.23.78-.18.56-.21.79-.15.35.62.57.68.32.57.54.65.43.16.65.24.62-.28.84-.18.2.67.4.78.43.14.63.26.76-.27.95-.13.66.03.83.19-.49,1.13-.34,1.31c.16.19.21.36.34.56s.54.19.65.41-.16.54-.08.77.53.3.59.53-.2.49-.16.73.09.43.1.68-.14.44-.15.68.87.53.85.78-.94.34-.99.59,1.08.71,1.02.95-.37.43-.44.66-.57.33-.65.56-.21.43-.3.66,0,.52-.1.75.1.59-.01.81-.63.22-.75.43-.63.18-.75.39-.09.5-.23.7.59,1,.45,1.2-1.36-.4-1.51-.21.24.8.08.99-.61.11-.78.29-.28.38-.45.56-.24.43-.42.6.15.87-.03,1.03-.71-.05-.89.11-.15.59-.34.74-.49.18-.68.33-.57.04-.77.18-.61-.06-.82.07-.13.72-.34.84-.22.65-.43.76-.65-.19-.87-.09-.3.55-.53.64-.79-.73-1.02-.65-.42.18-.66.25-.48-.02-.71.03-.39.36-.63.4-.38.71-.63.73-.48.32-.73.33-.51-.19-.75-.2-.5.05-.74.03-.38-.89-.63-.92-.47.04-.71,0-.49.09-.73.04-.67.71-.9.65-.21-1.06-.44-1.13-.51.05-.74-.03-.55.12-.78.04-.52,0-.75-.09-.04-1.11-.26-1.21-.73.47-.95.36-.53-.02-.75-.13-.3-.47-.51-.58-.71.26-.92.13-.48-.17-.68-.3.27-1.29.07-1.42-.9.45-1.09.31-.57-.07-.76-.21.23-1.06.05-1.22-.92.33-1.1.17.2-.93.03-1.1-1.05.37-1.22.19-.01-.67-.17-.85.23-.82.08-1.01-1.06.22-1.2.03.09-.67-.04-.87.04-.59-.09-.79-.49-.26-.61-.47.09-.57-.01-.79-.26-.39-.35-.61-.37-.36-.45-.59.24-.55.17-.79-.38-.38-.43-.61-.84-.35-.87-.59.94-.58.92-.82-.5-.45-.5-.69-.43-.51-.41-.75-.11-.52-.08-.76.62-.4.67-.64-.24-.56-.18-.79Z"/>
        </g>
        <path class="cls-9" d="M107.32,243.94c-.35.09.48.86.13,1.17-.15.14-.68-.09-.89.1-.16.15.69,1.44.5,1.62-.17.15-2.08-1.57-2.27-1.4-.17.16-.84-.21-1.03-.03-.17.16-1.45-.85-1.64-.68-.17.16,2.46,3.33,2.27,3.5-.17.16-3.3-2.8-3.48-2.63s1.9,2.71,1.72,2.88.41,1.12.23,1.29-2.94-2.38-3.12-2.2,2.69,3.48,2.51,3.65-3.55-2.97-3.72-2.8,2.11,2.86,1.94,3.03-1.87-1.21-2.04-1.04,1.73,2.45,1.56,2.62-2.01-1.34-2.18-1.17,1.39,2.07,1.21,2.25-2.84-2.14-3.01-1.97-.01.68-.18.85-1.22-.52-1.4-.34,2.18,2.82,2.01,2.99-.31.37-.48.55-3.2-2.41-3.37-2.23.79,1.43.62,1.61,2.94,3.46,2.77,3.64-2.97-2.15-3.14-1.97,1.87,2.42,1.71,2.6-1.26-.52-1.42-.34-3.09-2.19-3.25-2.01,2.4,2.87,2.24,3.05-1.24-.47-1.4-.29-1.42-.62-1.58-.44-.72.02-.88.21,1.17,1.69,1.01,1.88-1.52-.68-1.68-.5,1.65,2.08,1.48,2.27-.65.08-.81.27-2.8-1.73-2.96-1.54,1.91,2.26,1.76,2.45.21.81.05,1-3.11-1.91-3.26-1.72-.52.24-.67.43.64,1.16.49,1.35,2.24,2.39,2.09,2.58.18.74.03.94-2.37-1.2-2.52-1.01.28.83.13,1.02,1.54,1.73,1.4,1.93-.28.37-.42.57-3.29-1.74-3.43-1.54,3.28,2.86,3.15,3.06-.64.12-.78.32-4.11-2.13-4.25-1.92-1.04-.05-1.17.16,1.4,1.48,1.27,1.69-1.34-.2-1.46.01,4.26,3.01,4.14,3.23-.64.15-.76.36.27.63.16.84-4.5-1.7-4.61-1.48.24.69.14.91-.43.4-.52.62,3.85,2,3.77,2.23-3.61-.78-3.68-.55.68.73.62.96,2.05.93,2,1.16-5-.38-5.03-.15.57.67.55.91-.93.54-.94.78,2.71.62,2.71.87-2.17.59-2.16.84-.07.6-.05.84,1.73.36,1.76.6.65.41.7.65,2.11.02,2.17.25.51.27.58.51-3.45,1.53-3.37,1.77,2.31-.29,2.4-.06-2.03,1.36-1.93,1.58,3.67-1.17,3.78-.95-3.5,2.33-3.39,2.54,2.76-1,2.89-.79,1.38-.39,1.52-.19-.7.97-.55,1.17-2.76,2.75-2.61,2.94,2.97-1.8,3.13-1.62-.74,1.32-.57,1.49-.59,1.35-.41,1.52,1.58-.94,1.76-.78-.93,1.93-.74,2.09,2.47-2.38,2.67-2.24.36.24.57.37,1.04-.87,1.25-.74-2.12,4.6-1.91,4.72,1.3-1.28,1.52-1.17.16.9.38,1,1.81-3.01,2.04-2.92-1.34,4.9-1.11,4.98,2.26-5.11,2.5-5.04-.42,2.98-.19,3.04,1.01-2.07,1.25-2.02.47-.19.71-.14.44-.11.68-.07-.19,4.54.05,4.57.66-.96.9-.94.4,1.71.64,1.73.63-1.6.88-1.6.54-2.1.78-2.1.43-1.76.67-1.76.66,5.52.9,5.51.17-5.44.42-5.46.51.95.76.93.97,4.29,1.21,4.26-.02-3.97.22-4,.42-.27.66-.31.74,1.43.98,1.38.87,1.74,1.11,1.69-.62-4.93-.38-4.99,1.44,3.91,1.68,3.85.47-.2.71-.26-.32-2.86-.08-2.93.86,1.2,1.09,1.12-.45-2.84-.21-2.91,2.03,4.44,2.26,4.36-.64-3.19-.41-3.27,1.39,2.31,1.62,2.22.73.45.95.36-.33-2.09-.1-2.18.38-.34.6-.44.34-.41.56-.51,1.41,1.86,1.63,1.75-1.28-3.77-1.06-3.88,2.78,4.51,3,4.4-.08-1.29.14-1.4-1.46-3.82-1.25-3.94,1.93,2.56,2.15,2.45-.87-2.57-.66-2.69-.17-1.23.04-1.35,3.47-.28,3.68-.41c-.03.24-4.11,2.67-4.14,2.91s2.53.84,2.5,1.08,1.78.73,1.75.97-2.29.19-2.33.43-.72.4-.75.65-1.94.26-1.97.5,1.85.72,1.82.96,2.27.75,2.25.99-3.95.05-3.98.29,5.29,1.06,5.26,1.3-2.19.25-2.22.5-3.18.17-3.21.41,4.18.9,4.15,1.14-2.5.26-2.52.5-1.64.35-1.66.59,1.72.64,1.7.88,2.28.67,2.26.91-2.38.3-2.4.55-1.42.39-1.43.63,4.49.79,4.47,1.04-4.44.2-4.46.44,1.63.59,1.62.83,3.02.65,3,.89-5.56.21-5.57.45,4.74.71,4.73.95-1.16.43-1.17.68.79.51.78.75-3.53.38-3.53.62,3.14.57,3.13.81,1.55.51,1.54.75-5.41.4-5.42.64,3.15.52,3.15.77-2.45.48-2.45.72,2.31.49,2.31.73-1.37.5-1.37.74,3.52.44,3.52.68-.04.47-.04.72-5.08.62-5.08.86,1.72.45,1.73.69,2.36.4,2.37.64-1.9.57-1.89.81,2.45.36,2.46.6-2.57.64-2.56.88-2.42.66-2.41.91,2.23.34,2.25.58-.79.56-.77.81,2.76.24,2.78.49-3.84.88-3.82,1.12,2.04.29,2.07.53.19.48.22.72-.9.62-.87.86-.76.61-.73.86,4.24-.12,4.27.12-.65.58-.62.82-2.96.99-2.92,1.23-.63.63-.59.87,3.9-.23,3.94.01-1.07.7-1.02.94-2.94,1.14-2.89,1.38,1.22.26,1.27.5,3.58-.35,3.64-.11-1.69.92-1.63,1.15-2.07,1.08-2.01,1.31,3.15-.37,3.22-.14,2.12-.15,2.19.08-2.49,1.28-2.42,1.51-1.11.9-1.03,1.13,1.09.15,1.17.38-1.39,1.06-1.3,1.28,1.9-.2,1.99.02-1.67,1.25-1.57,1.47.38.41.48.63.82.2.92.41,4.02-1.45,4.13-1.24-3.11,2.14-2.99,2.35-.29.75-.18.96.1.55.23.76,1.57-.37,1.7-.17.8.05.94.25-.03.6.11.8,1.78-.76,1.93-.57.62.03.78.22-3.54,3.64-3.38,3.82,1.57-.68,1.74-.51-.67,1.41-.5,1.58,1.88-1.19,2.06-1.03,2.1-1.69,2.28-1.53-2.07,3.25-1.88,3.4,1.48-1.11,1.67-.97-1.46,3.02-1.26,3.15,1.53-1.35,1.74-1.22,2.14-2.75,2.35-2.64-1.59,3.97-1.37,4.08,2.38-3.88,2.6-3.78-1.73,5.23-1.51,5.32,1.96-3.69,2.19-3.61.82-1.19,1.06-1.12-.83,4.39-.59,4.45.41.62.65.68,1.52-4.83,1.76-4.79-.53,5.68-.29,5.72.92-2.7,1.16-2.67.5-.22.74-.2.54-1.28.79-1.27.33,3.86.57,3.86.55-.05.79-.06.48-1.92.72-1.93.31-3.07.55-3.09.49.92.73.9.71,2.29.95,2.26.12-2.3.36-2.34.3-.57.53-.63.49.34.72.28.34-.27.57-.34,1.2,2.18,1.43,2.1,1.09,1.33,1.32,1.24-.05-1.49.17-1.59.43-.29.65-.4.55-.06.76-.18.66.08.86-.05-.3-1.39-.1-1.53.38-.3.57-.44.55-.08.74-.23-.05-.81.14-.97,1.41.85,1.59.69-.26-1.01-.09-1.18-1.46-2.08-1.29-2.26,2.48,1.69,2.64,1.51,2.31,1.31,2.46,1.12-3.23-3.34-3.07-3.53-.53-.97-.38-1.16,1.33.44,1.47.24,3.32,1.72,3.46,1.52.66-.23.79-.43-1.18-1.39-1.06-1.59-3.35-2.57-3.23-2.78,2,.63,2.12.42,2.85.99,2.96.77.94-.12,1.05-.33-1.76-1.45-1.65-1.67,2.06.39,2.16.17c.1-.23-4.11-2.38-4.02-2.6.1-.23,4.73,1.46,4.82,1.24.1-.24-4.23-2.23-4.14-2.45.09-.24,4.91,1.3,4.98,1.09.09-.25.23-.53.31-.74.09-.27-1.39-1.06-1.32-1.26.14-.44-1.71.2-1.35.26s-.66-1.1-.66-.64c0,.2.65.45.66.72,0,.22,1.36.39,1.38.65.01.23-1.74.58-1.72.83.02.23,1.52.34,1.54.59.02.23-3.04.82-3.01,1.07.03.23,1.23.35,1.27.6s1.63.24,1.67.49,1.55.19,1.59.43-2.03.86-1.98,1.1-1.98.95-1.92,1.19,3.07-.24,3.13,0,.64.3.7.53-.07.49,0,.72-.64.7-.56.92,1.49-.05,1.57.18-3.29,1.79-3.19,2.02-.32.73-.22.95,3.93-1.25,4.04-1.03.4.28.51.5-2.61,1.95-2.49,2.16,1.56-.33,1.69-.12.53.22.67.42,2.07-.92,2.22-.72-2.14,2.16-2,2.35,1.64-.74,1.8-.56.35.25.51.43-.48,1.08-.31,1.25,2.2-1.75,2.38-1.59.11.4.3.55-.84,1.71-.65,1.85-.96,2.2-.76,2.33-.37,1.64-.16,1.77,2.69-3.63,2.91-3.51-.64,2.23-.43,2.34-.07,1.43.15,1.53,1.79-3.05,2.01-2.97.23.63.46.71.67-.73.9-.67-.68,4.39-.45,4.45,1.25-3.19,1.49-3.14.24,1.2.48,1.24.86-2.69,1.1-2.66.28,1.1.52,1.13.33,1.4.58,1.42.45.66.69.67.48,1.47.72,1.48.52-.92.76-.92.45-1.17.7-1.18.3-2.59.55-2.6.51,1.03.76,1.01.58,1.18.83,1.16.7,1.7.95,1.67.44-.48.69-.52.32-1.09.56-1.14.11-1.47.35-1.53.72.99.95.91,1.15,1.59,1.37,1.5-.9-3.17-.68-3.27.38-.1.59-.22,2.21,2.78,2.42,2.65,1.17.68,1.37.54-2.67-4.5-2.48-4.65.06-.54.25-.69.26-.29.44-.45.98.45,1.15.28.01-.59.18-.76-.12-.68.05-.86,1.36.64,1.52.46-.14-.71.01-.89,3.52,2.22,3.67,2.03-1.64-1.91-1.49-2.1,1.34.38,1.48.18-.14-.71,0-.91,1.81.61,1.94.41-3.44-2.83-3.31-3.04-.25-.68-.13-.89,3.77,1.74,3.9,1.54.47-.31.59-.52-2.12-1.76-2-1.98-.96-1.05-.84-1.26,3.75,1.46,3.86,1.24,1.22.06,1.33-.16-1.68-1.4-1.57-1.62,2.26.54,2.37.32-4.11-2.48-4.01-2.7.71-.18.81-.4,2.61.64,2.71.41-2.02-1.41-1.93-1.63,3.69,1.02,3.78.8-4.75-2.47-4.66-2.7,1.08-.07,1.17-.29,4.42,1.19,4.5.96-1.35-1.05-1.26-1.27.4-.38.48-.61-3.6-1.8-3.52-2.03.03-.48.11-.71,4.21.92,4.29.69-4.12-1.86-4.05-2.09,3.53.63,3.6.4,1.25-.13,1.33-.36-4.22-1.78-4.15-2.01,2.23.16,2.3-.07,2.48.2,2.55-.03-2.78-1.28-2.71-1.51,1.5-.09,1.57-.33,1.72-.06,1.78-.3-.84-.72-.78-.96,1.2-.22,1.25-.45.34-.43.4-.67.53-.4.58-.63-5.1-1.63-5.05-1.87,4.1.38,4.15.15-3.19-1.15-3.14-1.39-.13-.51-.09-.74.67-.35.71-.59.77-.34.82-.58.14-.46.18-.7-2.11-.83-2.07-1.07.78-.35.82-.59,3.65.06,3.68-.18-3.75-1.03-3.72-1.27,3.12-.06,3.15-.3.93-.38.96-.62-2.65-.81-2.62-1.05.39-.44.42-.68,1.65-.32,1.68-.56-3.45-.81-3.43-1.05,4.26-.11,4.28-.35.89-.44.91-.68-1.14-.58-1.13-.83-3.07-.67-3.06-.91-.15-.48-.14-.72,3.64-.33,3.65-.57-2.13-.56-2.12-.81.93-.46.94-.7-3.1-.52-3.1-.76,5.79-.46,5.79-.7-1.39-.5-1.4-.74-.5-.49-.5-.73-.9-.47-.91-.71-2.06-.4-2.07-.64,2.89-.63,2.87-.87-.33-.48-.35-.72,1.25-.6,1.23-.84-3.84-.16-3.86-.4,4.61-.95,4.58-1.19-3.89-.07-3.91-.3,3.09-.89,3.06-1.13-1.68-.27-1.71-.51-.34.54-.37.3c.19.15,1.23-2.33,1.42-2.18s-1.56,2.88-1.37,3.03,2.29-2.28,2.48-2.14-2,3.6-1.8,3.75,1.77-1.64,1.97-1.5-.31,1.31-.1,1.45,1.62-1.53,1.82-1.39,1.15-.9,1.35-.76.07.75.27.88-.2,1.22,0,1.35.71-.25.91-.12-1.36,3.29-1.15,3.41,0,1.05.22,1.17.81-.38,1.03-.27,2.26-3.18,2.47-3.07.57-.11.79,0,.2.64.41.75.65-.3.87-.2.56-.15.78-.05-1.49,4.63-1.26,4.73,1.08-1.25,1.3-1.16,1.82-3.34,2.04-3.25.11.96.34,1.05.41.18.64.26-.46,2.95-.23,3.02.76-.8.99-.73.65-.56.88-.5-.12,2.47.11,2.53,1.14-2.79,1.38-2.74.25,1.09.49,1.14.44.24.68.28.08,2.95.32,2.99,1.02-4.22,1.26-4.2.2,3.1.44,3.12.55-.45.79-.43.58-3.82.82-3.82.43,2.37.67,2.37.6,2.52.84,2.51.64.97.88.95-.02-5.11.22-5.14.78,2.29,1.02,2.25.74,1.18.98,1.13-.16-3,.08-3.06.76,1.12.99,1.05.58.24.81.17.12-1.11.34-1.19,1.23,1.75,1.45,1.66,1.03.92,1.25.82-.89-2.96-.67-3.07.78.41.98.29,1.53,1.45,1.73,1.32-.13-1.2.06-1.34-.85-1.96-.65-2.11-.19-.91,0-1.07.87.34,1.05.17.67.04.84-.14,1.78.98,1.95.8-1.61-2.05-1.46-2.23,2.94,1.66,3.08,1.47-2.99-2.77-2.86-2.97,3.62,1.79,3.74,1.58-3.46-2.65-3.34-2.86,3.49,1.36,3.6,1.14-1.37-1.25-1.26-1.46,2.89.68,2.98.46-4.57-2.32-4.49-2.55,4.9,1.17,4.97.94.52-.47.59-.7-3.94-1.55-3.89-1.79,3.58.25,3.62,0-3.94-1.18-3.9-1.42,4.28.05,4.3-.19-3.27-.81-3.25-1.05.59-.43.6-.68-2.27-.44-2.27-.69.07-.38.06-.63-.36-.35-.38-.59,2.31-.69,2.28-.93,1.36-.72,1.31-.96.18-.58.13-.81-.72-.37-.78-.6.56-.69.49-.93,1.41-1.02,1.33-1.25-5.32,1.3-5.4,1.07.7-.72.61-.95-.33-.35-.42-.57,2.53-1.62,2.43-1.85-1.86.32-1.96.1,1.01-1.03.9-1.25.33-.74.22-.95.04-.6-.08-.81-1.69.38-1.81.16-.3-.39-.42-.6-1.36.26-1.49.05,1.35-1.39,1.22-1.6.87-1.14.74-1.34-.37-.36-.5-.57-.82-.06-.95-.26-3.51,1.78-3.65,1.58,3.25-2.8,3.11-3-2.9,1.42-3.04,1.22,3.29-2.9,3.15-3.1-4.94,2.91-5.08,2.71.25-.76.11-.96,3.01-2.76,2.86-2.96-1.29.33-1.43.14-.21-.45-.35-.64-.78-.03-.92-.23-2.27,1.07-2.42.87,3.13-2.89,2.98-3.09-.34-.35-.48-.55-1.71.66-1.86.46-1.16.25-1.3.05,2.39-2.34,2.24-2.54,0-.6-.13-.8-2.88,1.49-3.03,1.29-1.39.4-1.54.2-.1-.53-.25-.73.29-.81.15-1.01,2.47-2.32,2.33-2.52-.08-.53-.21-.73-2.03.82-2.17.61,1.12-1.34.98-1.55-4.08,2.16-4.22,1.95-.57-.23-.7-.43.25-.77.12-.97.36-.83.23-1.03-.16-.49-.29-.69-.29-.41-.42-.61,2.78-2.27,2.66-2.48-.24-.4-.37-.61-.84-.05-.96-.26-.1-.49-.22-.7-3.31,1.31-3.43,1.1,1.88-1.61,1.76-1.82-.73-.16-.85-.37,1.73-1.45,1.62-1.67-.61-.21-.72-.43-2.65.79-2.75.57,2.09-1.56,1.98-1.78-.32-.37-.42-.59-2.88.79-2.98.56,3.49-2.08,3.39-2.31.25-.6.15-.83-.22-.4-.31-.63-2.45.48-2.54.25.64-.76.56-.99-3.97.95-4.05.72,1.55-1.1,1.47-1.33-.11-.49-.19-.72.54-.7.47-.93-1.1-.18-1.17-.41-1.56-.07-1.63-.31.82-.77.76-1.01.8-.74.74-.98,1.63-.91,1.57-1.15-.67-1.24-.73-1.49c-.22.09.12,3.92-.1,4.01s-.82-.71-1.05-.62-2.36-4.46-2.59-4.37.1,1.5-.13,1.59.1,1.53-.12,1.62-.86-.84-1.09-.75-.29.58-.51.67-.96-1.11-1.18-1.02-.53-.05-.76.04.94,3.71.71,3.79-.86-.88-1.09-.79-.74-.57-.96-.49.24,1.99.01,2.07-1.13-1.62-1.35-1.54.21,1.94-.02,2.03-.74-.62-.97-.53-1.19-1.87-1.42-1.79.87,3.87.64,3.95-1.73-3.44-1.95-3.36-.91-1.19-1.14-1.11,1.12,4.76.89,4.84-.6-.24-.83-.16-.06,1.4-.29,1.48-1.48-2.97-1.71-2.89.54,3.31.31,3.39-1.74-3.93-1.97-3.86.44,3.07.2,3.14-1.36-2.87-1.6-2.8-.69-.7-.93-.63-.1,1.37-.33,1.44-.09,1.44-.33,1.5-.14,1.34-.37,1.4-.87-1.38-1.1-1.32.1,2.32-.13,2.38-.29.88-.52.94-1.52-4.14-1.76-4.08.02,2.12-.22,2.18-1.2-3.07-1.44-3.02-.03,2-.27,2.05.21,3.25-.02,3.3-1-2.34-1.23-2.29-.91-2.06-1.14-2.01-.01,2.37-.25,2.41-.06,2.27-.3,2.32-.4.56-.64.6-.91-2.32-1.15-2.28-1.04-3.28-1.27-3.24.28,4.66.04,4.7-.65-1.03-.89-1-.88-2.67-1.12-2.64.02,3.51-.22,3.54-.88-2.94-1.12-2.9-.36.91-.6.94-.11,3.04-.35,3.07-.83-3-1.07-2.97-.11,3.47-.35,3.5-.87-3.73-1.11-3.71-.55-.8-.79-.78-.5-.37-.74-.35-.21,3.18-.45,3.2-.36,1.62-.6,1.64-.66-2.42-.9-2.4-.61-2.1-.85-2.09-.49-.45-.73-.43-.2,5.16-.44,5.17-.47.57-.71.58-.53-.92-.77-.91-.56-1.9-.8-1.89-.49-.51-.74-.51-.45,1.38-.69,1.38-.45,2.08-.69,2.09-.52-2.13-.76-2.12-.49-.19-.73-.19-.48,2.15-.72,2.15-.48-3.63-.72-3.63-.49,1.87-.73,1.87-.48-.61-.72-.61-.47-.6-.71-.6-.42-2.34-.67-2.34-.53,2.12-.77,2.12-.54,1.89-.78,1.88-.42-1.82-.66-1.83-.4-1.92-.64-1.93-.51.94-.76.93-.58,2.1-.82,2.09-.38-1.89-.62-1.91-.56,1.35-.8,1.33-.42-1-.66-1.02-.37-1.66-.61-1.68-.51.48-.75.46-.63,2.1-.88,2.08-.43-.63-.68-.65-.6,1.46-.85,1.44-.32-1.89-.56-1.91-.36-1.25-.6-1.27-.64,1.74-.88,1.71-.41-.69-.65-.71-.82,3.29-1.06,3.26-.36-1.23-.6-1.25-.33-1.45-.57-1.48-.16-2.84-.4-2.87-.6,1.07-.84,1.04-.47-.04-.71-.06-.89,3.32-1.13,3.29-.43-.48-.67-.51-.63,1.12-.87,1.09-.48-.08-.72-.11-.3-1.4-.54-1.44-.22-1.93-.46-1.96-.64,1.08-.88,1.05-.29-1.38-.53-1.41-.68,1.29-.92,1.26-.31-1.22-.54-1.25-1,3.35-1.24,3.31.06-3.55-.18-3.59-.95,2.92-1.19,2.88-.13-2.28-.37-2.31-.13-2.18-.37-2.22-.89,2.44-1.13,2.4-.61.72-.85.68-.61.69-.85.65.16-3.77-.08-3.82-.42-.4-.65-.44-.7,1.19-.94,1.15-.94,2.47-1.18,2.43-.52.14-.76.09-.27-1.22-.51-1.27-.81,1.68-1.05,1.64.27-4,.03-4.05-.6.59-.84.54-.27-1.11-.51-1.16-.2-1.46-.44-1.51-.68.99-.92.94-.93,2.17-1.17,2.12.06-2.73-.17-2.78-.97,2.32-1.21,2.27-.12-1.77-.36-1.82-1.18,3.28-1.42,3.23.13-2.97-.11-3.02-.15-1.59-.39-1.64-1.46,4.46-1.7,4.41-.38-.55-.62-.61.5-4.51.26-4.56-1.58,4.87-1.81,4.81.31-3.59.07-3.64-1.05,2.48-1.29,2.43-.18-1.38-.42-1.43-.73,1.01-.97.95-.01-2.1-.25-2.16-.9,1.71-1.13,1.65.23-3.11,0-3.16-.57.3-.81.25-1.16,2.79-1.4,2.73-.65.6-.88.55.47-4.03.23-4.09-1.66,4.77-1.9,4.71-.11-1.6-.35-1.66-.51,0-.75-.05-.8,1.16-1.04,1.1.26-2.93.01-2.99Z"/>
        <g>
          <path class="cls-4" d="M115.29,294.08l-2.44,2.23c-.73.66-.69,1.93,0,2.6.54.52,1.07,1.04,1.61,1.56v-2.6c-.41.38-.82.76-1.23,1.13-1.01.93-.5,2.75.81,3.08.1-.03.17,0,.2.07.1-.74.19-1.49.29-2.23-.47.36-.93.73-1.4,1.09-.97.76-.53,2.34.37,2.89l1.62.99-.37-2.89c-.25.25-.37.26-.73.32-1.65.28-1.68,2.59-.44,3.37.42.26.82.56,1.12.95.1-.74.19-1.49.29-2.23-.74.71-1.48,1.41-2.21,2.12-.58.56-.7,1.55-.29,2.23.87,1.44.73,2.99-.24,4.35-.54.75-.19,2.13.66,2.52.8.37,1.07.6.85,1.46s-.7,1.58-1.35,2.2c-.92.88-.56,2.23.37,2.89.62.44,1.24.88,1.86,1.32-.22-.84-.44-1.68-.66-2.52-.65,1.45-1.8,3.01-1.03,4.57.66,1.33,1.19,2.67,1.43,4.15.24,1.48.02,2.89,0,4.37s.59,2.63,1.53,3.76c.79.95.92,1.58.82,2.81-.11,1.3-.31,2.56-.01,3.85.35,1.5,1.42,2.54,2.53,3.53,1.37,1.22,2.74,2.43,4.11,3.65,1.77,1.57,4.38-1.03,2.6-2.6-1.12-1-2.24-1.99-3.36-2.99-.81-.72-2.21-1.56-2.37-2.73-.14-1,.16-2.07.21-3.06.06-1.13-.08-2.29-.61-3.31-.43-.82-1.34-1.43-1.68-2.28-.4-.98.09-2.52.05-3.59-.1-2.68-.86-5.26-2.16-7.6v1.86c.38-.84.75-1.69,1.13-2.53.44-.97.23-1.89-.66-2.52-.62-.44-1.24-.88-1.86-1.32l.37,2.89c1.42-1.35,2.32-3.13,2.51-5.09s-1.05-3.58-2.76-4.35c.22.84.44,1.68.66,2.52,1.69-2.37,1.73-5.59.24-8.06l-.29,2.23c.74-.71,1.48-1.41,2.21-2.12.53-.5.77-1.6.29-2.23-.71-.92-1.45-1.66-2.44-2.27-.15,1.12-.29,2.24-.44,3.37.93-.16,1.69-.61,2.35-1.27.86-.85.63-2.28-.37-2.89l-1.62-.99.37,2.89c.47-.36.93-.73,1.4-1.09.61-.47.7-1.61.29-2.23-.6-.9-1.34-1.5-2.4-1.76.27,1.03.54,2.05.81,3.08.41-.38.82-.76,1.23-1.13.72-.67.69-1.93,0-2.6-.54-.52-1.07-1.04-1.61-1.56v2.6l2.44-2.23c1.75-1.6-.86-4.2-2.6-2.6h0Z"/>
          <path class="cls-4" d="M90.59,257.44c.5.73,1,1.46,1.5,2.19l1.1-2.7c-.66.16-1.32.32-1.98.48-1,.24-1.5,1.32-1.29,2.26l.36,1.58,1.29-2.26c-1.67.57-3.24,1.34-4.66,2.4-.65.49-1.45,1.03-1.93,1.7-.65.9-.27,2.03-.14,3.05l.91-1.59-1.81.87c-.69.33-1.1,1.36-.85,2.08.22.63.01,1.19-.66,1.36-1.48.37-1.86,2.64-.44,3.37.46.23-.71-1.14-.37-1.14-.18,0-.66.27-.82.33-.69.28-1.27.61-1.76,1.19-.8.94-.51,2.79-1.79,3.27s-1.79,1.98-.81,3.08c0-.01,0-.39-.04.04-.02.21-.21.5-.3.65-.3.49-.71.88-1.12,1.26-1.06.97-.45,2.69.81,3.08-.21-.07-.23-.33-.14-.03-.04-.16.1.51.1.56.1.63.13,1.42.24,2.1.24,1.41,1.05,2.86,2.61,3.08l-1.35-1.78c-.19,1.87-.78,4.38-.15,6.19.32.91.98,1.36,1.74,1.89.51.35.98.69.85,1.41-.25,1.41.82,2.57,2.26,2.26,1.16-.24,2.36-.31,3.53-.14l-1.1-.85c.35.79.69,1.58,1.04,2.37.32.74,1.36,1.04,2.08.85,1.13-.3,2.05-.83,2.94-1.58l-2.89-.37c.44.65.89,1.3,1.33,1.95.6.88,1.56,1.11,2.52.66.7-.33,1.31-.79,1.82-1.36l-1.79.47c1.2.22,2.39.43,3.59.65,2.32.42,3.31-3.13.98-3.55-1.18-.21-2.39-.54-3.59-.65-1.37-.13-1.75.74-2.87,1.26l2.52.66-1.33-1.95c-.71-1.04-1.94-1.17-2.89-.37-.4.33-.82.5-1.32.63l2.08.85c-.66-1.51-.97-3.08-2.83-3.31-1.62-.21-3.2-.1-4.8.23l2.26,2.26c.36-2.02-.26-4.01-1.99-5.22-.21-.14-.73-.32-.85-.52.2.35.21-.98.22-1.13.08-1.2.19-2.4.31-3.6.07-.71-.62-1.67-1.35-1.78-.49-.07.16.07.12.21-.04.13-.1-.41-.13-.61-.08-.51-.13-1.35-.23-1.97-.24-1.55-1-2.86-2.57-3.34.27,1.03.54,2.05.81,3.08,2.02-1.84,3.58-4.79,1.47-7.16l-.81,3.08c1.22-.46,2.27-1.18,2.94-2.32.35-.6.45-1.18.65-1.82.17-.53.28-.43.91-.69,1.1-.45,2-1.19,2.34-2.38.35-1.23-.05-2.57-1.23-3.17-.15,1.12-.29,2.24-.44,3.37,2.51-.64,4.1-3.41,3.23-5.89l-.85,2.08,1.81-.87c.52-.25.99-1.01.91-1.59-.08-.64-.17-1.29-.25-1.93l-.54,1.3c1.39-1.34,2.99-2.34,4.82-2.96.97-.33,1.52-1.24,1.29-2.26-.12-.53-.24-1.05-.36-1.58l-1.29,2.26c.66-.16,1.32-.32,1.98-.48,1.1-.26,1.76-1.73,1.1-2.7-.5-.73-1-1.46-1.5-2.19-1.33-1.95-4.52-.11-3.18,1.86h0Z"/>
          <path class="cls-4" d="M94.62,299.19c-.4,1.64.24,3.26,1.71,4.11.69.4,1.67.3,2.23-.29.63-.67,1.27-1.34,1.9-2.01h-2.6c.36.35.61.68.85,1.12.73,1.32,2.4,1.05,3.18,0,.08-.08.17-.16.25-.24-.23.1-.21.12.07.06h-.98c-.22-.2-.27-.21-.13-.06.07.1.16.19.25.28.23.22.51.39.8.51.61.25,1.27.26,1.9.06.56-.18,1.07-.52,1.5-.91.21-.19.38-.42.59-.62l.23-.22c.17-.11.17-.1-.01.02l-.93-.25c.36.15.7.51,1.2.65.75.21,1.51,0,2.13-.43.98-.66,1.7-1.87,2.45-2.77l-3.08-.81c.61,2.51,3.49,2.22,5.27,1.31,1.89-.96,3.46-2.59,4.41-4.48,1.06-2.11-2.11-3.98-3.18-1.86-.47.94-1.08,1.78-1.91,2.43-.39.31-.85.59-1.3.79-.13.06-.43.09-.52.17.29-.25,1.04,1.68.79.65-.31-1.26-2.19-1.89-3.08-.81-.38.46-.76.92-1.14,1.38-.29.35-.6.89-1,1.06l.93-.25h-.27c.31.07.62.16.93.24-.19-.1-.79-.53-1.2-.65-.57-.16-1.19-.07-1.73.13-.51.19-.95.5-1.35.86-.05.05-.9.86-.89.87-.05-.13,1.15.55.75-.07-.13-.21-.44-.4-.65-.52-.53-.3-1.15-.39-1.74-.28-1.12.22-1.86.99-2.52,1.87h3.18c-.38-.69-.86-1.32-1.43-1.87-.7-.68-1.91-.73-2.6,0-.63.67-1.27,1.34-1.9,2.01l2.23-.29c-.19-.11-.02.06-.02.04.56-2.3-2.99-3.28-3.55-.98h0Z"/>
        </g>
        <path class="cls-7" d="M101.88,239.82c.23.05.37.51.61.57.23.05.61-.55.85-.5.23.05.73-1.09.97-1.04s.08,1.85.32,1.9.89-1.87,1.13-1.82.33.7.57.75.11,1.79.35,1.84.49,0,.72.05,1.05-2.77,1.29-2.72-.02,2.5.22,2.54.96-2.43,1.2-2.38.39.44.63.49.3.93.54.98.59-.57.83-.53.24,1.3.48,1.34.11,2.05.35,2.1.66-.93.89-.89.43.3.67.34.72-1.33.95-1.28.29,1.14.53,1.18.7-1.29.94-1.25.24,1.44.48,1.48.55-.4.79-.36.73-1.51.96-1.47.02,2.89.26,2.93.4.54.64.58,1.06-3.77,1.3-3.73.13,2.3.37,2.34.61-.87.85-.83.41.46.65.49.21,1.93.45,1.96.98-3.49,1.21-3.46-.06,3.92.18,3.95.86-2.77,1.1-2.73.56-.59.8-.56.4.58.64.62.1,2.97.34,3,.46.21.69.24.49-.04.73-.01.85-3.04,1.09-3.01.24,1.99.48,2.02.45.23.69.26.45.28.69.31.42.56.66.59.6-1.11.84-1.08.49-.12.73-.1.68-1.91.91-1.89.39.81.63.83.31,1.7.55,1.72.38,1.08.62,1.11.77-3.07,1.01-3.05.33,1.66.57,1.68.33,1.76.56,1.79.65-2,.89-1.98.42.7.66.72.39,1.1.63,1.12.64-2.04.88-2.02.59-1.43.83-1.42.3,2.47.53,2.49.52-.54.76-.53.34,2.09.58,2.1.58-1.49.82-1.47.4,1.31.64,1.32.61-2.17.85-2.15.42.94.66.96.62-2.46.86-2.44.37,2.07.61,2.09.4,1.59.64,1.61.48.16.72.17.57-1.92.81-1.91.54-1.37.78-1.36.38,2.48.62,2.48.45.86.69.87.58-2.65.82-2.64.51-.87.75-.86.47.06.71.07.45,1.02.69,1.02.47.48.71.48.51-1.69.75-1.68.42,2.95.66,2.95.53-2.93.77-2.92.43,3.02.67,3.03.51-2.79.75-2.79.44,3.74.68,3.74.49-1.1.73-1.1.48-.28.72-.28.48-.07.72-.07.48,1.35.72,1.35.46-3.88.7-3.88.48,1.17.72,1.17.48.65.72.65.45-1.85.69-1.85.49,1.23.73,1.22.53,2.79.77,2.79.46-1.33.7-1.34.48-.26.72-.26.46-.7.7-.7.49.34.73.34.5.55.74.54.44-1.13.68-1.13.5.58.74.57.49.28.73.27.55,1.46.79,1.45.31-3.67.55-3.68.51.64.75.63.63,2.79.87,2.77.27-3.82.51-3.83.65,2.92.89,2.91.4-1.3.64-1.32.58,1.58.83,1.57.45-.48.69-.5.51.31.75.3.45-.54.69-.56.41-.99.65-1.01.62,1.77.87,1.75.19-3.58.43-3.61.77,3.4,1.01,3.38.24-2.73.48-2.75.59,1.15.83,1.13.38-1.04.62-1.06.73,2.49.97,2.46.26-2.24.5-2.27.63,1.39.87,1.37.21-2.52.45-2.55.78,2.69,1.02,2.66.3-1.64.54-1.67.5.11.73.08.67,1.57.91,1.54.37-.97.61-1,.46-.18.7-.21.68,1.49.92,1.46.13-2.66.37-2.69.36-.87.6-.9.89,2.88,1.13,2.84.5.09.74.05.24-1.69.48-1.73.55.44.79.4.32-1.08.56-1.11.86,2.36,1.1,2.32.35-.9.59-.94.57.44.8.4.14-2.11.38-2.15.44-.28.68-.32.46-.17.69-.21.26-1.25.5-1.29.7,1.16.93,1.11.65.88.89.84.57.41.81.37.5.02.74-.02.59.47.83.42.58.42.82.37-.25-3.63-.01-3.68.87,1.83,1.11,1.78.72,1.08.96,1.03.35-.69.59-.74.29-.96.52-1.01.66.72.89.67,0-2.16.24-2.22.43-.25.67-.3.76,1.12.99,1.06.65.62.88.56.76,1.06,1,1,.28-.33.51-.37.38.33.61.31.32-.42.56-.41.67-3.55.9-3.52.05,3.48.29,3.52.96-2.28,1.19-2.22.54.15.76.23.55.15.76.25.39.45.6.57-.66,1.97-.47,2.1,1.06-.73,1.25-.58.93-.28,1.1-.12-.94,1.54-.78,1.72,1.34-.5,1.48-.3-1.46,1.48-1.33,1.68.68.09.8.29,1.99-.51,2.09-.3-1.46,1.21-1.37,1.43,1,.07,1.09.29-.97.82-.9,1.05,1.4.04,1.47.26,1.61.12,1.66.35-.38.63-.34.86-1.72.74-1.69.98,2.12.29,2.14.52-3.05.6-3.05.84,1.44.43,1.43.67.17.47.15.71-.75.37-.79.61.89.6.85.83-1.25.21-1.3.44.31.53.25.76,1.17.85,1.1,1.07-1.42.02-1.5.24,1.9,1.27,1.82,1.49-2.74-.67-2.84-.45-.09.44-.19.65,1.4,1.27,1.28,1.47.35.87.22,1.07-1.59-.5-1.73-.32-1.42-.7-1.58-.53.85,1.44.67,1.6.29,1.16.11,1.3-1.01-.55-1.21-.42-.55-.03-.75.08-.54-.14-.76-.05-.41.07-.63.15-.04,1.58-.26,1.64-.65-.73-.88-.7-.68-1.36-.93-1.32c-.23.04-.26,1.39-.51,1.42-.23.03-.73-1.67-.97-1.64-.23.03-.01,3.12-.26,3.16s-.52-.26-.76-.23-.56-.56-.8-.53-.61-.91-.85-.88-.6-.88-.84-.85-.41.47-.65.51-.4.57-.64.61-.62-1.09-.86-1.06-.19,2.14-.43,2.17-.21,2.08-.45,2.11-.73-1.89-.97-1.86-.62-1.08-.86-1.05-.24,1.86-.48,1.89-.53-.42-.77-.39-.28,1.62-.52,1.65-.59-.87-.83-.85-.4.72-.64.75-.8-2.72-1.04-2.69-.35,1.12-.59,1.14-.27,1.8-.51,1.83-.73-2.16-.97-2.13-.3,1.6-.54,1.62-.77-2.64-1.01-2.61-.22,2.41-.45,2.43-.39.84-.63.86-.81-3.06-1.05-3.03-.14,3.19-.38,3.21-.65-1.62-.89-1.6-.61-1.31-.85-1.28-.35,1.3-.59,1.32-.24,2.46-.48,2.49-.8-3.23-1.04-3.21-.19,3-.43,3.02-.84-3.75-1.08-3.73-.2,3-.44,3.02-.72-2.63-.96-2.6-.15,3.71-.39,3.73-.68-2.2-.92-2.18-.42.64-.66.67-.61-1.51-.85-1.49-.44.46-.68.48-.43.53-.67.55-.56-.98-.8-.96-.32,1.98-.56,2-.38,1.25-.62,1.27-.52-.57-.76-.55-.68-2.64-.92-2.62-.28,2.64-.52,2.65-.46.36-.69.38-.48.04-.72.05-.49-.18-.73-.16-.43.7-.67.72-.67-2.83-.91-2.81-.37,1.63-.61,1.64-.47.13-.71.14-.62-2.33-.86-2.31-.39,1.47-.63,1.48-.44.75-.68.77-.53-.89-.77-.87-.38,1.76-.62,1.77-.49-.19-.73-.18-.48.09-.72.1-.45.76-.69.77-.53-1.08-.77-1.06-.54-1.32-.78-1.31-.52-.84-.76-.83-.37,2.65-.61,2.66-.52-.94-.76-.93-.54-1.45-.78-1.44-.41,1.87-.65,1.88-.44,1.27-.68,1.28-.59-3.15-.83-3.14-.41,2.22-.65,2.23-.46.62-.7.63-.51-.92-.75-.92-.52-1.63-.76-1.63-.41,2.77-.65,2.78-.55-2.98-.79-2.97-.47.33-.71.33-.42,2.94-.66,2.94-.54-3.46-.78-3.46-.44,2.4-.68,2.4-.49-.61-.73-.61-.48-.2-.72-.2-.48-.37-.72-.36-.49-1.19-.73-1.19-.46,2.51-.7,2.51-.49-2.07-.73-2.06-.48,1.03-.72,1.03-.48-.4-.72-.4-.48-.59-.72-.59-.48-.92-.72-.92-.49,1.37-.73,1.36-.47-1.35-.71-1.35-.48.6-.72.59-.51,2.75-.75,2.74-.48-.21-.72-.21-.44-2.69-.68-2.7-.53,2.63-.77,2.62-.47-.82-.71-.83-.46-1.1-.7-1.11-.54,2.21-.78,2.21-.41-2.69-.65-2.7-.53,1.65-.77,1.65-.43-1.75-.67-1.76-.48-.13-.72-.14-.45-.71-.69-.72-.6,3.21-.84,3.2-.52.81-.76.8-.35-3.17-.59-3.18-.48.07-.72.06-.52.79-.76.78-.41-1.37-.65-1.38-.6,2.24-.84,2.23-.35-2.4-.59-2.41-.54,1.11-.79,1.1-.45-.53-.69-.54-.49.08-.73.07-.56,1.18-.8,1.16-.57,1.27-.81,1.25-.37-1.63-.61-1.65-.49.06-.73.05-.38-1.36-.62-1.38-.48.02-.72,0-.62,1.63-.86,1.61-.32-1.91-.56-1.93-.63,1.65-.87,1.63-.43-.62-.67-.64-.38-1.16-.62-1.18-.66,1.82-.9,1.8-.33-1.61-.57-1.63-.75,2.57-.99,2.55-.36-1.26-.6-1.29-.29-1.78-.53-1.8-.45-.27-.69-.3-.64,1.34-.88,1.31-.44-.39-.68-.42-.67,1.5-.91,1.47-.51.18-.75.15-.48-.07-.72-.1-.17-2.44-.41-2.47-.58.7-.82.67-.8,2.22-1.04,2.18-.29-1.43-.53-1.47-.32-1.13-.56-1.16-.34-.97-.58-1.01-.49.04-.73,0-.47-.09-.71-.13-.95,2.84-1.18,2.8-.05-2.68-.29-2.72-.59.6-.83.56-.31-1.01-.55-1.05-.51.14-.75.1-.84,1.96-1.08,1.92-.33-.89-.57-.93-.34-.8-.58-.85-.97,2.46-1.21,2.42.12-3.09-.12-3.13-.27-1.06-.51-1.1-.97,2.32-1.2,2.27-.55.25-.79.2-.6.47-.83.41.08-2.62-.15-2.67-.29-.89-.52-.94-.45-.15-.68-.21-1.25,3.21-1.48,3.16-.07-1.76-.31-1.82c-.24-.06.03-1.54-.21-1.62s-.45.18-.68.08-1.38,1.68-1.59,1.56.83-2.2.63-2.34-2.07,1.95-2.26,1.79.33-1.19.15-1.37-.14-.54-.3-.73,0-.62-.14-.81-.5-.21-.64-.4-1.55.51-1.69.32,1.35-1.5,1.22-1.7.26-.68.14-.88-1.51.33-1.62.12.65-.86.55-1.07-.77-.15-.86-.37-.88-.18-.96-.4-.83-.28-.9-.5-.3-.49-.36-.72,1.23-.8,1.19-1.03,1.28-.65,1.25-.88-1.28-.31-1.3-.55-1.42-.46-1.42-.7.66-.52.67-.76.52-.46.55-.7-1.9-.82-1.86-1.05.27-.55.32-.79.73-.4.8-.63,1.88.07,1.95-.15-.81-.82-.72-1.04.65-.26.75-.48.76-.15.87-.36,1.37.26,1.49.06-.81-.99-.68-1.19-1.37-1.5-1.24-1.69.69-.19.84-.38.76-.02.93-.19,1.56,1.06,1.74.9-.7-1.56-.5-1.7,1.07.87,1.28.75,0-.85.22-.95.85,1.01,1.07.93-.21-1.9.02-1.97.14-1.8.37-1.84.61-.2.85-.23.64.13.88.12.44,2.95.68,2.97.47-.68.71-.65.42.09.65.15Z"/>
        <path class="cls-7" d="M113.68,252.78c-.13.2-.07.52-.2.73s-.68.14-.81.35.35.77.22.98-.07.51-.2.72-.48.27-.6.49-.61.2-.73.42-.18.45-.3.67-.08.51-.19.72.12.61,0,.82-.82.11-.93.33.53.81.42,1.03-.69.18-.8.4.17.61.06.83-.29.39-.39.61-.99.07-1.09.29.14.59.04.81-.37.36-.47.58.22.62.13.84-.86.16-.95.39.93.9.84,1.12-.4.35-.49.58.08.54,0,.77-.25.42-.33.64-1.18.09-1.26.32.26.6.18.83-.14.47-.21.7-.63.31-.7.54-.06.49-.13.72.15.55.09.78.28.58.21.81-.38.4-.44.63.05.51,0,.75.04.5-.02.74-.39.4-.45.64-.52.39-.57.62.63.62.58.86.25.53.21.77-.98.32-1.02.56.37.55.34.79.1.5.07.74-.38.44-.41.68-.19.47-.22.71.28.51.25.76.07.49.05.73-.8.43-.82.67,0,.49,0,.74-.02.49-.03.73.05.49.05.74.84.49.84.73-.15.48-.14.73-.71.55-.66.78.69.32.77.55-.49.74-.38.95.1.57.24.77,1.03-.16,1.18.02.17.47.34.64.34.32.53.47.59-.03.79.1.48.09.69.22c.2.12.07.81.28.93.21.11.54-.02.76.09s.14.84.37.94.69-.41.92-.32.22.81.46.89.8-.94,1.03-.87.39.33.63.39.25,1.11.49,1.16.68-1.08.93-1.05.45.09.69.12.43.42.67.44.47.05.72.07.48-.33.72-.33.46.1.71.1.52.9.77.89.5,0,.74-.02.5,0,.74-.04.35-.96.59-1,.45-.16.69-.2.43-.23.67-.29.59.45.83.39.28-.78.52-.84.58.32.82.25.35-.46.59-.54.61.32.84.24.48-.11.71-.2.67.36.9.27.29-.64.51-.75.1-.83.31-.96.79.33.99.18.64-.05.82-.21c.19-.17-.44-1.15-.28-1.33s1.07.24,1.2.04-.17-.69-.06-.91.83-.22.9-.45-.66-.67-.62-.91.75-.45.74-.7c0-.23-.18-.46-.19-.71,0-.23.49-.47.49-.72,0-.23-1.16-.47-1.16-.71s.69-.47.69-.71.42-.46.43-.7-.26-.48-.25-.72-.59-.5-.58-.74.41-.45.43-.69-.17-.48-.16-.72-.39-.51-.37-.75.3-.45.32-.69-.06-.49-.03-.73.32-.44.35-.68.65-.39.69-.63.08-.46.12-.7.02-.47.05-.71-.57-.58-.53-.82.22-.45.27-.68-.14-.52-.09-.75.45-.39.5-.63-.12-.52-.06-.75,0-.5.06-.73.03-.49.09-.73,1.04-.19,1.11-.42-.37-.61-.29-.84-.34-.62-.26-.85.91-.19.99-.41-.04-.52.05-.75.46-.33.55-.55-.25-.62-.15-.84,0-.53.11-.75-.02-.56.09-.77,1.25.11,1.37-.1-.8-.99-.68-1.2.78-.1.91-.31.68-.13.81-.33-.29-.76-.16-.96.36-.33.51-.52.75-.02.9-.21-.34-.88-.18-1.07.04-.52.17-.71c.13-.21,1.07.03,1.17-.18.1-.23.01-.57.08-.79s-.05-.53-.03-.76-.03-.49-.05-.73.02-.5-.04-.73-.54-.3-.63-.52.41-.75.28-.96-.2-.5-.35-.69-1.07.31-1.24.13-.27-.33-.46-.49-.27-.36-.47-.51.07-.95-.14-1.08-.46-.22-.67-.33-.66.25-.88.15-.56.15-.79.07-.27-.62-.51-.69-.47-.08-.71-.14-.44-.19-.68-.24c-.35-.07-.28-.4-.63-.47s-.27-.42-.62-.5-.58,1.04-.93.97-.21-.72-.56-.79-.52.74-.87.67-.19-.83-.54-.9-.38.06-.73-.02c-.23-.05-.4-.48-.63-.51s-.54.43-.77.4-.44-.3-.68-.32-.47-.08-.71-.09-.46.73-.7.73-.46-.17-.69-.16-.57-1-.8-.97-.37.86-.6.89-.54-.29-.76-.24-.24.96-.47,1.02-.46.02-.68.09-.68-.52-.9-.44-.37.36-.57.46-.52.03-.72.15,0,.87-.2.99-1-.58-1.18-.43.29,1.04.12,1.2-1.11-.38-1.26-.2,0,.64-.13.84Z"/>
        <path class="cls-5" d="M170.57,252.51c-.29-.01-.61-.44-.89-.39s-.56.44-.83.54c-.07-.23-.36-.43-.45-.65s.27-.65.16-.85-.26-.43-.38-.62-.54-.2-.69-.38-.1-.56-.26-.72-.47-.2-.66-.34-.43-.2-.63-.32-.3-.44-.52-.54-.5-.04-.72-.11-.49.1-.72.06-.43-.1-.67-.11-.47-.13-.7-.11-.45.15-.68.2-.44.13-.67.21-.53-.02-.74.09-.39.28-.59.42-.35.32-.53.48-.38.29-.54.47-.4.3-.54.49-.23.43-.35.63-.07.5-.17.72-.4.23-.49.45c-.2-.11-.34-.11-.56-.19s-.49.1-.72.06-.4-.5-.64-.51c-.25,0-.52.21-.76.24s-.52.03-.75.1-.44.26-.67.37-.54.08-.75.22-.43.29-.62.46-.26.46-.42.65-.21.46-.35.67-.12.48-.23.71-.56.29-.65.53.15.56.09.81-.47.41-.51.66-.01.51-.02.77.29.5.3.75.11.47.15.72-.04.51.03.75.05.51.15.74.04.56.16.77.29.44.44.64.6.16.77.33.34.33.53.49.27.47.49.59.44.24.68.33.48.15.73.21.49.18.74.19.53-.1.78-.13.57.08.81,0,.37-.49.6-.6.56-.33.78-.47c.07.24-.04.72.05.94s.15.51.27.72.39.37.54.56.47.26.64.44.18.54.38.69.59,0,.81.12.24.66.47.75.56-.08.81-.03.49-.07.75-.06.49.24.73.21.52.02.75-.05.49-.16.71-.26.25-.55.45-.68.67.08.85-.07.16-.54.33-.72.13-.49.27-.69.5-.24.62-.45.17-.51.26-.74c.19.13.5.13.71.24s.27.49.49.57.46.12.68.16.46.11.69.12c.25,0,.49-.25.74-.28s.55.18.79.11.39-.39.61-.5.54-.05.75-.19.46-.25.65-.41.33-.4.49-.59.2-.48.34-.69.29-.41.4-.63.4-.38.49-.62-.13-.56-.06-.81-.04-.5,0-.75.3-.46.31-.71-.24-.49-.25-.73.1-.5.06-.74.23-.58.16-.81-.3-.45-.39-.68-.34-.39-.46-.61-.18-.48-.33-.68-.31-.4-.48-.58-.39-.32-.58-.48-.36-.37-.58-.49-.43-.29-.66-.38-.49-.18-.73-.23-.53.26-.78.25Z"/>
        <path class="cls-4" d="M197.75,288.34c-.25.58-.38,1.01-.23,1.65.03.12.05.25.09.36.07.19.05-.34-.03-.16-.11.22-.06.75,0,.98.11.46.29.91.53,1.32.01.02.17.27.16.28-.03.03-.13-.51-.09-.09.03.28.1.59.25.84.03.05.4.51.39.51,0,0-.17-.5-.06-.11.04.13.08.26.13.39.15.41.36.79.59,1.15.22.34.49.64.7.98.32.51.45.88.97,1.26.12.08.24.17.36.25.19.12-.37-.33-.03,0,.08.07.21.24.31.28-.01,0-.23-.38-.05-.05.33.6.8.96,1.35,1.35l-.51-.51c.3.51.55.95,1.09,1.25.07.04.27.16.35.17.19.02-.21-.24-.11-.09.1.16.29.31.42.45.27.3.53.57.85.82.46.37.94.56,1.49.77l-.85-.65c.33.43.63.95,1.13,1.17.19.08.39.14.59.19.59.16-.25-.21.14.06.52.37,1.05.7,1.62.97.7.33,1.53.2,1.95-.51.36-.62.19-1.62-.51-1.95-.45-.21-.81-.44-1.23-.72-.52-.35-1.04-.54-1.64-.71l.85.65c-.25-.32-.5-.75-.82-.99s-.78-.37-1.17-.52l.63.37c-.38-.31-.71-.63-1.04-.99-.44-.48-.84-.77-1.43-1.05l.51.51c-.18-.3-.34-.67-.59-.92s-.59-.44-.87-.64l.51.51c-.53-.88-1.17-1.43-2-2.01l.51.51c-.3-.61-.7-1.11-1.06-1.68-.06-.09-.11-.19-.17-.28s-.11-.23-.18-.32c-.16-.19.04.31.07.18.07-.29-.36-.96-.52-1.17-.06-.07-.11-.19-.19-.25-.14-.1.05.32.06.14.01-.16-.06-.4-.1-.55-.06-.22-.18-.42-.29-.62-.05-.09-.09-.19-.15-.27-.16-.21.1.4.06.14,0-.04-.16-.54-.17-.54.15-.03-.02.54.06.12.02-.11.03-.26.03-.38,0-.41-.12-.79-.22-1.18v.76l.29-.68c.3-.71-.32-1.56-.99-1.75-.82-.23-1.45.28-1.75.99h0Z"/>
        <path class="cls-4" d="M192.23,106.25c.23.05.57-.76.8-.71s.46.16.7.22.35.64.59.69.31.78.54.83.35.56.58.62.79-1.16,1.02-1.1.29.76.53.83.36.5.59.56.74-.86.97-.79.42.28.65.35.54-.11.77-.04.07,1.37.3,1.45.76-.8.99-.72.35.46.58.54.72-.62.95-.54.36.45.58.53.32.54.55.62.39.34.61.42.3.57.52.65.54-.08.77,0,.57-.14.79-.05.73-.52.96-.42.33.47.55.57.3.52.53.62.24.67.46.76.49.08.71.18.56-.08.78.02.62-.18.83-.07.3.51.51.61.19.71.41.81.86-.64,1.07-.53.43.24.64.35-.04,1.13.17,1.25.26.53.47.65,1.15-1.11,1.36-1,.48.14.69.25.43.23.64.35.28.5.49.62.48.14.69.27.5.11.71.24.19.61.4.74.5.12.7.25-.26,1.28-.06,1.41.8-.33,1-.2.18.58.38.72.48.15.68.29.07.71.26.86,1.16-.75,1.35-.61.5.16.68.31-.37,1.25-.19,1.4.32.35.51.51.88-.3,1.06-.14.63.03.81.19-.43,1.19-.26,1.35.12.56.29.72.77-.11.94.05-.15.8.01.97,1.35-.6,1.51-.42.2.48.36.66-.29.86-.14,1.05.86-.06,1,.13-.62,1.03-.48,1.23,1.56-.48,1.69-.28.03.58.15.78-.92,1.07-.8,1.28.64.18.74.39.13.44.22.66,1.27.02,1.35.25-.46-.02-.4.2c.1-.23.69.47.79.25s-1.01-.97-.92-1.2,1.15-.04,1.24-.27.5-.32.6-.55-1.04-.96-.95-1.19.78-.21.87-.44.85-.19.94-.42-.64-.78-.55-1.01.57-.31.65-.53.63-.29.71-.52-.1-.56-.01-.79.48-.35.56-.58.23-.44.31-.67.28-.42.36-.65-1.31-.97-1.23-1.2,1.29-.08,1.37-.31-.78-.77-.7-1.01.09-.48.16-.71.31-.41.39-.64.34-.4.41-.64.16-.46.23-.69-.48-.65-.42-.88.34-.41.4-.64,1.15-.18,1.22-.41-.96-.77-.9-1,1-.24,1.06-.47.37-.41.43-.64-.65-.67-.6-.9.21-.45.27-.68.57-.37.63-.61-.89-.71-.84-.94,1.32-.21,1.37-.45.35-.43.4-.67-.24-.55-.19-.79-.8-.65-.75-.89.04-.49.08-.72,1.13-.3,1.17-.54-.54-.59-.5-.83.34-.44.38-.68-.83-.61-.79-.85,1.74-.25,1.78-.49-.34-.54-.31-.78-.08-.5-.05-.74-.2-.51-.18-.75-.54-.54-.52-.78.89-.41.91-.64-.05-.49-.03-.73.41-.46.43-.7-1.08-.56-1.07-.8,1.39-.42,1.4-.66-1.11-.53-1.1-.77.94-.46.95-.7-.47-.5-.46-.74.08-.49.08-.73-.94-.47-.94-.71.94-.51.93-.75-.95-.45-.96-.69,1.17-.54,1.16-.78-.72-.44-.74-.68.33-.51.31-.75-.68-.42-.7-.66-.45-.37-.5-.6.08-.45.01-.67.18-.53.09-.75-.33-.34-.44-.55.66-.94.53-1.14-.1-.61-.24-.79-.51-.28-.68-.45-1.12.48-1.3.32-.39-.19-.59-.33-.28-.36-.48-.48-.45-.06-.67-.16-.42-.07-.65-.15-.04-1.5-.28-1.56-.6.34-.84.3-.56,1.04-.8,1.02-.4-.27-.64-.26-.42.01-.66.05-.6-.78-.84-.72-.4.39-.64.45-.41.32-.64.38-.64-.57-.87-.5-.23.97-.46,1.03-.54-.16-.77-.09-.47.09-.7.16-.71-.67-.94-.6-.07,1.35-.3,1.42-.73-.7-.96-.63-.41.29-.64.37-.08,1.22-.31,1.3-.68-.49-.91-.41-.71-.53-.93-.45-.56-.11-.78-.02.08,1.56-.14,1.65-.7-.47-.92-.39-.59-.17-.81-.08-.12.99-.34,1.08-.59-.16-.81-.07-.49.08-.71.17-.32.46-.54.56-.68-.37-.9-.27-.59-.14-.81-.04-.07,1.01-.29,1.11-.53,0-.74.11-.69-.33-.91-.23-.3.49-.52.6-.16.76-.38.87-.32.43-.54.54-.54,0-.75.11-.49.09-.71.21-.7-.28-.91-.17-.07.89-.28,1-.89-.62-1.11-.5.16,1.27-.05,1.39-1-.78-1.21-.66.22,1.34.01,1.46-.97-.69-1.18-.56-.15.7-.35.82-.86-.47-1.07-.34.39,1.52.19,1.65-1.2-.97-1.41-.84-.47.18-.67.32.29,1.29.09,1.43-.99-.58-1.19-.44.3,1.26.1,1.4-1.12-.72-1.32-.58.19,1.07,0,1.22-.48.16-.67.31.04.82-.15.97-.38.28-.57.43-.3.38-.49.54-.82-.21-1-.05-.65,0-.83.17-.42.27-.6.44-.23.47-.4.64-.5.19-.67.37-.69.02-.86.2.84,1.44.68,1.62-.51.17-.67.36-.27.39-.42.58-.98-.16-1.13.02.13.71-.01.9-.61.16-.74.36-.43.31-.56.51-.34.37-.46.58.28.64.17.85Z"/>
        <path class="cls-4" d="M117.57,109.49c-.22.09-.08.73-.3.82s-.39.27-.61.37-.4.25-.62.35-1.02-1.05-1.24-.94-.3.5-.51.6-.66-.24-.88-.14-.21.67-.42.78-.13.8-.34.91-.17.7-.38.81-1.23-1.27-1.44-1.15.38,1.69.17,1.81-.56-.03-.77.09-1.09-.92-1.29-.8.19,1.29-.01,1.41-.38.3-.58.42-.65-.15-.86-.03-.71-.23-.92-.11.4,1.54.2,1.67-1.09-.81-1.29-.68-.39.28-.59.42.08.99-.12,1.12-.64-.09-.84.05.1.99-.1,1.12-1.25-.95-1.45-.81.18,1.08-.02,1.22-.87-.38-1.06-.23-.52.12-.71.26,0,.79-.2.94-.35.33-.54.48-.34.35-.53.5-.81-.25-1-.1.38,1.25.2,1.4-1.4-.94-1.59-.79-.14.59-.33.75.44,1.26.26,1.42-1-.42-1.18-.26.18.93,0,1.09-.12.58-.3.74-.33.35-.5.51-1.5-.89-1.67-.72.21.92.03,1.08.06.74-.11.91-.83-.15-1,.02-.49.21-.65.38-.76-.04-.92.13.1.76-.06.94.21.84.05,1.02-1.23-.43-1.38-.25.94,1.43.79,1.62-.81-.06-.96.13-1.06-.22-1.21-.04.73,1.18.59,1.37-.89-.07-1.03.12-.69.11-.82.31.17.71.03.91.33.79.2.99-.87.02-.99.22-.62.2-.74.41.98,1.1.86,1.31-1.43-.21-1.53,0,.24.66.14.88.66.81.57,1.02-1.76-.2-1.85.02,1.2.95,1.13,1.18-.48.33-.55.56.11.51.06.74-1.16.24-1.21.47.87.63.84.87-.32,1.34-.34,1.57c-.14-.2.09-1.74-.06-1.94s-1.07.16-1.21-.04.33-.83.19-1.03-.86,0-1-.2.07-.64-.07-.84-1.17.2-1.3,0-.26-.42-.4-.62,1.03-1.27.9-1.47-.71-.12-.84-.33-.87-.02-1-.23.23-.73.1-.94-.89-.02-1.02-.23.42-.84.29-1.05.39-.81.26-1.02-.83-.07-.96-.28-.03-.55-.15-.76-.97,0-1.09-.21.79-1.02.67-1.23-.77-.12-.89-.33-.28-.41-.39-.62.02-.57-.09-.78,0-.55-.12-.76-1.37.18-1.48-.03-.03-.54-.14-.75.62-.87.5-1.08-.02-.53-.13-.75-1.28.1-1.39-.12.11-.6,0-.82.65-.85.54-1.07-.52-.29-.62-.51-1.2.02-1.3-.2.31-.68.21-.91.44-.73.34-.95-1.08-.06-1.17-.29-.78-.21-.87-.43.59-.78.5-1,.2-.61.11-.83-.46-.34-.55-.57.3-.64.22-.86-.7-.26-.79-.48.41-.67.33-.89-.21-.44-.29-.66-.35-.39-.43-.62-1.39-.05-1.47-.28.94-.82.87-1.05.04-.52-.03-.75-.09-.48-.15-.71-.59-.34-.65-.57-.32-.42-.39-.65-.02-.5-.08-.73-.68-.33-.74-.57-.26-.45-.31-.68,1.4-.82,1.35-1.05-.59-.36-.64-.59.34-.56.3-.79-.74-.35-.79-.59-.89-.34-.93-.57,1.08-.67,1.04-.9-.61-.4-.65-.64.94-.61.91-.84-.66-.4-.68-.63-1.1-.43-1.11-.67,1.3-.45,1.32-.69-1.33-.67-1.29-.9,1.73-.1,1.8-.33-1.08-.84-.99-1.06-.19-.67-.08-.89,1.42.22,1.55.02.36-.27.5-.46-.88-1.38-.72-1.55,1.56.89,1.74.73-.21-.95-.02-1.1.35-.35.55-.48.24-.61.46-.72.9.88,1.12.8.39-.16.62-.22.3-.68.54-.72.39-1.01.63-1.02.55.26.8.27.46.73.71.74.5-.68.75-.67.49-.14.73-.12.47.16.72.18.48-.02.73,0,.42.78.66.8.43.54.67.56.51-.38.75-.35.48.03.72.05.47.12.71.14.46.18.7.21.53-.34.77-.31.48.06.72.09.46.15.7.19.51-.13.74-.09.4.55.63.59.52-.2.76-.16.61-.67.85-.63.31.98.54,1.02.32.87.55.92.75-1.3.98-1.25.54-.21.77-.16.39.5.62.55.22,1.21.46,1.27.43.23.67.28.59-.41.82-.36.78-1.14,1.01-1.08.32.73.55.79.24,1,.47,1.06.4.35.63.42.64-.53.88-.47.29.73.52.8.87-1.26,1.1-1.19.03,1.59.26,1.66.89-1.25,1.12-1.18-.01,1.62.22,1.7.45.16.68.24.62-.33.84-.25.45.16.68.24.51.02.73.1.52-.02.75.07.6-.21.83-.13.25.68.48.77.62-.24.84-.15.08,1.06.3,1.16.58-.14.8-.05.64-.25.86-.15.64-.21.86-.11.16.81.37.91.14.8.36.91.86-.61,1.07-.5.51.08.72.2.4.29.61.41.3.46.51.58.65-.13.85,0-.19,1.22.02,1.35.3.4.5.53,1.1-.78,1.3-.64.45.23.64.37-.2,1.08,0,1.22.66-.07.85.07.44.23.63.38.83-.19,1.01-.03-.26,1.01-.09,1.17.73-.04.9.13.37.34.53.51-.14.62.02.8Z"/>
      </g>
    </g>
    <path class="cls-3" d="M157.41,314.82C70.61,314.82,0,244.2,0,157.41S70.61,0,157.41,0s157.41,70.61,157.41,157.41-70.61,157.41-157.41,157.41ZM157.41,23.63c-73.76,0-133.77,60.01-133.77,133.77s60.01,133.77,133.77,133.77,133.77-60.01,133.77-133.77S231.17,23.63,157.41,23.63Z"/>
  </g>
</svg>