<?xml version="1.0" encoding="UTF-8"?>
<svg id="Layer_2" data-name="Layer 2" xmlns="http://www.w3.org/2000/svg" viewBox="0 0 126.85 144.63">
  <defs>
    <style>
      .cls-1 {
        fill: #fff;
      }
    </style>
  </defs>
  <g id="_图层_1" data-name="图层 1">
    <path class="cls-1" d="M5.76,38.12c.27-.19,1.54,1.05,1.81.86s-1.41-3.21-1.14-3.4,2.52,2.5,2.79,2.31.13-.97.4-1.15,1.65,1.23,1.92,1.05-2.29-4.48-2.02-4.67,2.73,2.8,3,2.61-.23-1.49.05-1.67,1.07.39,1.34.2,1.35.8,1.63.62-1.87-3.87-1.6-4.06,1.52,1.04,1.79.86.18-.9.45-1.09,1.5,1.01,1.77.82-.41-1.75-.14-1.94,2.39,2.31,2.66,2.12-1.86-3.86-1.59-4.05.33-.69.6-.88.74-.09,1.01-.27,1.88,1.56,2.15,1.38.06-1.07.33-1.26.12-.99.39-1.18,2.23,2.08,2.5,1.9.58-.32.85-.51-.67-2.14-.4-2.33,1.21.59,1.48.41-.37-1.7-.1-1.89.53-.39.8-.57,1.55,1.1,1.83.91-.37-1.71-.1-1.9,1.29.71,1.56.53-1.19-2.91-.92-3.09.91.17,1.19-.02,2.39,2.33,2.66,2.14-1.19-2.91-.92-3.09,1.05.36,1.32.18,1.72,1.36,1.99,1.17-.85-2.42-.58-2.61.58-.32.85-.51c.27-.19-.25-1.56.02-1.75s1.99,1.77,2.27,1.58-.89-2.52-.61-2.71,1.03.34,1.31.16,2.41,2.43,2.69,2.25-.49-1.94-.21-2.12,1.56,1.16,1.83.98-.99-2.7-.71-2.89,2.04,1.9,2.31,1.71-1.43-3.39-1.15-3.57.55-.38.82-.56,2.18,2.12,2.46,1.94.75-.06,1.03-.24-.9-2.58-.62-2.76,2.27,2.25,2.55,2.07.12-1.02.4-1.21-.08-1.33.2-1.51-.86-2.5-.59-2.69,1.89,1.65,2.16,1.46,1.92,1.68,2.2,1.5-2.15-4.4-1.87-4.58,3.25,3.64,3.53,3.46-.13-1.38.15-1.56.24-.83.51-1.02,1.01.29,1.28.1-1.27-2.99-1-3.18c.29-.2,1.57,1.03,1.86.86.31-.18.71-.15,1.01-.29.32-.15.24-1.4.56-1.5.33-.11,1.43,3.18,1.75,3.12s.26-2.4.6-2.4.57.57.91.63.95-1.02,1.28-.91c.31.11.71.22,1.03.38.3.14-.7,2.53-.4,2.71.28.17,2.46-2.49,2.75-2.28.26.19,1.01-.27,1.27-.07s-2.01,3.87-1.74,4.06,2.04-1.68,2.3-1.49,1.67-1.18,1.93-.99-.82,2.24-.56,2.43.25.77.52.96-.1,1.25.17,1.45,2.35-2.12,2.62-1.93.61.28.87.47-.03,1.16.23,1.35-.05,1.19.21,1.38,1.94-1.55,2.2-1.36-.95,2.43-.69,2.62,1.66-1.17,1.93-.98-.91,2.37-.64,2.56,1.06-.34,1.32-.15.82-.02,1.09.17,1.03-.3,1.29-.11,1.18-.51,1.44-.32-1.62,3.36-1.36,3.56.66.21.93.4,1.52-.99,1.79-.8.72.13.98.32,1.03-.31,1.3-.12.7.15.97.34-.79,2.22-.53,2.41-.23,1.44.04,1.63.18.87.45,1.06,2.29-2.05,2.55-1.86.9-.13,1.17.06-.33,1.58-.07,1.78.95-.2,1.22,0,.58.31.85.5.91-.14,1.17.06.68.18.94.37-1.49,3.19-1.22,3.38,2.89-2.89,3.15-2.7-.75,2.17-.48,2.36.19.86.46,1.05,1.66-1.19,1.93-1,.49.44.76.63-.97,2.47-.7,2.66,1.07-.37,1.34-.18,1.92-1.55,2.19-1.36-.23,1.44.04,1.63-.94,2.43-.67,2.62,2.55-2.43,2.82-2.24-1.64,3.4-1.37,3.59.11.97.38,1.16,1.18-.52,1.44-.32.59.3.86.49.52.4.79.59-.08,1.24.18,1.43,3.03-3.1,3.3-2.91.34.66.6.85-1.47,3.18-1.21,3.37.25.78.52.97,1.76-1.33,2.03-1.14.88-.1,1.14.1,1.31-.7,1.58-.51-.54,1.87-.27,2.07.55.36.82.55.47.46.74.66,1.99-1.64,2.25-1.45-.23,1.45.03,1.64,1.08-.38,1.35-.19c.29.21.8.48,1.04.7.26.24-2.09,2.99-1.88,3.24.22.27,1.1-.15,1.27.14s1.27.13,1.39.45-1.76,1.13-1.69,1.47.42.43.45.78c.03.33-.79.52-.8.87,0,.33,1.93.7,1.92,1.03s.97.68.96,1.01-1.96.62-1.97.95,3.6.73,3.59,1.05-1.2.64-1.2.96-1.36.63-1.36.96,1.31.68,1.31,1.01-2.73.61-2.73.94-.73.65-.74.98,1.57.68,1.57,1.01,1.54.68,1.53,1.01-2.14.62-2.15.95,1.56.68,1.56,1.01-2.36.62-2.37.95-.18.66-.19.98,1.26.68,1.25,1.01,1.79.69,1.79,1.02.81.67.81,1-1.68.63-1.69.96-1.91.63-1.91.96.99.67.98,1,.13.66.13.99,1.43.68,1.42,1.01.15.66.14.99-1.71.63-1.71.96-.02.66-.03.99,2.83.71,2.82,1.04-1.56.63-1.56.96-1.71.62-1.72.95.73.67.72,1,1.81.7,1.81,1.03-2.62.6-2.62.93,3.11.73,3.1,1.06-3.16.59-3.17.91c0,.33-.99.74-.98,1.08s-.02.59-.03.93,1.86.69,1.8,1.02,1.85,1.44,1.72,1.75-1.18.67-1.42.92c-.22.23-.65.98-.99,1.14-.33.16-1.08,1.04-1.4,1.07-.35.04-.92-2.11-1.24-2.19s.22-1.85-.08-2.01-2.71,3.08-2.99,2.88,1.53-3.23,1.26-3.44-.66-.34-.92-.54c-.26-.19-.3-.69-.57-.88s-1.8,1.35-2.06,1.15-1.3.66-1.56.46,1.39-2.99,1.13-3.18-1.1.39-1.36.19.65-1.97.38-2.17-2.35,2.07-2.61,1.87,1.16-2.65.89-2.85-2.05,1.65-2.31,1.46,1.24-2.75.97-2.95-1.47.88-1.74.69-1.89,1.43-2.15,1.24.41-1.64.14-1.83-.91.12-1.17-.08-1.24.57-1.5.37.82-2.19.56-2.39-1.44.83-1.7.64.3-1.49.03-1.69.29-1.48.03-1.68-1.2.52-1.46.32-1.29.63-1.55.44-1.01.27-1.27.07-.18-.86-.44-1.05-1.2.52-1.46.33,1.73-3.44,1.46-3.64-2.49,2.27-2.75,2.08,1.32-2.91,1.06-3.1-1.36.75-1.62.56-.09-.99-.35-1.18-2.35,2.12-2.62,1.93,0-1.11-.27-1.3,1.35-2.99,1.08-3.18-1.93,1.56-2.19,1.37.57-1.93.31-2.12-1.58,1.1-1.85.91-.94.2-1.21,0-1.13.48-1.4.29c-.29-.21.75-2.28.48-2.46-.3-.2-1.94,1.71-2.21,1.54-.31-.2.16-1.47-.11-1.62-.34-.19.52-2.87.25-2.98-.39-.16-1.4,1.64-1.67,1.66-.35.03.24.54.05.88-.13.24-1.76-.06-1.84.35-.06.29-1.29.59-1.32.96-.03.31.56.75.55,1.12-.01.32,2.61.74,2.6,1.1,0,.32-.93.63-.93.99,0,.33,1.68.67,1.68,1s-4.11.61-4.11.94,3.65.69,3.64,1.02-.17.65-.17.98-2.4.63-2.41.95,2.98.69,2.97,1.01-3.56.62-3.56.94,2.96.69,2.96,1.01-.08.65-.08.98.28.66.28.98-2.87.62-2.87.95,3.22.69,3.22,1.01-4.51.6-4.51.93.81.66.8.99.67.66.66.99,2.55.68,2.54,1.01-4.21.61-4.21.93-.04.65-.04.98,1.34.67,1.33.99,3.49.69,3.48,1.02-2.52.63-2.53.95,1.4.67,1.4,1-2.43.63-2.44.95,1.23.67,1.23.99-.51.65-.51.97,1.05.66,1.05.99-1.59.64-1.59.96-.38.65-.38.98.76.66.75.99,1.22.67,1.22.99-2.56.63-2.56.95,3.78.69,3.78,1.02-3.89.61-3.9.94,2.33.68,2.32,1-1.02.64-1.03.97-.92.64-.92.97,3.44.69,3.44,1.01-2.53.63-2.54.96-.04.65-.04.98-1.23.64-1.23.97-.4.65-.41.98.36.66.36.98,2.18.67,2.18,1-1.09.64-1.1.97.24.66.24.98,2.27.67,2.27,1-.41.65-.41.98.61.66.61.98.55.66.55.98-2.77.63-2.78.96-.18.65-.18.98.56.66.56.98,1.52.66,1.52.99-2.77.63-2.77.96-1.2.65-1.2.97.86.66.86.99-.5.65-.5.98.38.66.38.98,3.82.68,3.81,1-3.79.63-3.79.96,3.05.67,3.05,1-.54.65-.54.98-2.03.64-2.04.97-.09.65-.09.98,1.31.66,1.31.99-.72.65-.72.98-1.51.65-1.51.97,4.34.67,4.34,1-.1.65-.1.98-4.62.64-4.62.96,3.34.66,3.33.99-.23.65-.23.98,1.83.66,1.83.98c0,.34-3.59.59-3.61.9-.02.34-.89.45-.94.75-.05.34,3.93,1.51,3.85,1.8-.09.33-2.44-.01-2.57.27-.14.31.93,1.51.73,1.76s-2.91-2.36-3.18-2.17,1.7,4.34,1.39,4.47c-.29.12-1.4-1.79-1.74-1.72-.3.06-.67-.46-1.01-.43-.31.03-.59-.83-.94-.82-.31,0-.67,2.23-1.01,2.22-.33-.02-.68.38-1.02.37s-.61-1.49-.94-1.5-.6-2.06-.93-2.08-.78,3.24-1.12,3.23-.66-.39-.99-.4-.68.27-1.01.27-.61-2.64-.95-2.65-.74,3.44-1.07,3.44-.6-3.99-.94-4-.7,2.04-1.04,2.03-.64-2.28-.98-2.29-.68.78-1.02.77-.67-.57-1-.57-.71,3.76-1.04,3.76-.65-2.75-.98-2.75-.67-.34-1-.34-.68,1.11-1.02,1.11-.69,1.96-1.03,1.96-.63-3.31-.97-3.32-.68.95-1.02.94-.66-.37-1-.37-.69,1.39-1.03,1.38-.63-2.19-.96-2.19c-.36,0-.77,2.79-1.09,2.78-.36-.01-.71-.23-1.03-.25-.36-.02-.42-2.75-.73-2.79-.36-.04-1.16,3.03-1.47,2.97-.36-.07.38-3.54.08-3.65-.34-.13-1.18,1.57-1.44,1.39-.28-.2-.33-.36-.53-.63-.19-.26-3.16.66-3.29.32-.11-.29,2.2-1.49,2.13-1.85-.06-.31.98-.74.95-1.1-.03-.32-2.53-.49-2.55-.85-.01-.32.88-.71.88-1.07,0-.32,2.06-.65,2.06-1,0-.33-4.21-.71-4.21-1.04s4.74-.6,4.74-.93-2.83-.69-2.82-1.02.26-.65.26-.98,2.15-.63,2.15-.96.52-.65.52-.98-2.56-.69-2.56-1.02,1.68-.64,1.68-.96-.5-.66-.5-.99-1.02-.67-1.02-1,2.53-.62,2.53-.95-4.79-.73-4.79-1.05,2.73-.62,2.74-.95-1.09-.67-1.09-1,1.97-.63,1.98-.96-1.87-.69-1.87-1.01,1.67-.63,1.68-.96-1.68-.68-1.67-1.01.38-.65.38-.98,1.07-.64,1.08-.97.11-.66.11-.99-2.98-.7-2.97-1.03,1.24-.64,1.25-.97,1.18-.64,1.18-.97,2.22-.62,2.23-.95-1.76-.69-1.76-1.01-1.9-.69-1.9-1.02-.41-.66-.41-.99,1.48-.64,1.49-.96-.39-.66-.38-.99,2.15-.62,2.16-.95.34-.65.35-.98-4.01-.72-4.01-1.05.12-.66.12-.98.78-.65.78-.97.86-.64.87-.97,2.4-.62,2.4-.95-2.39-.69-2.39-1.02.45-.65.46-.98.61-.65.62-.98-.92-.67-.92-1-1.59-.68-1.59-1.01,1.88-.63,1.89-.96,2.68-.62,2.68-.95-1.21-.68-1.21-1-1.93-.69-1.93-1.01-1.38-.68-1.37-1.01,3.73-.6,3.74-.93,0-.66,0-.99-3.75-.71-3.75-1.04,2.48-.62,2.48-.95-1.05-.67-1.05-1,1.66-.64,1.66-.96-.41-.66-.4-.99.44-.65.45-.98-2.72-.69-2.71-1.02,1.56-.64,1.56-.97-2.22-.69-2.22-1.01,1.88-.63,1.89-.96,1.22-.64,1.23-.97-2.72-.69-2.72-1.02,1.5-.64,1.5-.97,3-.62,3-.95-1.83-.68-1.83-1.01-2.08-.68-2.08-1.01,3.02-.63,3.02-.96-3.83-.7-3.83-1.03c0-.33.54-.83.58-1.19.03-.33,3.42-.3,3.46-.65s.09-.68.14-1.02-3.49-1.1-3.45-1.44.25-.54.26-.88c.01-.36.94-.55.91-.88-.04-.36.13-.54.02-.85-.12-.33-.21-.32-.44-.58-.21-.25-.61.52-.94.36-.33-.17.25-3.41-.09-3.43s-.52,2.59-.86,2.69c-.32.09-1.6-2.04-1.92-1.87-.29.16,1.06,2.99.77,3.19-.28.19-1.52-.98-1.8-.76s-1.9-1.16-2.16-.94.76,1.96.5,2.18.42,1.64.15,1.85c-.28.22-2.05-1.6-2.33-1.42-.28.19.46,1.88.18,2.06s-1.61-1.19-1.88-1.01,1.47,3.38,1.19,3.57-1.66-1.27-1.94-1.09-1.73-1.38-2.01-1.19.22,1.52-.06,1.7-.4.6-.68.79.21,1.49-.07,1.68-2.11-1.92-2.39-1.74.16,1.43-.11,1.62.79,2.35.51,2.54-1.55-1.09-1.82-.91-.65.23-.92.42-.79.03-1.07.21-1.68-1.28-1.96-1.1,1.37,3.19,1.09,3.38-2.57-2.58-2.84-2.4-.29.76-.57.95-.6.3-.88.49-.33.7-.61.89-.73.11-1.01.3.05,1.25-.23,1.44.62,2.09.35,2.28-.38.63-.65.82-.21.87-.49,1.06-.6.3-.88.49-.95-.21-1.23-.03-1-.28-1.27-.09-.75.08-1.03.27-.84-.05-1.12.13.79,2.35.52,2.53-2.6-2.64-2.88-2.45,1.25,3.02.97,3.21c-.27.18-.94-.2-1.22-.02s.09,1.81-.2,1.96-1.7-1.67-2.01-1.59-.76.35-1.1.31c-.3-.04.43-2.54.1-2.7-.33-.17-1.16,1.18-1.36.95-.23-.26-1.93.21-2.04-.09s3.48-1.2,3.46-1.54-1.76-.46-1.75-.79,1.43-.67,1.44-.99c0-.33-4.56-.72-4.55-1.05s4.88-.59,4.89-.92-2.41-.69-2.41-1.02-1.56-.68-1.55-1.01,2.77-.62,2.77-.95-.31-.66-.3-.99,1.42-.64,1.43-.97-4.61-.73-4.6-1.06,3.23-.61,3.23-.94.56-.65.57-.98-.61-.67-.61-1-2.53-.7-2.52-1.03.24-.66.24-.98,2.09-.63,2.09-.96S.02,64.93.03,64.6s2.73-.62,2.73-.95-.24-.66-.23-.99,2.04-.63,2.05-.96-4.36-.73-4.36-1.06.14-.66.15-.99,4-.6,4-.93.06-.66.07-.99.46-.65.47-.98-1.13-.68-1.12-1.01-.91-.67-.91-1,.61-.65.61-.98.41-.65.41-.98,1.18-.64,1.18-.97-2.84-.7-2.83-1.03.02-.66.02-.99-1.84-.68-1.84-1.01,2.55-.63,2.55-.96,1.12-.65,1.13-.97-.04-.66-.04-.99c0-.35.84-.55.86-.89s-.87-.68-.82-1.01-.74-.81-.65-1.13,1.15-.25,1.28-.56-2.54-2.06-2.36-2.36,2.54.78,2.75.5-1.58-2.45-1.33-2.7c.24-.23,1.67.61,1.95.39Z"/>
  </g>
</svg>