<?xml version="1.0" encoding="UTF-8"?>
<svg id="Layer_2" data-name="Layer 2" xmlns="http://www.w3.org/2000/svg" viewBox="0 0 177.96 153.7">
  <defs>
    <style>
      .cls-1 {
        fill: #fff;
      }
    </style>
  </defs>
  <g id="_图层_1" data-name="图层 1">
    <path class="cls-1" d="M130.96,6.2c.19.27-1.08,1.62-.89,1.89s-1.81,2.05-1.63,2.33.7.33.88.6,1.87-.48,2.06-.21.25.63.44.9,1.86-.48,2.04-.2-3.14,2.97-2.95,3.24,1.96-.55,2.15-.28.65.36.84.63,2.17-.69,2.36-.42-2.93,2.83-2.74,3.1,2.61-.99,2.8-.72.41.52.6.79,1.38-.15,1.56.13-3.13,2.97-2.94,3.24.49.47.68.74,4.19-2.09,4.38-1.82-1.86,2.09-1.68,2.36,1.48-.22,1.67.06-.36,1.05-.17,1.33,1.65-.34,1.84-.06-1.34,1.73-1.16,2,2.97-1.25,3.16-.97-1.55,1.88-1.37,2.15,1.78-.42,1.97-.15-3.12,2.95-2.93,3.23,1.7-.37,1.89-.1-.26.98-.07,1.26,1.17,0,1.36.27,3.34-1.49,3.53-1.22-1.07,1.54-.88,1.81-.66,1.26-.47,1.53-.45,1.11-.26,1.39.32.58.51.86,1.38-.15,1.57.13,1.58-.28,1.77,0-.36,1.05-.17,1.32,1.41-.16,1.6.11.83.24,1.01.51-3.58,3.25-3.39,3.52,1.26-.06,1.44.22-.23.96-.04,1.23.55.43.73.7,3.76-1.76,3.95-1.49-.84,1.37-.65,1.65-1.2,1.62-1.02,1.89.04.77.22,1.05c.18.27.15.68.33.95s-.26.96-.07,1.23,2.76-1.07,2.94-.79-.62,1.2-.44,1.47-.23.93-.05,1.21,3.94-1.83,4.12-1.56.29.59.47.87-3.21,2.9-3.03,3.18.83.24,1.01.51,2.22-.68,2.4-.4.16.68.34.95-.49,1.1-.31,1.37,1.78-.39,1.96-.11-2.79,2.61-2.61,2.88,1.33-.09,1.51.18.29.59.46.87,1.27-.05,1.45.22.8.25.98.53-1.68,1.89-1.5,2.16,2.6-.93,2.78-.66-.93,1.39-.75,1.67-.51,1.12-.33,1.39,3.14-1.3,3.33-1.03-.32.99-.14,1.27.16.67.35.95-2.01,2.14-1.83,2.41,1.78-.41,1.96-.14,1.01.1,1.2.37,2.77-1.1,2.95-.83-1.69,1.94-1.5,2.21-.66,1.25-.47,1.51.74.28.93.55c.19.27-1.19,1.49-1.02,1.75.17.28,3.28-1.16,3.43-.89.16.29-1.89,1.65-1.76,1.94.13.3,2.93-.38,3.02-.08s-1.42,1.16-1.36,1.47,1.17.57,1.19.89,1.51.89,1.49,1.21-4.17.18-4.23.5-.23.4-.33.71.32.65.18.95c-.12.28-1.34-.13-1.5.16-.15.27.54.9.36,1.17-.17.26,3.06,2.91,2.87,3.18-.19.26-3.35-1.63-3.54-1.37s-.59.38-.79.64-.03.79-.23,1.05-.8.23-.99.5-1.83-.52-2.02-.25,2.89,2.91,2.69,3.18-1.07.03-1.26.3.48,1.16.28,1.42-1.48-.26-1.67,0-.89.16-1.08.43-1.58-.34-1.78-.07.07.86-.12,1.13,1.75,2.08,1.55,2.34,1.14,1.64.95,1.9-3.12-1.46-3.32-1.19,2.27,2.46,2.08,2.72-1.05.05-1.24.31-4.36-2.35-4.55-2.08-.18.68-.37.94,3.36,3.24,3.16,3.51-.73.28-.92.55-3.36-1.63-3.56-1.36,3.12,3.06,2.92,3.33-3.5-1.72-3.69-1.45,2.29,2.47,2.1,2.73.76,1.36.57,1.63-4.97-2.78-5.17-2.52,2.63,2.71,2.43,2.97-2.26-.83-2.46-.56-1.34-.16-1.54.1,1.86,2.15,1.67,2.42,1.65,2,1.45,2.26-3-1.36-3.19-1.09-1.43-.22-1.62.04,3.29,3.18,3.1,3.45-4.57-2.49-4.76-2.22-.98.11-1.17.37,2.97,2.95,2.78,3.22-2.95-1.32-3.14-1.05.47,1.15.28,1.41,2.02,2.26,1.82,2.53-3.94-2.02-4.13-1.76,3.38,3.24,3.19,3.51-2.39-.91-2.58-.64-.85.2-1.04.46.32,1.04.13,1.31-1.67-.39-1.86-.13-1.08.03-1.27.3,3.63,3.42,3.44,3.68-.17.69-.36.95-.24.64-.43.9-1.09.02-1.28.29.3,1.02.11,1.29-2.29-.84-2.48-.57-.74.28-.93.54.86,1.42.66,1.69-3.21-1.5-3.41-1.23.31,1.03.11,1.29-.39.53-.58.79,2.7,2.75,2.51,3.01-.09.75-.28,1.01-3.66-1.82-3.85-1.55-1.09.03-1.28.29.64,1.26.44,1.53-1.53-.29-1.72-.03-.54.42-.73.68,2.49,2.59,2.3,2.86-3.07-1.4-3.26-1.13,2.73,2.77,2.54,3.03-2.42-.93-2.61-.66.52,1.18.33,1.45-1.33-.15-1.52.12,2.27,2.44,2.08,2.7-4.93-2.73-5.12-2.46,2.85,2.85,2.65,3.12-1,.09-1.19.36-.36.55-.55.82,1.29,1.73,1.1,2-2.63-1.08-2.82-.81-.9.16-1.09.43c-.19.27,1.84,2.31,1.64,2.55-.21.25-1.73-.62-1.95-.41s-.12.93-.37,1.12.31,2.04.03,2.2-2.95-4.78-3.24-4.66.37,2.44.06,2.52-.1,3.12-.42,3.17-.83.37-1.16.38-.77-3.12-1.1-3.12c-.33,0-.73,3.28-1.06,3.27s-.58-4.3-.91-4.31-.67.41-1,.41-.7,1.81-1.03,1.81-.68,1.05-1.01,1.04-.6-3.62-.93-3.62-.68,1.01-1.01,1.01-.7,2-1.03,1.99-.68.82-1.01.81-.67.58-1,.58-.63-1.92-.96-1.93-.64-1.33-.97-1.33-.64-1.27-.97-1.28-.73,4.01-1.06,4.01-.62-2.85-.95-2.85-.71,2.75-1.04,2.75-.67.4-1,.39-.58-5.26-.91-5.26-.73,4.02-1.06,4.02-.62-2.69-.95-2.7-.64-1.37-.97-1.37-.7,2.19-1.03,2.19-.7,2.56-1.03,2.55-.65-.93-.98-.94-.67.77-1.01.77-.68,1.16-1.01,1.15-.62-2.39-.95-2.39-.63-1.97-.96-1.97-.68,1.23-1.01,1.22-.61-3.1-.94-3.11-.77,5.75-1.1,5.75-.56-5.47-.89-5.47-.7,2.03-1.03,2.02-.69,1.33-1.02,1.32-.59-3.74-.92-3.75-.68.81-1.01.81-.71,2.16-1.04,2.15-.66.14-1,.13-.63-1.52-.96-1.53-.67.2-1,.19-.71,1.94-1.04,1.93c-.3,0-.61-1.95-.93-1.94s-.6.73-.91.73-.65,1.26-.96,1.24-.65-.37-.95-.42.34-3.14.05-3.24-.61,1.06-.87.89-3.09,2.43-3.3,2.19c-.19-.22,3.35-2.92,3.2-3.22-.15-.3.36-.16.3-.45-.06-.31-.08.1-.05-.2s-2.16-.71-2.07-1.01,1.3.06,1.45-.22-2.11-1.95-1.93-2.21,2.63,1.13,2.81.88,1.2.18,1.39-.06-1.79-2.19-1.62-2.43c.19-.26-.14-.91.05-1.17s1.43.24,1.63-.02,2.47,1.01,2.67.75-4.43-4.07-4.24-4.33,5.14,2.98,5.34,2.72-1.48-1.9-1.29-2.17,2.1.74,2.29.48-3.88-3.69-3.68-3.95,1.82.54,2.02.28,3.31,1.65,3.51,1.39-.93-1.5-.73-1.76-1.47-1.91-1.28-2.17,3.32,1.67,3.52,1.4-3.84-3.68-3.65-3.94,1.87.58,2.07.32.86-.17,1.05-.44,2.4.98,2.6.72-1.48-1.92-1.28-2.18-2.05-2.35-1.86-2.61,4.81,2.78,5,2.52-.74-1.36-.54-1.63.78-.23.97-.5-1.11-1.64-.92-1.9-1-1.56-.81-1.82,3.44,1.74,3.63,1.48-1.94-2.26-1.75-2.52.54-.41.73-.68.16-.69.35-.95.15-.7.34-.96,1.04-.04,1.23-.31-.19-.95,0-1.21-.94-1.5-.75-1.76,2.74,1.2,2.93.94-.33-1.05-.14-1.32,3.49,1.74,3.68,1.47-4.23-3.89-4.04-4.15,5.18,2.96,5.38,2.69-1.03-1.55-.84-1.82-1.06-1.57-.87-1.84,1.58.33,1.77.06,1.76.46,1.95.19-1.07-1.57-.88-1.83-.81-1.38-.62-1.64-.11-.87.08-1.14-.9-1.43-.71-1.69c.19-.28,2.33.83,2.5.58.19-.28.38-.54.55-.79.19-.29,1.97.46,2.13.2.18-.3.68-.48.82-.74.17-.31-2.42-1.96-2.31-2.22.15-.35-.89-.47-.86-.74.05-.37,1.56.1,1.39-.15-.16-.23-.47.98-.83.84-.26-.1.57-4.3.21-4.36-.28-.05-1.17,3.78-1.52,3.75-.3-.03-.51-.7-.85-.72-.3-.02-.58-.63-.92-.64-.31,0-.61-.83-.95-.84-.31,0-.63-.6-.97-.61-.33,0-.69,3.5-1.02,3.5s-.61-4.82-.94-4.82-.67,1.67-1,1.67-.68,1.89-1.01,1.88-.63-2.79-.96-2.8-.66.29-.99.29-.68,2.34-1.01,2.33-.63-2.82-.96-2.82-.7,4.41-1.03,4.41-.61-4.45-.94-4.45-.65-.68-.98-.68-.66.4-.99.4-.67.92-1,.92-.66.22-.99.22-.69,3.43-1.02,3.42-.62-3.32-.95-3.33-.64-1.58-.97-1.58-.66.18-.99.17-.71,4.4-1.03,4.4-.62-3.46-.95-3.47-.65-1.06-.97-1.06-.71,4.59-1.04,4.58-.65-.93-.98-.93-.63-2.24-.96-2.24-.64-1.8-.97-1.8-.7,3.86-1.03,3.85-.61-4.33-.94-4.33-.7,3.75-1.03,3.75-.62-3.8-.95-3.81-.7,4.22-1.03,4.22-.62-3.35-.95-3.35-.69,3.32-1.02,3.31-.64-1.54-.97-1.54-.65-.27-.98-.27-.66.15-.99.15-.65-.83-.98-.83-.7,4.17-1.03,4.16-.6-5.85-.93-5.85-.69,3.57-1.02,3.56-.62-3.69-.95-3.7-.68,2.17-1.01,2.17-.68,2.77-1.01,2.76-.65-.97-.98-.98-.65-.3-.98-.3-.62-3.65-.95-3.65-.67,1.81-1,1.81-.67.83-.99.83-.67,1.8-1,1.8-.65-.38-.98-.39-.67.95-.99.94-.66.32-.99.32-.63-3.31-.96-3.32-.65-1.02-.98-1.02-.65-1.11-.98-1.12-.67,1.51-1,1.51-.67,1.2-1,1.2-.67.96-.99.96-.64-2.41-.97-2.41-.67,1.41-1,1.4-.66.65-.99.64-.68,2.48-1.01,2.48-.65-1.3-.98-1.31-.65-.83-.98-.83-.66.5-.99.5-.63-3.57-.96-3.57-.66.28-.99.28-.69,5.06-1.02,5.06-.62-5.22-.95-5.23-.67,1.85-1,1.85-.65-.5-.98-.5-.66,1.15-.99,1.15-.66,1.14-.99,1.14-.67,1.4-.99,1.4-.66.29-.99.29-.63-5.42-.96-5.42-.68,4.81-1.01,4.81-.64-3.82-.97-3.82-.66.13-.99.12-.67,2.16-1,2.16-.65-.91-.98-.91-.65-2.24-.98-2.24-.65-.76-.98-.76-.66.13-.99.12-.67,2.24-.99,2.24-.65-2.41-.98-2.41-.68,6.14-1,6.14-.65-1.31-.98-1.31-.66-.3-.98-.3c-.35,0-.65-2.14-.97-2.15-.35-.02-.77,1.08-1.09,1.05-.35-.04-.4-1.69-.71-1.75-.35-.07-.33-.74-.64-.84-.33-.11-.05-.75-.33-.9-.3-.16-1.11,1.07-1.36.86s-.63-.08-.83-.34,1.54-1.29,1.4-1.6c-.13-.29-4.68,1.06-4.77.73-.08-.31,4.78-1.63,4.73-1.98-.05-.31-4.09-.14-4.11-.49-.02-.32,3.57-.72,3.57-1.07,0-.32-3.39-.71-3.37-1.06.02-.33,1.39-.6,1.41-.94s-.29-.68-.27-1.02.39-.65.41-.99-.59-.69-.57-1.02,2.98-.58,2.99-.91-.91-.7-.91-1.04-1.22-.7-1.21-1.04-1.55-.7-1.54-1.04,2.31-.62,2.32-.95.94-.65.94-.99-1.43-.69-1.43-1.03-1.37-.69-1.36-1.02-2.2-.69-2.2-1.03,4.23-.62,4.24-.95-1.65-.69-1.65-1.02S0,74.57,0,74.23s1.18-.66,1.18-.99-.16-.67-.16-1,.31-.67.31-1-1.16-.68-1.15-1.01,5.3-.62,5.3-.95.43-.66.44-1-3.82-.71-3.82-1.04-1.54-.69-1.53-1.02,1.01-.66,1.01-.99,3.78-.61,3.79-.95-1.94-.7-1.94-1.03-1.65-.7-1.64-1.03c0-.35.05-.7.06-1.03.01-.35.37-.69.39-1.02.02-.35,1.66-.58,1.69-.89.03-.35.91-.54.95-.85.05-.35-4.34-1.51-4.27-1.82.07-.35,3.98.26,4.08-.04.12-.34,2.07.6,2.22.33.17-.3-.57-.37-.34-.6s-.62-1.05-.32-1.22c.27-.16-.93-3.93-.59-4.05.3-.1,1.17.86,1.52.79.31-.06,1.08,2.71,1.44,2.67.31-.04.41-2.64.77-2.66.32-.02.74,1.78,1.09,1.77.32,0,.64-2.14.99-2.14.32,0,.64,3.83.99,3.83.33,0,.7-3.66,1.03-3.66s.67-.44,1-.44.6,4.84.93,4.85.74-6.12,1.07-6.12.65,1.06.98,1.07.65,1.04.98,1.05.67-.53,1-.53.66-.29.99-.29.6,4.49.93,4.5.68-1.47,1.01-1.46.64,1.6.97,1.61.68-1.33,1.01-1.32.69-2.06,1.02-2.05.63,2.33.96,2.33.65.97.98.98.74-5.5,1.07-5.5.65.73.98.74.61,3.17.94,3.17.67-.56,1-.56.67-.65,1-.64.63,2.12.96,2.12.73-4.62,1.06-4.62.58,5.33.91,5.34.73-4.69,1.06-4.68.58,5.11.91,5.12.73-4.44,1.06-4.43.67-.42,1-.42.58,4.96.91,4.97.71-3.18,1.04-3.17.69-2.14,1.02-2.14.66.1.99.1.59,4.62.92,4.63.71-2.92,1.04-2.91.63,1.75.96,1.76.68-1.08,1.01-1.07.68-1.44,1.01-1.43.6,3.74.93,3.74.71-3.07,1.04-3.06.67-.8,1-.79.65.34.98.34.68-1.09,1.01-1.08.61,3.38.94,3.38.63,1.94.96,1.95.75-5.7,1.08-5.7.59,4.47.92,4.48.65.87.98.87.66-.16.99-.15.74-5.55,1.07-5.55.58,5.05.91,5.05.7-2.88,1.03-2.87.69-2.02,1.02-2.02.61,3.31.94,3.31.7-2.71,1.03-2.7.67-.57,1-.57.58,5.35.91,5.36.65.51.98.51.71-3.65,1.04-3.64.65.72.98.73.68-1.71,1.01-1.7.62,2.77.95,2.78.66.32.99.32.71-3.43,1.04-3.43.65.94.98.94.6,4.25.93,4.26.72-4.78,1.05-4.77.67-.8,1-.8.65.78.98.78.63,2.44.96,2.44.64,1.34.97,1.34.71-3.96,1.04-3.96.64,1.73.97,1.74.66.26.99.27.68-1.9,1.01-1.9.65,1.18.98,1.19.64,1.87.97,1.87.65,1.08.98,1.08.67-1.21,1-1.2.7-3.67,1.03-3.66.62,3.37.95,3.37.66.28.99.29.67-.85,1-.85c.33,0,.86-2.26,1.21-2.23.33.03.11,5.29.46,5.33s1.12-3.45,1.46-3.4.44,1.92.78,1.96.59,1.5.92,1.53.9-1.37,1.24-1.35c.35.01.87.75,1.2.73.35-.02.62-1.87.94-1.94.34-.08.59-.46.89-.61s2.24,1.34,2.48,1.09c.23-.23-.67-1.86-.51-2.18.16-.32,2.51-.51,2.55-.84s-3.07-1.02-3.13-1.36,2.84-1.8,2.71-2.13c-.13-.3-2.74.37-2.92.06-.17-.29-.93-.18-1.14-.47s2.02-2.45,1.81-2.72-.51-.56-.73-.82-4.77,3.15-4.99,2.9,3.88-4.19,3.66-4.45-1.77.62-1.98.35c-.22-.28-2.48.89-2.66.62-.18-.27,2.09-2.19,1.91-2.46s-.53-.43-.71-.7.44-1.08.26-1.35.1-.85-.09-1.12-4.77,2.43-4.95,2.16,2.86-2.72,2.68-2.99-3.78,1.77-3.97,1.5,1.42-1.75,1.24-2.02-1.05-.07-1.23-.34.8-1.33.62-1.6-1-.11-1.18-.38-1.49.23-1.68-.04,3.07-2.87,2.89-3.14-.64-.35-.82-.62-2.91,1.19-3.09.92.42-1.07.24-1.34-1.76.41-1.94.14-.88-.19-1.06-.46,2.57-2.53,2.38-2.8-1.36.13-1.54-.13,2.73-2.65,2.55-2.92-2.35.81-2.53.54.93-1.42.75-1.69-2.06.61-2.24.34.77-1.31.59-1.58-.51-.44-.7-.71-2.78,1.11-2.96.84-.89-.18-1.07-.45,3.55-3.21,3.36-3.48-2.12.66-2.3.39.52-1.15.34-1.42-3.23,1.41-3.41,1.14,2.31-2.37,2.13-2.64-3.46,1.57-3.64,1.3,2.22-2.3,2.04-2.57-2.05.61-2.23.34-1.41.17-1.59-.1-.74-.28-.92-.55,3.19-2.96,3-3.23-.19-.66-.37-.93.52-1.14.33-1.41c-.19-.27-.74-.31-.93-.59s-.38-.39-.55-.67.08-.41-.04-.72-.92.06-.96-.27.55-.06.61-.4c.06-.31-1.79-.96-1.62-1.28.17-.33-1.23-2.08-1.02-2.3.25-.25.85-1.36,1.14-1.51s1.65,1.46,1.98,1.4.8,1.88,1.14,1.87.57.53.91.54.75-2.41,1.08-2.4c.33,0,.65,1.25.98,1.25s.68-1.4,1.01-1.39.63,2.11.97,2.12.66-.08.99-.07.65.62.98.62.66.25.99.25.71-3.57,1.05-3.57.68-1.08,1.01-1.07.6,3.92.94,3.92.67-.28,1-.27.7-2.81,1.04-2.8.66-.1,1-.1.67-.62,1-.62S93.34,0,93.67,0s.65,1.14.98,1.15.62,3.05.95,3.06.7-2.24,1.03-2.23.68-1.1,1.01-1.1.63,2.32.96,2.33.65,1,.98,1.01.65,1,.98,1,.73-4.42,1.06-4.41.64,1.72.97,1.72.63,2.09.96,2.1.72-3.59,1.05-3.58.63,1.84.97,1.85.66.44.99.45.64,1.71.97,1.72.72-3.79,1.05-3.79.64,1.27.98,1.27.63,2.38.96,2.39.67-.2,1-.19.7-2.79,1.03-2.78.68-1.37,1.01-1.36.64,1.97.97,1.97.67-.6,1-.6.66,0,.99,0,.61,4.09.94,4.09.72-4.42,1.05-4.41.63,2.63.96,2.63.66.19.99.19c.34,0,.65-.46.98-.44s.83-1.45,1.16-1.4.37,1.92.69,1.99,1.54-3.07,1.86-2.97-.75,4.23-.44,4.36.92-.69,1.21-.53-.26,1.39.02,1.58,1.2-.73,1.46-.51,1.47-.58,1.7-.33,1.66-.31,1.87-.04Z"/>
  </g>
</svg>