<?xml version="1.0" encoding="UTF-8"?>
<svg id="Layer_2" data-name="Layer 2" xmlns="http://www.w3.org/2000/svg" viewBox="0 0 317.1 208.73">
  <defs>
    <style>
      .cls-1 {
        fill: #fff;
      }

      .cls-2 {
        fill: #0242ff;
      }
    </style>
  </defs>
  <g id="_图层_1" data-name="图层 1">
    <g>
      <g>
        <path class="cls-1" d="M244,40.09c-.34.02-.54,2.29-.87,2.32s-.51,1.79-.85,1.83-1.09-3.84-1.43-3.8-.38,2.65-.71,2.69-.86-1.18-1.19-1.13-.83-.75-1.16-.7.17,4.94-.16,5-.87-1.13-1.2-1.07-.94-1.25-1.27-1.18-.27,1.82-.6,1.9-.79-.5-1.12-.42-1.35-2.5-1.67-2.41-.5.81-.82.9-.47.85-.79.95-.63.25-.95.35-.19,1.56-.51,1.67-.97-.75-1.28-.64-.53.52-.84.63-.42.77-.73.89-1.24-.08-1.55.05c-.15-.3-.56-.98-.71-1.27s2.26-1.95,2.11-2.24-3.11.9-3.27.61,2.43-2.13,2.26-2.42-3.18,1.04-3.34.75,2.68-2.38,2.51-2.67-3.7,1.47-3.88,1.18,2.62-2.45,2.44-2.73.19-.96,0-1.24-4.95,2.51-5.14,2.23,3.26-3.05,3.07-3.33.25-1.03.05-1.31-1.2.01-1.4-.26-1.09-.04-1.3-.3-2.73,1.27-2.93,1.01.2-.98,0-1.24.2-1.01-.02-1.26.44-1.24.22-1.5-1.16.12-1.38-.14-1.84.77-2.07.52,3.23-3.86,3-4.1-2.08,1-2.31.76,1.31-2.22,1.07-2.46-1.1.1-1.34-.13-1.36.41-1.61.17.58-1.6.34-1.83-2.89,2.11-3.13,1.88-.12-.84-.37-1.07.66-1.76.4-1.98-2.97,2.45-3.22,2.23,2.18-3.65,1.92-3.86-1.93,1.3-2.19,1.09,1.05-2.43.79-2.63-.15-.96-.41-1.16-2.38,2.05-2.65,1.85-.77-.06-1.04-.26,1.45-3.23,1.17-3.42-1.7,1.27-1.98,1.08-.96.22-1.24.04-.09-1.11-.37-1.29.2-1.62-.08-1.8-1.75,1.57-2.04,1.4-.6-.29-.89-.46-.82.1-1.11-.06-.52-.42-.82-.58.14-1.68-.16-1.84-.45-.62-.75-.77-1.78,2.07-2.08,1.92.06-1.64-.25-1.78-.52-.48-.82-.62-1.4,1.49-1.7,1.36,1.13-4.31.82-4.44-2.77,4.9-3.08,4.77.59-3.23.28-3.35-.53-.51-.84-.62-1.3,1.59-1.61,1.48.36-3.03.04-3.14-1.31,1.75-1.63,1.65-1.3,1.9-1.62,1.79.11-2.56-.21-2.66-.84.5-1.16.41.27-3.51-.06-3.59-1.96,4.81-2.29,4.73.15-3.33-.18-3.4-.75.21-1.07.14-.41-1.3-.74-1.37-.46-1.24-.79-1.3-1.47,4.1-1.8,4.04-.32-1.97-.65-2.02-1,2.07-1.33,2.02-.35-2.11-.68-2.16-.99,2.42-1.32,2.38-.09-4.84-.42-4.88-1.01,3.04-1.34,3.01-.47-2.19-.81-2.22-.97,3.86-1.3,3.84-.43-3.57-.76-3.59-.62-1.32-.96-1.33-.71.38-1.05.37-.77,4.22-1.1,4.21-.63-1.84-.97-1.84-.65,1.42-.98,1.42-.62,1.05-.95,1.06-.66-.72-.99-.71-.74-1.96-1.07-1.95-.85-2.92-1.19-2.9-.63.96-.96.98-.34,3.92-.67,3.95-.71-.69-1.04-.66-.96-2.64-1.29-2.6-.22,3.6-.55,3.64-.68-.27-1.01-.22-.8-.94-1.13-.89-1.06-2.29-1.39-2.23.14,4.48-.19,4.55-.91-1.34-1.24-1.28-.79-.6-1.12-.53-1.15-2.08-1.48-2-.64.29-.96.37.15,3.34-.17,3.42-.31,1.31-.63,1.4-.84-.65-1.16-.56-.35,1.04-.67,1.13-1.34-2.15-1.65-2.05-.06,1.9-.38,2-1.77-3.15-2.08-3.04-.44.8-.75.92-.28,1.16-.59,1.28.36,2.72.05,2.84-.97-.72-1.28-.59-1.65-2.23-1.95-2.1-.33.92-.63,1.06.26,2.15-.05,2.29-2.11-2.95-2.41-2.81-.71.11-1.01.26-.09,1.33-.39,1.48.8,2.96.5,3.11-2.69-3.6-2.98-3.44,1.57,4.2,1.28,4.36-2-2.19-2.29-2.02,1.08,3.1.79,3.28-.92-.29-1.2-.11-1.07-.49-1.35-.31-2.23-2.21-2.51-2.03-.6.34-.88.53-.14,1.02-.41,1.21.68,2.12.41,2.31-1.83-1.39-2.1-1.19-1.1-.32-1.37-.12,1.63,3.22,1.37,3.42-.27.7-.53.91-2.18-1.63-2.43-1.41.22,1.31-.03,1.53-.35.6-.6.82-1.28-.45-1.53-.22-1.48-.61-1.72-.38,1.25,2.34,1.01,2.57-.38.56-.62.79-1.97-1.04-2.2-.81-.01.95-.24,1.19,1.2,2.07.97,2.31-3.53-2.38-3.75-2.13,1.76,2.53,1.54,2.78-.29.63-.51.88-1.86-.72-2.08-.47.38,1.21.17,1.47,1.14,1.79.94,2.04.33,1.08.12,1.34-1.28-.18-1.48.08-3.35-1.68-3.55-1.41,2.63,2.76,2.44,3.03-3.96-1.99-4.15-1.72,0,.85-.19,1.13,3.28,3.01,3.1,3.28.16.86-.02,1.14-2.05-.53-2.22-.25.37.99.2,1.27-.94.2-1.11.48-3.12-1.02-3.28-.73,1.72,1.74,1.55,2.03.62,1.09.46,1.38-1.45-.01-1.6.28,1.08,1.29.93,1.59-2.09-.29-2.23.01,1.32,1.36,1.18,1.66-.32.57-.46.88,1.13,1.2.99,1.5-4.99-1.4-5.12-1.09,1.92,1.53,1.8,1.84.71.99.59,1.3-.47.52-.59.84-1.19.28-1.3.59-.49.55-.6.86,1.73,2.97,1.62,3.29c-.32-.11-1.11-3.91-1.43-4.01s-1.81,3.58-2.13,3.48-.83.61-1.16.52.86-5.63.54-5.72-1.09,1.42-1.42,1.34-1.48,3.31-1.81,3.24.1-3.43-.23-3.5-1.17,2.35-1.5,2.28-.76.56-1.09.5-.7.4-1.04.34-.17-3.08-.5-3.13-.94,1.98-1.27,1.94-.43-1.82-.76-1.86-.51-1.59-.85-1.63-.77.93-1.11.9-.52-2.34-.86-2.36-.79,1.43-1.12,1.41-.72.86-1.05.85-.72,2.58-1.06,2.57-.62-4.72-.96-4.72-.68,1.75-1.02,1.75-.75-2.36-1.09-2.35-.58,3.05-.91,3.06-.79-1.86-1.12-1.84-.47,2.88-.8,2.9-.71-.63-1.04-.6-.42,2.23-.75,2.26-.97-2.64-1.3-2.6-.62.42-.94.47-1.08-2.55-1.41-2.49-.43,1.62-.76,1.68-1.02-1.71-1.35-1.64.44,5.59.12,5.66-1.87-5.44-2.19-5.37-.07,2.72-.39,2.8.13,3.17-.19,3.26-1.96-4.74-2.28-4.65-.35,1.29-.67,1.38.38,3.49.06,3.59-1.08-1.27-1.4-1.16-.83-.4-1.14-.29-.64.18-.95.3-.28,1.11-.59,1.23-.87-.43-1.18-.3.33,2.47.02,2.6-.82-.32-1.12-.19-2.23-3.33-2.53-3.19-.71.12-1.01.26-.14,1.28-.43,1.43-.77,0-1.06.15,1.01,3.29.71,3.45-1.31-1.03-1.6-.87.12,1.51-.16,1.68-.5.4-.78.57-3.2-3.9-3.48-3.72,2.61,5.32,2.34,5.5-1.12-.56-1.4-.37-.69.12-.96.32-.97-.25-1.24-.05-1.45-.85-1.72-.65.77,2.11.51,2.31-2.81-2.49-3.07-2.29,2.3,3.9,2.05,4.11-1.08-.3-1.34-.08-2.75-2.15-3-1.93.36,1.44.12,1.66-1.65-.77-1.89-.54,2.87,3.98,2.63,4.21-1.48-.59-1.72-.36-2.54-1.55-2.77-1.31,2.8,3.58,2.57,3.83-1.95-.93-2.17-.68-.41.52-.63.77-.74.23-.95.49-1.53-.4-1.74-.14,1.23,1.86,1.03,2.12.81,1.45.61,1.71-4.49-2.57-4.68-2.3,1.28,1.8,1.08,2.07,1.68,2,1.49,2.27.53,1.13.35,1.4-2.02-.58-2.2-.3-.95.17-1.13.45.14.86-.04,1.14-2.9-.94-3.06-.66,1.72,1.78,1.56,2.07.08.8-.08,1.09-2.7-.68-2.86-.38-.05.75-.2,1.05.89,1.2.74,1.5-1.09.23-1.23.53.88,1.14.75,1.45-2.31-.26-2.44.05,1.44,1.34,1.31,1.65,1.16,1.17,1.04,1.48-.6.47-.72.78-3.21-.43-3.32-.12-.47.58-.58.9,2.76,1.61,2.66,1.93.42.81.33,1.13.92.93.83,1.25.06.67-.02.99-.77.45-.85.78-4.2-.31-4.28.02,5.07,1.79,5,2.12-1.85.27-1.92.59-3.48.03-3.54.36,3.73,1.31,3.67,1.64-1.6.41-1.65.74,2.53.99,2.49,1.32-5.05.06-5.08.39,2,.9,1.97,1.23,2.99.91,2.97,1.24-5.49.27-5.51.6.62.73.6,1.07-.82.67-.83,1-.27.7-.27,1.03.75.71.75,1.04,1.9.67,1.91,1,.23.66.24.99,1.62.59,1.63.92-3.45.86-3.43,1.19,3.61.41,3.64.74-4.37,1.06-4.34,1.39.44.67.47,1,.97.59,1.01.92.1.68.14,1.01-1.31.91-1.26,1.24.12.7.18,1.03.08.71.15,1.04,4.25-.16,4.31.16-2.98,1.34-2.91,1.66-.12.75-.04,1.07.48.6.57.92,2.16.12,2.25.44-1.33,1.08-1.24,1.4,1.98.1,2.07.42.2.63.31.94-1.79,1.32-1.68,1.63,3.18-.43,3.3-.12-1.27,1.18-1.15,1.49-2.44,1.7-2.31,2.01,1.65.08,1.77.38.26.64.4.94-.8,1.13-.66,1.43,5.15-1.69,5.3-1.39-3.51,2.45-3.36,2.75,3.33-.96,3.48-.66-.99,1.26-.83,1.55-2.49,2.16-2.33,2.45,2.36-.56,2.53-.27-.27.95-.1,1.24.1.75.27,1.03,1.33-.04,1.51.24-.91,1.42-.72,1.7,1,.15,1.19.42,1.2-.02,1.39.25-1.33,1.83-1.13,2.09,3.22-1.6,3.42-1.34.52.42.72.67-2.73,3.08-2.52,3.34,4.65-3.03,4.86-2.77-1.8,2.41-1.59,2.66-.34,1.21-.12,1.46.16.79.38,1.03,3.8-2.71,4.03-2.48-.62,1.49-.39,1.73-.22,1.14.02,1.37-1.74,2.81-1.5,3.04,1.99-1.13,2.23-.91,1.55-.75,1.8-.53-1.01,2.19-.76,2.4,2.2-1.59,2.46-1.38.82,0,1.08.21-2,3.62-1.73,3.82,2.39-2.03,2.66-1.83.85-.07,1.12.12-1.06,2.64-.79,2.83.28.8.56.99,2.31-2.27,2.59-2.09-1.15,3.03-.87,3.21,2.35-2.53,2.63-2.35,1.04-.5,1.32-.34-1.16,3.31-.87,3.48.51.48.8.64.6.32.89.48,1.61-1.68,1.9-1.53.18,1.11.48,1.25.22,1.09.52,1.23,1.61-1.95,1.91-1.82.47.51.78.64-1.07,4.32-.76,4.44,1.05-.75,1.36-.63.98-.66,1.29-.55-.12,2.39.19,2.5,2.51-5.28,2.83-5.17-.55,3.81-.24,3.91,1.05-1.14,1.37-1.05.96-.99,1.28-.9-.31,3.71,0,3.79.55.71.87.79.98-1.11,1.3-1.03,1.3-2.82,1.62-2.75,0,3.34.32,3.41,1.14-2.49,1.47-2.43.3,2.18.63,2.23,1.18-3.36,1.5-3.32.51.93.84.97.48,1.48.81,1.52.35,3.24.68,3.27,1.08-4.62,1.41-4.59.63.11.96.13.65-.3.99-.28.51,3.69.85,3.71.68.73,1.01.73.7.56,1.04.56.66-3.44.99-3.45.61-1.38.94-1.39.67.77,1.01.75.88,3.58,1.21,3.56.5-2.55.83-2.58.72.6,1.05.57.36-2.84.69-2.88.66.19.99.15.95,2.18,1.28,2.14.58-.61.91-.67.63-.27.95-.32,1.18,2.64,1.51,2.58.8.38,1.12.31.15-2.57.47-2.64.5-.8.82-.87.54-.55.86-.64,1.35,2.41,1.67,2.32.89.56,1.21.47-1.08-5.8-.76-5.9,1.67,3.08,1.99,2.98,1.2,1.39,1.51,1.28-.7-3.94-.39-4.05,1.65,2.51,1.96,2.39.77.08,1.08-.04-.77-3.59-.47-3.72.7.03,1-.11.4-.64.71-.78.38-.65.68-.8,1.09.78,1.38.63.95.43,1.24.28.06-1.25.36-1.41,2.34,2.86,2.63,2.7-.46-2.16-.17-2.33.23-.89.52-1.06.41-.57.69-.75,1.84,1.64,2.12,1.46-1.14-2.92-.86-3.1,2.39,2.32,2.66,2.13,1.23.54,1.5.34-1.09-2.18-.83-2.38c.14.3.71.1.85.4s-.28.88-.13,1.17.89.29,1.04.59.92.25,1.08.54-2.07,1.91-1.91,2.2.93.26,1.09.55,1.84-.32,2.01-.03-2.87,2.57-2.69,2.85,4.03-1.77,4.21-1.49-2.13,2.21-1.95,2.49,3.59-1.66,3.78-1.39-.63,1.23-.44,1.5-1.43,1.88-1.24,2.14,2.12-.77,2.33-.51.64.32.85.58-1.96,2.45-1.75,2.71,3.77-2.3,3.99-2.04-3.62,4.01-3.4,4.26,2.17-1.01,2.39-.76-.66,1.54-.43,1.78,2.32-1.27,2.55-1.03-.72,1.65-.49,1.88.64.33.87.56,0,1,.23,1.23,1.72-.87,1.97-.64-.47,1.54-.22,1.76.76.17,1.01.38,1.18-.36,1.43-.15,1.12-.33,1.38-.13-1.93,3.55-1.67,3.76.91-.03,1.18.17,3.13-3.12,3.4-2.93-1.23,2.85-.96,3.04-.55,2.02-.27,2.21,2.69-2.81,2.97-2.63.9-.21,1.18-.03-.53,2.1-.25,2.27.68.16.97.33.33.77.62.93-.19,1.75.11,1.91.77.04,1.07.2,1.1-.63,1.39-.48.3.94.6,1.09,2.41-3.55,2.72-3.41.27.92.58,1.05.43.61.74.74-.66,3.33-.36,3.45.97-.57,1.28-.45,2.03-3.51,2.34-3.39.58.22.89.33-.1,2.23.22,2.34.41.87.72.97.57.39.89.49,0,2.49.31,2.58,1.96-4.68,2.28-4.6-.58,4.96-.26,5.04,1.75-4.48,2.07-4.41-.43,5.04-.1,5.1,1.23-2.6,1.55-2.54.29,2.14.62,2.2,1.45-4.6,1.78-4.55.29,2.3.62,2.34.47,1.43.8,1.47.71-.24,1.04-.2.65.24.98.27.86-2.26,1.19-2.23.53,1.68.86,1.7.61,1.15.94,1.16.68.03,1.01.04.65,1.54.99,1.55.7-3.39,1.04-3.39.71,3.54,1.04,3.53.58-3.8.92-3.81.7,1.16,1.04,1.15.5-2.57.84-2.59,1.03,5.12,1.36,5.09.37-3.57.7-3.6,1.03,3.38,1.36,3.34.41-2.35.74-2.39.32-2.47.65-2.51,1.29,4.07,1.61,4.02.17-3.05.5-3.11.41-1.33.73-1.39,1.6,4.59,1.93,4.52-.49-5.37-.17-5.44.58-.23.91-.3,1.67,3.96,1.99,3.88.6-.39.92-.48-.27-3.35.04-3.45,2.01,4.34,2.33,4.24.37-1.12.69-1.23-.42-3.32-.11-3.43.24-1.2.55-1.32,2.09,3.7,2.4,3.58-.94-4.19-.64-4.31,2.2,3.63,2.51,3.5.35-.9.66-1.04.99.53,1.29.39.85.17,1.15.02-.48-2.53-.19-2.68,1.44,1.35,1.74,1.2-1.4-4.05-1.11-4.2,3.09,4.24,3.38,4.08-1.17-3.41-.89-3.58,1.03.45,1.31.28-.08-1.37.2-1.55,2.69,2.96,2.97,2.78.47-.56.75-.75-.09-1.36.18-1.55,1.45.84,1.72.65-2.5-4.54-2.23-4.74,1.93,1.48,2.19,1.28.78-.08,1.04-.29-.9-2.15-.64-2.36,1.5.79,1.76.58-.82-1.93-.57-2.15.54-.33.79-.56,3.23,2.54,3.48,2.31-1.92-2.98-1.68-3.21.34-.56.58-.79,1.81.88,2.05.64,2.07,1.04,2.3.8-1.52-2.34-1.3-2.58-.15-1.01.07-1.25,2.84,1.58,3.06,1.33-.58-1.38-.36-1.64.1-.79.31-1.04-1.04-1.65-.83-1.91.96-.08,1.16-.34,1.37.2,1.57-.07.02-.81.21-1.08.73-.31.91-.58-.89-1.38-.71-1.66-.67-1.19-.49-1.47.45-.46.62-.74,4.18,1.74,4.35,1.45-2.45-2.2-2.29-2.49.11-.68.27-.97-.57-1.03-.41-1.32-.39-.9-.24-1.2,2.63.6,2.77.3,2.03.23,2.18-.07-1.18-1.28-1.05-1.59-.02-.73.11-1.04-.74-1.01-.62-1.32,4.32,1.01,4.45.7-1.66-1.38-1.54-1.69.35,1.41.46,1.09c.3.14-.26-2.29.04-2.15s.15,1.29.45,1.43.96-.52,1.26-.39-.25,2.38.05,2.51,2.19-3.71,2.5-3.59.67.01.98.13.58.26.89.37-.12,2.33.2,2.44,1.05-1.13,1.37-1.03.77-.34,1.09-.24-.25,3.22.07,3.31.22,1.84.54,1.93,1.58-3.42,1.9-3.34.37,1.32.69,1.39,1.25-2.63,1.57-2.56-.2,4.28.12,4.35,1.26-3.1,1.59-3.04.09,3.42.42,3.47,1.34-4.37,1.67-4.33.11,3.94.44,3.98.57,1.03.9,1.06.62.82.95.85,1.06-4.21,1.39-4.18.66-.3,1-.28.62.47.95.49.62.68.95.69.7-2.47,1.03-2.46.61,1.02.95,1.02.63-.38.96-.39.67,1.56,1.01,1.55.81,3.4,1.15,3.39.41-4.72.74-4.74.69.7,1.02.67.87,2.37,1.2,2.34.77.7,1.1.66.56-1.08.89-1.12.29-2.79.62-2.84.71.4,1.04.35.8.85,1.13.79.51-.86.83-.92,1.45,3.77,1.78,3.7,0-3.25.32-3.33.79.47,1.12.39.47-.84.79-.93.63-.18.95-.27.07-2.07.39-2.17,1.09,1.39,1.41,1.29,0-2.06.32-2.16.95.83,1.26.72,1.62,2.55,1.93,2.44-.46-3.1-.15-3.22,1.38,1.7,1.68,1.58-.18-2.14.13-2.27.24-1.03.55-1.16,2.58,4.1,2.88,3.96-.28-2.21.02-2.35.96.42,1.25.27.84.14,1.13-.01-.63-2.61-.34-2.77.69-.09.98-.25.62-.22.91-.39.07-1.14.35-1.31.99.37,1.27.2,1.59,1.24,1.86,1.06-.03-1.27.24-1.45,1.64,1.19,1.91,1,.51-.48.78-.67,1.01.19,1.27,0-.06-1.23.2-1.44-1.89-3.47-1.63-3.68,2.79,2.4,3.04,2.19-1.68-3.02-1.42-3.24.06-.88.31-1.1.49-.38.73-.61,1.9,1.12,2.15.9.75-.16.99-.4-.13-1.06.11-1.29,1.76.81,1.99.57,1.04.05,1.27-.19-2.49-3.2-2.27-3.44,1.7.67,1.92.42-1.16-1.84-.94-2.1,1.87.74,2.08.49,1.33.24,1.54-.02.72-.29.92-.55-.24-1.02-.04-1.29-1-1.53-.8-1.8,3.42,1.62,3.61,1.35-1.42-1.8-1.24-2.07-.5-1.11-.32-1.39,1.11-.06,1.29-.34-1.21-1.5-1.03-1.78,1.89.38,2.06.1,1.41.05,1.58-.24,1.31-.05,1.47-.34-2.81-2.25-2.65-2.55,2.05.32,2.2.03.52-.49.66-.79-.75-1.09-.61-1.39,1.12-.22,1.25-.52-2.37-1.73-2.24-2.04,3.34.69,3.46.38-2.46-1.68-2.34-1.99,1.56-.09,1.68-.4-.72-.94-.61-1.26,1.06-.32,1.16-.63,3.3.36,3.4.04-2.62-1.51-2.52-1.83,3.24.23,3.33-.09-.64-.9-.55-1.22-1.47-1.07-1.39-1.4.99-.46,1.07-.78-1.27-.96-1.2-1.29,1.61-.35,1.67-.68-.46-.77-.41-1.1-1.92-.99-1.86-1.32.46-.58.51-.91-.13-.66-.09-.99.69-.57.72-.9,3.48-.32,3.52-.65-4.49-1.06-4.46-1.4.41-.61.43-.94,2.6-.51,2.61-.85-3.65-.79-3.64-1.13,3.87-.56,3.88-.89,1.19-.68,1.19-1.01.8-.71.8-1.05-2.7-.63-2.71-.96-.39-.65-.41-.98-1.11-.59-1.13-.93,3.67-.94,3.64-1.27-.33-.68-.36-1.01-2.15-.47-2.19-.8-2.85-.31-2.89-.64,4.56-1.29,4.52-1.61-2.76-.27-2.81-.6,2.5-1.11,2.44-1.43-2.06-.31-2.12-.64-2.65-.13-2.72-.45.14-.67.07-1,.75-.83.68-1.15,1.45-1.04,1.36-1.36,1.51-1.12,1.42-1.44-2.19-.08-2.28-.4,1.22-1.08,1.12-1.4-2.73.18-2.83-.14.22-.76.11-1.08,1.72-1.33,1.6-1.64-.38-.59-.49-.9.3-.86.17-1.17-2.6.34-2.73.04,1.77-1.5,1.63-1.8,1.03-1.23.89-1.53-2.43.38-2.57.08.33-.92.18-1.21-3.01.8-3.17.5,2.41-2.03,2.25-2.32-1.44.03-1.6-.26-.16-.68-.33-.96-.99-.18-1.16-.46-2.4.73-2.57.45-.18-.62-.37-.9-.25-.58-.43-.86,3.08-2.91,2.89-3.18-1.14-.02-1.34-.29,1.24-1.77,1.04-2.03-1.37.16-1.57-.1-1.23.1-1.43-.16.93-1.64.72-1.89-2.8,1.47-3.02,1.22-.39-.52-.61-.77,2.26-2.93,2.03-3.17-2.51,1.38-2.73,1.14-2.31,1.31-2.54,1.07,2.53-3.41,2.3-3.65-2.21,1.29-2.45,1.06-.57-.34-.82-.57-.33-.59-.58-.82.63-1.7.38-1.92-.72-.2-.97-.42-1.43.68-1.69.47.79-2.03.53-2.24-2.63,2.29-2.9,2.08-.51-.37-.77-.57,1.31-2.88,1.04-3.07-2.48,2.37-2.75,2.17,1.45-3.25,1.17-3.44-2.18,2.1-2.46,1.92-.46-.45-.75-.63-.24-.82-.53-1,1.18-3.28.89-3.45-1.69,1.58-1.98,1.41-.96.38-1.25.22-.14-1.13-.44-1.28.19-1.85-.11-2-1.59,1.7-1.89,1.55.36-2.33.06-2.47-.44-.7-.75-.84-1.35,1.39-1.66,1.26-1.53,1.98-1.84,1.85.76-3.69.45-3.81-1.45,1.94-1.77,1.83-.63-.18-.94-.29-.17-1.55-.49-1.66-.43-.87-.75-.97-.76.16-1.08.07-1.6,3.19-1.92,3.1.6-4.73.28-4.81-.93.85-1.25.77-.37-1.44-.7-1.51-1.22,2.37-1.55,2.3-.26-2.11-.59-2.18-.69-.09-1.02-.15-.79.55-1.12.5-1.06,2.58-1.39,2.53-.19-3.56-.52-3.6-.97,2.38-1.3,2.34-.86,2.05-1.19,2.02-.24-4.77-.57-4.8-.67-.45-1-.47-.73.51-1.06.49-.82,4.02-1.16,4-.63-.15-.96-.16-.63-1.41-.97-1.41-.65.44-.98.45-.61,1.15-.94,1.16-.71-1.73-1.05-1.71-.85-3.04-1.19-3.02Z"/>
        <path d="M163.43,208.73c-.5,0-.93-.07-1.31-.2-.25.04-.52.05-.81.06-1.67-.02-2.68-.95-3.27-1.82-.32-.11-.62-.27-.9-.47-.34.06-.72.08-1.13.04-.27-.03-.52-.07-.74-.13-.39.07-.86.11-1.39.04-.1-.01-.2-.03-.3-.05-.7.62-1.62.97-2.88.79-.67.35-1.49.5-2.5.28-.61-.13-1.1-.34-1.49-.61-.19-.02-.39-.06-.59-.11-.32-.08-.61-.18-.86-.3-.39,0-.82-.04-1.29-.17-2-.56-2.64-2.13-2.84-3.44-.23.11-.47.19-.73.24-.79.38-2.05.78-3.49.2-.91-.37-1.49-.91-1.85-1.53-.62.07-1.3-.05-2.05-.41-.13-.07-.26-.13-.38-.21-.3,0-.61-.05-.93-.14-.49-.04-1.18-.14-1.92-.54-1.3-.71-1.81-1.8-1.99-2.78-1.12.6-2.46.8-3.93-.2-.76-.51-1.2-1.14-1.44-1.78-.62-.08-1.38-.29-2.1-.84-1.32-1.02-1.62-2.24-1.46-3.42-.29-.15-.59-.34-.88-.6-.1-.09-.2-.19-.3-.29-.52-.15-1.04-.44-1.54-.91-.54-.51-.85-1.07-1.04-1.6-.72-.08-1.45-.38-2.14-1.04-.75-.12-1.52-.48-2.2-1.26-.83-.94-1.08-1.87-.99-2.75-.39-.61-.56-1.22-.58-1.8-.22-.19-.43-.41-.63-.68-.25-.33-.42-.66-.55-.98-.38-.16-.76-.4-1.1-.74-1.07-.05-2.09-.51-2.9-1.79-.54-.87-.7-1.68-.6-2.42-.3.42-.71.81-1.28,1.13-2,1.13-3.61.3-4.78-.77-.29,0-.57,0-.82-.05.11,1.59-.23,3.37-2.37,4.24-.28.11-.56.19-.82.24-.39.64-1.02,1.18-2,1.53-.27.1-.54.16-.79.2-.41.66-1.08,1.19-2.13,1.5-1.18.35-2.2.09-2.9-.22-.47.76-1.22,1.41-2.44,1.66-1.08.23-1.98-.02-2.54-.25-1.12-.16-1.92-.83-2.5-1.57-.36.03-.69,0-.99-.05-.16.11-.34.21-.54.3-.52,1.12-1.48,2.24-3.32,2.35-.77.05-1.4-.08-1.92-.33-.59.52-1.38.86-2.46.86h-.01c-1.16,0-2.03-.49-2.54-.85-.37-.15-.69-.34-.96-.54-.68.77-1.66,1.25-3.11,1.11-1.82-.18-2.73-1.24-3.21-2.42-.27,0-.56,0-.87-.06-.02,0-.03,0-.05,0-.6.25-1.32.35-2.18.18-.16-.03-.31-.07-.46-.11-.75.44-1.74.75-2.97.45-1.09-.27-1.81-.91-2.23-1.38-.28-.19-.51-.41-.7-.64-.9.76-2.03,1.08-3.55.54-.73-.26-1.26-.64-1.65-1.09-.43-.01-.89-.1-1.37-.3-1.8-.73-2.34-2.06-2.37-3.47-.25-.14-.47-.29-.66-.46-.65.07-1.37-.04-2.14-.44-.31-.16-.63-.33-.94-.5-.55-.3-.94-.65-1.16-.86-.07-.05-.14-.1-.21-.14-.83.18-1.75.08-2.75-.55-.34-.21-.62-.44-.84-.69-.32-.11-.64-.28-.97-.5-.63-.43-1.05-.96-1.31-1.43-.77.04-1.59-.18-2.43-.82-.95-.74-1.37-1.57-1.47-2.42-.16-.1-.32-.22-.47-.35-.03-.03-.07-.06-.1-.09-1.02.17-2.21.04-3.31-1-1.01-.95-1.29-1.99-1.22-2.97-.38-.2-.75-.48-1.12-.87-.35-.38-.6-.77-.77-1.14-1.02.06-2.02-.31-2.94-1.43-.55-.66-.82-1.32-.89-1.95-.3-.22-.58-.51-.85-.87-.52-.69-.74-1.39-.77-2.05-.28-.23-.55-.51-.79-.86-.41-.6-.6-1.2-.66-1.76-.07-.09-.13-.18-.19-.28-.05-.08-.1-.17-.15-.25-.97-.17-1.97-.68-2.66-1.91-.63-1.11-.64-2.11-.35-2.97-.82-.28-1.54-.89-2.05-2-.21-.45-.31-.88-.35-1.28-.49-.37-.93-.9-1.23-1.64-.54-1.33-.31-2.42.2-3.3-.03-.08-.07-.17-.1-.26-.25-.72-.28-1.37-.17-1.95-.24-.33-.44-.74-.59-1.22-.02-.06-.04-.13-.05-.19-.27-.27-.52-.59-.71-.99-.29-.38-.67-.96-.87-1.76-.07-.3-.11-.58-.12-.84-.61-.48-1.08-1.19-1.28-2.24-.05-.25-.09-.53-.12-.81-.01-.1-.02-.2-.04-.29l-.05-.27c-.05-.27-.1-.56-.14-.82-.15-.93.02-1.7.33-2.32,0-.02-.02-.05-.03-.07-.27-.43-.62-1.12-.7-2-.11-1.15.18-2,.68-2.64.01-.64.16-1.18.4-1.63-.1-.13-.19-.26-.27-.41-.54-.58-1.26-1.58-1.24-3.02.01-.74.2-1.32.33-1.68.05-.27.12-.51.21-.74-.04-.27-.05-.56-.03-.87.05-.83.28-1.48.63-1.99-.08-.38-.1-.8-.05-1.26.1-.9.41-1.58.84-2.08-.29-.61-.4-1.35-.24-2.25.09-.53.26-.98.48-1.35-.14-.54-.15-1.17.02-1.9.34-1.5,1.21-2.28,2.24-2.67-.81-.91-1.35-2.14-.8-3.78.23-.69.58-1.19.82-1.5.33-.65.76-1.1,1.25-1.42-.09-.62-.03-1.31.29-2.06.43-1.02,1.12-1.62,1.86-1.96,0-.36.04-.72.14-1.07.04-.46.15-1.12.51-1.82.26-.5.57-.88.91-1.17.03-.55.19-1.14.55-1.76.98-1.67,2.48-1.97,3.8-1.87-.66-1.08-1.46-2.98-.05-4.86.92-1.23,1.98-1.62,3.07-1.55.03-.04.06-.08.1-.12.56-.68,1.25-1.12,2.07-1.31-.19-1.03.03-2.12,1.05-3.18.26-.27.52-.48.79-.65.13-.68.49-1.36,1.19-2.02.51-.48,1.04-.76,1.56-.91.09-.1.19-.2.3-.29.42-.37.84-.62,1.25-.77.23-.5.6-.99,1.18-1.45,1.28-1.02,2.52-1.02,3.61-.63.21-.08.42-.14.64-.18-.39-1.59-.15-3.07,1.64-4.19,1.59-1,2.94-.72,4.1.04.29-.45.7-.86,1.29-1.2.34-.65.89-1.31,1.81-1.75.58-.28,1.12-.39,1.45-.44,1.53-.56,2.76-.06,3.72.75.1-.03.2-.06.29-.08.38-.35.81-.61,1.31-.79.24-.09.5-.17.76-.24.08-.02.17-.05.25-.07.08-.03.15-.05.23-.07.08-.19.17-.38.28-.56.28-.88.97-2.44,2.88-2.96.32-.09.63-.14.91-.16.46-.59,1.14-1.06,2.12-1.29.53-.12,1-.15,1.42-.1.24-.09.49-.16.77-.21.66-.13,1.24-.09,1.75.05.15-.04.31-.08.48-.1,1.81-.29,2.98.58,3.74,1.57.48-.69,1.18-1.26,2.24-1.47.6-.73,1.47-1.27,2.78-1.32.92-.04,1.64.21,2.22.59h.01c.84,0,1.51.19,2.04.52.61-.41,1.4-.69,2.4-.62,1.44.1,2.34.8,2.92,1.63.76.24,1.39.7,1.91,1.37.11,0,.23.02.34.04.6.09,1.1.28,1.51.53.7-.46,1.58-.72,2.7-.51.44-.4,1.01-.79,1.72-1,.05-.25.13-.51.24-.78.69-1.67,1.87-2.25,3.19-2.32.07-.26.16-.54.3-.82.31-.64.71-1.1,1.16-1.44-.65-1.05-1.08-2.47-.15-4.1.8-1.41,1.96-1.87,3.1-1.93-.32-.74-.43-1.55-.15-2.42.04-.6.19-1.44.77-2.27.55-.78,1.17-1.23,1.82-1.45.88-1.16,1.95-1.54,2.99-1.5.07-.69.32-1.45.93-2.16.06-.06.11-.13.17-.19-.16-.99.03-2.08.98-3.12.93-1.01,1.94-1.31,2.92-1.24.07-.08.14-.16.21-.23.24-.24.49-.43.74-.59.13-.71.48-1.42,1.18-2.07,1.09-1,2.28-1.13,3.25-1,.21-.32.48-.62.8-.88.06-.05.13-.1.19-.15.01-1,.4-2.01,1.53-2.86.79-.59,1.6-.79,2.3-.81.27-.53.69-1.07,1.33-1.51.22-.15.46-.29.7-.43.07-.04.15-.08.22-.13,1.32-.86,2.54-.77,3.57-.33.06-1.14.57-2.23,1.98-2.99.72-.39,1.38-.53,1.99-.52.27-.26.61-.5,1.01-.7.59-.29,1.13-.4,1.47-.46.83-.3,1.56-.3,2.21-.11.18-.12.39-.23.61-.32.82-.35,1.57-.4,2.23-.27.09-.11.19-.23.3-.34.38-.6,1.05-1.42,2.24-1.83,1.66-.58,2.91-.04,3.83.8.12,0,.24,0,.36.02.23-1.32.9-2.66,2.69-3.18.33-.15.73-.32,1.22-.43.88-.2,1.62-.12,2.25.13.47-.44,1.11-.76,1.97-.91.99-.16,1.79,0,2.43.36.47-.35,1.08-.6,1.85-.69.4-.05.76-.04,1.1.01.55-.7,1.51-1.6,3.06-1.7,2.38-.16,3.49,1.5,4.06,2.9.49-1,1.25-1.85,2.53-2.12.49-.23,1.22-.5,2.14-.45,1.14.05,1.96.52,2.54,1.08.03,0,.06,0,.09,0,.68-.56,1.58-.9,2.8-.76,1.54.17,2.42.93,2.91,1.92.8-.95,1.93-1.58,3.61-1.25,1.19.23,1.96.9,2.45,1.57.75-.46,1.68-.62,2.87-.29,1.5.41,2.24,1.35,2.59,2.4.67-.2,1.45-.23,2.33.08.85.3,1.43.76,1.83,1.3.95-.72,2.12-.99,3.63-.34,1.67.71,2.23,1.93,2.31,3.24.61-.04,1.26.08,1.97.44.76.39,1.26.93,1.54,1.29.33.28.59.6.8.97,1.01-.47,2.3-.66,3.7.2.64.39,1.07.88,1.36,1.39.77-.07,1.62.09,2.48.69.53.37.9.78,1.16,1.21.48.11.98.33,1.48.71,1.06.8,1.43,1.85,1.59,2.54.12.08.24.17.36.26.58.48.96,1,1.17,1.52.07.05.14.11.21.17.09.08.17.16.25.24.96-.12,1.98.11,2.96,1.03.26.25.48.51.65.77.68.14,1.42.46,2.08,1.13.43.44.72.91.89,1.37.14.12.28.25.41.39,1.27,1.38,1.25,2.76.71,4.04.36.47.59,1,.7,1.56.09.02.18.05.27.08.33.04.73.1,1.14.25.86.04,2.33.29,3.35,1.7.27.37.45.74.56,1.11.56.27,1.08.72,1.54,1.43.43.65.61,1.31.66,1.89.31.26.59.61.85,1.04.32.53.49,1.03.56,1.51.11.15.22.32.32.5.11.19.2.38.27.56.04-.03.07-.07.11-.1.42-.59,1.16-1.41,2.42-1.75,1.46-.39,2.56.02,3.38.69.38-1.27,1.21-2.3,2.99-2.59.43-.07.83-.07,1.2-.02.51-.44,1.18-.77,2.06-.87.63-.07,1.18-.02,1.65.12.46-.26,1.02-.44,1.69-.48h0c2.34-.15,3.45,1.46,4.03,2.87.45-.92,1.14-1.71,2.23-2.04.56-.33,1.42-.71,2.51-.64.91.06,1.6.39,2.04.65.3.09.56.21.8.35.43-.11.92-.14,1.47-.07.7.09,1.26.31,1.71.62.44-.09.95-.11,1.5-.01.1.02.2.03.3.04.27.03.53.07.78.12.02,0,.05,0,.07.01.61-.23,1.34-.31,2.18-.11.59.13,1.07.37,1.46.66.19.02.4.06.6.11,1.12.29,1.82.85,2.25,1.54.21.03.44.08.67.15.73.23,1.28.63,1.69,1.04.71-.22,1.54-.24,2.49.13.36.14.67.3.93.49.67-.13,1.44-.09,2.28.28.91.41,1.47,1.04,1.8,1.49.31.07.62.18.95.35.68.34,1.15.78,1.47,1.27.76-.13,1.62-.03,2.52.5,1.23.72,1.72,1.71,1.85,2.71.39.11.79.29,1.2.57.42.28.74.59.99.92.23.11.45.24.68.41.36.26.64.54.87.83.62.07,1.26.33,1.91.84.62.49.99,1.05,1.21,1.61.33.16.7.38,1.06.69.45.4.76.83.97,1.27.89-.02,1.81.27,2.68,1.14.1.1.19.2.28.3.95-.03,1.93.29,2.82,1.27.67.73.96,1.47,1.02,2.19.24.18.47.41.7.68.26.31.45.63.59.95.63.23,1.27.63,1.81,1.35.78,1.04.88,2.09.71,3,.59,1.17.46,2.24,0,3.18.37.21.73.5,1.06.89,1.07.31,1.87.95,2.4,1.91.18.33.3.65.38.95,1.13.15,2.34.7,3.04,2.22.54,1.18.42,2.23.1,3.07.06.12.12.25.18.39.29.73.34,1.41.28,1.97.03.07.06.14.08.22.19.52.26,1,.25,1.45.39.39.71.9.92,1.58,0,0,0,0,0,.01.52.43.95,1.04,1.19,1.9.43,1.55-.11,2.74-.77,3.57.95.46,1.9,1.3,2.17,2.83.06.36.08.7.06,1.01.15.33.27.71.33,1.14.08.54.06,1.02-.03,1.45.22.32.39.7.5,1.14.18.4.42.98.47,1.71.06.76-.06,1.38-.29,1.91.53.59.9,1.38.92,2.47.02,1.52-.79,2.56-1.33,3.11-.26.43-.58.78-.89,1.06,0,.05,0,.1,0,.15,0,.01,0,.02,0,.04.93.69,1.56,1.72,1.4,3.33-.2,2.04-1.53,2.93-2.89,3.36,0,.02,0,.04.01.05.32.62.68,1.6.44,2.82-.08.41-.21.79-.4,1.13,0,.2-.01.4-.04.61.07.15.14.32.19.48.44.72.99,1.94.57,3.44-.16.58-.4,1.04-.69,1.41-.03.2-.08.41-.15.63-.56,1.77-1.83,2.43-3.1,2.64.06.57-.01,1.2-.29,1.89-.31.75-.73,1.29-1.22,1.65-.02.04-.03.08-.05.12-.09.2-.19.39-.3.56-.03.5-.16.98-.39,1.46-.04.07-.07.15-.11.21.41.93.49,2.02-.19,3.26-.94,1.73-2.6,2.05-3.51,2.13-.11.04-.23.08-.34.11.56,1.1.92,2.62-.18,4.19-.78,1.11-1.72,1.55-2.68,1.62-.06.09-.12.18-.19.27-.58.75-1.28,1.14-1.74,1.34-.26.19-.55.35-.86.46.36,1.16.28,2.43-.89,3.67-1.03,1.09-2.29,1.28-3.07,1.3-.29.08-.59.12-.87.12-.43.32-.86.51-1.21.63.23,1.21.03,2.53-1.32,3.65-.05.04-.1.08-.16.12-.09.88-.44,2.04-1.61,2.91-.76.57-1.55.76-2.22.8-.86.58-1.71.72-2.48.65-1.1.6-2.14.55-3.01.28-.08,1.17-.55,2.42-2.06,3.21-.22.12-.45.21-.67.28-.32.74-.9,1.43-1.9,1.89-1.43.66-2.58.45-3.53-.16-.39.58-.98,1.07-1.85,1.39-1.75.64-3.06.01-4-.86-.02,0-.04,0-.06.01-.34.3-.76.55-1.28.73-.16.19-.36.38-.58.56-.19,1.52-.85,3.25-3.11,3.72-1.87.39-3.06-.4-3.87-1.5-.54.68-1.41,1.44-2.79,1.59-.61.07-1.15,0-1.62-.15-.57.7-1.42,1.18-2.67,1.24-2.49.11-3.56-1.7-4.08-3.26-.38.12-.82.17-1.31.16-.09,0-.17,0-.25-.02-.6,1.74-1.72,3.52-4.28,3.28-1.46-.14-2.36-.98-2.85-1.55l-.05-.03c-.4.06-.84.05-1.33-.03-.46-.07-.85-.2-1.19-.37-.29,0-.6-.02-.92-.09-.51-.1-.95-.27-1.31-.48-.8.62-1.84.96-3.22.59-2.45-.65-2.91-2.93-3.05-3.95-.08-.02-.17-.05-.25-.08-.24-.08-.47-.18-.67-.29-.73.72-1.63,1.24-2.78,1.18-.03.07-.06.14-.09.2-.59,1.27-1.55,1.85-2.49,2.1.66,1.07.96,2.42.05,3.97-.92,1.55-2.19,1.95-3.49,1.86-.11.26-.24.51-.41.76-.2.3-.43.55-.65.75-.12.33-.29.67-.54,1-.36.49-.79.87-1.29,1.14,0,.03-.02.06-.03.09.47,1.58.23,2.92-.71,4.02-.31.36-.63.63-.96.84-.13.6-.43,1.21-.99,1.8-.76.8-1.58,1.13-2.38,1.21-.18.52-.51,1.04-1.04,1.54-1.31,1.22-2.64,1.24-3.84.81-.18.45-.47.9-.9,1.31.39,1.46.21,2.92-1.43,4.1-.55.4-1.11.61-1.64.7-.26.3-.63.71-1.16,1.05-.8.52-1.56.71-2.25.67-.3.58-.79,1.1-1.56,1.53-.94.53-1.78.65-2.54.49-.33.47-.81.9-1.49,1.22-1.01.49-1.97.44-2.56.36-.02,0-.04,0-.07,0-.19.12-.4.24-.64.34-.32.14-.63.23-.93.28-.29.22-.64.41-1.05.57-.46.18-.89.27-1.28.29-.38.77-1.1,1.75-2.48,2.18-1.32.41-2.34.19-3.14-.36-.11.04-.22.07-.33.1s-.23.06-.34.08c-.44.88-1.21,1.55-2.56,1.83-.99.2-1.78.09-2.43-.23-.27.11-.58.19-.91.24-.4.06-.77.08-1.1.04-.51.44-1.18.77-2.08.86-.35.04-.67.04-.96,0-.35.13-.75.23-1.2.26-.95.07-1.68-.11-2.27-.46-.54.38-1.23.62-2.12.63h-.08ZM160.24,207.04s.01,0,.02,0h0s-.01,0-.02,0ZM142.6,202.97s.03.01.05.02c-.02,0-.03-.01-.05-.02ZM129.61,198.31h0,0ZM158.69,198.23h0,0ZM158.67,198.23s0,0,.01,0c0,0,0,0-.01,0ZM157.5,196.52c.12,0,.25,0,.38.02,1.31.1,2.17.74,2.74,1.46.49-.25,1.07-.4,1.78-.4.13,0,.26,0,.39.01.09-.04.19-.08.29-.11.57-.84,1.47-1.54,2.9-1.63,1.14-.07,1.99.23,2.62.76.48-.39,1.09-.68,1.89-.8.52-.08.98-.06,1.39.02.32-.19.67-.33,1.05-.43.42-.41.98-.73,1.73-.92.37-.14.66-.24.97-.32.95-.23,1.73-.15,2.38.13.13-.05.26-.1.4-.14.48-.14.92-.2,1.33-.19.47-.69,1.11-1.18,1.91-1.47.26-.09.51-.16.75-.21.26-.18.55-.34.89-.47,1.52-.61,2.71-.26,3.66.46.05-1.18.54-2.3,1.99-3.08,1.24-.67,2.3-.63,3.22-.21.18-.16.37-.31.58-.44.55-.35,1.07-.53,1.57-.6,0-1.01.42-1.99,1.56-2.83.66-.49,1.32-.72,1.94-.77.15-.17.32-.33.51-.49,0,0,.02-.02.03-.02.2-.51.54-1.01,1.06-1.47.36-.31.69-.52.89-.64,0,0,0,0-.02.01.53-.45,1.06-.71,1.58-.83.14-.2.32-.42.54-.63.72-.72,1.5-1.03,2.25-1.11.16-.37.38-.75.7-1.11.38-.43.78-.73,1.19-.94.04-.68.26-1.41.82-2.14.63-.81,1.41-1.21,2.07-1.41-.42-1.26-.3-2.43.37-3.49.28-.44.57-.75.74-.93.33-.47.69-.82,1.08-1.07-.2-.76-.29-1.83.29-2.96.72-1.42,1.86-1.93,2.96-2.07.01-.46.11-.92.3-1.37.73-1.78,2.08-2.32,3.49-2.36.25-.48.62-.93,1.16-1.33,1.12-.8,2.62-.95,3.87-.37.18.08.35.17.5.27.79-.58,1.76-.89,2.96-.59.38.02.92.07,1.51.29.22.08.42.17.62.25.07.03.14.06.21.09.65.23,1.14.56,1.51.94.3.02.63.07.97.17.78.24,1.35.61,1.76,1.06.71-.43,1.6-.65,2.73-.41.61.13,1.11.35,1.5.63.56-.24,1.24-.33,2.05-.21,1.33.19,2.15.83,2.65,1.64.4-.14.94-.24,1.55-.25.62-.72,1.53-1.28,2.86-1.28.03,0,.06,0,.08,0,.76.01,1.46.22,2.08.63.51.03.99.15,1.43.36.3-.08.62-.14.98-.16,1.07-.06,1.89.28,2.49.66.49-.45,1.15-.79,2.04-.91,1.02-.15,1.85.11,2.4.36.13-.04.28-.08.42-.1.94-.18,1.7-.06,2.33.24.31-1.08,1.02-2.26,2.66-2.74.08-.02.16-.05.25-.06.36-.32.81-.58,1.37-.77.91-.3,1.81-.27,2.7.08.05-.02.11-.05.17-.07.11-.04.22-.08.33-.11.36-.62.93-1.26,1.86-1.67,1.41-.62,2.54-.41,3.48.2.29-.36.68-.69,1.19-.97.21-.11.41-.2.61-.27.34-.67.83-1.2,1.48-1.59,1.36-.83,2.7-.6,3.47-.37.06,0,.13,0,.19.02.2-.1.39-.18.58-.24-.38-1.37-.28-2.88,1.28-4.12.23-.18.46-.33.68-.46.21-.52.54-1.08,1.11-1.58.16-.14.32-.27.48-.4.07-.05.13-.1.2-.17.98-.89,2.02-1.09,2.95-.99-.04-.85.23-1.74,1.03-2.61.03-.03.06-.06.09-.09.13-.5.39-1,.81-1.5.86-1.01,1.89-1.34,2.82-1.36.09-.51.31-1.04.7-1.58.49-.67,1.04-1.09,1.62-1.33h0c-.14-.8-.05-1.7.53-2.66.53-.87,1.21-1.35,1.91-1.61.07-.38.21-.79.43-1.21.32-.61.72-1.05,1.16-1.36-.4-.84-.53-1.87-.02-3.08.28-.66.65-1.14,1.08-1.49.23-.59.56-1.09,1-1.48,0-.02.01-.04.02-.07.43-1.22,1.27-1.89,1.99-2.27.26-.86.7-1.46,1.23-1.88.01-.15.04-.3.07-.46-.21-.59-.3-1.3-.12-2.11l.02-.08c-.51-.71-.84-1.64-.65-2.84.07-.45.21-.83.36-1.16,0-.19,0-.4.04-.62.03-.24.08-.46.14-.66-.3-.56-.45-1.25-.38-2.1.01-.14.03-.27.05-.39-.43-.58-.69-1.34-.65-2.33.06-1.89,1.1-2.87,2.34-3.4-.44-.6-.69-1.29-.73-2.06-.02-.24-.01-.47,0-.69-.87-.51-1.61-1.36-1.79-2.79-.13-1.01.06-1.81.44-2.43-.5-.47-.9-1.11-1.08-2-.15-.73-.09-1.37-.02-1.77-.01-.94.32-1.86.99-2.73,0-.02.02-.04.03-.06-.57-.41-1.05-1.01-1.35-1.91-.32-.95-.22-1.81-.1-2.35,0-.19.02-.38.05-.55-.46-.36-.87-.86-1.17-1.56-.26-.61-.35-1.18-.33-1.7-.98-.19-1.93-.73-2.58-1.98-.28-.54-.42-1.05-.46-1.52-1-.11-2.04-.56-2.81-1.78-.3-.48-.46-.92-.55-1.21-.14-.25-.23-.47-.29-.62-1.08-1.77-.48-3.33.47-4.57-.95,0-1.94-.34-2.8-1.36-.12-.14-.24-.29-.35-.44-1.06.17-2.26-.02-3.33-1.12-1.03-1.06-1.23-2.17-1.04-3.22-.35-.37-.58-.73-.72-.97-.18-.21-.33-.42-.44-.64-.11-.03-.22-.07-.33-.12-1,.28-2.12.2-3.27-.69-.12-.09-.24-.18-.36-.27l-.36-.26c-.08-.06-.16-.13-.24-.19-.45-.11-.91-.31-1.38-.64-.67-.47-1.09-1-1.34-1.56-.34-.24-.59-.47-.75-.63-.85-.61-1.27-1.4-1.49-1.96-.06-.08-.11-.16-.15-.25-.26-.08-.53-.19-.81-.33-.68-.37-1.14-.85-1.46-1.35-.26-.07-.53-.16-.81-.3-.21-.1-.4-.22-.58-.34-.89.53-2.02.79-3.39.23-1.23-.5-1.87-1.32-2.16-2.23-.13-.05-.26-.1-.38-.16-.85.77-1.99,1.24-3.55.8-1.84-.52-2.54-1.75-2.74-3.15-.08-.01-.16-.03-.25-.05-.26-.05-.5-.13-.72-.22-.73.69-1.73,1.17-3.15.96-.03,0-.05,0-.08-.01-.67.54-1.56.91-2.74.79-.98-.1-1.7-.43-2.22-.92-.39.12-.83.17-1.34.16-.52-.02-.94-.11-1.19-.17-.29-.02-.58-.08-.85-.16-.48.23-1,.36-1.57.37-1.14.04-1.97-.35-2.59-.87-.33.13-.7.23-1.12.27-.59.05-1.11,0-1.56-.13-.43,1.04-1.25,1.87-2.78,2.15-.94.17-1.83.02-2.64-.45-.08.02-.15.04-.23.06-1.29.3-2.34-.09-2.97-.41-.19-.05-.37-.11-.55-.19-.48.74-1.15,1.25-2.01,1.54-.58.2-1.12.25-1.61.2-.3.24-.65.46-1.08.62-.92.36-1.79.31-2.37.28h-.03c-1.59.22-3.19-.58-3.93-2.08-.06-.11-.17-.29-.27-.47-.17-.29-.33-.58-.42-.76-.06-.12-.12-.24-.16-.35-.35-.29-.68-.68-.96-1.19-.12-.21-.21-.42-.29-.63-.27-.25-.52-.56-.74-.95-.02-.03-.04-.06-.05-.09-.45-.27-.86-.68-1.23-1.25-.97-.08-1.87-.54-2.64-1.67-.66-.97-.81-1.88-.66-2.7-.6-.21-1.18-.6-1.7-1.26-.58-.75-.8-1.53-.86-2.19-.75-.12-1.53-.47-2.23-1.24-1.41-1.57-1.2-3.1-.44-4.5-1,.21-2.09.08-3.15-.83-1.01.23-2.11.1-3.21-.83-1.42-1.2-1.55-2.6-1.21-3.9l-.03-.06s-.07-.03-.11-.04c-.53-.08-1.26-.26-1.99-.78-.82-.58-1.26-1.26-1.47-1.96-.15-.07-.3-.16-.45-.25-.5-.33-.86-.71-1.13-1.11-.36-.08-.74-.21-1.12-.43-.57-.01-1.29-.12-2.02-.53-.43-.24-.74-.49-.93-.64,0,0,.07.04.15.08-.15-.08-.29-.17-.43-.26-.72.15-1.53.09-2.43-.35-.35-.17-.66-.38-.93-.63-.23,0-.48,0-.73-.05-.85.48-1.87.59-3.13.08-1.27-.52-1.91-1.38-2.2-2.32-.77.41-1.74.6-2.9.23-.71-.22-1.25-.57-1.64-.99-.54.12-1.16.12-1.87-.07-1.29-.33-2.03-1.06-2.45-1.92-.53.17-1.15.21-1.87.07-.09-.02-.18-.04-.26-.06-.46.12-.98.16-1.58.07-.54.22-1.19.32-1.94.22-.68-.09-1.23-.29-1.68-.57-.54.26-1.19.39-1.99.34-.81-.06-1.45-.29-1.95-.65-.47.21-1.05.31-1.71.31-.21,0-.42-.02-.61-.05-.63.44-1.35.67-2.14.68-1.41.02-2.38-.63-2.95-1.14-.45.27-1.01.45-1.69.51-.47.04-.9,0-1.28-.09-.4.22-.88.38-1.45.45-.49.06-.94.03-1.31-.03-.48.57-1.18,1.01-2.19,1.2-1.05.2-2.01,0-2.88-.58-.55.97-1.35,1.61-2.41,1.9-.28.08-.56.12-.82.14-.28.17-.58.31-.91.41-.86.26-1.61.22-2.25.02-.32.08-.62.13-.91.13-.36.69-.97,1.3-1.96,1.69-.93.37-1.88.38-2.84.03-.25.2-.54.39-.88.54-.53.25-1.03.36-1.5.39-.31.6-.82,1.15-1.62,1.57-.3.16-.59.27-.87.35-.21.18-.46.35-.74.51-.06.04-.13.07-.19.1-.28.4-.68.78-1.22,1.1-1.24.74-2.46.62-3.18.45-.44,0-.91-.07-1.4-.21-.25.42-.6.83-1.1,1.18-.25.18-.49.32-.73.42-.11.28-.27.56-.47.83-.22.47-.59,1.1-1.26,1.64-1,.8-2.01.96-2.92.81l-.03.03c-.42.37-.86.61-1.3.76-.15.3-.35.59-.61.88-.19.28-.43.62-.79.97-.1.1-.2.19-.31.27-.05.76-.35,1.56-1.06,2.31-.8.84-1.64,1.18-2.47,1.22-.05.06-.1.12-.15.18-.01.01-.03.03-.04.04.02.18.04.37.03.56.31,1.43.06,2.63-.71,3.62-.62.79-1.43,1.27-2.42,1.45-.03.04-.06.08-.09.12-.15.21-.31.4-.47.56,0,.15-.02.29-.04.44.05.69,0,1.69-.64,2.67-.71,1.11-1.67,1.57-2.59,1.72-.39.39-.82.65-1.21.83-.06.44-.19.9-.44,1.37-.06.12-.13.24-.21.35-.04.45-.16.93-.41,1.43-.14.27-.29.51-.46.72.47,1.05.48,2.1.02,3.14-.64,1.48-1.66,2.09-2.83,2.24-.24.49-.52.85-.73,1.09-.11.19-.23.35-.35.51.56,1.11.85,2.15.43,3.45-.31.97-1,1.77-1.91,2.22s-1.96.53-2.92.21c-.4-.13-.75-.31-1.04-.52-.06.02-.13.05-.19.07-.73.43-1.89.9-3.34.49-.77-.22-1.34-.55-1.75-.98-.24-.01-.49-.05-.75-.11-.54-.13-.99-.32-1.35-.57-.56.22-1.33.4-2.25.25-1.1-.18-1.84-.68-2.34-1.32-1.14-.35-1.83-1.13-2.26-1.9-.62,1.04-1.64,1.98-3.42,1.97-1.78-.03-2.76-.92-3.33-2.09-.27.24-.58.44-.94.59-.52.92-1.41,1.78-2.94,1.95-1.19.13-2.09-.21-2.76-.74-.44.84-1.22,1.48-2.52,1.75-.49.1-.93.13-1.32.09-.35.24-.77.43-1.27.56-.8.21-1.49.19-2.07.02-.2.09-.41.18-.64.25-.95.29-1.85.25-2.72-.14-.28.94-.9,1.86-2.19,2.4-1.11.47-2.12.34-2.79.16-.23,0-.46-.04-.68-.09-.29.64-.81,1.24-1.65,1.69-.39.21-.78.35-1.17.42-.12.09-.25.18-.38.27l-.05.04c-.06.05-.12.1-.18.15-.19.79-.69,1.51-1.65,2.13-1.03.67-2.18.82-3.44.44-.1.03-.19.05-.29.07-.12.17-.26.34-.42.5-.14.73-.55,1.45-1.34,2.11-.61.5-1.3.79-2.07.88-.08.75-.43,1.51-1.18,2.24-.28.28-.59.5-.91.67-.17.45-.44.9-.86,1.35-.9.95-1.92,1.26-2.83,1.23.11,1.02-.15,1.95-.8,2.78-.3.39-.62.69-.94.92.03.84-.2,1.61-.68,2.32-1.03,1.52-2.49,1.77-3.66,1.69-.21.25-.43.45-.67.62-.08.37-.21.77-.43,1.17-.56,1.04-1.34,1.57-2.15,1.82-.02.06-.05.12-.08.17-.03.06-.06.12-.09.17.01.52-.08,1.1-.35,1.7-.01.03-.03.06-.04.09.33.79.47,1.78.03,2.92-.33.84-.84,1.4-1.23,1.74-.06.08-.12.15-.18.22.67.92.96,1.89.85,2.89.03.39.03.96-.14,1.6-.05.2-.12.39-.2.57.23.6.29,1.31.11,2.16-.21.98-.68,1.66-1.24,2.13.31.6.47,1.33.35,2.21-.06.43-.15.8-.29,1.13.14.44.21.95.16,1.54-.2,2.46-1.85,3.27-3.8,3.58.04.07.08.15.11.22.97.53,2.13,1.52,2.22,3.37.01.26,0,.5-.02.73.11.32.19.69.22,1.1.18,2.27-1.19,3.37-2.75,4v.07c.02.07.03.13.03.2,1.5.24,2.89.98,3.32,3.02.26,1.25-.03,2.2-.56,2.94.15.27.28.57.37.91.03.12.06.24.08.36.3.35.54.79.72,1.34.02.06.04.13.06.19.75.37,1.41,1.01,1.81,2.1.33.9.31,1.7.11,2.38,1.25.06,2.35.61,3.09,2.15.47.97.52,1.82.32,2.57.4,1.19.19,2.43-.63,3.7.05.16.1.32.13.47.41.27.79.64,1.12,1.15.24.37.4.73.5,1.08.15.08.3.18.44.29.98-.03,1.96.27,2.81,1.24,0,0,0,0,0,0,1.09-.14,2.17.18,3.16,1.35.4.47.65.94.79,1.41.59.16,1.17.5,1.75,1.09,1,1.03,1.32,2.32.96,3.85.33.15.67.36,1,.65.07.06.14.12.2.19.02,0,.04.01.06.02.63.05,1.53.24,2.37.91.63.5,1.01,1.05,1.23,1.61.23.11.45.24.68.4.47.34.81.71,1.05,1.1.37.1.75.27,1.13.52,1.08-.24,2.06-.09,2.95.43,1.21.71,1.7,1.67,1.84,2.67.22.07.45.16.68.28.18.09.35.19.5.3.67-.13,1.42-.07,2.24.29.65.29,1.1.68,1.39.96.26.16.48.34.67.53.85-.63,1.9-.86,3.3-.39,1.18.39,1.85,1.09,2.22,1.91,0,0,.01,0,.02,0,.66.18,1.17.47,1.56.82.57-.19,1.23-.25,2-.08.41.09.76.21,1.07.38.67-.45,1.52-.69,2.62-.53,1.07.16,1.82.67,2.33,1.19.35-.07.74-.09,1.17-.05.11,0,.22.02.33.04.41-.12.91-.21,1.51-.19,1.03.05,1.78.39,2.33.9.63-.47,1.36-.72,2.18-.75.89-.05,1.61.22,2.17.55.53-.56,1.27-.98,2.32-1.1.72-.08,1.31.03,1.7.12,1.09.05,1.9.55,2.49,1.16.7-.08,1.3.02,1.82.23.14-.11.3-.22.46-.32.28-.26.68-.58,1.22-.82.12-1.5.77-2.72,2.64-3.31,1.2-.38,2.17-.19,2.95.26.31-.11.6-.18.88-.22.35-.42.84-.79,1.5-1.07.2-.08.39-.15.58-.2.32-.45.85-1.02,1.66-1.41.83-.4,1.7-.5,2.59-.29.07-.04.14-.09.22-.13.9-.49,1.71-.58,2.44-.45.18-.21.41-.44.69-.65.24-.65.69-1.27,1.47-1.79,1.46-.98,2.8-.78,3.9-.22.78-.35,1.66-.43,2.5-.22.26.07.51.16.74.27,1.56.45,2.29,1.51,2.6,2.16.07.15.14.31.19.46.6.32,1.26.83,1.72,1.68.34.63.49,1.22.5,1.77.18.18.34.38.5.61.4.19.79.47,1.14.87.79.17,1.54.64,2.19,1.56.57.83.8,1.74.68,2.73.97-.04,1.95.32,2.84,1.36,1.12,1.32,1.14,2.6.65,3.79.1.09.2.18.3.28.63.65.93,1.36,1.05,2.03.46.16.92.42,1.37.82.29.27.52.55.71.83.8-.03,1.78.13,2.71.88.05.04.11.09.16.13.81-.1,1.68.08,2.6.75.78.57,1.21,1.23,1.42,1.92.42.09.86.26,1.31.54,1.53.96,1.84,2.4,1.8,3.58.08.1.15.19.21.29,1.14-1.28,2.67-2.24,4.79-1.25.71.33,1.21.8,1.56,1.27.76-.33,1.66-.39,2.74.01l.33.12c.16.06.32.12.49.18,1.02.36,1.65.98,2.05,1.67.59-.18,1.28-.19,2.09.03.47.13.87.3,1.21.51.16.02.32.05.48.09.49.11.9.28,1.25.48.62-.33,1.39-.47,2.35-.31,1.37.22,2.19.97,2.69,1.82.38-.13.8-.21,1.27-.21ZM154.12,197.25h0,0ZM121.55,194.85s.01,0,.02.01c0,0-.01,0-.02-.01ZM174.8,194.48s0,0-.01,0c0,0,0,0,.01,0ZM131.02,188.29s.02.01.03.02c-.01,0-.02-.01-.03-.02ZM66.59,183.85h.07s-.05,0-.07,0ZM213.88,182.67s-.02.03-.04.05c.01-.02.02-.03.04-.05ZM51.49,182.09h.05s-.04,0-.05,0ZM53.84,181.88s.05.01.07.02c-.02,0-.05,0-.07-.02ZM200.19,181.86s-.01,0-.02.01c0,0,.01,0,.02-.01ZM214.21,181.6s-.02.02-.03.03c0-.01.02-.02.03-.03ZM83.65,181.16s-.01,0-.02,0c0,0,.01,0,.02,0h0ZM208.51,174.69s0,0,0,0c0,0,0,0,0,0ZM35.98,174.48h.02s-.01,0-.02,0ZM102.09,173.09s-.05.03-.07.04c.02-.01.05-.03.07-.04h0ZM82.69,172.89s-.02,0-.03,0c.01,0,.02,0,.03,0ZM61.55,172.51s.08.01.13.02c-.04,0-.08-.01-.13-.02ZM76.06,172.29s0,0,0,0c0,0,0,0,0,0ZM219.05,172.17s-.02.04-.04.07c.01-.02.02-.04.04-.07ZM30.32,171.39s0,0,0,0c0,0,0,0,0,0ZM219.32,171.19s0,.01-.01.02c0,0,0-.01.01-.02ZM250.15,170.05s0,0,0,0c0,0,0,0,0,0ZM210.44,169.35s-.02.04-.03.05c.01-.02.02-.04.03-.05ZM46.65,168.57s0,0,0,0c0,0,0,0,0,0ZM111.02,166.88s0,0,0,0c0,0,0,0,0,0ZM98.64,165.54s-.01,0-.02.01c0,0,.01,0,.02-.01ZM214.7,165.45s-.02.04-.03.05c0-.02.02-.04.03-.05ZM109.34,164.89s0,0,0,.01c0,0,0,0,0-.01ZM109.34,164.88h0,0ZM215.84,162.97s0,0,0,0c0,0,0,0,0,0ZM243.44,161.83s.04,0,.05,0c-.02,0-.04,0-.05,0ZM252.64,161.76s0,0-.01,0c0,0,0,0,.01,0ZM19.07,161.38s0,0,0,0c0,0,0,0,0,0ZM282.71,160s0,0,0,0c0,0,0,0,0,0ZM266.86,158.48s-.01,0-.02,0c0,0,.01,0,.02,0ZM227.75,157.52s0,0,0,0c0,0,0,0,0,0ZM270.2,157.11s-.07.03-.1.05c.03-.02.07-.03.1-.05ZM28.6,156.42s.07.08.11.11c-.04-.04-.07-.08-.11-.11ZM292.74,152.51s0,0,0,0c0,0,0,0,0,0ZM302.48,141.45s-.03.05-.05.07c.02-.02.03-.05.05-.07ZM294.66,139.64s0,0,0,0c0,0,0,0,0,0ZM304.56,137.9s-.02.03-.02.04c0-.01.02-.03.02-.04ZM306.16,137.6s-.02.04-.04.06c.01-.02.02-.04.04-.06ZM.9,123.82s0,0,0,0c0,0,0,0,0,0ZM313.65,122.05s0,.03-.01.04c0-.02,0-.03.01-.04ZM10.27,117.1h0s0,0,0,0ZM.27,113.94s0,.02,0,.03c0-.01,0-.02,0-.03ZM312.75,112.19s-.01.08-.02.12c0-.04.01-.08.02-.12ZM316.3,104.91h0s0,0,0,0ZM14.72,101.04s0,0,0,0c0,0,0,0,0,0ZM13.92,99.64c-.02.07-.04.14-.06.21.02-.07.04-.14.06-.21ZM6.26,96.49s-.03.08-.04.12c.01-.04.02-.08.04-.12ZM14.7,96.24v.02s0-.01,0-.02ZM4.23,93.53s0,0,0,0c0,0,0,0,0,0ZM303.58,91.23s0,.04.01.06c0-.02,0-.04-.01-.06ZM304.96,89.95s0,.02,0,.03c0,0,0-.02,0-.03ZM20.66,84.82s0,0,0,0c0,0,0,0,0,0ZM20.67,84.81s0,0,0,0c0,0,0,0,0,0ZM23.85,80.22s-.02.02-.03.04c0-.01.02-.02.03-.04ZM309.86,77.56s.01.03.02.05c0-.02-.01-.03-.02-.05ZM297.61,74.89s0,0,0,0c0,0,0,0,0,0ZM294.73,74.54s0,0,0,.02c0,0,0-.01,0-.02ZM294.31,73.72s.01.02.02.03c0-.01-.01-.02-.02-.03ZM36.36,69.54s-.01,0-.02.01c0,0,.01,0,.02-.01ZM37.27,69.25s-.08.05-.12.08c.04-.02.08-.05.12-.08ZM40.39,67.41s0,0,0,0c0,0,0,0,0,0ZM286.82,62.27s0,0,0,0c0,0,0,0,0,0ZM50.67,61.48h0,0ZM50.72,61.46s-.04.01-.05.02c.02,0,.04-.01.05-.02ZM70.86,57.68c.07,0,.15,0,.22,0-.07,0-.14,0-.22,0ZM278.04,56.94s.1.07.16.1c-.05-.03-.11-.07-.16-.1ZM277.7,56.07s.01,0,.02,0c0,0-.01,0-.02,0ZM277.69,56.06s0,0,0,0c0,0,0,0,0,0ZM93.6,55.85s0,0,0,0c0,0,0,0,0,0ZM49.78,51.77s-.04.01-.07.02c.02,0,.04-.01.07-.02ZM225.71,51.45h0,0ZM225.72,51.44s0,0,0,0c0,0,0,0,0,0ZM271.08,50.74s.09.04.13.05c-.04-.02-.09-.04-.13-.05ZM234.36,49.22s0,0,0,0c0,0,0,0,0,0ZM237.16,48.96s-.02,0-.04,0c.01,0,.02,0,.04,0ZM230.37,48.94h-.01s0,0,.01,0ZM245.14,39.31s-.09,0-.14,0c.05,0,.1,0,.14,0ZM104.35,38.39s0,0-.01.01c0,0,0,0,.01-.01ZM214.66,37.23s0,0,0,0h0s0,0,0,0ZM211.78,37.07s0,0,0,0c0,0,0,0,0,0ZM210.71,34.3s0,0,0,0c0,0,0,0,0,0ZM221.98,32.88s.04.05.06.08c-.02-.03-.04-.06-.06-.08ZM217.66,31s0,0,0,0c0,0,0,0,0,0ZM111.1,29.37h0s0,0,0,0ZM214.59,23.66s.02.02.03.03c0,0-.02-.02-.03-.03ZM123.15,22.22s-.05.03-.07.04c.02-.01.05-.03.07-.04ZM112.11,16.4s-.05.03-.07.05c.02-.02.05-.03.07-.05ZM113.83,15.27s-.05.03-.07.05c.02-.02.05-.03.07-.05ZM145.04,12.79s0,0,0,0c0,0,0,0,0,0ZM145.09,12.78s-.03,0-.05,0c.02,0,.03,0,.05,0ZM148.83,12.66s0,0,0,0c0,0,0,0,0,0ZM195.01,10.52s.03.02.05.03c-.02,0-.03-.02-.05-.03ZM124.83,8.63s-.02,0-.03.02c.01,0,.02-.01.03-.02ZM182.7,6.7s.06.02.1.03c-.03-.01-.06-.02-.1-.03ZM139.66,6.62s-.09.02-.13.04c.04-.01.09-.03.13-.04ZM139.89,3.18s-.03,0-.04.01c.01,0,.03,0,.04-.01ZM175.08,2.66s0,0,0,0c0,0,0,0,0,0ZM163.3,1.68s.05,0,.07,0c-.02,0-.05,0-.07,0Z"/>
      </g>
      <g>
        <ellipse class="cls-2" cx="113.65" cy="125.45" rx="9.87" ry="21.1"/>
        <ellipse class="cls-2" cx="139.78" cy="125.45" rx="9.87" ry="21.1"/>
      </g>
    </g>
  </g>
</svg>