<?xml version="1.0" encoding="UTF-8"?>
<svg id="Layer_2" data-name="Layer 2" xmlns="http://www.w3.org/2000/svg" xmlns:xlink="http://www.w3.org/1999/xlink" viewBox="0 0 717.6 817.87">
  <defs>
    <style>
      .cls-1 {
        fill: #602006;
      }

      .cls-2 {
        fill: #fff;
      }

      .cls-3 {
        fill: #d03400;
      }

      .cls-4 {
        fill: #0242ff;
      }

      .cls-5 {
        fill: none;
      }

      .cls-6 {
        fill: #cf6e2f;
      }

      .cls-7 {
        fill: #ed3400;
      }

      .cls-8 {
        fill: #00cb4d;
      }

      .cls-9 {
        fill: #ff5a62;
      }

      .cls-10 {
        fill: #026dff;
      }

      .cls-11 {
        clip-path: url(#clippath);
      }
    </style>
    <clipPath id="clippath">
      <path class="cls-5" d="M258.07,327.29c12.73-42.89-10.07-62.09-76.54-113.95C194.8,173.2,324,0,324,0l375.6,67.1,18,320.27-52.8,248.81-295.12,181.68-160.88-163.63,9.33-71.97-50.03-15.22c-5.14-1.56-9.79-4.41-13.51-8.28L0,398.2l258.07-70.91Z"/>
    </clipPath>
  </defs>
  <g id="_图层_1" data-name="图层 1">
    <g>
      <path class="cls-8" d="M152,204.58c-63.2,119.82,90.16,155.96,90.16,155.96l15.41-32.2c20.34-42.49-2.15-93.1-47.31-106.49l-58.26-17.28Z"/>
      <path class="cls-7" d="M154.34,540.69c-.82,2.05-1.27,4.16-1.38,6.24l-34.06,71.16c-2.21-1.69-4.06-3.85-5.4-6.37l-33.87-63.93c-6.38-12.05,1.2-26.77,14.71-28.56l39.26-5.22c14.84-1.97,26.31,12.78,20.74,26.68Z"/>
      <circle class="cls-10" cx="182.8" cy="246" r="19.2"/>
      <path class="cls-3" d="M233.53,618.18l-15.18,13.2c-4.52,3.93-10.58,5.57-16.46,4.47l-74.72-14.06c-3.05-.57-5.87-1.86-8.27-3.7l34.06-71.16c-.02.34-.03.69-.03,1.03,0,8.35,5.4,16.16,13.92,18.74l59.5,17.98c14.74,4.46,18.8,23.4,7.18,33.5Z"/>
    </g>
    <g class="cls-11">
      <g>
        <polyline class="cls-6" points="479.55 471.32 478.96 474.44 481.46 474.86 485.26 474.04 479.91 481.72 485.39 479.27 484.96 482.47 490.97 479.23 492.56 480.34 490.71 485.11 495.2 483.13 490.39 491.4 494.74 489.5 496.74 490.2 494.95 495.47 496.47 496.83 501.23 494.05 502.31 495.9 501.92 499.76 505.61 498.11 507.77 498.48 510.54 497.91 507.86 505.49 514.44 499.01 516.46 499.4 516.11 503.69 515.79 508.14 521.61 501.96 519.71 509.41 523.95 505.7 522.34 513.1 526.69 508.89 529.52 507.5 530.45 510.1 531.95 511.52 531.57 517.46 536.37 511.07 537.96 512.3 537.96 517.86 540.09 517.86 542.72 516.36 545.65 513.7 545.38 521.12 547.14 522.32 548.93 523.48 551.06 523.4 553.15 523.41 555.44 522.47 557.8 521 559.15 524.44 561.17 524.63 563.04 525.69 565.59 522.32 566.9 527.59 569.72 520.98 571.29 524.88 573.15 526.81 575.62 520.2 577.37 523.7 579.28 526.06 581.37 520.98 583.31 526.94 585.28 523.45 587.32 525.26 589.04 519.69 591.11 522 593.08 522.03 594.79 519.66 596.85 520.72 598.87 521.15 601.45 524.86 602.15 517.38 604.42 519.1 605.71 516.04 608.76 520.65 611.9 524.81 612.55 519.54 613.33 515.38 617.42 521.68 618.97 519.92 618.37 512.7 621.84 516.24 622.29 512.35 625.63 515.04 625.73 510.8 627.7 510.5 630.91 512.33 630.25 507.37 631.96 506.6 633.43 505.47 635.94 505.78 637.08 504.15 643.4 508.91 644.97 507.49 644.57 503.96 642.72 499.26 645.82 499.6 650.58 501.14 648.27 496.57 650.08 495.5 647.41 491.45 652.09 492.11 653.29 490.52 654.95 489.07 658.61 488.2 655.35 484.96 652.17 482.22 660.7 481.83 653.24 478.81 657.09 477.19 657.65 475.18 660.47 472.97 657.35 471.14 660.93 468.48 658.53 466.74 652.1 466.29 653.16 464.04 655.39 461.19 656.77 458.4 652.63 457.99 648.46 457.93 647.67 456.27 647.49 454.21 650.51 449.91 645.62 450.94 643.93 449.86 641.12 449.82 641 447.51 644.88 441.08 639.57 443.67 642.78 437.05 638.18 439.34 636.47 438.3 632.45 440.75 634.67 433.63 629.64 438.45 629.33 434.96 627.11 435.23 625.06 435.43 624.52 430.8 621.59 434.43 619.79 434.45 618.54 428.01 616.32 429.91 614.53 433.27 611.64 427.05 609.59 428.54 608.2 431.36 608.33 436.44 604.27 432.84 603.02 434.69 600.78 435.2 596.74 434.14 596.42 436.95 600.12 442.48 595.27 441.44 598.82 445.89 596.81 446.87 596.21 448.86 595.14 450.61 588.3 448.85 589.98 452.17 585.28 451.22 591.97 458.69 584.42 454.98 584.86 457.89 585.66 461.89 583.96 463.46 579.88 459.6 578.89 462.17 577.07 460.65 576.2 457.41 571.24 466.89 569.17 465.24 572.61 455.73 571 455.18 563.55 461.21 564.07 457.46 567.32 451.36 562.76 453.13 564.33 449.06 559.81 450.49 561.2 446.72 559.57 445.56 553.8 447.73 556.92 442.67 552.07 444 552.08 441.47 551.22 439.63 549.27 438.63 551.67 434.29 549.87 433.17 548.95 431.39 548.03 429.6 547.14 427.78 538.16 432.16 541.24 427.29 537.75 427.48 540.79 422.62 533.44 425.81 535.62 421.6 535.83 418.91 537.73 414.86 528.7 419.54 528.34 417.3 533.73 410.38 531.16 409.89 527.83 410.04 526.58 408.49 526.67 405.82 523.26 406.11 518.43 407.66 518.86 404.68 519.36 401.61 521.94 396.63 520.25 395.43"/>
        <path class="cls-6" d="M308.82,237.96c-.47-.46,1.84-5.96,1.36-6.41s-4.14,2.46-4.62,2.02.7-2.72.22-3.16-.38-1.59-.87-2.02-7.32,6.42-7.82,5.99,5.76-8.74,5.26-9.16-8.56,8.28-9.07,7.87,9.37-13.63,8.86-14.04-7.5,7.31-8.02,6.91-3.46,2.44-3.98,2.05,6.31-10.63,5.79-11.02-9.01,10.18-9.54,9.8,5.75-10.38,5.21-10.75-1.81.23-2.35-.14-2.19.87-2.73.52-3.99,3.84-4.54,3.49,4.84-10.33,4.28-10.67-4.18,4.3-4.74,3.97.48-3.54-.09-3.86.69-4.16.12-4.47-8.5,13.12-9.07,12.82,5.7-14.03,5.12-14.33-2.07.97-2.66.69-1.1-1.01-1.69-1.28-1.28-.65-1.88-.91-2.86,3.19-3.46,2.94-4.31,7.35-4.92,7.12-.85-1.14-1.46-1.37,2.26-10.36,1.64-10.57-2.11,1.93-2.73,1.73-3.48,7.02-4.11,6.84-2,2.84-2.63,2.67-1.29.57-1.92.42,1.56-12.31.93-12.45-.07-7.02-.71-7.15-3.66,12.55-4.31,12.45.4-11.91-.24-12-1.76,1.77-2.4,1.69-1.78,3.34-2.43,3.29-1.94,9.97-2.59,9.93-.75-15.25-1.4-15.26-1.51,8.4-2.16,8.41-1.07,6.23-1.72,6.25-1.82-9.8-2.47-9.76-1.44-.02-2.09.05-1.49-.21-2.13-.12-2.41-5.14-3.06-5.03.58,10.41-.06,10.55-.35,3.73-.98,3.89-.85,1.09-1.47,1.28-1.24-.23-1.85-.01-.69,1.24-1.3,1.48-1.29-.28-1.88,0-3.73-4.84-4.31-4.54-4.78-5.46-5.34-5.13-.33,2.66-.88,3.02-.69,1.83-1.21,2.22,4.23,7.62,3.73,8.03c-.51.42-1.45.06-1.93.5s.03,1.61-.42,2.09-5.03-2.86-5.45-2.36,6.54,6.62,6.15,7.15-7.06-3.6-7.42-3.05-7.61-2.74-7.93-2.17,11.93,7.71,11.64,8.3-14.36-4.72-14.6-4.11,15.26,6.91,15.06,7.53-13.05-2.45-13.21-1.81,3.48,2.32,3.36,2.97,8.69,2.43,8.61,3.09-8.36.38-8.4,1.04,6.4,1.32,6.4,1.98-14.26,1.88-14.22,2.54-.77,1.89-.69,2.55,8.85.3,8.97.95-.17,1.42-.03,2.07,5.05,0,5.22.65-.63,1.4-.43,2.04-7.31,4.05-7.07,4.67,12.01-3.47,12.27-2.86-12.66,7.17-12.38,7.77,15.36-6.24,15.67-5.65-12.2,8.07-11.87,8.65,4.4-.95,4.75-.39,8.4-3.93,8.76-3.37,1.4.32,1.78.86-1.13,2.16-.74,2.69-8.16,7.89-7.74,8.41,4.02-1.5,4.45-.99,6.02-3.53,6.45-3.03-5.97,7.07-5.52,7.56-3.58,5.35-3.12,5.83,8.91-6.84,9.38-6.37-1.62,3.53-1.14,3.99-2,4.16-1.51,4.61,4.8-3.29,5.29-2.85-2.71,5.22-2.2,5.65,1.98-.18,2.49.24,9.2-9.39,9.72-8.97-8.42,12.91-7.9,13.32,3.88-2.86,4.42-2.47.53,1.56,1.07,1.95-1.54,4.57-.99,4.95.09,2.39.64,2.76,2.66-1.43,3.21-1.07,2.56-1.4,3.11-1.04,3.23-2.61,3.8-2.26,3.09-2.56,3.65-2.22-3.91,9.14-3.34,9.48c.56.33.98,1.08,1.55,1.41s4.59-5.35,5.17-5.03c.57.32,3.23-3.18,3.81-2.86s-2.19,6.8-1.6,7.12,2.14-1.22,2.73-.91,4.95-5.8,5.53-5.45-7.14,13.47-6.58,13.84,7.82-8.92,8.36-8.51-.16,2.47.36,2.89,3.93-2.39,4.43-1.95.12,2.05.6,2.51-1.01,3.01-.54,3.48-6.85,8.17-6.4,8.66,1.44.12,1.88.62,9.9-6.78,10.32-6.27,5.27-2.36,5.68-1.83-9.08,8.68-8.68,9.21,1.03.78,1.41,1.32,9.5-4.92,9.87-4.37-.51,2.08-.15,2.64-7.93,6.55-7.59,7.12,4-.92,4.33-.35-.33,1.68,0,2.25-3.71,3.42-3.41,4,7.48-2.45,7.77-1.86-7.31,4.99-7.02,5.59-1.26,1.86-.99,2.46,3.22-.16,3.49.44,12.7-3.92,12.95-3.31-1.31,2.06-1.08,2.67-6.97,4.05-6.75,4.67-.11,1.36.11,1.99,8.93-1.58,9.13-.95-7.89,3.87-7.7,4.5,6.05-.41,6.23.23,2.79.68,2.95,1.32-6.19,2.94-6.03,3.58-2.97,1.97-2.83,2.61,7.99-.36,8.12.28-8.87,3-8.76,3.65,4.49.48,4.6,1.13-1.82,1.55-1.73,2.2-1.04,1.37-.96,2.03,5.98.6,6.05,1.26-5.94,1.82-5.89,2.48,4.79.9,4.83,1.56-.8,1.33-.77,1.99.44,1.27.46,1.93-5.85,1.32-5.85,1.98,6.14,1.26,6.13,1.92.73,1.32.71,1.98,1.85,1.41,1.82,2.07-10.38.58-10.43,1.24,8.23,1.92,8.17,2.57,9.21,2.36,9.13,3.01-2.69,1.15-2.78,1.8-1.46,1.23-1.56,1.89-6.93.24-7.05.88,6.72,2.61,6.59,3.25-8.9-.45-9.04.19,12.36,4.18,12.21,4.82-5.54.14-5.71.78.23,1.51.06,2.15-5.39-.13-5.58.51,2.12,2.04,1.92,2.67-7.09-.96-7.3-.33,4.15,2.79,3.92,3.41,7.07,4.09,6.83,4.7-6.31-.95-6.56-.34.16,1.53-.1,2.14-11.7-3.7-11.97-3.09,5.48,3.81,5.21,4.4,6.09,4.36,5.8,4.95.48,1.8.18,2.39c-.3.58,2.64,2.99,2.34,3.58s-6.1-1.69-6.42-1.11,4.59,4.21,4.27,4.78-5.41-1.52-5.75-.96,3.79,3.95,3.44,4.51-4.1-.89-4.45-.34-4.65-1.41-5.01-.86-8.77-4.41-9.14-3.87,13.3,10.85,12.92,11.39-2.9-.35-3.29.18-9.95-5.76-10.35-5.23,2.03,3.12,1.63,3.65,1.99,3.22,1.58,3.74-7.22-4.23-7.64-3.72,1.17,2.57.74,3.08,8.78,9.29,8.35,9.79-5.75-3.24-6.19-2.75-8.98-6.43-9.43-5.95,7.2,8.41,6.75,8.9-4.47-2.47-4.93-1.99-5.21-3.37-5.68-2.9,9.72,11.56,9.25,12.02,1.13,3.16.66,3.62-2.45-.55-2.93-.1-3.6-1.87-4.09-1.42-.3,1.67-.79,2.12c-.47.42-4.21-3.31-4.81-2.97-.54.3.93,5.53.29,5.77-.59.21-.39,5.19-1.05,5.36-.61.15-2.12-1.16-2.78-1.03-.62.11-1.38,1.89-2.05,1.98-.63.08-2.11-5.18-2.78-5.11-.63.06-1.71-4.41-2.38-4.36s-1.18,1.52-1.85,1.56-1.34-.83-2.01-.79-1.28.32-1.94.35-.95,8.5-1.61,8.53-1.69-9.42-2.35-9.39-1.41-2.41-2.07-2.38-.98,7.01-1.64,7.04-1.9-10.87-2.56-10.83-.4,14.95-1.06,14.99-1.13,1.34-1.79,1.39-2.64-16.09-3.3-16.03.21,15.87-.44,15.93-1.76-4.8-2.42-4.72-1.56-2.1-2.21-2.01-1.4-.57-2.05-.47-2.54-6.81-3.19-6.69,1.68,15.84,1.03,15.97-4.53-15.11-5.17-14.96-1.94-1.61-2.57-1.45-.61,3.58-1.24,3.76-2.17-2.01-2.79-1.82-1.3,1.01-1.92,1.22,1.92,9.44,1.31,9.67-.27,2.6-.87,2.86-5.11-8.35-5.71-8.08,5.27,13.85,4.68,14.15-3.8-4.9-4.37-4.58-7.17-9.65-7.73-9.32-.3,2.55-.85,2.91,3.95,8.29,3.42,8.67-3.58-2.66-4.1-2.25.95,3.29.44,3.71,3.83,6.11,3.34,6.55-5.35-4.07-5.82-3.61-8.46-6.28-8.91-5.8,9.4,10.39,8.97,10.89-1.4.29-1.82.8-4.91-2.26-5.31-1.73,6.43,6.1,6.05,6.64-7.09-3.35-7.45-2.8,1.33,2.31.99,2.88-8.96-3.59-9.29-3.01-.26,1.58-.56,2.16,7.2,5.11,6.92,5.71,1.58,2.06,1.31,2.66-9.66-2.71-9.91-2.1-1.51.96-1.75,1.58,7.24,4.12,7.02,4.74-10.43-2.09-10.64-1.46,15.26,6.22,15.07,6.84-.6,1.03-.77,1.66-11.66-1.82-11.82-1.19-4.45.39-4.6,1.03,12.11,4.12,11.98,4.76-10.95-.86-11.08-.22,12.99,3.69,12.88,4.34,1.82,1.46,1.72,2.1.24,1.17.16,1.82-13.36-.3-13.43.35,12.73,2.5,12.67,3.15-8.89.55-8.93,1.21-.52,1.29-.55,1.95-.06,1.32-.07,1.98,3.98,1.33,3.98,1.98-13.1,1.5-13.09,2.15,16.73.83,16.76,1.48-12.64,1.96-12.6,2.61,14.78.17,14.84.82-4.85,1.64-4.78,2.29-11.33,2.73-11.24,3.38,5.5.65,5.6,1.29,10.71-.56,10.83.08-14.72,4.18-14.59,4.82,5.81.16,5.96.8,3.79.39,3.96,1.02-7.38,3.46-7.2,4.08,6.03-.41,6.23.21-6.37,3.66-6.15,4.27,15.29-4.38,15.53-3.77-8.18,4.64-7.93,5.24,3.68-.28,3.96.31.59,1.04.89,1.62c.31.59-4.64,4.02-4.32,4.58s-3.48,3.87-3.13,4.42,2.36.38,2.73.91,4.93-1.76,5.32-1.25-3.33,4.61-2.91,5.11,6.35-3.74,6.79-3.27,1.14.62,1.62,1.06c.48.45,3.98-2.92,4.48-2.51s1.7-.87,2.23-.49-7.88,14.43-7.33,14.77,9.17-13.84,9.75-13.54-3.19,9.58-2.58,9.83,1.43.34,2.05.53,1.89-1.89,2.54-1.75.39,6.66,1.04,6.74,2.01-4.94,2.67-4.91,1.51,4.2,2.17,4.18.39-11.18,1.04-11.25,2.98,11.1,3.63,10.98c.63-.12-.26-7.42.39-7.59s-.07-3.87.56-4.08,2.39,3.42,3.01,3.17-.74-4.43-.14-4.71,7.99,13.08,8.58,12.77,1.62-.6,2.19-.94.1-2.95.66-3.31-7.6-13.61-7.05-13.99,8.66,9.89,9.19,9.49-6.26-10.09-5.74-10.51,2.17.89,2.67.46,7.21,6.29,7.7,5.85,5.14,3.39,5.62,2.93-7.25-9.47-6.78-9.94,2.38.54,2.84.07-2.58-4.15-2.13-4.64,8.22,5.67,8.66,5.18-.54-2.3-.11-2.81-5.75-6.51-5.33-7.02,11.13,7.33,11.54,6.81-6.56-6.88-6.15-7.41,4.79,1.99,5.19,1.46-7.52-7.16-7.13-7.7,10.9,6.24,11.28,5.7-3.82-3.39-3.44-3.94c.5.43,4.4-4.4,4.9-3.98s-5.28,8.38-4.78,8.79-.2,2.36.3,2.78,1.88-.18,2.39.23-1.84,4.48-1.33,4.88,7.86-7.81,8.37-7.41,5.63-5.18,6.15-4.78-6.04,10.02-5.52,10.41,6.22-6.1,6.74-5.71-6.85,11.46-6.32,11.84,2.18-.68,2.71-.3,8.03-8.97,8.56-8.59-2.79,6.19-2.25,6.56,4.07-3.61,4.6-3.25.41,1.66.95,2.02,1.36.26,1.9.62-6.61,12.56-6.06,12.92,9.64-12.6,10.19-12.26.9.93,1.45,1.27-6.63,13.35-6.07,13.68,2.41-1.32,2.97-.99.47,1.95,1.03,2.27,6.76-9.12,7.33-8.81-4.68,11.16-4.12,11.47,3.5-3.54,4.07-3.23,5.88-8.33,6.45-8.03.96.85,1.54,1.15,2.37-2,2.95-1.71.77,1.18,1.36,1.46-2.14,7.53-1.55,7.81,4.94-7.86,5.53-7.6-.36,3.84.24,4.1-3.79,12.39-3.19,12.64,3.76-5.65,4.36-5.41,4.3-7.6,4.91-7.37-.28,4.27.32,4.5,2.23-2.62,2.84-2.41-2.02,10.02-1.41,10.22.64,2.54,1.26,2.73,5.51-13.9,6.13-13.71-3.52,17.29-2.9,17.46,3.6-8.31,4.23-8.15.04,5.53.66,5.68,1.45-.11,2.08.03,2.5-5.62,3.13-5.49.02,7.43.65,7.54,1.45-.06,2.08.03,2.63-9.41,3.27-9.33.59,6.01,1.23,6.07,1.17,2.25,1.81,2.3,1.3,1.84,1.94,1.87,1.66-7.41,2.3-7.39c.67.02,1.23,8.42,1.87,8.42.67,0,1.33-5.98,1.96-5.99.67-.02.99-5.8,1.62-5.84.68-.04,2.32,13.4,2.95,13.35.68-.06-.11-13.97.51-14.04.68-.08,2.35,7.75,2.96,7.65.69-.11,2.19,3.74,2.79,3.63.7-.14,1.3-1.49,1.87-1.63.74-.18.04-5.49.56-5.65,1.21-.38-1.04,3.06-.24,3.61s4-2.64,3.92-1.39c-.03.54,3.95,1.53,3.89,2.28-.05.59-13.23.11-13.3.81-.06.6-1.01,1.06-1.08,1.74-.06.61,10.99,2.47,10.91,3.14-.07.62,6.52,2.16,6.43,2.83-.08.62-5.54.61-5.63,1.27-.09.62-9.81-.16-9.91.49s1.68,1.51,1.58,2.17-1.13,1.06-1.25,1.71,3.88,1.99,3.76,2.64-3.15.68-3.28,1.32-2.41.76-2.55,1.41,9.04,3.29,8.9,3.93-2.77.71-2.93,1.35,3.71,2.28,3.55,2.92,1.9,1.91,1.74,2.54-2.43.77-2.61,1.4-9.07-1.22-9.25-.59,3.75,2.45,3.56,3.08-9.23-1.59-9.43-.96,2.71,2.15,2.5,2.77,2.52,2.18,2.31,2.8-3.26.15-3.49.76,8.63,4.63,8.4,5.24.14,1.53-.1,2.14-2.36.5-2.61,1.1.82,1.84.56,2.43-10.29-3.22-10.57-2.63,6.73,4.57,6.45,5.15.52,1.76.23,2.34-7.55-2.44-7.86-1.86-2.05.26-2.36.83,12.97,7.57,12.71,8.18-11.07-2.96-11.27-2.33,1.23,1.84,1.1,2.49,8.61,2.43,8.53,3.09-.45.63-.47,1.3,1.66.65,1.69,1.32-17.05,2.54-16.97,3.2.74,1.75.86,2.4-.26,1.93-.09,2.57,11.49-1.83,11.69-1.2-7.14,4.01-6.89,4.63,4.22-.25,4.51.35,6.69-2.17,7.01-1.59-12.71,9.18-12.35,9.74,6.8-2.64,7.19-2.1,4.52-1.88,4.94-1.37-2.48,3.87-2.02,4.35,6.25-4.54,6.73-4.08,2.96-2.05,3.47-1.62-.1,1.37.43,1.77-9.43,15.84-8.87,16.2,10.68-14.77,11.26-14.43c.56.33-1.29,4.43-.7,4.73s1.97-1.78,2.58-1.52-1.32,6.35-.7,6.58,2.01-2.04,2.64-1.84-.37,6.23.28,6.39,3.6-10.29,4.25-10.16.15,5.35.81,5.45.43,7.47,1.09,7.54,1.82-4.47,2.48-4.43,1.43-5,2.1-4.99,1.04-4.08,1.71-4.1,1.41,7.22,2.08,7.18,1.6,3.41,2.26,3.34,1.04-2.73,1.7-2.82.09-7.44.75-7.55,2.07,4.98,2.72,4.86.08-5.21.73-5.36,3.18,7.93,3.82,7.76.64-2.61,1.28-2.79,1.42.29,2.06.09.45-2.66,1.08-2.88-.03-3.65.6-3.88,5.6,11.09,6.22,10.84.97-1.38,1.59-1.64,2.73,2.7,3.33,2.43-.73-5.07-.13-5.35.67-1.76,1.27-2.05,4.06,5.01,4.65,4.71-3.91-10.49-3.33-10.8-.06-2.74.52-3.06,1.58.29,2.16-.04,3.11,2.82,3.69,2.48,4.64,5.1,5.21,4.76.87-1.25,1.43-1.6-7.03-13.44-6.47-13.8,5.76,6.52,6.32,6.15,5.75,6.11,6.29,5.74-4.54-8.95-4-9.33,1.19-.55,1.73-.93-.43-2.77.11-3.16.35-1.64.88-2.04-.43-2.63.09-3.04,5.18,4.64,5.7,4.23,2.86,1.5,3.38,1.09c.51-.41,5.53,4.71,6.04,4.29s-5.5-8.86-4.99-9.28,6.95,6.25,7.46,5.82.41-1.64.91-2.08-.85-3.06-.35-3.5-5.76-8.56-5.26-8.99-.44-2.39.05-2.83,1.39-.34,1.88-.78,11.05,10.12,11.54,9.67-1.57-3.68-1.09-4.13,5.34,3.68,5.82,3.22-12.24-14.72-11.76-15.18,4.97,3.31,5.45,2.84,2.51.7,2.98.24.28-1.57.74-2.04,4.28,2.4,4.74,1.93-6.51-8.22-6.04-8.7,2.02.18,2.48-.29.88-.94,1.34-1.42,6.5,4.38,6.96,3.89-5.77-7.23-5.32-7.71,2.06.15,2.51-.33-1.58-3.23-1.13-3.71,11.81,9.09,12.25,8.6-2.69-4.27-2.24-4.75c.45-.49,6.15,3.78,6.6,3.29s-5.98-7.18-5.54-7.67,7.11,4.56,7.54,4.07,2.76.64,3.2.15-1.86-3.44-1.43-3.93-7.86-8.61-7.43-9.11,3.22,1.06,3.65.57,10.14,6.94,10.56,6.44-5.29-6.27-4.87-6.77,2.8.62,3.22.12-3.41-4.59-2.99-5.09,9.35,6.02,9.77,5.51-6.76-7.29-6.34-7.8.86-1,1.27-1.51-.21-1.86.2-2.37-1.74-3.06-1.33-3.58,8.53,5.07,8.93,4.55,4.66,1.93,5.06,1.41-5.91-6.3-5.51-6.82-7.09-7.1-6.69-7.62,4.44,1.76,4.84,1.24,10.52,6.26,10.91,5.73-12.33-10.83-11.94-11.36,7.1,3.63,7.49,3.1-.22-1.79.16-2.32,3.68,1.03,4.07.5.13-1.54.51-2.07-7.54-6.9-7.16-7.44,10.95,6.04,11.32,5.5-1.88-2.91-1.51-3.45-1.05-2.3-.68-2.84,8.02,3.78,8.38,3.23-1.96-2.92-1.6-3.47,3.15.45,3.51-.1,2.46-.04,2.82-.59-13.73-10.3-13.38-10.86.57-1.13.92-1.69,3.26.52,3.61-.04,13.47,6.64,13.81,6.08c.34-.57-3.99-3.99-3.65-4.55s-7.09-5.72-6.76-6.29-2.13-2.71-1.8-3.28,8.4,3.32,8.73,2.75-2.3-2.8-1.98-3.38-.06-1.51.26-2.09-3.72-3.47-3.41-4.05,7.11,2.34,7.42,1.76,10.52,3.97,10.82,3.39-3.78-3.49-3.49-4.08-7.76-5.38-7.47-5.97,4.28.66,4.57.07-.68-1.78-.4-2.37-6.37-4.41-6.1-5,16.26,6.04,16.53,5.44,1.51-.85,1.78-1.45-12.3-6.85-12.04-7.45-2.2-2.31-1.95-2.91,12.09,3.61,12.33,3.01-11.44-6.03-11.2-6.63,9.45,2.32,9.68,1.72,3.19-.23,3.42-.84-6.51-3.81-6.29-4.42,1.7-.77,1.91-1.39,4.65.19,4.85-.43-2.13-2.11-1.93-2.73-3.58-2.49-3.39-3.11,3.08-.41,3.27-1.04,8.57,1.06,8.74.43.16-1.42.33-2.05-12.57-4.64-12.41-5.27,8.45.74,8.6.11,2.01-.94,2.15-1.57-3.57-2.15-3.44-2.78,8.95.35,9.07-.29-16.48-4.33-16.37-4.96,5.7-.32,5.79-.96c.1-.67,9.2-.05,9.28-.68.09-.67-13.17-2.98-13.1-3.61.08-.67,2.45-.96,2.51-1.59.06-.68-.01-1.23.03-1.86.05-.68,11.3-.68,11.33-1.31.03-.69-1.41-1.54-1.4-2.16.02-.7-5.25-1.46-5.25-2.07,0-.72,6.94-1.65,6.92-2.24-.03-.77-2.17-1.52-2.22-2.06-.11-1.29-13.84-2.99-13.6-3.94s16.48,7.15,17.29,6.1c.33-.43-1.06-2.48-.61-3.1.35-.47-9.77-8.63-9.34-9.22.35-.5.92-.8,1.32-1.38.35-.51,2.78.43,3.17-.15.35-.52,8.11,3.91,8.49,3.34.35-.53-10.81-8.68-10.43-9.26.35-.53,3.68.92,4.05.34.35-.54,10.83,5.38,11.19,4.81.34-.54-8.1-6.65-7.75-7.23s9.1,4.11,9.45,3.53,1.29-.79,1.64-1.36-1.3-2.34-.95-2.92,2-.36,2.34-.94-7.96-6.21-7.62-6.79,6.39,2.21,6.72,1.63-3.24-3.38-2.91-3.96-3.91-3.71-3.58-4.29-.31-1.64.02-2.22,7.98,2.97,8.31,2.39-.68-1.87-.36-2.45,3.08.19,3.4-.39-4.19-3.76-3.88-4.34,9.64,3.68,9.95,3.09,1.71-.6,2.02-1.19c.3-.58-2.65-2.9-2.34-3.49s1.72-.6,2.03-1.19-2.63-2.85-2.33-3.44,1.6-.66,1.9-1.25,3.26.18,3.56-.42-2.36-2.68-2.07-3.27,3.06.06,3.36-.54-.51-1.73-.22-2.33-8.27-5.54-7.98-6.14,1.81-.56,2.1-1.16,11.53,4.14,11.81,3.54.16-1.4.45-2-.83-1.87-.55-2.47-1.39-2.13-1.1-2.73,2.69-.19,2.98-.79-.15-1.54.13-2.14,4.01.4,4.29-.2c.28-.59-.9-1.89-.62-2.49s1.85-.62,2.12-1.22-3.16-2.91-2.89-3.51-3.42-3-3.15-3.61,6.6,1.52,6.87.92-14.07-7.74-13.8-8.35,10.37,3.19,10.64,2.58,6.36,1.36,6.63.76-5.07-3.68-4.8-4.28-1.8-2.22-1.53-2.83,1.34-.85,1.6-1.46,5.4.89,5.66.28-6.59-4.26-6.33-4.86-3.91-3.08-3.65-3.69,4.55.52,4.81-.09,6.58,1.35,6.83.74-8.95-5.17-8.69-5.78,4.24.35,4.5-.26,4.27.35,4.53-.26,6.73,1.34,6.98.73-12.14-6.41-11.89-7.02,3.99.21,4.24-.4,8.19,1.9,8.44,1.28,2.73-.33,2.98-.95-3.25-2.74-3-3.35-11.65-6.07-11.41-6.68,13.61,3.99,13.85,3.37,1.82-.71,2.06-1.32-2.82-2.53-2.58-3.15-5.46-3.55-5.22-4.17-4.89-3.3-4.65-3.92.39-1.25.62-1.87,8.45,1.85,8.69,1.23-4.74-3.23-4.51-3.85,9.2,2.1,9.44,1.48-2.05-2.19-1.81-2.81-9.67-5.05-9.43-5.67,10.68,2.61,10.92,1.99-7.15-4.08-6.92-4.7,2.72-.39,2.95-1.01-1.87-2.09-1.64-2.71,10.01,2.28,10.24,1.66-1.78-2.07-1.55-2.7,3.09-.28,3.31-.9,2.22-.61,2.45-1.22,2.34-.57,2.56-1.19-4.45-3.02-4.23-3.63-9.21-4.71-8.99-5.32,4.09.07,4.31-.55-4.79-3.09-4.57-3.71,6.79,1.01,7.01.39,10.85,2.41,11.07,1.8-11.94-5.58-11.72-6.2-1.04-1.75-.83-2.37,15.05,3.81,15.26,3.19-12.15-5.58-11.94-6.2,8.44,1.49,8.65.87-4.59-2.96-4.38-3.58,5.54.47,5.74-.15-5.31-3.18-5.1-3.8,2.97-.4,3.17-1.02-4.78-2.97-4.57-3.59,10.96,2.2,11.16,1.58,2.93-.46,3.13-1.08-9.67-4.52-9.47-5.14,8.3,1.26,8.5.64-6.54-3.47-6.34-4.09,5.69.39,5.89-.23-1.04-1.72-.84-2.34-5.75-3.16-5.56-3.78-1.48-1.82-1.29-2.45,1.16-1.02,1.34-1.64,9.1,1.31,9.28.69-5.42-2.97-5.23-3.6-.95-1.65-.77-2.27-2.14-1.97-1.97-2.6,5.71.22,5.88-.4,4.61-.13,4.78-.75-2-1.93-1.84-2.56-3-2.17-2.84-2.79-5.59-2.79-5.43-3.41,12.24,1.7,12.4,1.08-4.67-2.53-4.52-3.16,1.54-1.01,1.69-1.64,1.28-1.09,1.42-1.72-11.04-3.76-10.91-4.38c.14-.66,11.31,1.03,11.44.4.14-.66,6.93-.06,7.06-.68.13-.66-.02-1.48.09-2.11.12-.67-.73-1.61-.63-2.23.11-.67-5.25-2.26-5.16-2.89.1-.68,4.33-.84,4.41-1.47.09-.68.15-1.49.22-2.11.07-.69-4.88-1.92-4.83-2.54.05-.69,6.78-1.12,6.81-1.74.03-.7-10.31-1.71-10.31-2.32,0-.72,11.44-2.02,11.4-2.62-.05-.73-15.18.19-15.27-.39-.13-.76,2.3-1.27,2.11-1.78-.29-.8,8.75-8.41,8.41-8.77-.87-.93-8.01-2.38-8.99-2.28s-.11,10.57-1.09,10.6-1.27-11.62-2.25-11.6-.79,7.81-1.77,7.83-.75,9.37-1.73,9.4-1.18-7.79-2.16-7.76-.89,3.51-1.87,3.54-1.07-3.58-2.05-3.55-1.18-7.78-2.16-7.75-.69,11.48-1.68,11.5-1-.6-1.98-.58-1.25-10.8-2.23-10.78-.78,8.13-1.76,8.15c-.98.02-.87,4.37-1.85,4.39-.98.02-.89,3.66-1.87,3.69s-1.35-14.84-2.33-14.82-.83,5.89-1.81,5.92c-.98.02-1.17-7.54-2.15-7.51s-.71,10.75-1.69,10.78-.98.01-1.96.04-1.29-12.27-2.27-12.25c-.98.02-.87,4.42-1.85,4.44s-1.1-4.86-2.09-4.83-.81,6.76-1.8,6.79c-.98.02-.83,5.97-1.81,5.99s-.91,2.86-1.89,2.89-.98.07-1.96.09-1.24-10.4-2.22-10.38-.71,10.91-1.69,10.94-.92,2.66-1.9,2.68-1.43-18.16-2.42-18.14-.5,19.27-1.48,19.3-1.39-16.38-2.37-16.36-.7,11.12-1.68,11.14-.92,2.36-1.9,2.39-.97.53-1.95.56-1.13-5.87-2.11-5.85c-.98.02-1.08-4.06-2.06-4.03s-1.14-6.13-2.12-6.11-.7,11.21-1.68,11.23c-.98.02-.88,4.24-1.86,4.26-.98.02-1.29-12.45-2.28-12.43-.98.02-.84,5.62-1.82,5.64s-1.21-8.95-2.19-8.92c-.98.02-.8,7.22-1.78,7.24s-.84,5.77-1.82,5.8-1.03-1.93-2.01-1.91-1.04-2.48-2.02-2.45-.82,6.3-1.81,6.33c-.98.02-1.06-2.97-2.04-2.95s-1.1-4.91-2.09-4.88-.87,4.57-1.85,4.6-1.28-12-2.26-11.98-.8,7.37-1.78,7.39-1.06-3.18-2.04-3.16-.84,5.69-1.82,5.71-.81,6.84-1.79,6.87-1.38-15.78-2.36-15.76-.79,7.56-1.77,7.59-1.18-7.9-2.16-7.87-.93,2.25-1.91,2.28c-.98.02-.8,7.42-1.78,7.44-.98.02-1.03-2.03-2.01-2-.98.02-1.17-7.69-2.15-7.67-.98.02-.5,19.31-1.48,19.33s-1.35-14.76-2.33-14.74-1.05-2.89-2.04-2.86-.94,1.61-1.93,1.63c-.98.02-1.03-1.99-2.01-1.96s-.66,12.81-1.64,12.83-1.11-5.24-2.09-5.21-.79,7.68-1.77,7.71-.95,1.21-1.93,1.24c-.98.02-1.17-7.79-2.15-7.76s-.77,8.41-1.75,8.43-.97.43-1.95.45-1.32-13.81-2.3-13.78-.75,9.21-1.73,9.24-1.1-4.82-2.08-4.8c-.98.02-1.14-6.55-2.12-6.53-.98.02-.73,9.99-1.71,10.01-.98.02-.82,6.3-1.8,6.33s-1.41-17.03-2.39-17-.85,5.12-1.84,5.15-1.15-6.79-2.13-6.77-.75,9.15-1.74,9.17-.94,1.88-1.92,1.91-.82,6.63-1.8,6.65-1.18-8.03-2.16-8-.95,1.41-1.93,1.43-1.18-8.07-2.16-8.05-.9,3.09-1.88,3.11-.89,3.61-1.87,3.63-1.21-9.08-2.19-9.06c-.98.02-.93,1.93-1.91,1.95s-.55,17.26-1.53,17.29-1.04-2.24-2.02-2.21-1.06-2.97-2.04-2.95-.92,2.67-1.9,2.7c-.98.02-1.4-16.79-2.39-16.77-.98.02-.69,11.86-1.67,11.89s-.83,6.14-1.81,6.17-1.32-13.67-2.3-13.64c-.98.02-.65,13.49-1.63,13.51s-1.21-8.97-2.19-8.95c-.98.02-.93,2.14-1.91,2.17s-1.17-7.44-2.15-7.42-.58,16.13-1.56,16.16-1.36-15.14-2.35-15.12-.99-.29-1.97-.26-1-.69-1.98-.66-1.05-2.52-2.03-2.49c-.98.02-.87,4.38-1.85,4.41s-.76,8.73-1.75,8.75-1.15-6.74-2.13-6.71-.8,7.3-1.78,7.32-1.16-7.04-2.14-7.02-1.07-3.35-2.05-3.32-1-.83-1.99-.81-.7,11.19-1.69,11.22c-.98.02-1.29-12.17-2.27-12.15s-.61,14.98-1.59,15c-.98.02-1.33-13.68-2.31-13.66s-.6,15.17-1.59,15.19-1.13-5.97-2.11-5.94-.95,1.41-1.93,1.44-1.31-13.13-2.3-13.11-.65,13.32-1.63,13.35-.88,4.33-1.86,4.36-1.01-1.02-1.99-1-1.3-12.9-2.28-12.88c-.98.02-.88,4.26-1.86,4.29s-.88,4.21-1.86,4.23-.83,6.23-1.81,6.25-1.33-14.08-2.32-14.06-.88,4.2-1.86,4.23-1.01-1.07-1.99-1.05-.95,1.43-1.93,1.46c-.98.02-.99-.11-1.97-.09s-.86,4.77-1.85,4.79-.96.86-1.95.88-1.25-10.43-2.23-10.4-.68,12.31-1.66,12.33-.94,1.93-1.92,1.95-1.13-5.73-2.11-5.71-.98.18-1.97.21-.92,2.72-1.9,2.74c-.98.02-1.37-15.5-2.36-15.47s-.64,14.03-1.62,14.06-.89,3.87-1.87,3.89-1.11-5.15-2.1-5.13-1.27-11.24-2.25-11.21-1.02-1.42-2.01-1.39c-.99.02-.67,12.75-1.65,12.77s1.69-.13.92.5c-1.42,1.18-4.41-.81-5.38-.97Z"/>
        <path class="cls-1" d="M211.79,561.81c5.26.27,9.05-4.19,10.24-8.91.5-2,.58-3.99.45-6.02-.06-1.01-.14-2.01-.15-3.02,0-.5.03-.99.03-1.48.05-.59.03-.49-.07.3.04-.23.08-.47.13-.7.05-.23.11-.45.18-.68.19-.53.14-.44-.14.28.1-.21.22-.41.34-.61.31-.46.26-.39-.16.21-.08-.31,1.96-1.66,2.22-1.9,1.98-1.81,3.22-4.48,3.08-7.17-.28-5.26-4.7-9.28-9.06-11.61-2.4-1.28-5.76-.68-7.11,1.86-1.27,2.41-.7,5.74,1.86,7.11.77.41,1.49.87,2.21,1.35,1.04.7-.76-.72.15.13.32.3.65.59.96.9.13.13.25.27.37.41.36.44.31.37-.15-.21.16,0,.43.9.53.87-.29-.75-.34-.86-.15-.35l.08.3c-.08-.88-.1-1.03-.07-.47-.02.56,0,.41.08-.47-.18.91.62-.9,0-.04.75-1.04.11-.19-.14.03-.63.58-1.36,1.04-1.97,1.64-1.54,1.51-2.67,3.54-3.15,5.64-.79,3.48-.16,6.89-.27,10.4-.03,1.01.32-1.21-.02.06-.1.37-.17.74-.28,1.1-.05.15-.1.31-.16.46-.14.37-.06.2.22-.51-.17.11-.31.62-.43.82-.1.17-.21.34-.33.5.52-.65.61-.78.25-.38-.33.27-1.05.68.19-.11-.81.51,1.17-.32.25-.07-.81.21,1.38.02-.04-.05-2.72-.14-5.31,2.49-5.19,5.19.13,2.93,2.28,5.05,5.19,5.19h0Z"/>
        <path class="cls-1" d="M247.01,573.79c.48.1.94.25,1.42.37,1.14.28-.72-.39-.06-.06.22.11.44.21.65.32.84.44,1.95.99,2.61,1.68-.8-.84-.3-.23-.02,0,.19.16.39.32.58.48.39.32.77.65,1.15.98.86.74,1.72,1.49,2.61,2.2,4.07,3.24,8.57,5.3,13.63,6.49,4.38,1.03,8.87,1.54,13.2,2.79,1.01.29,1.99.63,2.97,1,1.03.39-.15-.08-.16-.07.03-.02.61.28.71.33.6.29,1.19.61,1.76.95,2.08,1.25,3.96,2.81,6.07,4.01,5.24,3,12.91,3.87,17.26-1.22-1.68.45-3.37.89-5.05,1.34,4.24,1.22,8.49,2.43,12.73,3.65,2.08.6,4.16,1.19,6.24,1.79.96.28,1.92.55,2.88.83.83.24,1.71.53,2.58.53s1.72-.3,2.55-.57c8.2-2.72,16.4-5.43,24.61-8.15,1.76-.58,3.35-1.08,4.82-2.27.94-.76,1.86-1.54,2.78-2.31,1.86-1.54,3.71-3.08,5.57-4.61,2.1-1.74,1.94-5.57,0-7.35-2.23-2.05-5.1-1.86-7.35,0-2.85,2.36-5.69,4.72-8.54,7.07.76-.45,1.53-.89,2.29-1.34-9.37,3.1-18.75,6.21-28.12,9.31h2.76c-7.69-2.2-15.37-4.41-23.06-6.61-1.67-.48-3.89-.03-5.05,1.34-.15.17-.31.33-.45.49-.63.74.2-.29.28-.2.07.08-.58.26-.56.33-.04-.27,1.1-.33.33-.15-.21.05-.44.11-.64.17-.76.23.25-.3.38-.03-.01-.02-1.42,0-1.55,0-.71,0,1.03.22.35.05-.22-.06-.45-.09-.68-.15-.2-.05-1.51-.55-.88-.25s-.02-.01-.12-.07c-.25-.13-.51-.26-.76-.39-.62-.34-1.23-.72-1.82-1.11-1.89-1.24-3.67-2.65-5.68-3.71-2.18-1.14-4.52-2.04-6.89-2.71-4.15-1.17-8.43-1.69-12.63-2.64-1.02-.23-2.04-.49-3.04-.79-.5-.15-.99-.31-1.48-.48-.24-.09-.49-.17-.73-.27-.15-.06-1.15-.52-.46-.18.65.32-.1-.06-.26-.14-.23-.11-.47-.23-.69-.35-.46-.24-.91-.5-1.36-.77-.38-.23-.75-.48-1.11-.74-.17-.12-.45-.28-.6-.44.87.9.1.07-.13-.12-4.01-3.29-7.79-7.2-13.07-8.29-2.65-.55-5.74.77-6.39,3.63-.59,2.6.78,5.8,3.63,6.39h0Z"/>
        <path class="cls-1" d="M259.71,312.47c5.2,7.25,10.47,14.46,15.58,21.78,2.38,3.41,4.69,6.89,6.71,10.53.99,1.79,1.89,3.61,2.73,5.47.41.91.09.19,0,0,.08.21.17.41.25.62.19.49.38.97.56,1.46.36.98.69,1.98.98,2.98.58,1.99,1.11,4.06,1.33,6.12-.1-.94-.01-.01.02.39.05.52.09,1.03.11,1.55.05,1.03.06,2.07.02,3.1-.02.52-.05,1.03-.09,1.55-.04.41-.09,1.32-.02.38-.08,1.03-.38,2.05-.6,3.05-.69,3.09.46,5.75,3.03,7.53,2.1,1.45,4.49,1.32,6.84,1.93.2.05.48.2.68.21-.24-.01-1.3-.62-.59-.19.15.09-1.1-.86-.73-.54.2.18-.66-.93-.76-1.19-.18-.43-.45-1.09-.24-1.94.3-1.19-.01-.08-.17.28-.28.62-.57,1.25-.76,1.9-.29.96-.41,2-.45,2.99-.15,3.43,1.28,6.62,2.52,9.72.3.74.59,1.49.83,2.25.21.65.26,1.43.52,2.05-.03-.06-.1-1.39-.09-.58,0,.18.02.35.02.52,0,.13,0,.26,0,.39,0,.63-.36.41.08-.49-.09.19-.43,1.24-.04.37s-.24.35-.39.57c-1.54,2.25-.49,5.86,1.86,7.11,2.64,1.4,5.46.53,7.11-1.86,1.99-2.89,2.08-6.57,1.22-9.87-.66-2.53-1.91-4.87-2.73-7.35-.2-.61-.35-1.22-.51-1.84-.03-.12-.03-.31-.08-.42-.01-.02.1,1.21.09.68,0-.32-.05-.64-.05-.97,0-.14.06-.43.02-.55,0,.01-.25,1.17-.1.71.08-.22.18-.57.2-.8.04-.44-.24.54-.27.59.11-.14.18-.36.25-.52.33-.68.7-1.38.91-2.11,1.26-4.33-1.62-8.22-5.81-9.18-1.09-.25-2.21-.32-3.3-.55-.25-.05-.5-.11-.75-.18-.1-.03-.2-.07-.3-.1-.64-.15.65.27.69.29-.94-.48.7.65.31.27-.1-.1.79,1.1.55.69-.22-.38.48,1.39.3.62v2.76c2.61-9.96.63-20.18-3.42-29.45-3.78-8.64-9.52-16.23-14.98-23.85-3.38-4.71-6.75-9.42-10.13-14.13-1.58-2.2-4.6-3.48-7.11-1.86-2.18,1.41-3.56,4.74-1.86,7.11h0Z"/>
        <path class="cls-1" d="M580.98,459.8c-2.06,2.47-2.77,5.34-1.93,8.48.59,2.18,1.85,3.84,3.01,5.71.25.41.56.84.71,1.29-.09-.25-.22-.91-.12-.1,0-.04-.03-1.01-.06-.42s.07-.41.08-.42c.29-.97.25-.5.08-.19-.38.73-.75,1.49-1.02,2.26-1.32,3.78,1.04,7.54,4.76,8.56.86.24,1.64.76-.1-.61-.87-.69-1.09-.71-1.37-1.59.25.78-.1-.41-.05-.51-.1.2.04.88.05,1.09.05.76.1,1.55.31,2.28.96,3.32,3.65,4.67,6.63,5.85,4.07,1.61,8.61,2.33,12.99,2.22,5.34-.13,10.47-1.48,15.23-3.87,2.43-1.22,3.32-4.85,1.86-7.11-1.6-2.49-4.51-3.17-7.11-1.86-.37.19-.75.37-1.12.54-.91.43.65-.23-.29.12-.85.31-1.69.61-2.56.86-.8.23-1.61.42-2.43.58-.41.08-.82.14-1.23.21-.62.11.34-.04.35-.05-.14.1-.65.07-.83.08-1.73.15-3.47.15-5.2,0-.2-.02-1.44-.16-.76-.07s-.55-.1-.75-.13c-.89-.16-1.77-.37-2.63-.61-.8-.23-1.58-.5-2.37-.78-.95-.34.61.31-.3-.11-.16-.07-.39-.23-.56-.26-.4-.23-.29-.07.33.48.33.24.55.55.66.93l.14.36c-.09-.41-.1-.38-.02.1.1.83.03.25.03.08,0-.31-.02-.63-.04-.93-.1-1.38-.32-2.65-1.01-3.87-.71-1.27-1.87-2.26-3.2-2.82-.48-.2-.91-.39-1.41-.51-.16-.04-.33-.08-.49-.11l-.31-.09,2.69,4.64s-.46.91-.17.4c.09-.17.18-.34.26-.51.31-.62.61-1.26.84-1.91.45-1.3.46-2.64.28-3.98-.33-2.45-1.62-4.45-2.97-6.46-.23-.35-.44-.71-.65-1.08-.06-.11-.38-.68-.05-.04s0-.05-.06-.22c-.03-.09-.07-.45-.13-.51.18.16,0,1.12.08.37,0-.02-.27,1.12-.09.58.07-.27.04-.21-.1.17-.1.33-.29.61-.55.84,1.74-2.08,2.19-5.33,0-7.35-1.92-1.76-5.48-2.23-7.35,0h0Z"/>
        <g>
          <polygon class="cls-6" points="321.4 262.05 318.02 262.98 307.66 263.05 316.01 260.54 312.97 259.55 317.25 257.68 313.62 256.72 305.71 256.1 314.89 253.86 312.54 252.69 308.23 251.61 305.74 250.35 310.23 248.69 308.87 247.35 307.52 245.99 317.22 244.34 320.59 242.95 315.09 241.69 304.98 240.3 313.61 238.97 314.93 237.64 306.29 236 315.32 234.95 305.5 233.08 306.68 231.71 310.93 230.58 313.84 229.43 311.81 227.87 314.2 226.73 307.7 224.6 317.79 224.44 313.11 222.45 311.91 220.88 315.77 220.09 321.09 219.63 320.12 218.13 323.12 217.38 314.79 214.37 312.59 212.48 320.83 212.93 322.37 211.96 311.51 207.87 318.21 208.18 320.64 207.45 310.57 203.13 320.77 204.72 322.13 203.76 321.84 202.27 311.94 197.46 318.54 198.27 317.19 196.3 325.74 198.09 316.95 193.18 321.28 193.43 319.97 191.38 319.18 189.5 324.53 190.4 327.98 190.54 330.31 190.23 322.84 185.02 328 186.13 329.3 185.31 330.06 184.22 327.6 181.29 333.72 183.3 323.55 175.63 336.56 182.04 334.13 178.98 326.99 172.69 335.05 176.44 336.14 175.6 337.44 174.92 338.42 174.03 332.28 167.71 337.62 170.1 332.87 164.55 335.06 164.5 334.55 162.2 343.16 167.86 345.93 168.64 343.41 164.56 337.05 156.57 345.77 163.18 338.75 154.03 349.15 162.99 342 153.12 347.1 156.77 348.79 156.67 355.14 159.87 349.42 153.96 348.51 152.14 358.31 154.46 357.32 152.6 352.2 149.19 352.83 147.97 354.7 147.21 359.37 147.47 353.86 144 349.02 140.82 355.63 141.74 348.98 137.96 351.17 137.31 354.53 137.04 361.86 138.1 350.14 132.71 352.16 131.97 351.96 130.5 362.32 132.45 355.5 128.83 352.27 126.39 364.27 128.75 366.76 128.08 362.79 125.42 367.45 125.4 365.85 123.48 358.4 119.86 364.99 120.37 364.97 118.94 356.58 115.16 363.94 115.82 367.77 115.46 364.81 113.24 356.8 109.7 359.08 108.93 358.78 107.47 362.75 107.11 368.08 107.05 366.37 105.23 366.88 103.95 364.21 101.92 370.57 102.04 366.72 99.74 360.39 96.9 368.32 97.33 373.69 97.14 367.62 94.4 362.33 91.87 371.3 92.41 367.47 90.21 375.01 90.39 371.33 88.23 370.68 86.71 365.83 84.36 373.21 84.44 370.85 82.59 376 82.21 373.17 80.28 363.47 77.05 367.23 76.39 375 76.49 369.67 74.11 374.23 73.59 371.08 71.62 373.69 70.74 372.06 69.05 379.1 69.04 373.58 66.6 378.87 66.28 375.06 64.14 375.37 62.83 378.19 62.05 376.85 60.39 375.21 58.64 381.61 58.78 378.02 56.56 370.68 53.27 379.33 54.17 380.53 53.15 371.46 49.01 383.78 51.5 373.66 46.67 385.6 49.58 385.67 48.34 381.77 45.39 380 43.15 384.51 43.89 380.5 40.33 386.35 42.16 385.17 40.02 383.61 37.43 378.7 31.92 385.29 35.33 382.29 30.5 387.68 33.96 391.42 36.54 386.35 27.54 390.51 31.13 388.18 23.83 391.45 26.68 392.91 26.09 395.62 29.85 396.78 29.16 398.88 35.32 399.3 28.05 400.6 30.25 402.59 22.42 403.27 28.7 405.56 25.2 406.9 26.29 408.73 26.01 405.05 36.56 411.17 27.82 408.86 34.97 411.09 33.67 415.8 27.96 416.97 28.7 412.08 40.02 418.03 32.4 419.16 33.16 420.69 33.27 416.8 42.33 423.39 34.12 426.22 32.18 425.31 36.23 423.97 40.87 422.93 44.94 424.73 44.6 426.77 43.94 426.93 46.09 426.51 49.05 435.33 38.62 436.16 39.86 437.73 40.03 430.03 53.08 435.79 47.41 435.69 49.79 434.41 53.73 435.68 54.22 437.93 53.46 445.55 45.85 444.29 49.69 444.81 51.23 447.82 49.7 443.04 57.67 444.09 58.48 447.2 56.86 448.48 57.44 445.5 62.91 446.29 64 454.6 56.68 448.22 65.75 457.94 57.14 451.85 65.7 451.51 67.99 458.49 62.62 461.64 61.36 457.76 67.26 459.31 67.62 458.4 70.39 462.38 68.41 467.3 65.61 461.41 73.06 462.57 73.8 466.22 72.29 467.04 73.39 460.9 80.61 468.41 75.81 462.83 82.35 471.13 77.08 469.35 80.32 472.08 79.84 472.2 81.48 478.49 78.28 469.09 87.29 479.39 81.14 477.43 84.34 478.68 85.14 477.33 87.8 480.37 87.32 481.36 88.32 476.21 93.48 476.01 95.2 481.32 93.31 483.57 93.48 487.51 92.64 476.35 101.14 488.6 95.28 478.7 102.72 491.74 96.72 489.36 99.7 482.89 104.85 489.7 102.68 481.96 108.31 487.15 107.1 483.05 110.66 495.24 106.14 484.56 112.8 495.44 109.18 491.63 112.45 487.43 115.79 488.09 116.93 499.41 113.63 500.16 114.86 496.5 117.84 499.18 114.03 496.35 115.38 496.37 126.2 498.14 122.95 500.54 114.74 501.53 117.69 503.18 115.51 503.16 126.35 504.74 124.67 507.54 113.57 508.64 115.7 509.2 121.82 510.73 120.6 512.19 119.97 514.2 115.14 515 119.42 515.02 129.24 517.75 119.3 517.75 129.07 519.83 123.97 522.3 116.31 523.52 117.37 524.9 117.38 526.34 117.04 526.05 128.07 527.05 130.38 530.47 117.26 529.96 129.07 532.74 120.43 534.33 119.3 535.41 121.18 536.7 121.81 537.06 127.24 538.85 125.22 541.52 119.94 541.36 126.59 539.3 125.49 549.3 130.98 548.75 128.84 546.82 125.82 539.14 119.18 544.92 121.34 549.4 122.51 545.01 118.31 547.06 117.96 553.99 120.21 553.15 118.13 556.13 118.01 558.13 117.33 549.91 111.97 553.56 112.09 553.49 110.56 558.74 111.09 556.8 108.82 555.68 106.94 560.37 106.92 549.71 102.34 560.48 103.87 551.78 100.27 560.51 100.86 551.04 97.51 558.03 97.47 560.6 96.48 560.01 94.97 548.88 92.06 551.16 91.04 553.19 89.94 549.19 88.02 554.32 87.29 557.71 86.44 556.96 84.89 564.85 85.75 551.06 79.51 554.54 78.77 562.06 81.73 555.07 73.45 561.67 78.06 562.3 76.43 562.18 72.71 563.3 70.89 565.2 71.27 566.3 69.2 568.73 72.87 570.02 72.02 571.14 69.91 572.25 67.16 573.9 68.48 575.32 68.18 577.25 74.15 578.74 76.22 579.56 67.64 581.13 70.75 582.88 79.45 583.73 75.27 583.79 78.46 589.48 68.85 585.71 78.83 587.71 77.88 588.73 78.6 587.68 81.81 594.38 76.18 597.76 74.8 597.97 76.76 594.63 81.88 592.58 85.48 602.35 78.88 600.03 82.69 604.22 81.2 600.77 85.68 605.23 84.12 598.98 90.35 604.71 88 604.94 89.53 604.95 91.2 609.21 90.12 598.11 98.71 608.49 93.89 602.41 99.13 606.89 98.05 613.07 96.1 603.59 103 612.42 99.68 614.76 100.01 603.94 107.26 608.78 106.24 617.28 103.46 611.65 107.81 611.57 109.35 605.64 113.67 611.31 112.45 620.95 109.49 610.89 115.57 612.19 116.45 609.27 119.17 616.76 117.4 621 117.08 617.82 119.9 619.88 120.52 617.26 123.05 622.23 122.54 621.59 124.27 626.95 123.69 622.02 127.03 622.59 128.28 627.55 127.93 616.75 133.27 619.62 133.67 629.42 131.71 617.82 137.13 621.46 137.31 620.18 139.16 632.19 136.67 628.51 139.31 628.06 140.89 623.48 143.75 623.93 145.02 625.91 145.83 629.7 146.12 627.27 148.26 633.5 147.88 635 148.9 625.92 152.85 634.06 152.03 636.09 152.91 628.82 156.27 631.66 156.93 637.05 156.96 628.05 160.66 634.5 160.45 637.83 161.06 636.97 162.69 625.37 166.84 637.98 165.29 633.08 167.83 639.01 167.9 633.88 170.44 636.36 171.3 630.57 173.93 633.83 174.63 633.68 176.05 640.61 176.03 633.54 178.85 639.64 179.04 629.18 182.45 627.6 184.12 642.1 182.79 632.82 185.89 630.78 187.62 644.1 186.65 635.75 189.5 637.67 190.56 634.26 192.51 642.99 192.47 635.4 195.08 640.72 195.63 641.23 196.36 642.54 196.59 634.02 202.44 634.83 203.5 644.28 200.42 644.9 201.68 638.53 206.12 643.13 205.53 643.96 206.66 637.4 210.89 641.16 210.76 642.72 211.58 648.99 210.62 642.91 214.37 641.86 216.16 641.34 217.72 645.39 217.75 642.8 219.99 647.05 220.05 649.63 220.7 647.03 222.88 655.86 221.87 650.27 224.81 656.55 224.67 654.31 226.68 657.64 227.38 655.56 229.3 653.46 231.17 644.05 234.38 651.34 234.38 656.22 234.95 650.21 237.31 653.79 238.15 648.63 240.24 645.95 241.91 645.38 243.28 655.61 243.51 653.18 245.14 654.71 246.38 652.07 247.96 649.27 249.49 656.62 250.41 659.47 251.68 645.9 253.59 655.25 254.62 647.99 256.14 654.55 257.38 652.82 258.76 648.15 260.08 645.69 261.37 652 262.8 644.71 263.94 647.52 265.34 653.2 266.91 650.01 268.1 658.28 269.92 647.93 270.65 646.18 271.85 650.73 273.53 656.68 275.38 654.13 276.54 657.21 278.2 651.75 279.04 648.53 280.05 651.23 281.7 654.75 283.47 659.03 285.37 649.2 285.52 643.61 286.14 643.74 287.49 646.06 289.16 653.96 291.65 642.23 291.29 651.6 294.06 653.87 295.8 652.01 296.88 652.13 298.29 650.47 299.39 646.45 300.08 652.73 302.55 654.77 304.3 652.12 305.22 642.51 304.85 639.55 305.66 652.39 309.45 650.18 310.41 640.78 309.97 650.84 313.32 638.86 312.32 646.19 315.16 646.98 316.71 644.04 317.49 645.46 319.17 646.3 320.74 646.54 322.18 649.28 324.15 646.2 324.89 637.39 324.38 650.9 328.7 642.93 328.35 647.91 330.84 639.73 330.43 646.35 333.3 646.33 334.69 636.69 333.93 635.38 335.03 637.52 336.91 643.09 339.57 641.37 340.49 646.99 341.67 647.71 343.05 642.56 344.45 635.83 345.78 635.78 347.1 638.82 348.47 639.49 349.83 647.33 351.45 639.8 352.53 637.73 353.77 645.19 355.55 640.52 356.63 645.46 358.38 643.27 359.59 631.69 359.85 640.02 362.02 643.07 363.75 644.22 365.3 642.51 366.48 633.23 366.48 633.55 367.83 634.99 369.4 639.93 371.65 632.28 371.52 634.84 373.38 634.23 374.59 634.39 375.97 643.24 379.57 632.25 378.12 640.31 381.73 633.05 381.05 629.15 381.21 635.31 384.56 629.23 383.89 626.47 384.25 634.29 388.52 639.15 391.92 636.84 392.54 638.55 394.84 627.75 391.54 636.78 397.25 634.58 397.79 627.16 395.56 630.48 398.83 625.37 397.54 621.26 396.62 630.46 403.66 627.15 403.25 620.77 400.66 618.94 400.91 618.34 401.97 626.5 409.59 617.95 404.75 615.88 404.67 623.9 413 618.45 410.13 614.52 408.32 616.59 411.98 616.1 413.33 620.95 420.18 614.14 415.11 613.44 416.29 616.35 421.66 610.34 416.73 615.54 425.25 607.64 417.48 605.31 416.48 612.08 428.04 609.41 426.79 609.11 428.93 607.8 429.6 605.19 428.12 598.5 419.54 602.38 428.89 603.67 434.18 601.27 432.8 598.33 430.14 598.08 432.81 595.62 430.87 595.09 433.05 594.71 435.75 593.45 436.47 588.55 427.83 590.48 436.69 589 436.79 585.11 429.72 586.05 436.83 581.33 426.33 584.06 439.93 582.86 440.89 579.01 432.07 579.06 437.58 577.76 438.05 575.48 434.28 575.92 442.57 572.8 434.47 572.16 438.14 571.68 443.07 569.13 436.61 566.82 430.79 566.28 435.78 564.46 432.41 563.76 437.05 562.29 436.03 560.41 431.17 560.02 439.95 558.85 442.09 557.18 438.75 555.32 432.14 554.94 445.73 552.92 435.53 551.49 433.47 550.63 443.63 549.37 447.18 547.9 445.25 546.31 436.37 544.97 436.05 543.71 445.93 542.21 432.09 540.97 442.41 539.58 441.23 538.29 433.79 536.84 441.05 535.72 433.37 534.19 439.07 532.68 442 531.73 435.16 530.09 439.59 528.12 446.95 528.15 431.08 525.65 443.03 525.03 436.03 522.95 442.16 521.01 446.35 520.54 439.37 519.57 436.6 519.23 430.1 516.54 438.44 514.8 440.54 514.18 436.2 512.73 436.65 511.47 436.04 510.53 433.92 509.36 432.99 505.75 443.13 505.33 438.65 503.6 439.99 501.5 442.72 501.96 435.12 499.96 437.42 501.13 427.73 499.67 428.08 496.73 433.68 493.84 438.79 496.1 426.25 494.82 425.94 489.38 439.06 492.03 426.04 490.13 427.61 489.05 426.64 485.64 432.6 487.04 424.28 486.24 422.57 481.52 431.93 482.03 426.47 479.28 430.04 481.57 420.01 479.05 422.93 478.42 420.88 472.03 433.56 474.07 424.63 474.12 420.91 473.42 419.08 471.19 421.01 471.28 417.32 466.16 425.95 466.48 421.76 463.97 424.13 465.31 417.71 464.8 415.57 459.01 425.12 460.45 418.68 462.08 411.95 458.2 417.1 454.05 422.7 457.29 412.75 450.4 423.91 449.31 422.98 449.87 418.71 448.45 418.49 451.1 410.18 450.17 409.06 448.8 408.8 448.09 407.27 442.28 415.47 440.17 416.54 441.98 410.21 442 407.31 440.81 406.68 439.07 407.06 436.15 409.55 433.73 411.09 432.64 410.23 436.73 400.22 428.6 411.79 433.22 400.98 428.79 405.95 432.51 396.85 428.57 400.93 422.87 407.9 423.25 404.58 421.29 405.18 426.62 393.72 419.52 402.8 418.74 401.45 418.94 398.53 416.45 399.96 415.85 398.33 414.62 397.74 412.8 398.06 410.53 399.05 415.76 388.38 415.7 386 413.96 386.22 411.69 387.24 410.32 386.87 407.84 388.16 408.97 384.04 403.33 390 407.07 382.05 399.92 390.16 400.81 386.43 398.56 387.3 402.97 378.55 396.46 385.53 393.14 387.89 397.72 379.01 390.23 387.23 390.27 384.81 395.37 375.35 388.09 383.13 385.71 384.07 384.56 383.31 386.49 378.37 385.54 377.36 388.66 370.89 381.05 378.82 380 377.94 383.13 371.54 384.74 367.21 377.27 374.75 383.31 364.69 382.83 363.13 382.24 361.72 376.57 366.8 370.99 371.68 375.84 363.37 376.86 359.95 367.83 369.03 370.61 363.44 374.66 356.34 373.88 355.2 368.43 359.7 366.2 360.27 364.88 359.74 363.73 359.01 363.73 356.94 367.94 352.73 368.31 351.66 368.06 350.26 363.16 351.3 365.59 348.5 353.02 353.55 356.97 349.95 351.37 351.35 351.33 349.84 357.4 345.14 360.34 342.07 349.02 346.46 351.47 343.66 357.56 338.94 359.49 336.4 354.3 337.59 353.69 336.38 352.34 335.56 345.84 337.43 357.01 330.05 347.23 333.64 354.12 328.51 343.85 332.35 349.32 327.96 345.66 328.35 348.99 325.07 340.15 328.17 350.21 321.38 346.65 321.71 342.64 322.28 346.28 318.84 337.65 321.83 335.84 321.25 338.24 318.46 348.54 311.54 339.64 314.66 347 309.28 333.54 314.8 343.09 308.27 344.45 306.03 335.72 309.07 343.78 303.33 341.11 303.2 339.56 302.49 330.94 305.47 333.54 302.58 337.94 298.75 329.46 301.65 329.73 299.98 326.73 300.02 335.37 293.97 335.4 292.42 326.87 295.36 329.64 292.38 323.2 294.21 329.16 289.56 323.74 290.87 321.93 290.29 324.02 287.66 323.02 286.64 328.89 282.04 329.61 280.13 319.85 283.71 319.94 282.12 326.09 277.37 324.35 276.75 324.8 274.98 316.8 277.63 324.31 272.17 313.24 276.43 320.63 271.03 312.9 273.54 319.51 268.53 319.62 266.94 319.07 265.69 312.89 263.42 321.4 262.05"/>
          <path class="cls-2" d="M428.94,252.37c37.28-61.02,71.14-58.9,86.39-50.47,13.82,7.64,24,41.14-3.43,71.99-26.22,29.49-82.96-21.52-82.96-21.52Z"/>
          <path class="cls-2" d="M562.06,292.62c16.91-43.24,44.25-40.55,54.11-33.78,11.04,7.58,11.94,25.53-2.85,67.43-11.18,31.7-44.41-17.76-44.41-17.76l-6.86-15.89Z"/>
          <path class="cls-1" d="M570.88,292.78c9.72-23.99,26.46-32.24,38.05-27.87,8.07,3.05,15.22,19.39-9.33,65.89-13.83,3.36-28.72-38.02-28.72-38.02Z"/>
          <path class="cls-4" d="M447.78,247.71c21.5-35.06,45.34-43.97,62.24-35.37,11,5.6,14.65,40.04-12,55l-39.26-5.14-10.99-14.49Z"/>
          <polygon class="cls-2" points="431.22 239.36 429.39 244.11 427.64 245.9 425.16 240.24 423.25 241.18 421.98 245.33 419.67 243.54 417.45 242.72 416.33 245.95 413.44 243.25 413.81 250.05 412.04 250.44 410.22 250.78 407.7 249.77 404.41 247.58 402.36 248.03 403.84 254.21 400.86 253.03 401.14 256.69 398.23 255.83 395.73 255.73 396.68 259.77 391.94 257.29 394.51 262.75 392.89 263.68 390.07 263.55 390.75 266.62 385.88 264.97 384.09 266.04 381.66 266.69 381.44 268.97 383.33 272.53 384.01 275.14 382.09 276.13 378.06 276.06 378.37 278.4 374.31 278.59 373.23 280.3 373.6 282.62 377.71 286.31 371.82 286.18 371.8 288.26 371.53 290.23 376.79 293.68 373.75 294.8 368.51 295.58 368.7 297.65 371.15 300.07 367.6 301.5 371.64 303.97 373.52 306.04 370.4 307.68 369.4 309.55 367.74 311.46 370.62 313.4 370.27 315.31 371.2 317.17 372.15 318.98 368.99 321.21 374.78 322.4 368.56 325.23 373.45 326.34 375.69 327.77 371.79 330.55 370.79 332.8 376.26 333.27 376.99 334.96 377.85 336.6 378.78 338.21 376.71 340.97 379.27 341.94 374.84 345.95 379.65 345.83 377.29 349.13 380.88 349.42 379.9 352.13 380.35 354.11 381.44 355.72 383.59 356.63 382.33 359.81 385.18 360.19 387.17 361.11 388.38 362.58 388.04 365.31 392.55 364.02 391.14 367.75 395.53 366.33 391.99 372.27 393.32 373.73 394.78 375.05 396.81 375.77 401.35 373.65 398.97 379.23 403.5 376.91 402.71 380.87 406.26 379.51 408.55 379.63 407.72 383.93 411.1 382.52 413.34 382.6 413.01 386.47 417.11 383.67 417.74 386.17 416.8 391.26 420.31 389.21 423.03 388.41 421.74 394.19 425.77 391.2 428.41 390.48 429 393.19 429.99 395.26 432.65 394.47 434.78 394.57 433.62 400.42 434.82 402.18 436.55 403.02 441.07 398.83 442.71 399.78 444.74 399.99 445.02 403.47 446.61 404.54 447.87 406.23 448.88 408.43 451.86 406.81 452.39 409.99 454.75 409.54 454.89 413.58 457.82 411.95 461.7 408.31 461.78 412.54 464.56 411.08 466.72 410.93 465.54 418.1 467.8 417.76 470.96 415.34 472.28 417.06 475.05 415.43 476.06 417.91 478.6 416.73 477.91 423.49 479.81 423.93 482.04 423.53 483.8 424.29 485.3 425.79 488.38 422.94 490.88 421.55 492.64 422.22 493.69 425.02 496.37 422.94 497.42 425.85 499.68 424.96 501.32 426.04 501.55 432.12 504.57 428.49 505.46 432.55 508.69 427.7 509.95 430.49 511.97 430.23 513.03 434.26 516.13 428.87 516.97 434.31 518.98 434.1 521.35 431.65 523.19 432.15 524.52 436.23 526.68 434.69 528.31 437.33 530.25 437.64 532.45 434.94 534.4 434.47 536.51 430.9 538.35 431.1 540.13 434.46 542.03 433.72 543.88 430.82 545.79 432.98 547.92 437.68 549.54 432.92 551.94 438.33 553.4 433.59 555.09 432.01 557.35 434.29 559.62 435.96 561.49 435.24 563.29 434.3 564.99 433.1 566.85 432.56 567.23 427.4 570.04 429.95 570.68 426.3 573.31 427.91 577.05 431.71 577.01 426.96 579.15 426.97 581.17 426.66 582.54 425.17 582.24 421.09 583.96 420.4 585.37 419.21 589.64 421.83 588.08 416.77 591.97 418.52 593.13 416.94 596.56 417.77 597.49 415.88 599.63 415.19 597.6 410.69 597.08 407.78 598.14 406.29 604.65 409.01 601.15 403.97 604.9 404.34 607.27 403.6 606.19 400.6 609.73 400.52 608.36 397.46 607.32 394.71 607.31 392.59 609.96 391.86 614.44 391.93 611.97 388.63 616.08 388.25 616.18 386.1 612.43 382.95 612.5 381.12 611.99 379.22 617.77 378.19 616.56 376.08 612.98 374.01 613.72 372.22 616.49 370.27 614.26 368.52 614.11 366.67 614.92 364.66 614.06 362.89 611.6 361.5 614.82 358.83 613.32 357.25 612.02 355.65 615.79 352.42 613.92 350.98 610.25 350.29 610.2 348.27 607.3 347.45 608.09 345.05 604.87 344.5 607.26 341.23 609.66 337.81 603 339.21 605.34 335.73 602.56 335.14 600.19 334.37 604.47 329.44 600.55 329.67 602.03 326.36 595.7 328.4 596.22 325.73 593.45 325.42 594.13 322.56 596.82 318.05 595.62 316.5 594.25 315.1 588.2 317.63 587.68 315.59 590.53 310.56 588.07 310.14 584.42 310.87 587.17 305.67 580.62 309.25 579.91 307.3 582.32 302.2 578.21 303.62 579 300.03 577.96 298.3 573.6 300.17 575.28 295.46 571.2 297.13 570.53 294.99 568.46 294.46 568.07 291.94 564.67 293.05 565.06 289.53 564.36 287.3 563.65 285.05 558.06 289.2 560.49 282.75 558.19 282.58 556.47 281.66 553.13 283.04 550.61 283.35 552.82 276.68 550 277.4 546.59 279.11 546.78 275.27 543.49 276.89 541.34 276.73 542.7 270.79 541.12 269.62 536.24 274.19 535.94 270.87 534.71 269.12 530.78 272.32 530.78 268.3 528.96 267.63 527.13 267.02 525.91 265.18 524.02 264.67 521.47 265.54 519.24 265.84 519.58 260.51 518.59 257.98 514.97 261.4 514.47 257.69 512.44 257.5 508.5 262.11 506.91 260.99 505.4 259.66 505.15 254.9 502.39 256.83 501.57 253.42 498.47 256.48 496.08 257.66 495.31 253.91 494.37 250.49 492.85 248.83 490.27 250.69 487.51 253.37 485.39 253.92 484.75 248.94 482.73 249.07 481.08 247.7 478.23 251.38 477.78 244.77 475.98 243.84 472.63 250.41 470.59 251.02 468.83 250.18 467.48 246.95 465.84 245.15 463.63 246.8 461.84 245.84 460.16 243.96 458.39 242.59 455.78 248.11 453.91 247.92 452.11 246.91 450.28 246.11 448.74 241.38 446.73 242.28 444.7 243.83 442.88 241.71 440.84 244.19 439.04 240.27 437.1 239.9 435.08 246.21 433.19 244.33 431.22 239.36"/>
          <path class="cls-3" d="M521.66,259.75c.21-.31.48-.87.79-1.12.28-.23,1.59,1.06,1.94.87.32-.17-.06-1.99.32-2.12.35-.12,1.06.82,1.45.72.36-.09.72-.18,1.11-.24.37-.06.71-.36,1.11-.4.37-.03.79.65,1.18.63s.73-.59,1.12-.59.74.47,1.13.48.82-1.19,1.21-1.16.66,1.31,1.04,1.35.84-.72,1.23-.67.82-.31,1.21-.25.69.55,1.07.62.85-.34,1.23-.27.41,1.79.79,1.87.72.19,1.1.27.79-.09,1.17,0,1.18-1.46,1.55-1.36.35,1.59.72,1.7,1.11-1.03,1.48-.91.67.45,1.04.57.4,1.23.76,1.36.49.87.85,1,1.17-.96,1.53-.82.63.49.99.63.91-.19,1.27-.04.27,1.3.62,1.46.78.12,1.13.28,1.1-.52,1.45-.36.03,1.64.38,1.82,1.16-.57,1.5-.38.41.85.74,1.04,1.24-.6,1.57-.4-.05,1.57.27,1.77.92-.03,1.24.18,1.05-.17,1.36.05,0,1.32.31,1.55.48.62.78.85.68.35.98.59.24.87.53,1.12,1.38-.39,1.65-.13,1.15-.04,1.42.23-.38,1.44-.13,1.72,1.23-.04,1.48.25-.66,1.5-.43,1.81.6.47.81.79,1.53-.05,1.73.27-.25,1.04-.08,1.38.87.46,1.02.81.19.79.31,1.15.3.76.39,1.13-1.36,1.02-1.31,1.4,1.82.58,1.84.96-.01.83-.03,1.21-1.67.6-1.72.98.15.73.07,1.1-.32.64-.43,1.01.94,1.11.8,1.47-1.5.16-1.66.51.15.88-.03,1.22.58,1.23.37,1.56-.46.65-.68.96-.22.83-.46,1.14-.56.58-.81.87-1.15.02-1.41.3.19,1.27-.09,1.54-.85.26-1.13.52-1.5-.55-1.8-.3-.11,1.05-.41,1.28-.03,1.23-.34,1.46-.9.1-1.21.32-.45.74-.77.94-1.24-.53-1.57-.33-.77.18-1.1.37.12,1.81-.22,1.99-1.57-1.36-1.91-1.19-.25,1.22-.6,1.38-.93-.22-1.28-.07-.68.34-1.03.48-.48.89-.84,1.02-.98-.5-1.34-.39-.7.26-1.07.37-.45,1.24-.82,1.33-.9-.44-1.28-.35-.79-.07-1.16,0-.77-.05-1.15,0-.64.93-1.02.97-.85-.84-1.23-.81-.71.71-1.09.72-.77.66-1.15.65-.72-1.5-1.1-1.52-.88,1.48-1.26,1.44-.66-.96-1.04-1.02-.65-.56-1.02-.64-.72-.04-1.08-.15-.9.31-1.25.16-.45-.8-.79-.97-.97.21-1.29.02-.9-.04-1.21-.26.25-1.6-.05-1.84-.49-.52-.78-.77-1.38.42-1.66.16-1.08-.02-1.35-.3-.1-.97-.35-1.26.32-1.26.08-1.55-.62-.44-.85-.75-.36-.65-.58-.96-.8-.35-1.01-.67-.13-.8-.33-1.13-.18-.76-.37-1.09-1.29-.14-1.47-.47-.11-.8-.28-1.14-.75-.48-.91-.83-.56-.6-.71-.94-.09-.8-.24-1.15.64-1.07.5-1.43-.71-.54-.83-.9.72-1.03.6-1.39-.57-.6-.67-.96-.54-.62-.64-.99.13-.8.04-1.17-1.21-.5-1.29-.87-.23-.74-.3-1.11.08-.8.02-1.17-.28-.74-.33-1.11,1.08-.89,1.04-1.26-.95-.67-.98-1.05-.18-.76-.2-1.13.84-.78.83-1.15.19-.74.2-1.11-1.62-.84-1.6-1.21,1.31-.67,1.34-1.04-.1-.77-.05-1.14-.85-.92-.78-1.29.19-.77.28-1.14.01-.83.11-1.19,2.02-.18,2.14-.53.18-.69.32-1.04.33-.63.49-.97-.82-1.23-.64-1.57,1.13-.22,1.33-.55-.57-1.28-.36-1.59Z"/>
          <path class="cls-1" d="M542.13,339.46c-2.98,0-6.22-.47-9.27-1.86-3.62-1.65-6.44-4.29-8.43-7.87-8.81,1.33-15.65-.22-20.34-4.62-7.77-7.27-6-19.27-5.92-19.78.38-2.45,2.68-4.14,5.14-3.75,2.45.38,4.13,2.67,3.76,5.12-.02.16-1.07,7.9,3.2,11.87,3.76,3.49,10.68,2.85,15.82,1.7l3.89-.87,1.33,3.76c1.09,3.07,2.8,5.11,5.25,6.24,4.74,2.18,11.45.48,13.63-.37,2.31-.9,4.92.25,5.82,2.56.9,2.31-.23,4.91-2.54,5.82-.31.12-5.31,2.05-11.35,2.05Z"/>
          <ellipse class="cls-5" cx="402.09" cy="250.54" rx="17.18" ry="36.15" transform="translate(40.65 556.82) rotate(-72.2)"/>
          <ellipse class="cls-2" cx="471.48" cy="223.71" rx="6.02" ry="9.47" transform="translate(114.38 604.26) rotate(-72.2)"/>
          <ellipse class="cls-2" cx="583.57" cy="274.03" rx="4.75" ry="8.73" transform="translate(144.29 745.93) rotate(-72.2)"/>
          <polygon class="cls-1" points="374.49 142.82 373.31 141.67 374.76 141.4 377.28 143 377.99 141.5 378.4 139.41 380.63 140.65 382.52 141.33 382.51 138.37 384.12 138.52 385.79 138.86 386.43 137.07 388.23 137.72 389.32 136.86 389.34 133.49 392.01 136.29 392.85 134.76 394.19 134.46 395.84 134.99 397.25 134.94 398.3 133.89 399.38 132.87 400.36 131.55 401.38 130.28 403.38 132.08 404.7 131.78 405.54 129.84 406.59 128.48 408.34 129.72 409.53 128.9 410.44 126.86 412.6 130.03 413.31 127.02 414.75 127.2 415.89 125.91 417.31 125.98 418.78 126.38 420.56 128.61 421.85 128.15 422.75 125.16 423.93 123.66 425.7 126.38 427.04 126.12 428.1 123.47 429.51 123.69 431.12 125.94 432.38 124.89 433.76 125.04 435.2 126.08 436.43 124.16 437.92 126.14 439.29 126.52 440.61 125.75 441.85 122.58 443.25 123.01 444.66 124.85 446.02 124.96 447.38 122.84 448.75 124.88 450.13 123.5 451.51 122.93 452.85 124.54 454.19 125.36 455.61 123.55 456.89 125.79 458.29 124.84 459.63 125.39 460.97 125.76 462.43 124.47 463.69 126 465.14 125.01 466.49 125.33 467.86 125.36 469.08 126.88 470.59 125.58 471.97 125.55 473.38 125.26 474.45 127.84 476.06 126.07 477.72 124.05 477.58 125.4 477.12 125.59 478.1 123.72 476.04 123.09 477.42 121.02 474.07 120.99 474.67 119.24 473.98 118.06 474.51 116.3 473.35 115.34 474.23 113.37 472.59 112.65 470.28 112.32 470.94 110.43 470.13 109.31 471.98 106.7 469.95 106.27 467.76 105.96 466.82 104.93 465.36 104.23 465.89 102.31 463.95 101.92 464.3 100.08 462.51 99.63 462.53 97.99 462.66 96.24 463.76 93.79 459.68 95.01 459.37 93.55 460.73 90.85 459.24 90.24 457.74 89.66 458.44 87.37 457.11 86.65 453.91 87.46 454.23 85.44 455.33 82.72 452.46 83.34 452.44 81.54 452.61 79.55 449.04 80.88 447.6 80.36 447.04 79.02 446.76 77.41 445.64 76.59 445.56 74.75 443.7 74.67 441.93 74.52 441.22 73.31 439.97 72.65 439.85 70.79 439.57 69.08 438.32 68.41 437.43 67.34 436.36 66.49 434.03 67.12 434.41 64.53 433.71 63.21 431.61 63.64 432.11 60.76 428.9 62.73 427.64 62.17 428.77 58.26 425.5 60.52 425.04 58.8 424.2 57.59 423.14 56.71 422.85 54.55 419.76 57.06 420.41 53.17 419.4 52.08 417.79 52.13 416.79 50.97 415.44 50.5 413.28 52.02 411.82 52.04 411.28 49.43 408.98 52.37 408.07 50.66 407.21 47.64 405.65 47.93 404.18 50.04 402.73 49.17 401.59 50.26 401.38 52.28 399.5 51.83 396.67 51.36 398.62 54.37 397.82 55.41 396.14 56.13 397.57 58.14 395.41 58.81 395.53 60.28 392.99 61.01 392.75 62.4 394.42 64.24 394.64 65.69 392.06 66.54 391.53 67.85 393.15 69.59 390.45 70.46 393.99 72.55 393.67 73.88 390.7 74.73 389.47 75.91 392.17 77.81 389.39 78.7 392.26 80.63 392.48 82.07 392.32 83.45 388.99 84.23 391.72 86.15 389.42 87.12 389.06 88.46 388.8 89.81 389.45 91.35 386.15 92.1 389.73 94.23 386.52 94.98 389.63 97.04 388.2 98.14 385.24 98.91 386.18 100.52 388.32 102.42 384.51 102.95 385.49 104.6 385.99 106.13 383.83 107.02 384.85 108.7 382.86 109.61 386.14 111.89 383.66 112.67 384.09 114.21 383.74 115.56 382.01 116.51 380.51 117.51 380.54 118.94 381.29 120.59 379.65 121.54 380.88 123.35 380.56 124.7 381.23 126.37 381.19 127.82 377.09 127.93 380.36 130.48 377.68 131.04 377.26 132.36 377.33 133.84 375.42 134.63 376.09 136.34 374.68 137.3 376.65 139.52 373.64 139.86 374.74 141.77 375.05 143.4 374.49 142.82"/>
          <polygon class="cls-1" points="554.67 131.97 554.56 129.95 555.19 129.07 559.03 130.06 555.26 126.6 559.41 127.67 557.91 125.59 561.49 126.21 560.26 124.32 557.9 121.94 559.35 121.43 559.31 120.22 563.83 121 560.53 118.39 561.18 117.48 562.44 116.79 561.99 115.45 562.71 114.55 563.02 113.49 562.94 112.32 562.57 111.06 566.9 111.21 567.88 110.32 567.8 109.12 567.37 107.84 567.49 106.72 566.92 105.43 568.58 104.68 566.04 102.94 569.29 102.56 565.83 100.62 567.33 99.84 566.9 98.59 570.51 98.39 567.57 96.44 566.61 94.94 570.29 95.02 567.09 92.49 568.29 91.65 572.09 92.64 569.8 89.48 570.27 87.93 571.48 87.01 573.53 87.98 574.7 87.65 576.31 89.83 576.94 85.86 578.28 85.86 579.25 88.43 579.95 90.16 582 86.86 581.63 91.11 582.36 91.8 583.09 92.47 585.3 90.67 587.66 89.11 586.66 92.52 586.79 94.09 590.48 91.26 589.94 93.65 588.81 96.49 589.47 97.3 591.96 96.31 593.2 96.64 594.07 97.34 594.86 98.13 595.16 99.33 594.18 101.57 594.63 102.58 595.17 103.51 597.18 103.32 596.85 104.92 601.37 103 600.52 104.97 602.8 104.76 603.24 105.82 601.62 108.24 601.02 109.93 605.22 108.57 604.77 110.17 603.05 112.51 602.73 113.97 604.86 113.97 605.4 114.93 606.19 115.74 608.79 115.55 605.17 118.79 608.92 118.01 606.77 120.4 610.7 119.58 609.03 121.68 610.62 122.12 609.68 123.81 613.13 123.36 609.75 126.21 611.27 126.7 612.97 127.12 611.87 128.84 615.25 128.53 616.13 129.36 615.46 130.87 611.87 133.6 615.35 133.32 612.82 135.55 617.99 134.63 614.62 137.17 614.28 138.48 617.7 138.32 614.84 140.59 615.99 141.32 616.72 142.22 620.1 142.16 619.26 143.64 617.72 145.35 621.05 145.37 621.07 146.54 622.32 147.29 619.13 149.49 619.21 150.61 622.56 150.72 621.58 152.18 624.13 152.58 621.91 154.38 624.05 154.92 624.81 155.87 624.05 157.23 624.48 158.27 622.24 159.99 621.98 161.18 625.8 161.38 625.77 162.53 623.37 164.22 624.05 165.19 623.86 166.35 626.98 166.83 624 168.56 628.32 168.84 625.36 170.53 628.36 171.12 625.69 172.7 625.57 173.83 625.71 174.92 628.34 175.65 628.31 176.78 627.88 177.95 628.24 179.03 626.6 180.32 628.06 181.28 627.44 182.44 627.26 183.56 630.18 184.46 627.19 185.76 628.82 189.33 629.35 184.64 626.18 185.42 624.58 185.19 626.91 182.21 623.02 183.61 625.18 180.68 624.23 179.99 623.11 179.44 621.18 179.52 623.13 176.6 621.09 176.79 621.15 175.31 621.34 173.7 617.1 175.77 619.78 172.06 618.65 171.55 618.01 170.61 617.28 169.76 615.64 169.72 613.06 170.59 612.48 169.63 613.97 166.7 612.66 166.4 610.26 167.21 608.8 167.11 607.85 166.53 609.59 163.16 610.18 160.92 606.74 162.95 608.28 159.63 607.06 159.31 605.54 159.33 602.74 160.82 604.84 156.72 602.38 157.88 600.36 158.57 601.36 155.62 600.52 154.89 599.72 154.1 599.83 152.14 597.08 153.87 595.57 154.03 594.54 153.57 593.77 152.78 592.72 152.36 591.95 151.54 592.05 149.46 592.31 147.11 591.03 146.99 589.91 146.64 587.58 148.16 586.8 147.34 585.68 147.05 585.61 145.05 583.25 146.81 583.49 144.26 583.72 141.68 580.66 144.74 581.89 140.34 578.51 144.1 579.42 140.15 577.89 140.64 575.68 142.47 575.83 139.8 573.98 140.99 574.87 136.73 573.98 135.99 571.86 137.83 570.91 137.25 569.31 138.1 568.43 137.38 568.38 134.72 565.92 137.66 566.54 133.29 563.68 137.4 564.24 133 562.74 133.78 560.77 135.94 559.65 135.84 558.85 134.88 558.86 131.39 557.44 132.19 555.82 133.81 554.67 131.97"/>
          <ellipse class="cls-9" cx="419.63" cy="246.96" rx="18.04" ry="34.62" transform="translate(24.21 531.07) rotate(-66.17)"/>
          <ellipse class="cls-9" cx="616.17" cy="347.67" rx="14.72" ry="28.25" transform="translate(6.99 707.46) rotate(-60)"/>
        </g>
        <g>
          <polygon class="cls-4" points="341.3 258.59 331.97 264.82 335.47 265.43 334.88 267.89 345.28 265.17 342.74 268.51 342.89 270.6 339.7 274.37 340.63 276.11 342.81 277.2 346.45 277.5 345.12 280.42 350.69 279.61 352.5 280.81 346.02 286.66 353.07 284.91 355.33 285.83 350.4 290.96 353.33 291.5 358.2 290.83 352.08 296.84 357.77 295.63 361.07 295.84 361.21 298.03 353.35 305.45 363.59 301.09 360.8 305.27 366.04 304.09 363.15 308.41 365.86 308.91 362.57 313.61 365.87 313.69 366.71 315.51 372.62 313.61 368.56 319.03 373.85 317.51 367.5 324.8 367.44 327.37 378.57 321.19 373.19 327.94 372.86 330.74 383.05 325 378.45 331.3 380.85 331.86 379.67 335.43 386.63 332.05 382.73 338.02 387.39 336.54 388.97 337.74 390.93 338.59 385.69 346.05 387.22 347.36 394.79 342.94 396.14 344.34 392.73 350.36 396.86 349.07 398.43 350.27 395.14 356.4 398.7 355.61 400.82 356.27 405.94 353.72 403.21 359.5 403.72 361.87 404.6 363.85 408.3 362.71 407.96 366.07 411.75 364.74 414.53 364.51 414.28 367.83 420.66 363.24 418.76 368.59 423.6 365.68 423.67 368.68 426.84 367.76 427.06 370.61 427.32 373.46 423.76 381.48 429.06 377.66 433.04 375.5 431.43 381.09 434.74 379.8 433.69 384.77 433.94 387.95 435.25 389.59 441.75 383.33 442.17 386.27 444.48 386.29 444.86 389.36 445.23 392.54 450.18 388.15 453.07 387.06 448.8 398.27 454.54 392.25 453.16 398.73 457.64 394.72 458.64 396.98 458.49 401.48 459.28 404.3 463.56 400.31 462.52 406.84 465.42 405.5 469.36 401.88 469.99 405.17 474.81 399.41 472.91 408.36 474.15 410.49 477.59 407.57 481.45 403.47 482.44 406.17 485.29 404.31 485.39 409.35 486.27 412.57 488.99 410.95 491.94 408.61 495.07 405.61 494.11 414.22 494.48 419.35 496.47 419.74 499.05 418.26 503.06 412.1 502 422.34 506.3 414.86 508.77 413.31 510.25 415.23 512.22 415.45 513.78 417.17 514.87 420.89 518.15 415.79 520.49 414.29 521.9 416.79 522.04 425.28 523.51 428.05 527.78 417.12 529.19 419.17 530.4 427.35 533.08 418.42 534.13 428.91 536.7 422.41 538.77 421.68 540.45 424.26 542.59 423.02 544.69 422.32 546.73 422.17 549.19 419.88 550.71 422.7 550.98 430.5 555.81 419.07 555.99 426.2 559.36 422.35 558.84 429.62 563.11 424.77 565.24 425.59 562.34 433.58 562.65 435.03 564.98 434.49 570.44 434.01 569.52 436.51 573.96 439.77 573.59 442.77 568.49 442.93 562.58 441.32 561.53 442.64 562.36 445.75 561.49 447.56 564.84 453.87 558.92 450.5 556.32 450.48 559.05 456.76 554.97 454.94 556.13 459.63 553.43 459.42 545.87 452.62 548.7 459.71 548.73 463.14 547.78 465.23 545.38 465.28 539.24 459.85 537.9 461.32 537.1 463.62 538.01 468.51 532.76 464.15 532.51 467.32 530.71 468.15 529.29 469.57 532.13 477.51 525.26 470.6 527.75 478.02 523.36 473.58 522.31 470.25 520.13 476.13 518.54 470.84 516.84 468.54 514.22 475.98 511.71 480.74 509.89 478.86 507.62 480.74 507 470.83 503.69 479.63 501.94 477.81 501.11 470.96 498.5 474.42 497.41 469.71 496.21 465.92 492.25 475.28 490.87 472.29 490.29 466.15 488.7 464.54 486.83 464.18 482.53 473 482.82 464.34 481.36 462.43 476.74 471.47 476.33 465.91 475.53 461.91 472.64 464.65 470.62 464.53 466.46 470.71 466.95 463.19 464.99 462.86 461.37 467.04 461.84 460.13 456.93 467.43 458.57 457.83 457.5 455.33 451.27 465.27 450.28 462.45 447.89 462.93 446.11 461.99 445.23 459.09 447.39 449.76 441.91 456.8 438.12 460.03 437.22 457.31 436.89 453.54 434.21 454.4 433.59 451.33 431.11 451.74 428.4 452.55 426.57 451.71 429.08 443.32 423.47 449.06 421.94 447.73 423.82 440.81 418.95 444.99 422.57 435.55 414.48 444.6 412.52 443.94 415.43 435.95 411.22 438.7 409.52 437.68 409.99 433.57 404.26 438.22 407.02 431.03 403.65 432.3 399.58 434.41 401.59 428.51 403.3 423.13 399.18 425.24 399.62 421.59 395.65 423.39 394.81 421.35 396.15 416.76 389.78 421.22 387.13 421.24 387.65 417.67 390.11 412.02 380.75 419.37 385.38 411.47 385.24 408.8 377.76 413.78 374.21 414.55 373.98 411.92 378.06 405.05 376.92 403.46 369.38 407.99 376.74 398.29 368.89 402.98 368.3 400.82 371.76 395.04 365.75 397.81 369.44 391.95 364.4 393.76 361.13 393.96 364.37 388.67 360.1 389.67 353.8 392.25 363.25 382.11 353.79 387.12 357.29 381.88 351.73 383.67 347.48 384.39 351.05 379.23 351.7 376.31 355.04 371.49 347.79 374.28 344.98 373.84 346.82 370.16 345.2 368.88 344.36 367.08 344.64 364.54 344.06 362.59 335.2 365.96 337.26 362.27 334.95 361.37 331.57 361.1 336.03 355.91 333.71 353.77 342.15 352.04 341.58 350.05 336.26 347.98 331.34 345.95 342.36 344.15 342.31 342.17 330.06 340.14 341.54 338.22 339.73 336.25 340.23 334.28 334.37 332.38 341.57 330.32 342.7 328.32 333.64 326.56 338.2 324.48 334.41 322.65 343.18 320.36 339.96 318.51 341.34 316.47 328.99 315.14 336.73 312.77 339.62 310.63 340.74 308.58 338.32 306.77 341.15 304.58 332.39 303.31 335.66 301.07 332.75 299.37 338.11 296.9 339.43 294.79 329.65 293.84 335.02 291.3 340.66 288.69 334.99 287.37 328.88 286.14 337.57 283.1 326.1 282.58 326.16 280.61 329.42 278.23 328.79 276.34 335.96 273.45 336.2 271.45 335.62 269.57 336.28 267.55 327.47 266.63 325.58 264.84 330.94 262.31 333.14 262.02 333.22 261.98 333.76 261.06 341.3 258.59"/>
          <polygon class="cls-4" points="357.38 357.25 355.55 359.14 357.59 361.38 360.32 363.69 354.98 365 354.93 366.97 356.72 369.15 356.43 371.08 351.11 372.45 355.69 374.93 350.86 376.38 355.95 378.88 353.88 380.63 355 382.71 354.3 384.61 357.88 386.91 350.64 388.19 356.96 390.74 354.88 392.51 355 394.48 353.39 396.31 354.73 398.38 354.7 400.33 350.64 401.97 349.87 403.88 352.71 406.06 353.55 408.08 355.47 410.17 347.71 411.59 354.96 414.05 348.11 415.56 355.78 418.01 353.73 419.84 349.16 421.52 352.88 423.7 347.59 425.37 350.31 427.48 347.33 429.29 354.3 431.6 347.37 433.23 353.5 435.48 350.78 437.31 347.85 439.14 347.86 441.11 354.19 443.3 354.24 445.25 351.71 447.12 354.37 449.15 352.79 451.06 346.86 452.86 348.7 454.87 353.28 456.93 351.7 458.85 352.96 460.83 347.05 462.69 348.05 464.66 354.25 466.69 353.15 468.63 349.86 470.56 350.62 472.52 351.07 474.48 353.83 476.43 351.57 478.39 346.26 480.38 351.87 482.3 346.6 484.31 349.55 486.24 353.92 488.14 353.47 490.09 353.61 492.05 353.96 494 348.02 496.11 346.91 498.12 353.68 497.72 350.95 502.87 354.75 499.19 356.77 499.21 358.2 500.73 359.92 501.56 360.88 504.9 363.12 504.23 365.77 501.69 366.8 505.59 369.05 504.28 369.9 510.74 372.08 510.15 374.32 508.61 376.75 503.31 378.42 506.72 380.32 509.2 382.28 505.96 384.23 506.77 386.5 510.54 388.45 509.39 390.71 510.51 392.93 510.95 393.78 505.32 396.15 506.62 397.97 505.7 400.81 507.66 402.22 505.57 404.22 503.46 406.66 500.7 400.24 499.15 406.02 496.83 400.81 495.16 405.42 492.94 399.88 491.27 403.53 489.12 404.73 487.1 404.2 485.17 397.86 483.48 398.94 481.46 399.89 479.45 397.51 477.57 400.16 475.5 401.85 473.48 401.23 471.53 405.47 469.44 397.17 467.69 398.68 465.68 402.99 463.63 397.09 461.77 401.34 459.73 400.76 457.77 398.91 455.82 398.21 453.86 398.73 451.88 397.8 449.9 400.06 447.93 399.74 445.96 398.72 443.98 397.33 441.99 398.18 440.03 398.13 438.05 401.52 436.14 402.76 434.2 398.16 432.1 399.97 430.17 404.83 428.38 402.58 426.32 404.34 424.43 398.38 422.16 404.26 420.5 403.35 418.48 403.47 416.51 405.33 414.68 400.76 412.35 399.11 410.22 399.97 408.29 403.4 406.63 405.74 404.91 399.6 402.22 402.14 400.52 400.12 398.24 403.37 396.69 401.24 394.34 406.27 393.18 403.38 390.64 404.13 388.75 405.04 386.91 403.29 384.42 411.18 384.45 405.74 380.87 410.46 380.32 408.84 377.7 407.5 378.76 408.75 372.63 405.19 376.79 402.98 377.11 403.48 369.77 400.74 371.57 397.26 375.47 396.67 371.21 394.95 370.16 394.4 365.77 391.5 368.03 387.8 372.52 388.07 365.84 386.05 365.6 384.87 363 381.62 366.25 379.01 367.66 377.88 364.93 375.7 365.13 374.45 362.72 371.71 364.54 370.06 363.25 367.24 365.28 366.43 361.62 364.54 361.02 361.79 362.82 362.11 355.98 359.81 356.66 357.38 357.25"/>
          <path class="cls-2" d="M469.32,423.08c-.54-.34-1.32-.09-1.9-.31s-.92-.96-1.53-1.07c.11-.51.4-.9.47-1.4s.24-1.05.26-1.56-.14-1.06-.17-1.57-.54-.98-.62-1.49.39-1.16.26-1.65-.85-.82-1.04-1.29-.16-1.06-.41-1.51-.78-.72-1.08-1.14-.78-.64-1.13-1.01-.59-.8-.99-1.13-.36-1.27-.8-1.55-1.01-.47-1.48-.68-1.12-.11-1.61-.26-1.02-.31-1.53-.39-1.07.39-1.59.37-.99.07-1.51.11-1.06-.31-1.58-.21-1.16-.24-1.66-.09-.93.57-1.42.78-1.03.32-1.49.57-.49,1.19-.93,1.48-1.06-.1-1.47.23c-.27-.42-.54-.56-.87-.95s-.78-.64-1.16-.97-.56-.95-.99-1.22c-.47-.29-1.08-.39-1.58-.6s-1.2.26-1.73.13-.99-.26-1.53-.3-1.03-.13-1.57-.09-1.18-.59-1.72-.47-1,.55-1.52.73-.85.74-1.34.99-.89.54-1.35.84-1.05.36-1.47.71-.95.57-1.33.97-.3,1.15-.64,1.59-1.4.34-1.7.81-.01,1.27-.25,1.75-.81.85-1,1.36.26,1.22.13,1.74-.56.98-.63,1.52-.24,1.08-.24,1.62.4,1.06.46,1.6.2,1.03.33,1.56-.23,1.21-.03,1.71.6.94.87,1.41.54.95.89,1.38,1.08.42,1.49.79.66.83,1.13,1.12,1,.42,1.51.63.99.42,1.53.54,1.04.45,1.6.49,1.37-.12,1.93-.17c-.13.53,0,1.36-.06,1.89s-.93,1.02-.93,1.56,0,1.14.07,1.67.38,1.07.51,1.6.18,1.12.38,1.62,1.03.7,1.3,1.17.5.9.85,1.32.29,1.21.7,1.58.84.76,1.3,1.05.89.71,1.37.92,1.09.25,1.6.38,1.16-.59,1.68-.54,1.02.76,1.54.74,1.11.11,1.64.01.87-.87,1.38-1.03.89-.49,1.37-.72,1.1-.11,1.56-.39.94-.81,1.36-1.13c.21.46.32,1.19.59,1.61s.79.64,1.12,1.02.46.93.84,1.26,1.05.21,1.47.48c.47.29.77.82,1.27,1.03s1.08.09,1.61.22,1.02.13,1.56.17,1.02.06,1.57.02,1.06.09,1.6-.03,1.03-.23,1.55-.41.9-.56,1.39-.81,1.39.24,1.85-.06.57-1.09,1-1.44,1.03-.49,1.42-.89.35-1.13.69-1.56,1.15-.52,1.44-.99-.1-1.31.14-1.79.86-.8,1.04-1.31.34-1.05.47-1.57-.07-1.11,0-1.65.8-1.05.8-1.59-.09-1.14-.15-1.67-.59-1.02-.72-1.55,0-1.15-.21-1.65-.86-.79-1.14-1.26-.34-1.07-.68-1.49-1.03-.47-1.44-.83-.51-1.08-.97-1.37Z"/>
        </g>
      </g>
    </g>
  </g>
</svg>